<svg fill="none" height="80" viewBox="0 0 73 80" width="73" xmlns="http://www.w3.org/2000/svg">
    <linearGradient id="a" gradientUnits="userSpaceOnUse" x1="-.000001" x2="64.6236" y1="24.4325" y2="27.0284">
        <stop offset="0" stop-color="#edc564"/>
        <stop offset="1" stop-color="#e6cd92"/>
    </linearGradient>
    <path d="m38.1199 34.4951c-.0983-1.6526-.301-3.0609-.7466-4.3381-.453-1.2982-1.1654-2.4786-2.2898-3.6724-.4672.192-.9528.3175-1.4592.3554-.4788.035-.8959-.3178-.9315-.788-.0357-.4702.3235-.8798.8023-.9148.6377-.0476 1.2643-.3382 1.8727-.7578.1451-.1.289-.2072.4317-.3202-.1529.0041-.3059.0088-.4587.0136-1.9206.0596-3.8113.1182-5.5404-.8806-1.0172-.5875-1.7992-.6199-2.4888-.2829-.4962.2425-.9834.6655-1.4882 1.2122.3026.127.5913.297.8494.502.5092.4046.9172.9543 1.1033 1.5915.0595.2038.0956.417.1044.6379.2643.1304.7359.1624 1.2175.1951.3375.0228.6785.046 1.0178.1033.0755.0128.1602.034.2534.0631 1.0899.3405 1.6577 1.5723 1.8719 3.0366.1607 1.0985.1372 2.3623-.0021 3.4037.0673-.0365.1319-.0765.1937-.1198.3504-.2453.6167-.6035.7637-1.05.1464-.4481.635-.6947 1.0912-.5509.4563.1438.7074.6237.561 1.0717-.1495.454-.3706.8598-.6515 1.2093l-.4379 2.3996c-.0202.1106-.0613.2124-.1186.302.5396-.0576 1.0489-.1977 1.5397-.4061.9999-.4245 1.9538-1.1355 2.9396-2.0154zm-.5693-31.02395c-.3004 0-.5439-.23917-.5439-.5342 0-.29502.2435-.53419.5439-.53419h1.4133v-1.868566c0-.295024.2435-.534194.5439-.534194s.544.23917.544.534194v1.868566h1.4133c.3004 0 .5439.23917.5439.53419 0 .29503-.2435.5342-.5439.5342h-1.4133v1.18336c1.2722.11466 2.4192.62685 3.2836 1.39641 1.0093.89858 1.6336 2.14331 1.6336 3.52112 0 .47206-.3896.85476-.8703.85476-.4806 0-.8702-.3827-.8702-.85476 0-.87949-.4035-1.67843-1.0557-2.2591-.5563-.49526-1.2932-.8349-2.121-.93939v1.28411c0 .29503-.2436.5342-.544.5342s-.5439-.23917-.5439-.5342v-1.28411c-.8278.10449-1.5647.44413-2.121.93939-.6522.58067-1.0557 1.37963-1.0557 2.2591 0 .47206-.3896.85476-.8703.85476-.4806 0-.8702-.3827-.8702-.85476 0-1.37781.6242-2.62254 1.6336-3.52112.8643-.76956 2.0114-1.28175 3.2836-1.39641v-1.18336zm1.871 6.67945c1.0161 0 1.9517.0792 2.6428.2072 1.0744.1989 1.739.6472 1.739 1.2977s-.6646 1.0989-1.739 1.2978c-.6911.1279-1.6267.2071-2.6428.2071s-1.9517-.0792-2.6428-.2071c-1.0745-.1989-1.739-.6473-1.739-1.2978s.6645-1.0988 1.739-1.2977c.6911-.128 1.6267-.2072 2.6428-.2072zm2.6412 1.5049c0-.1087-.0169-.0786-.0483 0 .0314.0786.0483.1087.0483 0zm-5.2825 0c0 .1087.017.0786.0484 0-.0314-.0786-.0484-.1087-.0484 0zm-9.6492-1.0609c-.3004 0-.5439-.2392-.5439-.5342s.2435-.53417.5439-.53417h1.4133v-1.86857c0-.29502.2436-.53419.544-.53419s.5439.23917.5439.53419v1.86857h1.4133c.3004 0 .5439.23917.5439.53417s-.2435.5342-.5439.5342h-1.4133v1.1834c1.2722.1146 2.4192.6268 3.2837 1.3964 1.0093.8986 1.6336 2.1433 1.6336 3.5211 0 .472-.3897.8547-.8703.8547-.4807 0-.8703-.3827-.8703-.8547 0-.8795-.4035-1.6784-1.0557-2.2591-.5563-.4953-1.2931-.8349-2.121-.9394v1.2841c0 .2951-.2435.5342-.5439.5342s-.544-.2391-.544-.5342v-1.2841c-.8278.1045-1.5647.4441-2.121.9394-.6522.5807-1.0556 1.3796-1.0556 2.2591 0 .472-.3897.8547-.8703.8547-.4807 0-.8703-.3827-.8703-.8547 0-1.3778.6243-2.6225 1.6336-3.5211.8644-.7696 2.0114-1.2818 3.2836-1.3964v-1.1834zm1.871 6.6795c1.0161 0 1.9517.0792 2.6428.2071 1.0745.1989 1.739.6473 1.739 1.2978s-.6645 1.0988-1.739 1.2977c-.6911.128-1.6267.2072-2.6428.2072s-1.9517-.0792-2.6428-.2072c-1.0744-.1989-1.739-.6472-1.739-1.2977s.6646-1.0989 1.739-1.2978c.6911-.1279 1.6267-.2071 2.6428-.2071zm2.6413 1.5049c0-.1087-.017-.0786-.0484 0 .0314.0785.0484.1087.0484 0zm-5.2825 0c0 .1087.0169.0785.0483 0-.0314-.0786-.0483-.1087-.0483 0zm21.3214-8.1844c-.3004 0-.5439-.2392-.5439-.5342s.2435-.53417.5439-.53417h1.4133v-1.86857c0-.29502.2435-.53419.5439-.53419s.5439.23917.5439.53419v1.86857h1.4133c.3004 0 .544.23917.544.53417s-.2436.5342-.544.5342h-1.4133v1.1834c1.2722.1146 2.4193.6268 3.2837 1.3964 1.0093.8986 1.6336 2.1433 1.6336 3.5211 0 .472-.3896.8547-.8703.8547-.4806 0-.8703-.3827-.8703-.8547 0-.8795-.4034-1.6784-1.0557-2.2591-.5563-.4953-1.2931-.8349-2.121-.9394v1.2841c0 .2951-.2435.5342-.5439.5342s-.5439-.2391-.5439-.5342v-1.2841c-.8279.1045-1.5647.4441-2.121.9394-.6522.5807-1.0557 1.3796-1.0557 2.2591 0 .472-.3897.8547-.8703.8547s-.8703-.3827-.8703-.8547c0-1.3778.6243-2.6225 1.6336-3.5211.8644-.7696 2.0115-1.2818 3.2837-1.3964v-1.1834zm1.871 6.6795c1.0161 0 1.9516.0792 2.6428.2071 1.0744.1989 1.739.6473 1.739 1.2978s-.6646 1.0988-1.739 1.2977c-.6912.128-1.6267.2072-2.6428.2072-1.0162 0-1.9517-.0792-2.6429-.2072-1.0744-.1989-1.739-.6472-1.739-1.2977s.6646-1.0989 1.739-1.2978c.6912-.1279 1.6267-.2071 2.6429-.2071zm2.6412 1.5049c0-.1087-.017-.0786-.0483 0 .0313.0785.0483.1087.0483 0zm-5.2825 0c0 .1087.017.0785.0484 0-.0314-.0786-.0484-.1087-.0484 0zm11.9177 36.6337c-.3004 0-.5439-.2392-.5439-.5342s.2435-.5342.5439-.5342h1.4133v-1.8685c0-.2951.2435-.5342.5439-.5342.3005 0 .544.2391.544.5342v1.8685h1.4133c.3004 0 .5439.2392.5439.5342s-.2435.5342-.5439.5342h-1.4133v4.1865c0 .2951-.2435.5342-.544.5342-.3004 0-.5439-.2391-.5439-.5342v-4.1865zm-57.964455-9.8871c-.240548.1752-.580179.1257-.758545-.1106-.1783661-.2362-.1279342-.5698.112614-.745l1.135516-.8283-1.135821-1.5017c-.1783663-.2363-.1279311-.5698.112617-.745.240549-.1752.580179-.1256.758544.1106l1.13525 1.501 1.1363-.8289c.24055-.1752.58018-.1257.75854.1106.17837.2362.12794.5697-.11261.7449l-1.13554.8284 1.62192 2.1445c.03364-.0702.07767-.137.13226-.1983.31542-.354.86338-.3899 1.22385-.0801.13231.1137.2429.3175.4222.6475.49232.906 1.70394 3.1358 2.6357 4.153.21213.2316.52839.5493.91302.9356 1.09084 1.0956 2.70224 2.7139 3.83304 4.2091.7478.9886 1.2827 1.946 1.3853 2.7587.022.0024.044.005.0659.0081.554.0759 1.0761.3601 1.4349.8345.3574.4725.4829 1.0444.397 1.5871-.0132.0836-.0315.1665-.0547.2482.3526.0958.7279.2687 1.1156.511.7553.472 1.6164 1.2292 2.4529 2.1796.0456-.0106.0916-.02.1378-.0283.5957-.107 1.207-.0279 1.8257.3188.1034.058.2081.0765.3132.0652.1497-.016.3205-.0852.5043-.1897 1.2878-.7323 1.6004-1.4657 1.6684-2.1204-.4438.0452-.8566-.2501-.942-.6885-.4506-2.3105-.6705-4.1475-.2749-5.7006.422-1.6566 1.4888-2.9071 3.6051-3.9031.2353-.1108 1.0779-.7105 1.5128-1.7724.2242-.5477.3237-1.2183.1412-2.0056-.7872-2.7649-.6532-5.8471.2157-9.3435.1677-.6748.3126-1.1464.622-1.4921l.0017.0015c.4334-.4832.9536-.6065 1.7613-.3995.2043.0524.4039.0942.5993.126-.0898-.1635-.126-.3568-.09-.5538l.1501-.8223c-.342.0896-.705.1376-1.0839.1401-.0878.0002-.1771-.0126-.2652-.04-.4562-.142-.7089-.6204-.5643-1.0684.0622-.192.1202-.4414.1714-.7334.1681-.9591.2174-2.2244.0602-3.2987-.1261-.8621-.3445-1.5511-.6752-1.6544-.0038-.0012-.0035.0002-.0223-.003-.2597-.0439-.5518-.0637-.8409-.0833-.8733-.0591-1.7269-.1171-2.3625-.684-.3638.0191-.7101.0701-1.0291.2019-.4179.1726-.8396.502-1.2812 1.113-.0353.0553-.0777.1074-.1271.1552-.3417.3301-.8912.3256-1.2273-.01-.5488-.5465-.7509-1.6107-.601-2.6924.1269-.9162.5001-1.896 1.1176-2.5925 1.0204-1.2908 1.9647-2.3243 3.0645-2.8617 1.2237-.598 2.5353-.5846 4.1411.343 1.2976.7496 2.9403.6986 4.6089.6468.8924-.0276 1.7915-.0555 2.6972.0261.1992.0105.3958.088.5516.2336.3474.3245.3611.8642.0306 1.2053-.6172.6355-1.2664 1.2577-1.9589 1.7688 1.1611 1.2934 1.9169 2.5873 2.4118 4.0056.0436.125.0851.2508.1246.3776.0396-.1268.0811-.2526.1247-.3776.4948-1.4183 1.2507-2.7122 2.4117-4.0056-.6924-.5111-1.3417-1.1333-1.9589-1.7688-.3304-.3411-.3167-.8808.0306-1.2053.1559-.1456.3524-.2231.5516-.2336.9058-.0816 1.8049-.0537 2.6972-.0261 1.6687.0518 3.3114.1028 4.609-.6468 1.6057-.9276 2.9173-.941 4.141-.343 1.0998.5374 2.0442 1.5709 3.0645 2.8617.6176.6965.9907 1.6763 1.1177 2.5925.1499 1.0817-.0523 2.1459-.601 2.6924-.3361.3356-.8856.3401-1.2273.01-.0495-.0478-.0918-.0999-.1271-.1552-.4417-.611-.8633-.9404-1.2812-1.113-.319-.1318-.6653-.1828-1.0292-.2019-.6356.5669-1.4891.6249-2.3624.684-.2891.0196-.5812.0394-.8409.0833-.0188.0032-.0185.0018-.0223.003-.3307.1033-.5491.7923-.6752 1.6544-.1572 1.0743-.108 2.3396.0602 3.2987.0512.292.1092.5414.1714.7334.1446.448-.1081.9264-.5643 1.0684-.0882.0274-.1775.0402-.2652.0399-.3789-.0025-.742-.0504-1.0839-.1401l.1501.8224c.0359.1967-.0001.3897-.0896.553.1938-.0317.3919-.0733.5946-.1252.7726-.198 1.2823-.0937 1.7045.3388.0202.0186.0398.0383.0585.0592.3094.3456.4543.8173.6219 1.4921.9601 3.8629.9944 7.2203-.1205 10.2022-.1482.7668.1225 1.3677.4988 1.8123.5417.64 1.2901 1.0101 1.4958 1.107 2.1162.996 3.183 2.2465 3.605 3.9031.3957 1.5531.1757 3.3901-.2748 5.7006-.0854.4384-.4982.7337-.942.6885.0679.6547.3806 1.3881 1.6683 2.1204.1839.1045.3546.1737.5044.1897.1051.0113.2097-.0072.3131-.0652.1759-.0985.3884-.1624.6275-.1957-.0353-.1438-.0667-.2902-.0938-.439-.084-.46-.1287-.9294-.1287-1.3991 0-.9627.1755-1.8757.4848-2.6801.3293-.8566.8139-1.5924 1.4049-2.1396.3492-.3226.8987-.3062 1.2273.0368.3285.3429.3118.8826-.0374 1.2052-.3996.3699-.734.8852-.9698 1.4986-.135.3509-.2365.733-.2985 1.1381l5.3073-.0423c-.059-.368-.1506-.7165-.2703-1.0392-.2231-.6018-.5408-1.1128-.9226-1.4897-.3379-.3338-.3364-.8734.0034-1.2053s.8893-.3304 1.2273.0033c.5579.551 1.0139 1.2751 1.3237 2.1108.2915.7862.4562 1.6719.4562 2.6034 0 .9758-.1805 1.9001-.4982 2.7119.431.0303.7812.3722.8038.8068.1087 1.959-2.1205 2.6938-4.0146 3.3181-.6263.2064-1.2064.3977-1.5416.5885-.8059.459-1.794.819-2.8609.7212-1.0896-.0998-2.2041-.6589-3.1926-2.0366-.2913-.4061-.4895-.6501-.7779-.8347-.3454-.221-.8714-.4257-1.8068-.7437-1.1964-.4068-2.1576-1.1922-2.7693-2.2331-.3832-.6519-.6272-1.3994-.7033-2.2111-.3351.111-.7196.0127-.9541-.2738-.1015-.1239-.1618-.2672-.183-.4141-.2314-1.5724-.5713-2.7679-1.0177-3.6154-.0996.2628-.224.5208-.3687.7653-.1605.2713-.3481.5303-.5572.7655.023.1391.051.3115.0782.4794.2844 1.7524.4415 2.72 2.4837 4.2101.1141.0829.2088.1948.272.3305.199.4278.0072.9331-.4284 1.1285-.932.4179-1.838.6073-2.694.5708.6181.7173 1.2397 1.1703 2.7831 1.6022 1.6265.4552 2.6907 1.2813 3.3051 2.3748.6606 1.176.7601 2.6158.4546 4.2007-.0481.2496-.1369.4693-.2635.64-.1554.2096-.3565.3493-.6038.4071-.2635.0615-.527.0218-.784-.1341-.1732-.105-.3378-.2687-.4853-.4997-.1055-.165-.1421-.2248-.1823-.2901-.4699-.7649-1.2696-2.0661-2.3964-2.1005-.2064 1.2475-.8541 2.588-1.9813 4.4108-.2478.402-.7805.5305-1.1898.2871s-.5402-.7666-.2924-1.1685c1.3633-2.2048 1.9214-3.5345 1.7747-4.821-.145-1.2716-.9842-2.6865-2.4191-4.9545.7401 3.5294-.1527 6.6003-1.7072 11.9457-.1956.6727-.2836.973-.3453 1.1862-.1235.4326-.5653.6933-1.0066.6062-.4412.0871-.883-.1736-1.0065-.6062-.0617-.2132-.1497-.5135-.3453-1.1862-1.5546-5.3454-2.4473-8.4163-1.7073-11.9457-1.4348 2.268-2.274 3.6829-2.419 4.9545-.1468 1.2865.4113 2.6162 1.7747 4.821.2478.4019.1169.9251-.2924 1.1685s-.942.1149-1.1899-.2871c-1.1271-1.8228-1.7748-3.1633-1.9812-4.4108-1.1269.0344-1.9265 1.3356-2.3965 2.1005-.0401.0653-.0768.1251-.1822.2901-.1476.231-.3121.3947-.4853.4997-.257.1559-.5206.1956-.784.1341-.2473-.0578-.4485-.1975-.6039-.4071-.1265-.1707-.2153-.3904-.2634-.64-.3056-1.5849-.206-3.0247.4546-4.2007.6143-1.0935 1.6786-1.9196 3.3051-2.3748 1.5434-.4319 2.165-.8849 2.783-1.6022-.8559.0365-1.7619-.1529-2.694-.5708-.4356-.1954-.6273-.7007-.4283-1.1285.0631-.1357.1581-.2473.2722-.3302 2.051-1.4966 2.2232-2.5536 2.5151-4.3425.0388-.2381.0792-.4859.1021-.6204-.1839-.2632-.3492-.5447-.4886-.8332-.0948-.1961-.1787-.3975-.2496-.6008-.5734.8009-1.0028 2.0419-1.2604 3.7918-.0211.1469-.082.2901-.1835.414-.2345.2865-.619.3848-.9541.2738-.0761.8117-.3201 1.5592-.7033 2.2111-.6118 1.0409-1.5729 1.8263-2.7694 2.2331-.9353.318-1.4614.5227-1.8067.7438-.2884.1845-.4867.4286-.7779.8346-.2037.2838-.5062.5913-.8752.8913.0352.1474.0628.2899.0823.4268.1278-.0002.2553.0084.3814.0257.6673.0916 1.2974.4243 1.7435.978.0381.0414.0713.0856.0997.1318.4096.5777.5514 1.2653.4479 1.919-.1068.675-.4754 1.3131-1.0802 1.7543l-.0016.0011c-.6047.4406-1.3315.6026-2.0178.5085-.6674-.0915-1.2975-.4243-1.7437-.9781-.038-.0414-.0712-.0855-.0996-.1317-.4096-.5778-.5514-1.2653-.4479-1.919.0196-.124.0482-.2467.0853-.3673-.3345-.1511-.6906-.3644-1.0568-.6318-.0262-.0191-.051-.0395-.0744-.0608-.7912.095-1.5708-.0004-2.2448-.3843-.8117-.4622-1.4417-.9617-1.8715-1.6475-.4362-.696-.6382-1.5359-.5761-2.6549.0131-.2518.1361-.4724.3211-.6194-.2444-.4757-.4315-.9227-.5593-1.3292-.1611-.5127-.2317-.982-.2106-1.3933-.0716-.0028-.1429-.0091-.2136-.0188-.5269-.0723-1.0249-.3329-1.381-.7663-.0406-.0436-.0757-.0903-.1054-.1393-.3178-.4582-.4272-1.0003-.3455-1.516.0034-.0218.0073-.0436.0114-.0654-.7632-.3312-1.5428-1.1116-2.2914-2.1014-1.13382-1.4991-2.2451-3.4801-2.9974-4.8212-.28676-.5112-.52257-.9315-.64378-1.1278-.71477-1.1574-2.54544-2.9476-3.28943-3.6751-.2711-.2651-.43863-.4288-.51115-.5863-.19712-.4296-.0023-.9348.43515-1.1284.09621-.0426.19612-.0665.29559-.0734l-1.64106-2.1698zm11.395055 11.3623c-.7593-1.004-1.7812-2.0983-2.68962-3.0298.64632 1.1247 1.41872 2.4033 2.17672 3.4056.7528.9953 1.403 1.7309 1.6 1.5872.1961-.1431-.3339-.9672-1.0871-1.963zm2.6071 3.4411c-.1151-.0157-.2371.0116-.3388.0857-.102.0744-.1641.1804-.1817.2912-.0168.1068.0076.2192.0773.3115.0686.0906.1704.1454.2792.1603.1151.0158.2372-.0115.339-.0858.102-.0744.1639-.1802.1814-.2911.0169-.1069-.0075-.2193-.0774-.3117-.0685-.0906-.1702-.1451-.279-.1601zm4.002 4.4911c-.6384-.6884-1.2635-1.2269-1.8028-1.564-.4035-.2521-.6564-.3963-.6774-.381-.0662.0483-.006.3764.1595.9033.1879.5978.5449 1.3197 1.0638 2.1116.4118-.4138.8641-.775 1.2569-1.0699zm4.8585 6.5798c-.254-.0348-.5233.0254-.7476.1888-.2246.1639-.3616.399-.4007.6462-.0361.228.0108.4671.1482.6699.0213.025.0411.0512.0594.0785.1568.1863.3757.2987.6081.3306.2387.0327.4909-.0185.7065-.1604.0259-.0213.0532-.0411.0816-.0594.2008-.1618.3235-.3831.3602-.6152.0385-.2432-.0174-.499-.1769-.71-.1582-.2091-.3908-.335-.6388-.369zm39.7444-9.0628-5.4535.0435c.0061.3461.0383.6721.0936.9748.0588.3222.1435.6304.2507.9198.6464.1699 1.3146.4336 1.9143.7533.528.2815 1.0184.6083 1.4053.952.0424.0376.0836.0756.1237.1139.4092-.2726.7711-.696 1.054-1.225l.0014.0007c.3734-.6996.5986-1.5741.6105-2.533zm-42.5962-14.9844c.0166-.0122.0336-.0238.051-.0348.4206-.288.8538-.6139 1.3077-.9735.3736-.295.92-.2367 1.2204.1302.3004.367.2411.9036-.1326 1.1986-.4527.3587-.8896.6883-1.3184.9857-.4298.566-.7451 1.2859-1.0182 1.9095-.0681.1555-.134.306-.1999.4504.3129.0265.6222.0316.9253.0153 1.0312-.0554 1.9794-.3639 2.7326-.9155.7394-.5416 1.2958-1.3243 1.5609-2.339.1438-.5501.2043-1.1746.1654-1.8733-.0244-.4702.3439-.8708.8227-.8947.4788-.024.8867.3377.9111.8079.0483.8673-.0319 1.662-.2198 2.3808-.3716 1.422-1.156 2.5224-2.2 3.2871-1.0303.7546-2.3083 1.1756-3.6846 1.2494-.8262.0444-1.692-.039-2.5627-.2533-.1743-.0322-.3401-.117-.4709-.2535-.3285-.343-.3118-.8826.0374-1.2053.1314-.1214.3011-.4863.498-.933-.3252.111-.655.1997-.9929.2648-1.7447.3358-3.6182.0273-6.0349-1.1163-.1564-.0666-.2946-.1789-.3914-.3318-.2535-.4001-.1287-.9263.2787-1.1752.2389-.1457.564-.5182.9477-.9578.0775-.0888.1571-.18.2389-.2727-.0889 0-.1751-.0033-.2582-.0102-.9298-.0775-1.861-.3892-2.7243-.8293-.96041-.4898-1.84314-1.1427-2.54181-1.8049-.13753-.1139-.24042-.2705-.28509-.4556-.11077-.4592.17841-.9196.64591-1.0284.32697-.0762.81333-.3621 1.38737-.6996.09299-.0547.1879-.1105.28483-.1671-.02359-.0079-.04691-.016-.06985-.0244-.87781-.3211-1.68934-.8657-2.39767-1.5147-.80741-.7398-1.49089-1.623-1.98598-2.4613-.0792-.134-.12156-.2912-.11559-.4574.01688-.4702.41871-.838.89748-.8214.34699.0133.92268-.1122 1.60432-.2607.85295-.1859 1.84808-.4028 2.91818-.4759l-.2998-.201c-.025-.0167-.0493-.0347-.0728-.0543-.90228-.7498-1.45372-1.8143-1.74818-2.9718-.33569-1.3196-.33678-2.7779-.14706-3.9993.01493-.1764.0856-.3498.21381-.4928.31729-.354.86677-.3884 1.22724-.0768.51639.4465 2.04229 1.2114 3.63279 1.9898-.1848-.488-.3051-1.0072-.3715-1.5388-.1719-1.3748.0172-2.8472.3681-4.045l.0023.0006c.0437-.1514.1306-.2926.2595-.4046.3586-.3116.9066-.2787 1.2238.0734 1.1781 1.3027 2.7252 2.6974 4.2723 4.092 2.6745 2.4109 5.3491 4.8218 6.4337 7.0564.3482.7174.4723 1.3052.4322 1.8995-.0386.571-.2263 1.0875-.5091 1.7063-.5805 1.2703-.8654 1.9917-.7269 2.3681.1364.3704.8026.7095 2.1352 1.2476.4431.1788.6547.6766.4726 1.1118-.1821.4351-.689.6429-1.1321.4641-1.8146-.7327-2.7581-1.2933-3.1075-2.2426-.3471-.9434.0063-1.9622.7745-3.6435.2038-.446.3379-.7985.3595-1.1186.02-.2968-.0575-.6224-.269-1.0582-.9419-1.9406-3.4907-4.2381-6.0393-6.5356-1.1102-1.0007-2.2203-2.0014-3.2208-2.9946-.0676.6011-.0763 1.2216-.002 1.8159.1048.8387.3748 1.6141.8813 2.1735l3.7216 3.2154c.3605.3116.3955.8512.0782 1.2052-.3173.3541-.8668.3884-1.2273.0768l-1.4547-1.2568c-.658-.4478-2.0949-1.1492-3.5698-1.869-1.1594-.5659-2.341-1.1426-3.2507-1.6514-.0069.6716.0598 1.3664.2253 2.0172.2094.8231.5759 1.5626 1.1521 2.0568l3.3559 2.2491c.2063.0941.4126.1993.6182.317.1948.1108.3293.2845.3924.4799.1451.2705.1369.6088-.0508.879-.2704.389-.8107.4892-1.2068.2237l-.5962-.3996c-2.0043-.8477-4.17778-.3742-5.77442-.0263-.17425.038-.34259.0747-.50516.1086.27586.3441.58268.6773.91405.9809.55746.5108 1.17652.9322 1.81973 1.1675.7059.2583 2.15.1764 3.5135.043.1036-.0145.2084-.0272.3146-.0376.0321-.0031.0641-.0044.0956-.0041.2744-.0288.5419-.0586.7955-.0869.4677-.0521.893-.0995 1.2001-.1249.4788-.0387.8989.311.9383.7812s-.3168.8828-.7955.9215c-.355.0295-.7349.0718-1.1525.1183-.382.0425-.7924.0882-1.2146.1291-1.4252.2171-2.6469.9354-3.6244 1.5101-.167.0982-.328.1929-.48407.2819.36947.2682.76787.517 1.18247.7285.6732.3433 1.3841.585 2.0716.6424.9868.0823 3.0169-.7251 4.5215-1.3234.3806-.1514.7266-.289 1.1238-.4341.4487-.1641.948.0601 1.1151.5008s-.0613.931-.51 1.0951c-.2255.0824-.6307.2436-1.0762.4207-.3237.1287-.6694.2662-1.0264.4033-.0356.0224-.0733.0426-.113.0602-1.253.554-2.1397 1.5699-2.8393 2.3715-.0916.1049-.1805.2068-.2676.3049 1.5009.5684 2.7115.7041 3.8154.4916.9711-.1869 1.9012-.6492 2.9006-1.3277zm14.2351 13.2642c-.2617 1.5577-.5353 2.6734-1.8518 3.9561.2591.0257.5092.022.7492-.011.6011-.0826 1.1549-.357 1.6396-.8208.6814-1.0586.7379-1.3876.4316-3.3757-.1998.0774-.4125.15-.6402.2185-.106.0315-.2177.0424-.3284.0329zm-2.6979 8.6313c-.2748.0975-.5781.1929-.9165.2876-1.1433.3199-1.8676.8584-2.2581 1.5534-.2416.4302-.3689.9339-.3991 1.4947.6977-.9221 1.6908-1.8287 3.1316-1.8133.0794-.4999.2276-.9979.4421-1.5224zm6.137-5.081c-1.6503 4.1026-.996 6.9505.5931 12.4509 1.589-5.5006 2.2434-8.3482.593-12.4508l-.0321.0268c-.3326.2764-.8153.2646-1.1331-.0094zm-4.2146-7.3796c.0482.2984.1612.6271.3172.9499.1968.407.453.7845.7288 1.0681.4746-.1775.8359-.3812 1.1307-.6274.2684-.2243.4983-.4996.7215-.8351-.1251-.0717-.2487-.1438-.3709-.2161-.9634-.3779-1.8154-.5078-2.5273-.3394zm4.4255 1.3738c-.2992.4654-.6176.8618-1.0092 1.2106.0007.0135.0011.027.0011.0406.004.6885.1112 1.2399.3887 1.7544.2143.3974.5387.7933 1.0015 1.2303.4629-.437.7873-.8329 1.0016-1.2303.2775-.5145.3847-1.0659.3886-1.7544.0001-.0136.0005-.0271.0012-.0406-.4058-.3614-.7329-.7739-1.0416-1.2613l-.0078.004c-.2174.1157-.4818.1384-.7241.0467zm-12.1133 3.2343c.0293 1.2382.0527 2.7686-2.5456 4.2461-.3828.2177-.7789.366-1.191.4101-.4569.0488-.9095-.0299-1.3535-.2788-.2325-.1304-.4511-.1621-.6562-.1253-.2563.046-.5235.1884-.7907.385-.55.4047-1.3.9841-1.7368 1.6135-.2844.4098-.4171.8554-.155 1.2741.0728.0449.1484.0895.2266.1341.517.2944 1.2687.2167 2.017-.0368 1.0889-.3689 2.0944-1.0762 2.4937-1.6326.4148-.5782.7158-.9378 1.2538-1.282.4809-.3078 1.1084-.5571 2.1875-.924.7933-.2698 1.4288-.7874 1.8311-1.4719.3781-.6434.555-1.4439.4713-2.3384-.2748-.088-.5463-.1349-.82-.1437-.3867-.0125-.7934.0472-1.2322.1706zm3.5951-10.4113c-.683 1.3365-1.8547 2.1393-2.2065 2.3049-1.5873.7471-2.3749 1.6354-2.6668 2.7813-.2628 1.0316-.1678 2.3221.1024 3.9157.8691-.324 1.6696-.4896 2.4624-.464.7404.024 1.4467.2103 2.1607.5839.488-2.1366 1.313-3.5409 2.4111-4.3285.445-.3193.9239-.5357 1.4332-.6571-1.5926-1.2816-2.8125-2.6541-3.6965-4.1362zm7.3889 4.6096c.039.0194.0759.0415.1107.0658.4234.2511.8662.4989 1.3291.7436.6373-.3367 1.2376-.6793 1.802-1.0284.0335-.0244.0691-.0467.1068-.0666 2.9741-1.859 4.9354-3.9022 6.0298-6.2119.1105-.2333.2122-.4698.3055-.7093.0641-.2681.1585-.5469.2872-.8364.7422-2.4823.6362-5.294-.1651-8.5182-.1041-.4187-.1781-.6937-.2413-.7642l-.0164-.019c-.0152-.0058.0608.1247-.006.1418-1.7985.4609-3.3309.2882-4.7589-.3181-1.1514-.489-2.2081-1.2554-3.2741-2.1927-1.066.9373-2.1227 1.7037-3.2742 2.1927-1.428.6063-2.9604.779-4.7589.3181-.0779-.0199.0388-.1946-.0224-.1262l-.0017.0019.0017.0015c-.0631.0705-.1371.3454-.2412.7642-.9736 3.9173-.9554 7.2261.3615 10.0739 1.1206 2.4236 3.1991 4.5542 6.4259 6.4875zm7.0145-18.6769c-.0575-.0898-.0987-.1917-.1189-.3025l-.4379-2.3996c-.281-.3495-.502-.7553-.6515-1.2093-.1464-.448.1047-.9279.5609-1.0717.4563-.1438.9449.1028 1.0913.5509.147.4465.4133.8047.7637 1.05.0618.0433.1264.0833.1936.1198-.1393-1.0414-.1627-2.3052-.002-3.4037.2142-1.4643.782-2.6961 1.8719-3.0366.0931-.0291.1778-.0503.2534-.0631.3392-.0573.6802-.0805 1.0177-.1033.4817-.0327.9533-.0647 1.2176-.1951.0088-.2209.0448-.4341.1044-.6379.186-.6372.5941-1.1869 1.1033-1.5915.258-.205.5467-.375.8493-.502-.5047-.5467-.9919-.9697-1.4881-1.2122-.6896-.337-1.4717-.3046-2.4888.2829-1.7291.9988-3.6199.9402-5.5405.8806-.1528-.0048-.3057-.0095-.4586-.0136.1427.113.2866.2202.4316.3202.6085.4196 1.2351.7102 1.8728.7578.4787.035.8379.4446.8023.9148-.0357.4702-.4527.823-.9315.788-.5065-.0379-.992-.1634-1.4592-.3554-1.1245 1.1938-1.8369 2.3742-2.2898 3.6724-.446 1.2781-.6487 2.6875-.7468 4.3418.9843.8782 1.9369 1.5878 2.9354 2.0117.4923.209 1.003.3494 1.5444.4066zm3.1544 14.3202c-.8261 1.2936-1.9134 2.5033-3.2851 3.6418.5392.1445 1.0373.4073 1.4941.7948 1.0003.8485 1.7311 2.3012 2.1891 4.4284.7115-.371 1.4154-.5561 2.1533-.58.7928-.0256 1.5933.14 2.4623.464.2703-1.5936.3652-2.8841.1024-3.9157-.2919-1.1459-1.0794-2.0342-2.6667-2.7813-.2816-.1325-1.3074-.6408-2.0806-1.5544-.1315-.1554-.2558-.3212-.3688-.4976zm-6.0244 5.5915c-.248.1529-.5022.3046-.7626.4549.2355.3626.4764.6571.7605.8945.3181.2658.7139.4819 1.2458.6692.3033-.1985.5857-.524.8058-.896.2739-.4628.4353-.9653.4082-1.3581-.6621-.2343-1.4825-.1448-2.4577.2355zm-15.7888-30.4135c-.1004-.1732-.2429-.3306-.4095-.463-.2595-.2061-.5599-.342-.8413-.3774-.0403-.005-.0801-.0078-.1192-.0083-.2876.4163-.4696.9641-.5431 1.4948-.0059.0421-.0111.0837-.0157.1248.2823-.2087.5685-.3668.859-.4868.3619-.1496.7165-.2353 1.0698-.2841zm31.372 20.9026c.0173.011.0343.0226.051.0348.9994.6786 1.9295 1.1408 2.9006 1.3277 1.1039.2125 2.3144.0768 3.8154-.4916-.0872-.0981-.1761-.2-.2677-.3049-.6996-.8016-1.5862-1.8175-2.8392-2.3715-.0397-.0176-.0774-.0378-.113-.0602-.3571-.1371-.7028-.2746-1.0265-.4033-.4454-.1771-.8506-.3383-1.0761-.4207-.4488-.1641-.6771-.6544-.51-1.0951s.6663-.6649 1.1151-.5008c.3972.1451.7431.2827 1.1237.4341 1.5046.5983 3.5348 1.4057 4.5216 1.3234.6875-.0574 1.3983-.2991 2.0715-.6424.4147-.2115.813-.4603 1.1825-.7285-.156-.089-.317-.1837-.484-.2819-.9775-.5747-2.1992-1.293-3.6244-1.5101-.4222-.0409-.8327-.0866-1.2146-.1291-.4177-.0465-.7975-.0888-1.1525-.1183-.4788-.0387-.8349-.4513-.7955-.9215s.4595-.8199.9383-.7812c.307.0254.7323.0728 1.2001.1249.2536.0283.5211.0581.7954.0869.0316-.0003.0635.001.0957.0041.1062.0104.2109.0231.3145.0376 1.3636.1334 2.8077.2153 3.5136-.043.6432-.2353 1.2622-.6567 1.8197-1.1675.3314-.3036.6382-.6368.914-.9809-.1625-.0339-.3309-.0706-.5051-.1086-1.5967-.3479-3.7701-.8214-5.7744.0263l-.5962.3996c-.3961.2655-.9365.1653-1.2068-.2237-.1877-.2702-.1959-.6085-.0508-.879.0631-.1954.1976-.3691.3923-.4799.2057-.1177.4119-.2229.6183-.317l3.3559-2.2491c.5762-.4942.9427-1.2337 1.1521-2.0568.1655-.6508.2321-1.3456.2253-2.0172-.9098.5088-2.0914 1.0855-3.2507 1.6514-1.475.7198-2.9119 1.4212-3.5698 1.869l-1.4548 1.2568c-.3604.3116-.9099.2773-1.2272-.0768-.3173-.354-.2823-.8936.0782-1.2052l3.7216-3.2154c.5065-.5594.7764-1.3348.8813-2.1735.0743-.5943.0655-1.2148-.0021-1.8159-1.0004.9932-2.1106 1.9939-3.2207 2.9946-2.5487 2.2975-5.0974 4.595-6.0393 6.5356-.2116.4358-.289.7614-.269 1.0582.0216.3201.1556.6726.3594 1.1186.7683 1.6813 1.1217 2.7001.7745 3.6435-.3493.9493-1.2929 1.5099-3.1075 2.2426-.443.1788-.9499-.029-1.132-.4641-.1821-.4352.0295-.933.4726-1.1118 1.3326-.5381 1.9988-.8772 2.1351-1.2476.1385-.3764-.1463-1.0978-.7268-2.3681-.2828-.6188-.4706-1.1353-.5091-1.7063-.0401-.5943.0839-1.1821.4322-1.8995 1.0846-2.2346 3.7591-4.6455 6.4337-7.0564 1.547-1.3946 3.0942-2.7893 4.2722-4.092.3173-.3521.8653-.385 1.2239-.0734.1289.112.2158.2532.2595.4046l.0023-.0006c.3509 1.1978.5399 2.6702.3681 4.045-.0664.5316-.1867 1.0508-.3715 1.5388 1.5905-.7784 3.1164-1.5433 3.6328-1.9898.3604-.3116.9099-.2772 1.2272.0768.1282.143.1989.3164.2138.4928.1897 1.2214.1886 2.6797-.1471 3.9993-.2944 1.1575-.8459 2.222-1.7481 2.9718-.0236.0196-.0479.0376-.0728.0543l-.2998.201c1.0701.0732 2.0652.29 2.9182.4759.6816.1485 1.2573.274 1.6043.2607.4787-.0166.8806.3512.8975.8214.0059.1662-.0371.323-.1163.457-.4951.8383-1.1779 1.7219-1.9853 2.4617-.7083.649-1.5199 1.1936-2.3977 1.5147-.0229.0084-.0463.0165-.0698.0244.0969.0566.1918.1124.2848.1671.574.3375 1.0604.6234 1.3874.6996.4675.1088.7566.5692.6459 1.0284-.0447.1851-.1476.3417-.2851.4556-.6987.6622-1.5814 1.3151-2.5419 1.8049-.8632.4401-1.7945.7518-2.7243.8293-.083.0069-.1692.0102-.2581.0102.0818.0927.1614.1839.2389.2727.3836.4396.7087.8121.9476.9578.4074.2489.5322.7751.2788 1.1752-.0969.1529-.235.2652-.3914.3318-2.4168 1.1436-4.2902 1.4521-6.0349 1.1163-.3379-.0651-.6677-.1538-.9929-.2648.1969.4467.3666.8116.4979.933.3492.3227.366.8623.0374 1.2053-.1308.1365-.2966.2213-.4708.2535-.8708.2143-1.7365.2977-2.5628.2533-1.3762-.0738-2.6542-.4948-3.6845-1.2494-1.044-.7647-1.8285-1.8651-2.2001-3.2871-.1878-.7188-.268-1.5135-.2197-2.3808.0244-.4702.4323-.8319.9111-.8079.4787.0239.8471.4245.8227.8947-.0389.6987.0216 1.3232.1653 1.8733.2652 1.0147.8216 1.7974 1.561 2.339.7532.5516 1.7014.8601 2.7326.9155.303.0163.6123.0112.9253-.0153-.0659-.1444-.1318-.2949-.1999-.4504-.2731-.6236-.5884-1.3435-1.0182-1.9095-.4288-.2974-.8658-.627-1.3185-.9857-.3736-.295-.433-.8316-.1326-1.1986.3004-.3669.8469-.4252 1.2205-.1302.4539.3596.887.6855 1.3077.9735zm-14.7211 16.4233c.4846.4638 1.0385.7382 1.6396.8208.2378.0327.4856.0366.7422.0117-1.3322-1.2841-1.5725-2.3604-1.8351-3.9547-.1398.0138-.279-.0063-.4062-.0558-.2022-.0623-.3924-.1281-.5722-.1977-.3062 1.9882-.2497 2.3171.4317 3.3757zm3.6769 7.0294c1.4408-.0154 2.4339.8912 3.1317 1.8133-.0302-.5608-.1575-1.0645-.3992-1.4947-.3904-.695-1.1148-1.2335-2.258-1.5534-.3385-.0947-.6418-.1901-.9165-.2876.2145.5246.3626 1.0225.442 1.5224zm14.4832-3.2418c-.0667-.0858-.1618-.1826-.2785-.2863-.2798-.2485-.655-.4959-1.0722-.7183-1.0767-.5739-2.3153-.9775-2.719-.7511-.4441.2489-.8966.3276-1.3535.2788-.4121-.0441-.8082-.1924-1.191-.4101-2.5983-1.4775-2.5749-3.0079-2.5456-4.2461-.4388-.1234-.8456-.1831-1.2322-.1706-.2737.0088-.5452.0557-.82.1437-.0838.8945.0931 1.695.4712 2.3384.4024.6845 1.0379 1.2021 1.8312 1.4719 1.0791.3669 1.7066.6162 2.1875.9239.5379.3443.839.7039 1.2538 1.2821.6492.9048 1.3116 1.2657 1.928 1.3221.6389.0586 1.2861-.1886 1.8343-.5008.4458-.2539 1.0491-.4605 1.706-.6776zm-7.1295-41.9622c-.0391.0005-.0789.0033-.1192.0083-.2815.0354-.5819.1713-.8414.3774-.1666.1324-.3091.2898-.4095.463.3534.0488.7079.1345 1.0699.2841.2905.12.5767.2781.859.4868-.0046-.0411-.0099-.0827-.0157-.1248-.0735-.5307-.2556-1.0785-.5431-1.4948z" fill="url(#a)"/>
</svg>
