<svg width="413" height="44" viewBox="0 0 413 44" fill="none" xmlns="http://www.w3.org/2000/svg">
<path d="M43.8704 33H32.9033V44H43.8704V33Z" fill="url(#paint0_linear_2775_83706)"/>
<path d="M10.9671 25.9722C10.9671 22.9778 11.9419 22 14.9274 22H21.9342V11H10.9671V17.9667C10.9671 20.9611 9.99223 22 6.94582 22H0V44H21.9342V33H11.7591C11.3326 33 10.9671 32.6333 10.9671 32.2056V25.9722Z" fill="url(#paint1_radial_2775_83706)"/>
<path d="M8.83459 11H2.13249C0.913923 11 0 10.0833 0 8.86111V2.13889C0 0.916667 0.913923 0 2.13249 0H8.89552C9.99223 0 10.9671 0.916667 10.9671 2.13889V8.92222C10.9671 10.0833 9.99223 11 8.83459 11Z" fill="url(#paint2_linear_2775_83706)"/>
<path d="M43.8697 11C43.8697 3.97222 39.7875 0 32.9026 0H21.9355V11H30.892C31.8668 11 32.9026 11.9778 32.9026 13.0167C32.9026 13.9944 32.9026 15.0333 32.9026 18.0278C32.9026 21.0222 31.8668 22 28.8814 22H24.921C22.9104 22 21.9355 22.9778 21.9355 24.9944V30.0056C21.9355 32.0222 22.9104 33 24.921 33H29.9171C31.9278 33 32.9026 32.0222 32.9026 30.0056V26.0333C32.9026 23.0389 33.8775 22.0611 36.863 22.0611L43.8697 22V11Z" fill="url(#paint3_linear_2775_83706)"/>
<path d="M62.3677 34.7728C62.3677 35.8116 62.0631 36.6061 61.5147 37.2172C60.9664 37.7672 60.1743 38.0728 59.2604 38.0728H55.7266V27.0728H59.0776C60.1134 27.0728 60.9055 27.3172 61.3929 27.8672C61.9412 28.4172 62.185 29.1505 62.185 30.0672C62.185 30.5561 62.0631 30.9839 61.8803 31.3505C61.6975 31.7172 61.332 32.0839 60.8445 32.2672V32.3283C61.0882 32.3894 61.332 32.5116 61.5147 32.695C61.6975 32.8783 61.8803 33.0616 62.0022 33.245C62.124 33.4894 62.185 33.7339 62.2459 33.9783C62.3068 34.2228 62.3677 34.4672 62.3677 34.7728ZM60.418 30.0672C60.418 29.6394 60.2962 29.2728 60.0525 29.0283C59.8088 28.7839 59.4432 28.6616 58.8948 28.6616H57.4935V31.5339H58.9558C59.4432 31.5339 59.8697 31.4116 60.1134 31.1061C60.2962 30.8616 60.418 30.495 60.418 30.0672ZM60.6008 34.6505C60.6008 34.1616 60.479 33.795 60.2353 33.4894C59.9915 33.1839 59.626 33.0616 59.0776 33.0616H57.4935V36.3005H59.0776C59.3823 36.3005 59.626 36.2394 59.8088 36.1783C59.9915 36.1172 60.1743 35.995 60.2962 35.8116C60.418 35.6894 60.479 35.5061 60.5399 35.2616C60.6008 35.0783 60.6008 34.895 60.6008 34.6505Z" fill="#212447"/>
<path d="M74.1287 35.6892C73.9459 36.4836 73.5803 37.0336 72.9711 37.4614C72.4227 37.8892 71.6916 38.0725 70.8995 38.0725C70.3511 38.0725 69.8637 38.0114 69.4372 37.828C69.0107 37.6447 68.6452 37.4003 68.4014 37.0947C68.0968 36.7892 67.914 36.4225 67.7922 35.9947C67.6703 35.5669 67.6094 35.1392 67.6094 34.5892V30.3114C67.6094 29.8836 67.6703 29.4558 67.7922 29.028C67.914 28.6003 68.1577 28.2336 68.4014 27.928C68.7061 27.6225 69.0107 27.378 69.4372 27.1947C69.8637 27.0114 70.3511 26.8892 70.9604 26.8892C71.8134 26.8892 72.5446 27.1336 73.0929 27.5614C73.6413 28.0503 74.0068 28.6003 74.1896 29.2725L72.4836 29.8225C72.4227 29.6392 72.4227 29.5169 72.3008 29.3336C72.2399 29.2114 72.1181 29.028 71.9962 28.9058C71.8743 28.7836 71.6916 28.6614 71.5088 28.6003C71.326 28.5392 71.1432 28.478 70.8995 28.478C70.5949 28.478 70.4121 28.5392 70.1684 28.6003C69.9856 28.7225 69.8028 28.8447 69.6809 28.9669C69.5591 29.0892 69.4372 29.2725 69.3763 29.4558C69.3154 29.6392 69.2544 29.8225 69.2544 30.0058V34.4058C69.2544 34.6503 69.3154 34.8336 69.3763 35.078C69.4372 35.3225 69.5591 35.4447 69.6809 35.628C69.8028 35.8114 69.9856 35.9336 70.1684 35.9947C70.3511 36.0558 70.5949 36.1169 70.8386 36.1169C71.2041 36.1169 71.5697 35.9947 71.8134 35.8114C72.1181 35.5669 72.2399 35.2614 72.3618 34.8947L74.1287 35.6892Z" fill="#212447"/>
<path d="M78.8789 37.0947C78.1478 37.0336 77.5995 36.9114 77.112 36.6058C76.6246 36.3614 76.259 36.0558 76.0153 35.628C75.7107 35.2003 75.5279 34.7725 75.467 34.1614C75.3451 33.6114 75.2842 33.0003 75.2842 32.2669C75.2842 31.5947 75.3451 30.9836 75.467 30.4336C75.5888 29.8836 75.7716 29.3947 76.0762 28.9669C76.3809 28.5392 76.7465 28.2336 77.173 27.9892C77.6604 27.7447 78.2087 27.5614 78.8789 27.5003V26.8892H80.6459V27.5003C81.3161 27.5614 81.8644 27.7447 82.3519 27.9892C82.8393 28.2336 83.2048 28.5392 83.4486 28.9669C83.7532 29.3947 83.936 29.8225 84.0578 30.3725C84.1797 30.9225 84.2406 31.5336 84.2406 32.2058C84.2406 32.878 84.1797 33.5503 84.0578 34.1003C83.936 34.6503 83.7532 35.1392 83.4486 35.5669C83.1439 35.9947 82.7783 36.3003 82.3519 36.5447C81.8644 36.7892 81.3161 36.9725 80.5849 37.0336V37.9503H78.8789V37.0947ZM78.8789 29.2114C78.2087 29.2725 77.7213 29.578 77.4776 30.128C77.2339 30.678 77.112 31.4114 77.112 32.2669C77.112 32.7558 77.173 33.1836 77.173 33.6114C77.2339 33.978 77.3557 34.3447 77.4776 34.5892C77.5995 34.8336 77.7822 35.078 78.0259 35.2003C78.2697 35.3225 78.5743 35.4447 78.8789 35.4447V29.2114ZM80.6459 35.5058C81.377 35.4447 81.8035 35.1392 82.1081 34.6503C82.3519 34.1003 82.4737 33.3669 82.4737 32.328C82.4737 31.4114 82.3519 30.7392 82.0472 30.1892C81.8035 29.6392 81.3161 29.3336 80.6459 29.3336V35.5058Z" fill="#212447"/>
<path d="M85.8271 38.0117V27.0117H91.92V28.6617H87.5941V31.5951H91.3107V33.2451H87.5941V36.3006H91.92V38.0117H85.8271Z" fill="#212447"/>
<path d="M100.205 30.3728C100.205 30.8617 100.144 31.2895 100.022 31.7173C99.9004 32.1451 99.6567 32.5117 99.413 32.8173C99.1693 33.1228 98.8037 33.3673 98.3772 33.5506C97.9507 33.7339 97.4633 33.7951 96.9149 33.7951H95.3308V38.0117H93.5029V27.0117H96.793C97.2805 27.0117 97.7679 27.0728 98.1944 27.1951C98.6209 27.3173 98.9865 27.5617 99.2302 27.8062C99.5348 28.1117 99.7785 28.4173 99.9004 28.8451C100.144 29.3339 100.205 29.8228 100.205 30.3728ZM98.4381 30.3728C98.4381 29.8228 98.3163 29.3951 98.0725 29.1506C97.8288 28.8451 97.4023 28.7228 96.854 28.7228H95.3308V32.1451H96.854C97.4023 32.1451 97.7679 31.9617 98.0725 31.6562C98.3163 31.2895 98.4381 30.8617 98.4381 30.3728Z" fill="#212447"/>
<path d="M101.545 38.0117V27.0117H107.638V28.6617H103.312V31.5951H107.028V33.2451H103.312V36.3006H107.638V38.0117H101.545Z" fill="#212447"/>
<path d="M120.007 34.6503C120.007 35.2003 119.946 35.628 119.764 36.0558C119.581 36.4836 119.398 36.8503 119.093 37.1558C118.789 37.4614 118.423 37.7058 118.058 37.828C117.631 38.0114 117.205 38.0725 116.717 38.0725C116.108 38.0725 115.621 37.9503 115.194 37.7669C114.768 37.5836 114.402 37.278 114.158 36.9725C113.915 36.6669 113.671 36.2392 113.549 35.8114C113.427 35.3836 113.366 34.8947 113.366 34.4058V30.2503C113.366 29.8836 113.427 29.4558 113.549 29.0892C113.671 28.7225 113.854 28.2947 114.158 27.9892C114.402 27.6836 114.768 27.378 115.194 27.1947C115.621 27.0114 116.169 26.8892 116.778 26.8892C117.327 26.8892 117.875 27.0114 118.301 27.1947C118.728 27.378 119.093 27.6836 119.337 27.9892C119.642 28.2947 119.825 28.6614 119.946 29.0892C120.068 29.5169 120.129 29.8836 120.129 30.3114L120.007 34.6503ZM118.18 30.3114C118.18 30.1892 118.18 30.0058 118.119 29.8225C118.058 29.6392 117.997 29.4558 117.875 29.2725C117.753 29.0892 117.631 28.9669 117.387 28.8447C117.205 28.7225 116.961 28.6614 116.656 28.6614C116.352 28.6614 116.108 28.7225 115.864 28.8447C115.681 28.9669 115.499 29.0892 115.377 29.2725C115.255 29.4558 115.194 29.6392 115.133 29.8225C115.072 30.0058 115.072 30.1892 115.072 30.3725V34.5892C115.072 35.1392 115.194 35.5669 115.438 35.9336C115.681 36.3003 116.108 36.4836 116.656 36.4836C117.083 36.4836 117.448 36.3614 117.692 36.0558C117.936 35.7503 118.119 35.3836 118.119 34.8947L118.18 30.3114Z" fill="#212447"/>
<path d="M123.477 31.3506H125.061C125.609 31.3506 126.158 31.4117 126.523 31.5951C126.95 31.7784 127.254 31.9617 127.559 32.2673C127.863 32.5728 128.046 32.8784 128.168 33.3062C128.29 33.6728 128.351 34.1617 128.351 34.5895C128.351 35.7506 128.046 36.5451 127.437 37.1562C126.828 37.7062 126.036 38.0117 125 38.0117H121.588V27.0117H127.437V28.6617H123.416V31.3506H123.477ZM123.477 36.3617H125C125.548 36.3617 125.975 36.2395 126.218 35.9339C126.462 35.6284 126.584 35.2006 126.584 34.7117C126.584 34.2228 126.462 33.8562 126.218 33.5506C125.975 33.2451 125.548 33.1228 125 33.1228H123.477V36.3617Z" fill="#212447"/>
<path d="M136.518 30.3728C136.518 30.8617 136.457 31.2895 136.335 31.7173C136.213 32.1451 135.969 32.5117 135.725 32.8173C135.482 33.1228 135.116 33.3673 134.69 33.5506C134.263 33.7339 133.776 33.7951 133.227 33.7951H131.643V38.0117H129.815V27.0117H133.106C133.593 27.0117 134.08 27.0728 134.507 27.1951C134.933 27.3173 135.299 27.5617 135.543 27.8062C135.847 28.1117 136.091 28.4173 136.213 28.8451C136.457 29.3339 136.518 29.8228 136.518 30.3728ZM134.751 30.3728C134.751 29.8228 134.629 29.3951 134.385 29.1506C134.141 28.8451 133.715 28.7228 133.166 28.7228H131.643V32.1451H133.166C133.715 32.1451 134.08 31.9617 134.385 31.6562C134.629 31.2895 134.751 30.8617 134.751 30.3728Z" fill="#212447"/>
<path d="M141.879 35.6283H138.833C138.833 35.7505 138.772 35.8728 138.711 36.1172C138.65 36.3616 138.589 36.6061 138.528 36.8505C138.467 37.095 138.407 37.3394 138.346 37.5839C138.285 37.8283 138.224 37.9505 138.224 38.0728H136.335L139.503 27.0728H141.209L144.377 38.0728H142.489L141.879 35.6283ZM139.808 31.8394L139.26 34.0394H141.514L140.965 31.8394C140.965 31.7172 140.905 31.595 140.844 31.3505C140.783 31.1061 140.722 30.9228 140.661 30.6783C140.6 30.4339 140.539 30.1894 140.478 30.0061C140.417 29.8228 140.417 29.6394 140.356 29.5172H140.295L139.808 31.8394Z" fill="#212447"/>
<path d="M144.925 35.5669C145.047 35.5058 145.169 35.5058 145.29 35.4447C145.412 35.3836 145.595 35.3225 145.778 35.2614C145.961 35.2003 146.082 35.1392 146.265 35.078C146.387 35.0169 146.57 34.9558 146.631 34.9558C146.692 35.3836 146.935 35.7503 147.24 35.9947C147.545 36.2392 147.91 36.3614 148.337 36.3614C148.824 36.3614 149.19 36.2392 149.433 35.8725C149.677 35.5669 149.86 35.1392 149.86 34.6503C149.86 34.4058 149.86 34.2225 149.799 33.978C149.738 33.7947 149.677 33.6114 149.555 33.428C149.433 33.3058 149.312 33.1225 149.068 33.0614C148.824 33.0003 148.641 33.0614 148.337 33.0614H147.484V31.5336H148.337C148.763 31.5336 149.129 31.4114 149.373 31.1669C149.616 30.9225 149.738 30.4947 149.738 30.0058C149.738 29.578 149.616 29.2725 149.373 29.028C149.129 28.7836 148.763 28.6614 148.337 28.6614C147.91 28.6614 147.545 28.7836 147.301 29.028C147.057 29.2725 146.814 29.578 146.753 30.0058L145.108 29.3947C145.29 28.6614 145.656 28.0503 146.265 27.5614C146.814 27.1336 147.545 26.8892 148.459 26.8892C149.494 26.8892 150.286 27.1336 150.835 27.6225C151.383 28.1114 151.627 28.8447 151.627 29.8225C151.627 30.0058 151.627 30.1892 151.566 30.4336C151.505 30.678 151.444 30.9225 151.383 31.1058C151.322 31.3503 151.2 31.5336 151.018 31.7169C150.835 31.9003 150.652 32.0836 150.408 32.1447V32.2058C150.652 32.328 150.896 32.4503 151.079 32.6336C151.261 32.8169 151.383 33.0003 151.505 33.2447C151.627 33.4892 151.688 33.7336 151.688 33.978C151.749 34.2225 151.749 34.4669 151.749 34.7114C151.749 35.2614 151.688 35.7503 151.505 36.178C151.322 36.6058 151.139 36.9114 150.835 37.2169C150.53 37.5225 150.165 37.7058 149.738 37.828C149.312 37.9503 148.885 38.0114 148.337 38.0114C147.423 38.0114 146.692 37.7669 146.082 37.3392C145.473 36.9725 145.108 36.3614 144.925 35.5669Z" fill="#212447"/>
<path d="M159.792 34.6503C159.792 35.2003 159.731 35.628 159.548 36.0558C159.365 36.4836 159.182 36.8503 158.878 37.1558C158.573 37.4614 158.207 37.7058 157.842 37.828C157.415 38.0114 156.989 38.0725 156.501 38.0725C155.892 38.0725 155.405 37.9503 154.978 37.7669C154.552 37.5836 154.186 37.278 153.942 36.9725C153.699 36.6669 153.455 36.2392 153.333 35.8114C153.211 35.3836 153.15 34.8947 153.15 34.4058V30.2503C153.15 29.8836 153.211 29.4558 153.333 29.0892C153.455 28.6614 153.638 28.2947 153.942 27.9892C154.186 27.6836 154.552 27.378 154.978 27.1947C155.405 27.0114 155.953 26.8892 156.562 26.8892C157.111 26.8892 157.659 27.0114 158.086 27.1947C158.512 27.378 158.878 27.6836 159.121 27.9892C159.426 28.2947 159.609 28.6614 159.731 29.0892C159.853 29.5169 159.913 29.8836 159.913 30.3114L159.792 34.6503ZM157.964 30.3114C157.964 30.1892 157.964 30.0058 157.903 29.8225C157.842 29.6392 157.781 29.4558 157.659 29.2725C157.537 29.0892 157.415 28.9669 157.172 28.8447C156.989 28.7225 156.745 28.6614 156.441 28.6614C156.136 28.6614 155.892 28.7225 155.648 28.8447C155.466 28.9669 155.283 29.0892 155.161 29.2725C155.039 29.4558 154.978 29.6392 154.917 29.8225C154.856 30.0058 154.856 30.1892 154.856 30.3725V34.5892C154.856 35.1392 154.978 35.5669 155.222 35.9336C155.466 36.3003 155.892 36.4836 156.441 36.4836C156.867 36.4836 157.233 36.3614 157.476 36.0558C157.781 35.7503 157.903 35.3836 157.903 34.8947L157.964 30.3114Z" fill="#212447"/>
<path d="M168.262 34.7728C168.262 35.8116 167.958 36.6061 167.409 37.2172C166.861 37.7672 166.069 38.0728 165.155 38.0728H161.621V27.0728H164.972C166.008 27.0728 166.8 27.3172 167.287 27.8672C167.836 28.4172 168.079 29.1505 168.079 30.0672C168.079 30.5561 167.958 30.9839 167.775 31.3505C167.592 31.7172 167.227 32.0839 166.739 32.2672V32.3283C166.983 32.3894 167.226 32.5116 167.409 32.695C167.592 32.8783 167.775 33.0616 167.897 33.245C168.019 33.4894 168.079 33.7339 168.14 33.9783C168.201 34.2228 168.262 34.4672 168.262 34.7728ZM166.313 30.0672C166.313 29.6394 166.191 29.2728 165.947 29.0283C165.703 28.7839 165.338 28.6616 164.789 28.6616H163.388V31.5339H164.85C165.338 31.5339 165.764 31.4116 166.008 31.1061C166.191 30.8616 166.313 30.495 166.313 30.0672ZM166.495 34.6505C166.495 34.1616 166.374 33.795 166.13 33.4894C165.886 33.1839 165.52 33.0616 164.972 33.0616H163.388V36.3005H164.972C165.277 36.3005 165.521 36.2394 165.703 36.1783C165.886 36.1172 166.069 35.995 166.191 35.8116C166.313 35.6894 166.374 35.5061 166.434 35.2616C166.434 35.0783 166.495 34.895 166.495 34.6505Z" fill="#212447"/>
<path d="M174.599 35.6283H171.553C171.553 35.7505 171.492 35.8728 171.431 36.1172C171.37 36.3616 171.309 36.6061 171.248 36.8505C171.187 37.095 171.126 37.3394 171.065 37.5839C171.004 37.8283 170.943 37.9505 170.943 38.0728H169.055L172.223 27.0728H173.929L177.097 38.0728H175.208L174.599 35.6283ZM172.528 31.8394L171.979 34.0394H174.234L173.685 31.8394C173.685 31.7172 173.624 31.595 173.563 31.3505C173.502 31.1061 173.442 30.9228 173.381 30.6783C173.32 30.4339 173.259 30.1894 173.198 30.0061C173.137 29.8228 173.137 29.6394 173.076 29.5172H173.015L172.528 31.8394Z" fill="#212447"/>
<path d="M183.191 38.0117V33.2451H180.084V38.0117H178.256V27.0117H180.084V31.6562H183.191V27.0117H185.019V38.0117H183.191Z" fill="#212447"/>
<path d="M187.024 38.0117V27.0117H188.791V34.4062C189.035 33.9784 189.279 33.4895 189.462 33.0617C189.644 32.6339 189.888 32.1451 190.132 31.7173C190.558 30.9228 190.924 30.1895 191.289 29.3951C191.655 28.6006 192.081 27.8673 192.447 27.0728H194.092V38.0728H192.264V30.8006H192.203C192.021 31.1673 191.838 31.5339 191.655 31.8395C191.472 32.2062 191.289 32.5728 191.107 32.8784L188.548 37.9506L187.024 38.0117Z" fill="#212447"/>
<path d="M202.745 27.0117V38.0117H200.918V33.3673H199.943C199.577 33.3673 199.272 33.4895 198.968 33.7339C198.663 33.9784 198.419 34.4062 198.237 35.0784L197.566 38.0728H195.678L196.409 34.7728C196.531 34.3451 196.653 33.9784 196.835 33.6728C197.018 33.3673 197.262 33.1228 197.627 33.0006C197.018 32.8173 196.653 32.4506 196.409 31.9617C196.165 31.4728 196.043 30.9228 196.043 30.3728C196.043 29.8839 196.104 29.3951 196.287 29.0284C196.409 28.6006 196.653 28.2951 196.957 27.9895C197.262 27.6839 197.566 27.5006 197.932 27.3173C198.298 27.1951 198.724 27.0728 199.212 27.0728L202.745 27.0117ZM197.871 30.3117C197.871 30.8617 198.054 31.2284 198.359 31.4117C198.663 31.5951 199.029 31.7173 199.516 31.7173H200.918V28.6617H199.455C198.907 28.6617 198.541 28.7839 198.237 29.0895C197.993 29.3951 197.871 29.8228 197.871 30.3117Z" fill="#212447"/>
<path d="M231.812 19.6792H225.658V8.6792H227.486V18.0292H230.532V8.6792H232.36V18.0292H233.396V21.9403H231.812V19.6792Z" fill="#212447"/>
<path d="M234.675 19.6792V8.6792H236.442V16.0736C236.685 15.6459 236.929 15.157 237.112 14.7292C237.295 14.3014 237.538 13.8125 237.782 13.3848C238.209 12.5903 238.574 11.857 238.94 11.0625C239.305 10.2681 239.732 9.53475 240.097 8.74031H241.742V19.7403H239.915V12.5292H239.854C239.671 12.8959 239.488 13.2625 239.305 13.5681C239.123 13.9348 238.94 14.3014 238.757 14.607L236.198 19.6792H234.675Z" fill="#212447"/>
<path d="M246.981 18.7617C246.25 18.7006 245.702 18.5784 245.215 18.2728C244.727 18.0284 244.362 17.7228 244.118 17.295C243.813 16.8673 243.63 16.4395 243.569 15.8284C243.448 15.2784 243.387 14.6673 243.387 13.9339C243.387 13.2617 243.448 12.6506 243.569 12.1006C243.691 11.5506 243.874 11.0617 244.179 10.6339C244.483 10.2062 244.849 9.9006 245.275 9.65615C245.763 9.41171 246.311 9.22837 246.981 9.16726V8.55615H248.748V9.16726C249.419 9.22837 249.967 9.41171 250.454 9.65615C250.942 9.9006 251.307 10.2062 251.551 10.6339C251.856 11.0617 252.039 11.4895 252.16 12.0395C252.282 12.5895 252.343 13.2006 252.343 13.8728C252.343 14.545 252.282 15.2173 252.16 15.7673C252.039 16.3173 251.856 16.8062 251.551 17.2339C251.246 17.6617 250.881 17.9673 250.454 18.2117C249.967 18.4562 249.419 18.6395 248.687 18.7006V19.6173H246.921L246.981 18.7617ZM246.981 10.8784C246.311 10.9395 245.824 11.245 245.58 11.795C245.336 12.345 245.215 13.0784 245.215 13.9339C245.215 14.4228 245.275 14.8506 245.275 15.2784C245.336 15.645 245.458 16.0117 245.58 16.2562C245.702 16.5006 245.885 16.745 246.128 16.8673C246.372 16.9895 246.677 17.1117 246.981 17.1117V10.8784ZM248.748 17.1728C249.48 17.1117 249.906 16.8062 250.211 16.3173C250.454 15.7673 250.576 15.0339 250.576 13.995C250.576 13.0784 250.454 12.4062 250.15 11.8562C249.906 11.3062 249.419 11.0006 248.748 11.0006V17.1728Z" fill="#212447"/>
<path d="M260.752 12.0994C260.752 12.5883 260.691 13.0161 260.569 13.4438C260.447 13.8716 260.204 14.2383 259.96 14.5438C259.716 14.8494 259.351 15.0938 258.924 15.2772C258.498 15.4605 258.01 15.5216 257.462 15.5216H255.878V19.7383H254.05V8.73828H257.34C257.827 8.73828 258.315 8.79939 258.741 8.92161C259.168 9.04384 259.533 9.28828 259.777 9.53273C260.082 9.83828 260.325 10.1438 260.447 10.5716C260.691 10.9994 260.752 11.4883 260.752 12.0994ZM258.985 12.0383C258.985 11.4883 258.863 11.0605 258.619 10.8161C258.376 10.5105 257.949 10.3883 257.401 10.3883H255.878V13.8105H257.401C257.949 13.8105 258.315 13.6272 258.619 13.3216C258.863 12.9549 258.985 12.5883 258.985 12.0383Z" fill="#212447"/>
<path d="M268.976 16.3173C268.976 16.8673 268.915 17.295 268.732 17.7228C268.55 18.1506 268.367 18.5173 268.062 18.8228C267.758 19.1284 267.392 19.3728 267.026 19.495C266.6 19.6784 266.173 19.7395 265.686 19.7395C265.077 19.7395 264.589 19.6173 264.163 19.4339C263.736 19.2506 263.371 18.945 263.127 18.6395C262.883 18.3339 262.64 17.9062 262.518 17.4784C262.396 17.0506 262.335 16.5617 262.335 16.0728V11.9173C262.335 11.5506 262.396 11.1228 262.518 10.7562C262.64 10.3284 262.822 9.96171 263.127 9.65615C263.371 9.3506 263.736 9.04504 264.163 8.86171C264.589 8.67837 265.138 8.55615 265.747 8.55615C266.295 8.55615 266.844 8.67837 267.27 8.86171C267.697 9.04504 268.062 9.3506 268.306 9.65615C268.55 9.96171 268.793 10.3284 268.915 10.7562C269.037 11.1839 269.098 11.5506 269.098 11.9784V16.3173H268.976ZM267.148 11.9784C267.148 11.8562 267.148 11.6728 267.087 11.4895C267.026 11.3062 266.965 11.1228 266.844 10.9395C266.722 10.7562 266.6 10.6339 266.356 10.5117C266.113 10.3895 265.93 10.3284 265.625 10.3284C265.32 10.3284 265.077 10.3895 264.833 10.5117C264.589 10.6339 264.467 10.7562 264.346 10.9395C264.224 11.1228 264.163 11.3062 264.102 11.4895C264.041 11.6728 264.041 11.8562 264.041 12.0395V16.2562C264.041 16.8062 264.163 17.2339 264.407 17.6006C264.65 17.9673 265.077 18.1506 265.625 18.1506C266.052 18.1506 266.417 18.0284 266.661 17.7228C266.966 17.4173 267.087 17.0506 267.087 16.5617V11.9784H267.148Z" fill="#212447"/>
<path d="M277.325 16.4383C277.325 17.4772 277.02 18.2716 276.472 18.8827C275.923 19.4327 275.131 19.7383 274.217 19.7383H270.684V8.73828H274.035C275.07 8.73828 275.863 8.98273 276.35 9.53273C276.898 10.0827 277.142 10.8161 277.142 11.7327C277.142 12.2216 277.02 12.6494 276.837 13.0161C276.655 13.3827 276.289 13.7494 275.802 13.9327V13.9938C276.045 14.0549 276.289 14.1772 276.472 14.3605C276.655 14.5438 276.837 14.7272 276.959 14.9105C277.081 15.1549 277.142 15.3994 277.203 15.6438C277.325 15.8883 277.325 16.1327 277.325 16.4383ZM275.436 11.7327C275.436 11.3049 275.314 10.9383 275.07 10.6938C274.827 10.4494 274.461 10.3272 273.913 10.3272H272.511V13.1994H273.974C274.461 13.1994 274.888 13.0772 275.131 12.7716C275.375 12.4661 275.436 12.1605 275.436 11.7327ZM275.558 16.3161C275.558 15.8272 275.436 15.4605 275.192 15.1549C274.949 14.8494 274.583 14.7272 274.035 14.7272H272.451V17.9661H274.035C274.339 17.9661 274.583 17.9049 274.766 17.8438C274.949 17.7827 275.131 17.6605 275.253 17.4772C275.375 17.3549 275.436 17.1716 275.497 16.9272C275.558 16.7438 275.558 16.5605 275.558 16.3161Z" fill="#212447"/>
<path d="M285.49 16.3173C285.49 16.8673 285.429 17.295 285.246 17.7228C285.063 18.1506 284.881 18.5173 284.576 18.8228C284.271 19.1284 283.906 19.3728 283.54 19.495C283.114 19.6784 282.687 19.7395 282.2 19.7395C281.59 19.7395 281.103 19.6173 280.676 19.4339C280.25 19.2506 279.884 18.945 279.641 18.6395C279.397 18.3339 279.153 17.9062 279.031 17.4784C278.91 17.0506 278.849 16.5617 278.849 16.0728V11.9173C278.849 11.5506 278.91 11.1228 279.031 10.7562C279.153 10.3895 279.336 9.96171 279.641 9.65615C279.884 9.3506 280.25 9.04504 280.676 8.86171C281.103 8.67837 281.651 8.55615 282.261 8.55615C282.809 8.55615 283.357 8.67837 283.784 8.86171C284.21 9.04504 284.576 9.3506 284.82 9.65615C285.063 9.96171 285.307 10.3284 285.429 10.7562C285.551 11.1839 285.612 11.5506 285.612 11.9784L285.49 16.3173ZM283.662 11.9784C283.662 11.8562 283.662 11.6728 283.601 11.4895C283.54 11.3062 283.479 11.1228 283.357 10.9395C283.235 10.7562 283.114 10.6339 282.87 10.5117C282.687 10.3895 282.443 10.3284 282.139 10.3284C281.834 10.3284 281.59 10.3895 281.347 10.5117C281.164 10.6339 280.981 10.7562 280.859 10.9395C280.737 11.1228 280.676 11.3062 280.616 11.4895C280.555 11.6728 280.555 11.8562 280.555 12.0395V16.2562C280.555 16.8062 280.676 17.2339 280.92 17.6006C281.164 17.9673 281.59 18.1506 282.139 18.1506C282.565 18.1506 282.931 18.0284 283.175 17.7228C283.479 17.4173 283.601 17.0506 283.601 16.5617L283.662 11.9784Z" fill="#212447"/>
<path d="M290.851 8.06809C290.424 8.06809 290.12 8.00698 289.815 7.82364C289.571 7.70142 289.327 7.51809 289.145 7.27364C288.962 7.09031 288.84 6.84587 288.779 6.60142C288.718 6.35698 288.657 6.11253 288.657 5.9292H289.876C289.876 6.05142 289.937 6.17364 289.937 6.23475C289.998 6.35698 290.059 6.4792 290.12 6.54031C290.18 6.66253 290.302 6.72364 290.424 6.78475C290.546 6.84587 290.668 6.90698 290.79 6.90698C290.912 6.90698 291.094 6.90698 291.216 6.78475C291.338 6.72364 291.399 6.66253 291.521 6.54031C291.582 6.41809 291.643 6.35698 291.704 6.23475C291.765 6.11253 291.765 5.99031 291.765 5.9292H292.983C292.983 6.11253 292.922 6.35698 292.861 6.60142C292.8 6.84587 292.678 7.09031 292.496 7.27364C292.313 7.45698 292.13 7.64031 291.825 7.82364C291.521 8.00698 291.216 8.06809 290.851 8.06809Z" fill="#212447"/>
<path d="M287.196 19.6792V8.6792H288.963V16.0736C289.207 15.6459 289.451 15.157 289.633 14.7292C289.816 14.3014 290.06 13.8125 290.304 13.3848C290.73 12.5903 291.096 11.857 291.461 11.0625C291.827 10.2681 292.253 9.53475 292.619 8.74031H294.264V19.7403H292.436V12.5292H292.375C292.192 12.8959 292.01 13.2625 291.827 13.5681C291.644 13.9348 291.461 14.3014 291.278 14.607L288.719 19.6792H287.196Z" fill="#212447"/>
<path d="M304.986 10.3292V19.6792H303.158V10.3292H300.721V8.6792H307.362V10.3292H304.986Z" fill="#212447"/>
<path d="M315.709 12.0994C315.709 12.5883 315.648 13.0161 315.526 13.4438C315.404 13.8716 315.161 14.2383 314.917 14.5438C314.673 14.8494 314.308 15.0938 313.881 15.2772C313.455 15.4605 312.967 15.5216 312.419 15.5216H310.835V19.7383H309.007V8.73828H312.297C312.784 8.73828 313.272 8.79939 313.698 8.92161C314.125 9.04384 314.49 9.28828 314.734 9.53273C315.039 9.83828 315.282 10.1438 315.404 10.5716C315.648 10.9994 315.709 11.4883 315.709 12.0994ZM313.942 12.0383C313.942 11.4883 313.82 11.0605 313.576 10.8161C313.333 10.5105 312.906 10.3883 312.358 10.3883H310.835V13.8105H312.358C312.906 13.8105 313.272 13.6272 313.576 13.3216C313.82 12.9549 313.942 12.5883 313.942 12.0383Z" fill="#212447"/>
<path d="M320.89 17.2938H317.843C317.843 17.4161 317.782 17.5383 317.721 17.7827C317.66 18.0272 317.599 18.2716 317.539 18.5161C317.478 18.7605 317.417 19.0049 317.356 19.2494C317.295 19.4938 317.234 19.6161 317.234 19.7383H315.284L318.452 8.73828H320.158L323.327 19.7383H321.438L320.89 17.2938ZM318.757 13.5049L318.209 15.7049H320.463L319.915 13.5049C319.915 13.3827 319.854 13.2605 319.793 13.0161C319.732 12.7716 319.671 12.5883 319.61 12.3438C319.549 12.0994 319.488 11.8549 319.427 11.6716C319.366 11.4883 319.366 11.3049 319.305 11.1827H319.245L318.757 13.5049Z" fill="#212447"/>
<path d="M329.176 19.6792V14.9125H326.069V19.6792H324.241V8.6792H326.069V13.3236H329.176V8.6792H331.004V19.6792H329.176Z" fill="#212447"/>
<path d="M339.409 17.3562C339.226 18.1506 338.861 18.7006 338.251 19.1284C337.703 19.5562 336.972 19.7395 336.18 19.7395C335.631 19.7395 335.144 19.6784 334.717 19.495C334.291 19.3117 333.925 19.0673 333.682 18.7617C333.377 18.4562 333.194 18.0895 333.072 17.6617C332.951 17.2339 332.89 16.8062 332.89 16.2562V11.9784C332.89 11.5506 332.951 11.1228 333.072 10.695C333.194 10.2673 333.438 9.9006 333.682 9.59504C333.986 9.28949 334.291 9.04504 334.717 8.86171C335.144 8.67837 335.631 8.55615 336.241 8.55615C337.094 8.55615 337.825 8.8006 338.373 9.22837C338.922 9.71726 339.287 10.2673 339.47 10.9395L337.764 11.4895C337.703 11.3062 337.703 11.1839 337.581 11.0006C337.52 10.8784 337.398 10.695 337.276 10.5728C337.155 10.4506 336.972 10.3284 336.789 10.2673C336.606 10.2062 336.423 10.145 336.18 10.145C335.875 10.145 335.692 10.2062 335.449 10.2673C335.266 10.3895 335.083 10.5117 334.961 10.6339C334.839 10.7562 334.717 10.9395 334.657 11.1228C334.596 11.3062 334.535 11.4895 334.535 11.6728V16.0728C334.535 16.3173 334.596 16.5006 334.657 16.745C334.717 16.9284 334.839 17.1117 334.961 17.295C335.083 17.4784 335.266 17.6006 335.449 17.6617C335.631 17.7228 335.875 17.7839 336.119 17.7839C336.484 17.7839 336.85 17.6617 337.094 17.4784C337.398 17.2339 337.52 16.9284 337.642 16.5617L339.409 17.3562Z" fill="#212447"/>
<path d="M343.677 18.7617C342.946 18.7006 342.397 18.5784 341.91 18.2728C341.422 18.0284 341.057 17.7228 340.813 17.295C340.509 16.8673 340.326 16.4395 340.265 15.8284C340.143 15.2784 340.082 14.6673 340.082 13.9339C340.082 13.2617 340.143 12.6506 340.265 12.1006C340.387 11.5506 340.569 11.0617 340.874 10.6339C341.179 10.2062 341.544 9.9006 341.971 9.65615C342.458 9.41171 343.007 9.22837 343.677 9.16726V8.55615H345.444V9.16726C346.114 9.22837 346.662 9.41171 347.15 9.65615C347.637 9.9006 348.003 10.2062 348.246 10.6339C348.551 11.0617 348.734 11.4895 348.856 12.0395C348.978 12.5895 349.038 13.2006 349.038 13.8728C349.038 14.545 348.978 15.2173 348.856 15.7673C348.734 16.3173 348.551 16.8062 348.246 17.2339C347.942 17.6617 347.576 17.9673 347.15 18.2117C346.662 18.4562 346.114 18.6395 345.383 18.7006V19.6173H343.616V18.7617H343.677ZM343.616 10.8784C342.946 10.9395 342.458 11.245 342.215 11.795C341.971 12.345 341.849 13.0784 341.849 13.9339C341.849 14.4228 341.91 14.8506 341.91 15.2784C341.971 15.645 342.093 16.0117 342.215 16.2562C342.336 16.5006 342.519 16.745 342.763 16.8673C343.007 16.9895 343.311 17.1117 343.616 17.1117V10.8784ZM345.444 17.1728C346.175 17.1117 346.601 16.8062 346.906 16.3173C347.15 15.7673 347.272 15.0339 347.272 13.995C347.272 13.0784 347.15 12.4062 346.845 11.8562C346.601 11.3062 346.114 11.0006 345.444 11.0006V17.1728Z" fill="#212447"/>
<path d="M357.628 16.3157C357.628 16.8657 357.567 17.2935 357.384 17.7213C357.201 18.1491 357.018 18.5157 356.714 18.8213C356.409 19.1268 356.043 19.3713 355.678 19.4935C355.312 19.6157 354.825 19.7379 354.337 19.7379C353.728 19.7379 353.241 19.6157 352.814 19.4324C352.388 19.2491 352.022 18.9435 351.778 18.6379C351.535 18.3324 351.291 17.9046 351.169 17.4768C351.047 17.0491 350.986 16.5602 350.986 16.0713V11.9157C350.986 11.5491 351.047 11.1213 351.169 10.7546C351.291 10.3879 351.474 9.96017 351.778 9.65461C352.022 9.34906 352.388 9.0435 352.814 8.86017C353.241 8.67683 353.667 8.61572 354.276 8.61572C354.825 8.61572 355.373 8.73794 355.8 8.92128C356.226 9.10461 356.592 9.41017 356.835 9.71572C357.079 10.0213 357.323 10.3879 357.445 10.8157C357.567 11.2435 357.628 11.6102 357.628 12.0379V16.3157ZM355.8 11.9768C355.8 11.8546 355.8 11.6713 355.739 11.4879C355.678 11.3046 355.617 11.1213 355.495 10.9379C355.373 10.7546 355.251 10.6324 355.008 10.5102C354.764 10.3879 354.581 10.3268 354.276 10.3268C353.972 10.3268 353.728 10.3879 353.484 10.5102C353.302 10.6324 353.119 10.7546 352.997 10.9379C352.875 11.1213 352.814 11.3046 352.753 11.4879C352.692 11.6713 352.692 11.8546 352.692 12.0379V16.2546C352.692 16.8046 352.814 17.2324 353.058 17.5991C353.302 17.9657 353.728 18.1491 354.276 18.1491C354.703 18.1491 355.069 18.0268 355.312 17.7213C355.617 17.4157 355.739 17.0491 355.739 16.5602L355.8 11.9768Z" fill="#212447"/>
<path d="M366.158 12.0994C366.158 12.5883 366.097 13.0161 365.975 13.4438C365.854 13.8716 365.61 14.2383 365.366 14.5438C365.122 14.8494 364.757 15.0938 364.33 15.2772C363.904 15.4605 363.416 15.5216 362.868 15.5216H361.284V19.7383H359.456V8.73828H362.746C363.234 8.73828 363.721 8.79939 364.148 8.92161C364.574 9.04384 364.94 9.28828 365.183 9.53273C365.488 9.83828 365.732 10.1438 365.854 10.5716C366.097 10.9994 366.158 11.4883 366.158 12.0994ZM364.391 12.0383C364.391 11.4883 364.269 11.0605 364.026 10.8161C363.782 10.5105 363.355 10.3883 362.807 10.3883H361.284V13.8105H362.807C363.355 13.8105 363.721 13.6272 364.026 13.3216C364.208 12.9549 364.391 12.5883 364.391 12.0383Z" fill="#212447"/>
<path d="M374.628 19.6768V13.2602H374.567L373.775 15.3379L372.74 17.7213H371.46L370.363 15.2157L369.571 13.1991H369.51V19.6157H367.683V8.61572H369.389L370.912 12.2213L372.009 14.8491H372.069L373.166 12.2824L374.689 8.67683H376.395V19.6768H374.628Z" fill="#212447"/>
<path d="M383.159 17.2938H380.112C380.112 17.4161 380.051 17.5383 379.99 17.7827C379.93 18.0272 379.869 18.2716 379.808 18.5161C379.747 18.7605 379.686 19.0049 379.625 19.2494C379.564 19.4938 379.503 19.6161 379.503 19.7383H377.614L380.783 8.73828H382.489L385.657 19.7383H383.768L383.159 17.2938ZM381.087 13.5049L380.539 15.7049H382.793L382.245 13.5049C382.245 13.3827 382.184 13.2605 382.123 13.0161C382.062 12.7716 382.001 12.5883 381.94 12.3438C381.879 12.0994 381.818 11.8549 381.757 11.6716C381.696 11.4883 381.696 11.3049 381.636 11.1827H381.575L381.087 13.5049Z" fill="#212447"/>
<path d="M392.907 19.6792H386.753V8.6792H388.581V18.0292H391.627V8.6792H393.455V18.0292H394.491V21.9403H392.968V19.6792H392.907Z" fill="#212447"/>
<path d="M395.832 19.6792V8.6792H397.599V16.0736C397.843 15.6459 398.086 15.157 398.269 14.7292C398.452 14.3014 398.696 13.8125 398.939 13.3848C399.366 12.5903 399.731 11.857 400.097 11.0625C400.463 10.2681 400.889 9.53475 401.255 8.74031H402.9V19.7403H401.072V12.5292H401.194C401.011 12.8959 400.828 13.2625 400.645 13.5681C400.463 13.8736 400.28 14.3014 400.097 14.607L397.538 19.6792H395.832Z" fill="#212447"/>
<path d="M404.971 19.6792V8.6792H406.738V16.0736C406.981 15.6459 407.225 15.157 407.408 14.7292C407.591 14.3014 407.834 13.8125 408.078 13.3848C408.505 12.5903 408.87 11.857 409.236 11.0625C409.601 10.2681 410.028 9.53475 410.393 8.74031H412.038V19.7403H410.211V12.5292H410.332C410.15 12.8959 409.967 13.2625 409.784 13.5681C409.601 13.8736 409.418 14.3014 409.236 14.607L406.677 19.6792H404.971Z" fill="#212447"/>
<path d="M59.1416 18.7612C58.4105 18.7001 57.8621 18.5779 57.3747 18.2723C56.8873 18.0279 56.5217 17.7223 56.278 17.2946C55.9734 16.8668 55.7906 16.439 55.7297 15.8279C55.6078 15.2779 55.5469 14.6668 55.5469 13.9334C55.5469 13.2612 55.6078 12.6501 55.7297 12.1001C55.8515 11.5501 56.0343 11.0612 56.3389 10.6334C56.6436 10.2057 57.0092 9.90011 57.4357 9.65566C57.9231 9.41122 58.4714 9.22789 59.1416 9.16678V8.55566H60.9086V9.16678C61.5788 9.22789 62.1271 9.41122 62.6146 9.65566C63.102 9.90011 63.4675 10.2057 63.7113 10.6334C64.0159 11.0612 64.1987 11.489 64.3205 12.039C64.4424 12.589 64.5033 13.2001 64.5033 13.8723C64.5033 14.5446 64.4424 15.2168 64.3205 15.7668C64.1987 16.3168 64.0159 16.8057 63.7113 17.2334C63.4066 17.6612 63.041 17.9668 62.6146 18.2112C62.1271 18.4557 61.5788 18.639 60.8476 18.7001V19.6168H59.0807V18.7612H59.1416ZM59.0807 10.8779C58.4105 10.939 57.9231 11.2446 57.6794 11.7946C57.4356 12.3446 57.3138 13.0779 57.3138 13.9334C57.3138 14.4223 57.3747 14.8501 57.3747 15.2779C57.3747 15.7057 57.5575 16.0112 57.6794 16.2557C57.8012 16.5001 57.984 16.7446 58.2277 16.8668C58.4714 16.989 58.7761 17.1112 59.0807 17.1112V10.8779ZM60.9086 17.1723C61.6397 17.1112 62.0662 16.8057 62.3708 16.3168C62.6145 15.7668 62.7364 15.0334 62.7364 13.9946C62.7364 13.0779 62.6146 12.4057 62.3099 11.8557C62.0662 11.3057 61.5788 11.0001 60.9086 11.0001V17.1723Z" fill="#212447"/>
<path d="M65.8418 19.6787V8.67871H71.9346V10.3287H67.6087V13.262H71.3253V14.912H67.6087V17.9676H71.9346V19.6787H65.8418Z" fill="#212447"/>
<path d="M74.5548 21.9402H72.9707V18.2124C73.0926 18.2124 73.2144 18.1513 73.3363 18.1513C73.4581 18.1513 73.58 18.0902 73.7018 18.0902C73.9456 17.9068 74.1283 17.6624 74.2502 17.4179C74.3721 17.1735 74.4939 16.8068 74.5548 16.4402C74.6158 16.0735 74.6767 15.5846 74.7376 15.0957C74.7985 14.5457 74.7985 13.9346 74.7985 13.2624L74.9813 8.80127H81.0132C81.0132 10.3902 81.0132 11.9179 81.0132 13.5068C81.0132 15.0346 81.0132 16.6235 81.0132 18.2124H81.8662V22.0624H80.2821V19.8013H74.433L74.5548 21.9402ZM79.3682 18.0902V10.329H76.6264L76.5045 13.629C76.5045 14.1179 76.4436 14.5457 76.4436 15.0346C76.4436 15.4624 76.3827 15.8902 76.3218 16.2568C76.2608 16.6235 76.1999 16.9902 76.139 17.2957C76.078 17.6013 75.9562 17.8457 75.7734 18.0902H79.3682Z" fill="#212447"/>
<path d="M83.4521 19.6787V8.67871H89.545V10.3287H85.2191V13.262H88.9357V14.912H85.2191V17.9676H89.545V19.6787H83.4521Z" fill="#212447"/>
<path d="M97.6484 12.0994C97.6484 12.5883 97.5875 13.0161 97.4656 13.4438C97.3437 13.8716 97.1 14.2383 96.8563 14.5438C96.6126 14.8494 96.247 15.0938 95.8205 15.2772C95.394 15.4605 94.9066 15.5216 94.3583 15.5216H92.7741V19.7383H90.9463V8.73828H94.2364C94.7238 8.73828 95.2113 8.79939 95.6378 8.92161C96.0643 9.04384 96.4298 9.28828 96.6735 9.53273C96.9782 9.83828 97.2219 10.1438 97.3437 10.5716C97.5875 10.9994 97.6484 11.4883 97.6484 12.0994ZM95.8815 12.0383C95.8815 11.4883 95.7596 11.0605 95.5159 10.8161C95.2722 10.5105 94.8457 10.3883 94.2973 10.3883H92.7741V13.8105H94.2973C94.8457 13.8105 95.2113 13.6272 95.5159 13.3216C95.7596 12.9549 95.8815 12.5883 95.8815 12.0383Z" fill="#212447"/>
<path d="M103.007 17.2938H99.961C99.961 17.4161 99.9 17.5383 99.8391 17.7827C99.7782 18.0272 99.7172 18.2716 99.6563 18.5161C99.5954 18.7605 99.5345 19.0049 99.4735 19.2494C99.4126 19.4938 99.3517 19.6161 99.3517 19.7383H97.4629L100.631 8.73828H102.337L105.505 19.7383H103.617L103.007 17.2938ZM100.936 13.5049L100.387 15.7049H102.642L102.033 13.5049C102.033 13.3827 101.972 13.2605 101.911 13.0161C101.85 12.7716 101.789 12.5883 101.728 12.3438C101.667 12.0994 101.606 11.8549 101.545 11.6716C101.484 11.4883 101.484 11.3049 101.423 11.1827L100.936 13.5049Z" fill="#212447"/>
<path d="M109.469 14.4208C109.469 15.2763 109.408 16.0708 109.347 16.6819C109.286 17.293 109.103 17.843 108.859 18.2708C108.616 18.6986 108.311 19.0652 107.945 19.3097C107.58 19.5541 107.092 19.7375 106.544 19.8597L106.057 18.4541C106.422 18.3319 106.666 18.1486 106.91 17.9652C107.153 17.7819 107.336 17.5375 107.458 17.2319C107.58 16.9263 107.702 16.6208 107.763 16.193C107.824 15.7652 107.824 15.2152 107.824 14.6041V8.61523H113.734V19.6152H111.967V10.3263H109.469V14.4208Z" fill="#212447"/>
<path d="M122.323 16.2565C122.323 17.3565 122.018 18.212 121.409 18.8232C120.799 19.3732 120.007 19.6787 118.972 19.6787H115.56V8.67871H117.387V13.0176H118.972C119.52 13.0176 120.068 13.0787 120.434 13.262C120.86 13.4454 121.165 13.6287 121.47 13.9343C121.774 14.2398 121.957 14.5454 122.079 14.9732C122.262 15.3398 122.323 15.8287 122.323 16.2565ZM120.556 16.3176C120.556 15.8287 120.434 15.4009 120.19 15.1565C119.946 14.8509 119.52 14.7287 118.972 14.7287H117.448V18.0287H118.972C119.52 18.0287 119.946 17.9065 120.19 17.5398C120.373 17.2343 120.556 16.8676 120.556 16.3176Z" fill="#212447"/>
<path d="M128.539 19.6787V14.912H125.431V19.6787H123.604V8.67871H125.431V13.3232H128.539V8.67871H130.367V19.6787H128.539Z" fill="#212447"/>
<path d="M132.439 19.6787V8.67871H134.267V13.0176H135.851C136.4 13.0176 136.948 13.0787 137.314 13.262C137.74 13.4454 138.045 13.6287 138.349 13.9343C138.593 14.2398 138.837 14.5454 138.959 14.9732C139.081 15.4009 139.142 15.8287 139.142 16.2565C139.142 17.4176 138.837 18.212 138.289 18.8232C137.74 19.4343 136.887 19.6787 135.851 19.6787H132.439ZM135.791 18.0287C136.339 18.0287 136.765 17.9065 137.009 17.6009C137.253 17.2954 137.375 16.8676 137.375 16.3787C137.375 15.8898 137.253 15.5232 137.009 15.2176C136.765 14.912 136.339 14.7898 135.791 14.7898H134.267V18.0898H135.791V18.0287ZM140.055 19.6787V8.67871H141.883V19.6787H140.055Z" fill="#212447"/>
<path d="M157.539 19.6787V8.67871H159.306V16.0732C159.55 15.6454 159.793 15.1565 159.976 14.7287C160.159 14.3009 160.403 13.812 160.646 13.3843C161.073 12.5898 161.438 11.8565 161.804 11.062C162.17 10.2676 162.596 9.53427 162.962 8.73982H164.607V19.7398H162.779V12.5287H162.718C162.535 12.8954 162.352 13.262 162.17 13.5676C161.987 13.9343 161.804 14.3009 161.621 14.6065L159.062 19.6787H157.539Z" fill="#212447"/>
<path d="M171.553 19.6787V14.912H168.446V19.6787H166.618V8.67871H168.446V13.3232H171.553V8.67871H173.381V19.6787H171.553Z" fill="#212447"/>
<path d="M181.365 17.3557C181.182 18.1501 180.817 18.7001 180.207 19.1279C179.659 19.5557 178.928 19.739 178.136 19.739C177.587 19.739 177.1 19.6779 176.674 19.4946C176.247 19.3112 175.881 19.0668 175.638 18.7612C175.333 18.4557 175.15 18.089 175.028 17.6612C174.907 17.2334 174.846 16.8057 174.846 16.2557V11.9779C174.846 11.5501 174.907 11.1223 175.028 10.6946C175.15 10.2668 175.394 9.90011 175.638 9.59455C175.942 9.289 176.247 9.04455 176.674 8.86122C177.1 8.67789 177.587 8.55566 178.197 8.55566C179.05 8.55566 179.781 8.80011 180.329 9.22789C180.878 9.71678 181.243 10.2668 181.426 10.939L179.72 11.489C179.659 11.3057 179.659 11.1834 179.537 11.0001C179.476 10.8779 179.354 10.6946 179.233 10.5723C179.111 10.4501 178.928 10.3279 178.745 10.2668C178.562 10.2057 178.38 10.1446 178.136 10.1446C177.831 10.1446 177.648 10.2057 177.405 10.2668C177.222 10.389 177.039 10.5112 176.917 10.6334C176.795 10.7557 176.674 10.939 176.613 11.1223C176.552 11.3057 176.491 11.489 176.491 11.6723V16.0723C176.491 16.3168 176.552 16.5001 176.613 16.7446C176.674 16.9279 176.795 17.1112 176.917 17.2946C177.039 17.4779 177.222 17.6001 177.405 17.6612C177.587 17.7223 177.831 17.7834 178.075 17.7834C178.44 17.7834 178.806 17.6612 179.05 17.4779C179.354 17.2334 179.476 16.9279 179.598 16.5612L181.365 17.3557Z" fill="#212447"/>
<path d="M186.603 10.3287V19.6787H184.775V10.3287H182.338V8.67871H188.979V10.3287H186.603Z" fill="#212447"/>
<path d="M190.196 19.6787V8.67871H191.963V16.0732C192.207 15.6454 192.451 15.1565 192.633 14.7287C192.816 14.3009 193.06 13.812 193.304 13.3843C193.73 12.5898 194.096 11.8565 194.461 11.062C194.827 10.2676 195.253 9.53427 195.619 8.73982H197.264V19.7398H195.436V12.5287H195.375C195.192 12.8954 195.01 13.262 194.827 13.5676C194.644 13.8732 194.461 14.3009 194.278 14.6065L191.719 19.6787H190.196Z" fill="#212447"/>
<path d="M202.69 10.3287V19.6787H200.862V10.3287H198.425V8.67871H205.066V10.3287H202.69Z" fill="#212447"/>
<path d="M211.646 13.0176C211.22 14.4843 210.732 15.8898 210.245 17.3565C210.062 17.8454 209.879 18.2732 209.697 18.5787C209.514 18.8843 209.331 19.1287 209.087 19.312C208.905 19.4954 208.661 19.5565 208.417 19.6176C208.173 19.6787 207.93 19.6787 207.625 19.7398H206.772V18.2732H207.442C207.686 18.2732 207.869 18.212 207.991 18.0898C208.113 17.9676 208.295 17.7232 208.478 17.4176C208.478 17.3565 208.539 17.2954 208.539 17.2343C208.6 17.1732 208.6 17.112 208.6 16.9898L205.736 8.67871H207.625L208.661 12.1009L209.453 14.6676H209.514C209.575 14.362 209.697 13.9343 209.879 13.4454C210.062 12.9565 210.184 12.3454 210.367 11.7343C210.55 11.1232 210.672 10.5732 210.854 10.0232C211.037 9.47315 211.159 9.04538 211.22 8.67871H212.987C212.499 10.1454 212.073 11.612 211.646 13.0176Z" fill="#212447"/>
<path d="M217.676 10.3287V19.6787H215.848V10.3287H213.411V8.67871H220.052V10.3287H217.676Z" fill="#212447"/>
<path d="M147.548 8.06809C147.121 8.06809 146.817 8.00698 146.512 7.82364C146.268 7.70142 146.025 7.51809 145.842 7.27364C145.659 7.09031 145.537 6.84587 145.476 6.60142C145.415 6.35698 145.354 6.11253 145.354 5.9292H146.573C146.573 6.05142 146.634 6.17364 146.634 6.23475C146.695 6.35698 146.756 6.4792 146.817 6.54031C146.878 6.66253 147 6.72364 147.121 6.78475C147.243 6.84587 147.365 6.90698 147.487 6.90698C147.609 6.90698 147.792 6.90698 147.913 6.78475C148.035 6.72364 148.096 6.66253 148.218 6.54031C148.279 6.41809 148.34 6.35698 148.401 6.23475C148.462 6.11253 148.462 5.99031 148.462 5.9292H149.68C149.68 6.11253 149.619 6.35698 149.559 6.60142C149.498 6.84587 149.376 7.09031 149.193 7.27364C149.01 7.45698 148.827 7.64031 148.523 7.82364C148.218 8.00698 147.913 8.06809 147.548 8.06809Z" fill="#212447"/>
<path d="M143.892 19.6792V8.6792H145.659V16.0736C145.902 15.6459 146.146 15.157 146.329 14.7292C146.512 14.3014 146.755 13.8125 146.999 13.3848C147.425 12.5903 147.791 11.857 148.157 11.0625C148.522 10.2681 148.949 9.53475 149.314 8.74031H150.959V19.7403H149.131V12.5292H149.07C148.888 12.8959 148.705 13.2625 148.522 13.5681C148.339 13.9348 148.157 14.3014 147.974 14.607L145.415 19.6792H143.892Z" fill="#212447"/>
<defs>
<linearGradient id="paint0_linear_2775_83706" x1="35.1359" y1="41.7351" x2="43.375" y2="33.5707" gradientUnits="userSpaceOnUse">
<stop stop-color="#3192D0"/>
<stop offset="0.1984" stop-color="#4193D0"/>
<stop offset="0.4861" stop-color="#6295CD"/>
<stop offset="0.8264" stop-color="#8998C8"/>
<stop offset="1" stop-color="#9B99C5"/>
</linearGradient>
<radialGradient id="paint1_radial_2775_83706" cx="0" cy="0" r="1" gradientUnits="userSpaceOnUse" gradientTransform="translate(25.1506 23.5517) scale(40.1868 40.3075)">
<stop stop-color="#4CBAC7"/>
<stop offset="0.8258" stop-color="#2C4998"/>
<stop offset="1" stop-color="#2C4295"/>
</radialGradient>
<linearGradient id="paint2_linear_2775_83706" x1="0.153478" y1="0.242305" x2="10.8937" y2="10.7842" gradientUnits="userSpaceOnUse">
<stop stop-color="#6A3A8D"/>
<stop offset="0.6629" stop-color="#536EA7"/>
</linearGradient>
<linearGradient id="paint3_linear_2775_83706" x1="14.3111" y1="24.7465" x2="44.0606" y2="4.78871" gradientUnits="userSpaceOnUse">
<stop stop-color="#4DBDC6"/>
<stop offset="0.1816" stop-color="#4DBDC6"/>
<stop offset="0.5912" stop-color="#6D77B3"/>
<stop offset="0.6802" stop-color="#7263A9"/>
<stop offset="0.7204" stop-color="#7864A8"/>
<stop offset="0.7771" stop-color="#8964A6"/>
<stop offset="0.8437" stop-color="#A264A1"/>
<stop offset="0.9178" stop-color="#C1649A"/>
<stop offset="0.9972" stop-color="#E36090"/>
<stop offset="1" stop-color="#E46090"/>
</linearGradient>
</defs>
</svg>
