<svg width="400" height="400" viewBox="0 0 400 400" fill="none" xmlns="http://www.w3.org/2000/svg">
<g clip-path="url(#clip0_7531_41150)">
<path d="M49.954 399.999H0V0H399.999V399.999H358.057H244.01H206.68H203.949H179.877H153.31H149.257H140.74H123.755H108.594H101.313H86.5513H71.3024H64.7993H63.942H49.954Z" fill="white"/>
<path d="M270.617 50.3987C270.042 49.4913 269.556 48.6772 269.211 47.6523L269.387 47.3594C269.954 47.4145 270.427 47.8038 270.896 48.1023C270.892 48.8925 271.051 49.7306 270.617 50.3987Z" fill="#1E1C1D"/>
<path d="M270.631 146.48C269.487 145.57 268.538 144.43 267.679 143.258C268.799 143.596 269.752 144.035 270.781 144.587C270.755 145.136 270.688 145.692 270.769 146.236L270.631 146.48Z" fill="#1E1C1D"/>
<path d="M322.429 211.623L322.681 211.553C323.242 211.493 323.948 211.911 324.346 212.271C325.113 212.965 325.609 213.886 325.682 214.918L325.439 215.003C325.146 214.976 324.882 214.94 324.623 214.787C323.597 214.181 322.752 212.724 322.429 211.623Z" fill="#1E1C1D"/>
<path d="M342.241 91.9042L345.116 91.7812L345.184 92.0318C344.105 92.9214 342.901 92.9786 341.566 93.0979L340.682 93.0188C339.988 92.9271 339.19 92.7469 338.747 92.1672L338.964 91.938L342.241 91.9042Z" fill="#1E1C1D"/>
<path d="M301.587 134.471C302.329 134.435 302.542 134.792 303.113 135.252C304.085 136.036 304.973 136.734 306.281 136.762C307.209 136.782 307.678 135.663 308.288 135.057C309.006 135.173 309.056 135.33 309.547 135.838C309.652 136.505 309.56 136.587 309.276 137.173C308.857 137.766 308.151 138.423 307.464 138.687C306.501 139.056 305.034 138.394 304.191 137.953C303.275 137.472 301.514 136.371 301.274 135.337C301.177 134.92 301.372 134.815 301.587 134.471Z" fill="#1E1C1D"/>
<path d="M233.34 366.82L235.058 366.851C237.35 367.085 240.865 370.168 242.296 371.954C242.073 372.495 241.774 372.611 241.304 372.945C241.079 373.014 240.865 373.058 240.629 373.061C239.636 373.073 238.813 372.409 238.028 371.879C236.099 370.579 234.047 369.221 232.352 367.627L232.347 367.281L233.34 366.82Z" fill="#1E1C1D"/>
<path d="M246.693 327.561L248.117 327.516C249.973 327.581 253.129 329.349 254.29 330.761C254.701 331.261 254.877 331.498 254.804 332.129C254.294 332.605 253.878 332.785 253.222 333.011C251.66 333.137 249.556 332 248.174 331.33C247.111 330.815 245.328 330.08 244.927 328.906C245.33 328.222 246.021 327.933 246.693 327.561Z" fill="#1E1C1D"/>
<path d="M256.146 82.5234L256.687 82.5557C258.022 83.6516 258.822 85.2312 259.612 86.7344L258.632 87.7963C258.031 88.6047 258.32 89.9276 258.434 90.8453C255.35 95.476 252.32 97.8666 246.922 99.4869L244.484 100.006C246.475 98.4515 248.927 97.5411 250.933 95.9739C253.268 94.151 254.985 91.4432 256.521 88.9401C256.749 88.5677 257.461 87.5614 257.517 87.1521C257.692 85.8792 255.812 84.0969 256.071 82.8234L256.146 82.5234Z" fill="#1E1C1D"/>
<path d="M318.129 79.7725C321.551 79.4725 324.117 80.9897 326.914 82.7162C327.081 83.0251 327.168 83.2834 327.218 83.6324C327.343 84.5209 327.451 85.4714 326.891 86.2318C326.23 86.5152 325.965 86.5652 325.255 86.4553C324.759 85.7933 324.791 85.3855 324.688 84.5766C323.385 83.5506 322.204 82.7011 320.608 82.1693L320.371 82.0928C319.753 82.0115 318.952 81.7647 318.415 82.0699C318.317 82.8652 318.238 83.6542 318.031 84.4303C317.54 84.6719 317.529 84.6662 316.991 84.5558C316.487 83.9949 316.442 82.9662 316.312 82.2365C314.705 81.998 312.936 83.0834 311.327 83.1449C310.714 82.8027 310.629 82.7371 310.28 82.1308C310.283 81.5761 310.371 81.173 310.764 80.7631C310.901 80.6209 311.265 80.2954 311.425 80.2282C311.73 80.1001 312.669 80.1657 313.016 80.1438L318.129 79.7725Z" fill="#1E1C1D"/>
<path d="M191.497 26.6574L192.089 26.5625C192.355 26.6677 192.585 26.7757 192.784 26.9891C193.496 27.7527 193.936 29.0783 194.343 30.0275L196.621 35.1529L197.983 37.8643C198.163 38.2163 198.562 38.7897 198.649 39.1574C198.686 39.3162 198.625 39.4829 198.614 39.6456L197.948 40.1966L197.754 40.2222C196.71 40.3013 195.118 39.3687 194.391 38.6121C193.72 37.9146 193.229 36.9782 192.739 36.1477C191.316 33.7352 190.525 31.8997 190.59 29.0273C190.614 27.9103 190.704 27.4192 191.497 26.6574Z" fill="#1E1C1D"/>
<path d="M178.168 30.5629C178.448 30.4968 178.747 30.4253 179.038 30.4393C179.8 30.4758 180.739 30.9156 181.46 31.1801C184.815 32.4107 187.737 34.3052 190.671 36.316C191.595 36.9488 192.825 37.6352 193.556 38.4685C193.987 38.9595 194.047 39.2102 193.976 39.8402L193.457 40.2116C191.839 40.3571 190.5 39.9671 188.967 39.5168C185.209 38.4125 182.247 36.6832 179.187 34.2781C178.471 33.7157 177.327 32.9021 177.32 31.9301C177.316 31.2883 177.752 30.9547 178.168 30.5629Z" fill="#0C1524"/>
<path d="M222.873 211.817C223.067 211.761 223.118 211.735 223.347 211.734C224.78 211.728 226.592 212.458 227.583 213.478C229.393 215.342 230.351 218.383 231.128 220.816C234.086 230.09 235.169 239.813 235.242 249.511C235.124 249.573 234.99 249.596 234.863 249.633C233.547 246.933 233.528 243.364 233.143 240.406L231.812 232.127C230.901 227.527 229.625 222.963 227.823 218.631C227.147 217.007 226.442 215.269 225.361 213.867C224.69 212.997 223.775 212.418 222.873 211.817Z" fill="#1E1C1D"/>
<path d="M258.804 134.666C259.41 134.609 259.665 134.514 260.222 134.857C262.093 136.009 262.981 139.935 263.427 141.975C263.87 144 264.069 146.072 264.289 148.131C265.021 154.973 264.908 162.254 263.549 169.014C263.148 171.008 262.682 173.331 261.55 175.046L261.43 175.222L264.76 180.648L267.818 185.115C268.394 185.917 269.222 186.758 269.547 187.694C269.275 188.158 269.173 188.112 268.651 188.28C268.368 188.215 268.123 188.153 267.87 188.002C266.858 187.4 265.956 186.245 265.187 185.372C262.669 182.515 259.268 178.475 258.321 174.729L259.536 173.299C260.569 171.841 260.807 169.109 261.115 167.38C262.59 159.079 262.276 150.505 260.354 142.3C259.778 139.838 258.853 137.437 258.367 134.966L258.804 134.666Z" fill="#1E1C1D"/>
<path d="M250.198 173.729L250.669 173.688L250.801 173.925C250.276 175.012 249.267 175.985 248.486 176.899C247.349 178.229 246.348 179.58 245.565 181.151C241.056 190.198 243.674 201.337 246.759 210.401C248.25 214.782 250.757 220.671 255.261 222.742C256.308 223.223 257.335 223.186 258.378 222.743C262.164 221.133 262.924 217.003 264.304 213.573L264.584 213.52C264.939 216.239 263.435 218.505 261.939 220.604L260.742 222.362L261.035 222.633C261.675 222.566 262.208 222.476 262.798 222.206L264.452 221.561L264.795 221.776L264.821 222.948C263.972 223.994 262.412 224.732 261.152 225.109C258.55 225.887 255.603 225.683 253.234 224.321C247.688 221.131 244.748 213.832 243.168 207.956C242.189 204.317 241.426 200.71 240.933 196.972C240.722 195.371 240.405 193.756 240.427 192.137C240.492 187.698 242.026 182.619 244.265 178.784C245.746 176.248 247.236 174.51 250.198 173.729Z" fill="#1E1C1D"/>
<path d="M245.756 271.969L246.191 272.119C246.616 273.439 246.603 274.965 246.631 276.341C246.76 282.828 245.245 289.311 243.786 295.596L240.032 310.907L236.127 324.64L233.82 334.626C231.24 347.303 230.533 359.998 229.938 372.877L229.943 382.891L230.052 388.123C230.054 388.414 230.154 389.227 230.054 389.434C229.829 389.902 228.494 390.283 228.242 390.754C228.001 391.205 228.617 392.627 228.417 393.391L227.96 393.152C227.145 389.664 227.165 386.188 227.131 382.625L226.968 375.967C226.921 364.221 227.808 352.162 229.773 340.573C230.776 334.66 232.195 328.779 233.69 322.973L241.13 295.76L244.014 282.027C244.575 278.719 244.86 275.192 245.756 271.969Z" fill="#1E1C1D"/>
<path d="M203.95 399.999L203.505 387.109L203.734 372.051L203.527 363.28C203.488 359.121 203.749 354.875 204.039 350.725L206.198 332.419C206.964 326.563 207.707 320.694 208.969 314.918C211.995 301.061 216.642 287.607 220.676 274.027L223.725 263.152L225.174 256.245C225.474 254.714 225.683 253.088 226.333 251.66L226.757 251.531C227.304 252.076 227.348 252.363 227.343 253.13C227.315 257.767 226.219 262.78 225.288 267.324L222.308 280.656C219.218 291.99 215.28 303.127 212.9 314.648C209.317 331.982 206.885 349.755 206.408 367.464L206.68 399.999H203.95Z" fill="#1E1C1D"/>
<path d="M336.755 215.526C337.056 215.506 337.338 215.618 337.629 215.694C339.152 217.565 339.703 221.117 340.21 223.446C342.194 232.558 342.793 241.938 344.71 251.072L356.097 302.662L357.823 302.593C359.478 302.549 361.9 302.543 363.104 303.876C363.582 304.406 363.651 304.675 363.664 305.369C362.29 306.95 358.621 306.916 356.627 307.066L376.429 388.68L376.847 391.893C376.559 392.198 376.385 392.391 376.194 392.772C376.721 393.443 377.041 393.986 377.291 394.803C376.317 393.796 375.331 392.859 374.815 391.526C373.683 388.607 372.959 385.539 372.203 382.508L368.716 368.106L360.326 337.169L357.447 323.988L354.252 309.09L351.367 292.658L346.578 268.983L340.705 242.339L338.106 226.345C337.576 223.089 336.743 219.681 336.527 216.394C336.503 216.039 336.578 215.828 336.755 215.526Z" fill="#1E1C1D"/>
<path d="M323.975 187.399C325.279 186.553 327.726 186.911 329.193 187.232C334.572 188.413 339.257 191.716 342.175 196.388C345.617 201.901 346.823 209.065 348.259 215.333L352.886 234.962L356.454 247.833L366.172 277.926L370.219 292.032C373.485 303.138 376.671 314.113 378.632 325.552C380.419 335.976 381.107 346.787 381.406 357.348L381.651 365.572C381.774 368.315 382.05 371.11 381.59 373.831C380.955 377.583 381.387 382.152 379.767 385.645L379.484 385.84C378.981 385.261 379.037 383.683 378.962 382.894C378.364 376.546 378.917 370.451 378.942 364.117L378.704 352.888L377.606 338.717C376.442 329.05 374.665 319.544 372.277 310.104L366.884 291.399L361.63 273.761L350.571 239.217L346.103 220.219L343.14 207.134C342.276 203.8 341.289 200.32 339.464 197.368C337.203 193.708 333.189 191.43 329.158 190.24C327.733 189.819 326.189 189.603 324.846 188.963C324.639 188.358 324.344 187.918 323.975 187.399Z" fill="#1E1C1D"/>
<path d="M257.109 30.1598C261.981 29.9494 265.977 30.6936 270.527 32.3924C272.438 33.1058 272.838 33.9869 273.633 35.7488C269.74 34.5895 266.044 33.199 261.962 32.7913C252.148 31.8109 242.113 36.2617 234.69 42.4275C224.921 50.5417 219.897 62.6394 218.741 75.0644C217.908 84.0024 219.017 92.2805 221.269 100.925C222.045 103.902 222.751 107.048 224.758 109.463C227.596 106.714 230.353 104.183 234.472 103.765C238.747 103.333 243.76 105.112 247.002 107.892C250.419 110.822 252.973 115.716 253.297 120.215C253.437 122.148 252.839 124.715 251.492 126.13C250.885 126.766 250.289 127.049 249.414 127.091C248.754 126.809 248.543 126.761 248.102 126.172C248.249 125.323 249.017 124.705 249.511 124.029C250.068 123.267 250.448 122.324 250.586 121.391C251.037 118.338 250.025 115.309 248.274 112.838C245.843 109.404 241.887 106.767 237.709 106.073C234.791 105.588 232.025 106.174 229.605 107.918C227.446 109.473 225.655 111.66 225.263 114.374C224.776 117.74 225.475 120.392 227.487 123.114C229.881 126.353 232.243 127.587 236.153 128.197C235.365 126.204 234.523 124.218 234.078 122.115C233.961 121.565 233.769 120.888 233.894 120.337C233.97 119.997 234.291 119.934 234.57 119.773C235.16 120.158 236.06 123.134 236.538 124.005C237.613 125.965 238.843 127.532 240.378 129.145C241.358 129.986 242.328 130.781 243.517 131.312C246.286 132.547 250.026 132.178 252.849 131.222C254.694 130.597 256.603 129.736 258.593 130.098L258.725 130.465C258.644 130.602 258.591 130.711 258.483 130.825C258.123 131.206 257.403 131.415 256.933 131.673C254.502 133.006 252.542 134.424 249.664 134.692C245.033 135.126 241.072 133.245 237.596 130.371C233.995 131.139 229.959 129.217 227.441 126.679C227.14 126.376 226.187 125.06 225.885 124.945C225.747 124.892 223.731 125.759 223.378 125.851C222.212 126.155 220.491 126.404 219.336 126.021C218.793 125.841 218.562 125.714 218.332 125.196C219.189 124.372 221.978 124.454 223.168 124.163C223.704 124.031 223.962 124.014 224.249 123.536C224.112 123.187 223.805 122.526 223.415 122.364C223.067 122.219 222.003 122.297 221.582 122.268C219.045 122.094 216.593 121.54 214.382 120.244C210.225 117.808 207.258 113.088 206.068 108.496C206.366 108.101 206.346 108.126 206.836 108.043C207.711 108.614 208.249 110.351 208.808 111.294C209.383 112.265 210.069 113.168 210.838 113.994C213.804 117.181 218.532 118.772 222.783 118.938L222.255 118.623L220.117 117.406C217.15 115.258 215.884 111.123 215.211 107.697C214.893 106.085 213.786 102.068 214.648 100.787C215.225 101.009 215.738 103.59 215.924 104.231C217.144 108.434 218.817 113.067 221.796 116.368C222.104 114.514 222.539 113.024 223.33 111.312C221.793 109.923 220.945 108.29 220.065 106.452C217.293 100.666 216.654 95.0237 216.172 88.6987C214.957 72.7383 217.587 57.4608 228.334 44.9913C235.617 36.5411 245.948 30.9828 257.109 30.1598Z" fill="#1E1C1D"/>
<path d="M299.038 20.9768L304.116 20.9297C310.623 21.392 316.592 22.9119 322.496 25.7151C325.179 26.9892 327.915 28.5345 330.174 30.4759C331.305 31.4478 332.277 32.6717 333.249 33.8016C331.662 33.2584 330.092 32.7898 328.554 32.1056L319.632 27.7366C314.635 25.5358 309.153 23.9703 303.678 23.7949C296.935 23.5788 289.104 24.7404 283.999 29.5577L286.737 28.1803C290.097 26.6514 293.502 26.2677 297.149 26.2826C300.105 26.2947 302.965 26.4624 305.854 27.1505C309.958 28.1281 313.63 29.9267 317.408 31.7389C320.119 33.0399 322.849 34.4204 325.72 35.3348C330.523 36.8644 335.552 36.7446 340.332 38.5073C342.772 39.4074 346.153 40.9135 347.243 43.4666L347.363 43.7635L347.495 44.0786C349.204 48.456 347.587 54.6084 345.387 58.5912L344.111 60.6771C343.976 60.8839 343.543 61.4032 343.487 61.6105C343.476 61.6527 343.74 62.3506 343.761 62.412C344.123 63.511 344.792 65.0709 344.323 66.1709C343.873 66.2657 343.596 66.1881 343.156 66.0683C342.306 65.3704 341.867 64.3818 341.348 63.4308L339.945 65.2735L340.701 66.5849C343.529 71.1099 348.267 73.9953 353.417 75.1453C354.812 75.4568 356.204 75.7047 357.629 75.824C357.984 75.8537 358.491 75.9714 358.82 75.8193C359.67 75.4245 360.487 74.6339 361.293 74.1214C361.146 73.3615 361.124 72.9802 361.524 72.2995L362.206 72.2589C362.804 72.5537 363.441 72.8969 363.643 73.5959C364.141 75.3209 363.17 78.1323 362.301 79.5703C359.946 83.4693 355.65 85.2391 351.408 86.2641C349.803 86.6516 348.212 86.6125 346.574 86.5797C341.632 86.4802 337.932 85.5682 333.714 82.9792L334.19 83.4948C336.977 86.4151 340.453 87.0682 344.355 87.1458L347.558 87.1333L347.736 87.5245C347.589 87.7625 347.44 87.9588 347.22 88.1344C345.413 89.5703 342.816 89.2266 340.697 88.9406C337.422 88.4995 333.766 87.0516 331.754 84.3005C330.842 83.0536 330.328 81.6698 329.694 80.274C328.533 77.7162 327.379 75.7563 327.935 72.8521C328.047 72.2651 328.121 71.7037 328.629 71.3672C329.837 73.8464 330.201 76.5849 331.797 78.9167C333.462 81.3479 337.81 83.2557 340.635 83.8307C344.867 84.6927 350.684 84.4109 354.687 82.6313C355.76 82.1542 356.733 81.4849 357.705 80.8333C354.406 80.8193 351.037 81.5938 347.697 81.6682C346.81 81.688 345.674 81.8224 344.852 81.4542C343.852 81.0063 343.004 81.663 342.01 81.813C341.242 81.9287 340.512 81.8865 339.745 81.8042L339.503 81.4458C340.619 80.0141 344.35 80.3354 345.995 80.2708C347.252 80.2214 348.562 80.0818 349.804 79.887C351.89 79.561 353.783 78.9927 355.617 77.9224C353.334 77.9281 351.508 77.661 349.366 76.8719C344.353 75.025 340.163 71.2386 337.909 66.3829C335.791 67.1355 331.843 68.8552 329.604 68.262C329.411 67.7881 329.434 67.3943 329.448 66.8954C329.553 66.7651 329.626 66.6 329.764 66.5047C330.28 66.1469 331.789 65.9568 332.457 65.748C334.86 64.9954 337.544 63.5365 339.402 61.8251C343.739 57.8298 345.172 53.0537 345.453 47.3237C341.778 47.109 338.021 46.9746 334.49 45.829C329.667 44.2641 326.081 40.9893 322.135 37.9801C317.641 34.5535 311.799 30.9752 306.242 29.7201C301.288 28.6014 295.763 28.4468 290.788 29.5406C288.113 30.1286 285.446 31.1532 282.996 32.3633L279.929 33.9615C279.718 34.0679 279.191 34.4142 279.004 34.4219C278.87 34.4275 278.743 34.368 278.613 34.341C278.556 34.1526 278.536 34.1111 278.512 33.8874C278.396 32.7718 278.475 31.8797 279.219 31.0032C284.495 24.7788 290.931 21.7327 299.038 20.9768Z" fill="#1E1C1D"/>
<path d="M325.142 37.8906C329.029 39.0784 332.998 38.8487 336.927 39.7744C340.605 40.6406 343.124 42.1321 345.136 45.3613C343.409 44.9541 341.562 44.8275 339.796 44.6599C337.507 44.3946 335.712 44.0509 333.586 43.1115L340.232 43.6508C338.495 42.9466 336.692 42.7583 334.863 42.4359C331.257 41.8005 328.101 39.9827 325.142 37.8906Z" fill="white"/>
<path d="M270.896 48.1083C276.03 53.7036 278.204 60.7775 277.884 68.3098C277.686 72.9754 275.897 77.2973 273.934 81.4556C277.427 80.4353 281.008 79.6223 284.673 79.6749C285.25 77.2087 286.227 74.8889 286.947 72.4671C288.503 67.2238 289.304 60.7921 286.408 55.8744C286.079 55.3161 285.579 54.8249 285.893 54.2218C286.598 54.2093 286.954 54.3848 287.444 54.8666C290.032 57.4119 290.421 60.8556 290.553 64.2832C291.532 61.128 291.592 58.04 289.965 55.0645C289.273 53.7994 288.136 52.8796 287.556 51.5598C289.906 52.5364 291.799 54.0187 292.794 56.4473C293.728 58.7259 293.567 61.1921 293.065 63.5468C294.69 63.9759 296.465 64.4426 297.94 65.2692C299.089 65.9124 300.305 67.0212 301.28 67.9004C301.325 66.8379 301.438 65.6869 301.363 64.6275C301.265 63.252 300.706 61.7494 300.46 60.366C301.407 61.7561 302.034 62.9999 302.603 64.5931C302.727 63.628 302.934 62.5676 302.895 61.5963C302.851 60.5114 302.497 59.4134 302.23 58.3655C301.478 55.4114 300.319 52.2557 298.454 49.8085L298.17 49.4519C298.296 52.2536 298.206 54.7629 299.662 57.2572L296.701 55.3338C296.52 53.2155 296.215 50.7121 296.733 48.6405L296.828 48.2528L296.899 47.9987C294.806 44.5091 291.491 40.9002 287.379 39.9229L282.78 39.2394C285.279 38.1116 287.317 37.7365 289.977 38.7343C292.182 39.5609 294.198 41.3477 295.808 43.0167C299.123 46.4533 301.719 50.2269 303.593 54.6312C305.522 59.1655 305.502 63.5421 304.176 68.2155C303.983 68.8962 304.349 68.7681 304.924 69.004C308.417 70.4363 313.956 72.9905 317.675 71.454C319.571 70.6712 320.892 68.3108 321.588 66.4582C321.915 65.5879 322.143 64.5983 322.26 63.6739C322.327 63.1416 322.267 61.316 322.502 60.9395C322.573 60.8239 322.735 60.7989 322.851 60.7291C323.443 61.0629 323.614 61.253 323.836 61.916C324.599 64.2051 323.88 67.8087 322.725 69.8415C321.578 71.8572 319.546 73.2514 317.333 73.865C312.501 75.2046 306.804 73.3587 302.349 71.4426C301.336 73.3249 299.241 75.5483 298.727 77.5603C298.402 78.8306 298.866 81.6863 297.655 82.4103C297.047 82.115 296.822 81.4337 296.569 80.8196C295.686 78.6806 294.635 75.9754 292.187 75.2249C291.198 74.9212 290.149 74.9905 289.129 75.0264C288.064 76.4056 287.292 77.966 286.447 79.4847C286.95 80.3905 288.079 79.6519 287.54 81.2519C287.334 81.8634 287.124 82.0629 286.62 82.4087C286.012 82.4873 285.416 82.4327 284.968 82.9123L283.495 85.1384L283.063 85.0603C282.767 84.3806 282.916 82.8097 282.565 82.4233C279.102 82.6228 276.122 83.7493 272.776 84.504L267.755 91.2462C276.185 88.5405 286.041 86.978 294.865 88.1978C296.294 88.3951 297.843 88.5488 299.136 89.2389C300.107 89.7566 300.859 90.4811 301.193 91.5488C301.626 92.9347 301.361 94.8941 301.442 96.3628C303.148 93.4009 305.32 89.9764 308.812 89.03C313.459 87.7707 318.853 88.0707 323.613 88.4384C326.516 88.6618 329.509 88.7806 332.101 90.2613C333.176 90.8754 334.079 91.728 334.418 92.9566C334.941 94.8566 334.943 97.4259 334.439 99.3186L334.363 99.6133C333.64 102.274 331.557 104.707 329.165 106.037C327.926 106.727 326.628 106.977 325.224 107.066C324.836 114.631 323.909 122.611 321.131 129.721C319.746 133.267 317.868 136.701 316.085 140.063C313.706 144.551 310.987 149.064 307.197 152.509C303.819 155.577 299.863 157.121 295.371 157.695L294.921 166.1L294.342 172.815C294.18 174.464 293.854 176.401 294.139 178.029L294.486 178.082C295.834 176.119 295.39 171.791 298.585 171.33C300.216 171.095 302.38 171.885 303.655 172.911C305.403 174.318 306.588 176.18 307.828 178.014C309.023 179.78 310.268 181.538 311.298 183.405C313.016 186.519 314.388 189.896 315.697 193.199C316.279 194.666 317.046 196.221 317.38 197.756C317.059 198.286 317.093 198.29 316.503 198.464C314.645 197.593 313.647 194.249 312.53 192.555C313.289 197.171 314.541 201.948 318.58 204.806C321.432 206.824 326.055 208.695 329.589 208.535C330.285 208.026 330.775 207.488 330.877 206.594C331.051 205.071 330.295 203.395 329.734 202.009C327.528 196.563 323.943 190.74 320.14 186.252C318.19 183.95 315.686 181.717 313.265 179.93C312.056 179.038 310.398 178.212 309.406 177.115C315.076 178.095 319.693 181 322.985 185.781L323.975 187.4C324.344 187.918 324.639 188.358 324.847 188.963L324.986 189.281C325.718 190.895 327.056 192.46 328.009 193.976C329.898 196.983 331.62 200.299 332.724 203.682C333.068 204.736 333.511 205.957 333.577 207.068C333.622 207.809 333.39 208.607 333.13 209.294C332.769 210.247 332.006 211.109 331.054 211.507C328.843 212.429 322.111 210.207 319.751 209.17L316.688 207.637L316.772 207.843C318.098 211.163 318.911 214.8 319.845 218.248L325.837 242.991L334.281 277.687C336.807 290.238 338.075 302.968 341.04 315.452L346.64 335.932C351.062 349.936 356.221 363.653 358.58 378.224L358.3 378.495C357.819 378.166 357.597 377.916 357.363 377.379C355.773 373.736 354.869 369.593 353.804 365.772C352.79 362.137 351.496 358.55 350.19 355.012C348.855 351.397 347.539 347.588 345.287 344.434C345.587 348.582 345.931 352.84 347.085 356.851C347.742 359.136 348.877 361.318 349.731 363.538L352.778 372.104C354.319 376.279 356.065 380.351 357.019 384.718C358.079 389.57 357.989 395.041 358.057 400.001H244.01C244.272 392.442 245.118 384.883 246.66 377.477C247.687 372.55 249.098 367.622 250.506 362.793L254.417 350.081L258.057 334.996L260.679 323.617C261.5 319.349 261.838 314.924 262.183 310.592L263.008 296.171L262.861 290.822C262.776 289.655 262.533 288.473 262.663 287.306L262.988 287.105L263.326 287.264C265.391 290.827 265.497 295.367 265.661 299.372C266.4 297.075 266.783 294.743 267.252 292.384C268.283 287.197 269.081 282.017 269.432 276.733L269.731 261.117L269.893 250.099C269.7 240.19 268.855 230.493 267.473 220.686C266.909 216.687 266.446 212.641 265.328 208.749L259.003 189.633L255.457 180.484C254.858 178.85 254.154 177.148 253.91 175.42L253.868 175.099C253.548 172.79 254.328 171.832 255.631 170.041C255.733 172.443 255.93 174.386 256.93 176.604C257.935 178.837 259.321 180.977 260.569 183.085C262.877 186.988 265.243 191.012 268.359 194.338C270.264 196.37 272.537 198.143 274.84 199.701C276.595 200.888 278.414 202.038 280.407 202.779C281.431 200.787 281.94 198.409 282.644 196.282L286.722 183.755C287.09 182.443 287.314 181.091 287.567 179.754C287.717 178.957 287.76 178.175 288.27 177.521C288.82 177.306 288.996 177.355 289.567 177.428C290.514 178.777 289.826 181.305 289.662 182.902C291.752 182.942 294.408 184.01 296.271 182.974L296.316 182.716C295.22 182.164 294.217 181.573 293.415 180.613C292.765 179.835 292.302 178.827 292.117 177.83C291.694 175.542 291.985 172.78 292.066 170.453L292.718 157.664C284.004 156.982 276.683 153.083 270.768 146.637L270.631 146.485L270.769 146.241C270.687 145.698 270.754 145.141 270.781 144.592C277.348 149.114 283.319 153.687 291.477 154.707C296.385 155.322 301.746 153.592 305.597 150.519C309.585 147.338 311.525 142.766 313.77 138.351C316.326 133.323 318.698 128.518 320.063 123.008C321.169 118.542 321.532 113.923 322.1 109.369C321.101 110.424 319.686 112.139 318.301 112.649C317.434 112.969 316.474 113.011 315.561 113.061C316.076 114.184 316.737 115.491 316.787 116.739C316.868 118.745 315.939 120.826 314.578 122.258C312.939 123.983 310.754 124.735 308.411 124.788C306.754 124.825 304.809 124.353 303.579 123.196L303.581 122.719C304.3 122.358 305.162 122.465 305.952 122.458C307.888 122.442 309.801 122.496 311.516 121.434C312.709 120.695 313.767 119.627 314.003 118.19C314.144 117.332 313.838 116.34 313.528 115.547C312.511 112.948 310.899 110.477 309.633 107.986C308.196 105.161 307.102 101.73 305.184 99.2415C304.403 98.9842 303.308 99.1014 302.48 99.0873C300.74 103.637 300.042 108.878 297.135 112.921C294.815 116.146 291.37 118.134 287.473 118.765C282.992 119.491 278.603 118.581 274.934 115.886C271.047 113.029 269.032 109.335 268.334 104.616L264.707 104.963C264.89 106.313 266.501 107.985 267.178 109.198C267.681 110.098 268.196 111.246 267.831 112.282C267.6 112.936 266.983 113.459 266.343 113.7C265.641 113.965 264.812 113.959 264.147 113.6C263.558 113.284 263.127 112.895 262.932 112.238C262.793 111.768 262.944 112.028 262.597 111.627L255.423 114.023L261.336 120.022L261.239 120.421C260.288 120.711 259.681 120.745 258.752 120.351C255.678 119.049 253.23 115.179 252.089 112.169C253.202 111.909 254.369 111.722 255.457 111.386C257.922 110.623 260.297 109.46 262.741 108.603L261.303 105.577L260.85 105.653C257.215 106.228 250.44 107.202 247.442 104.828C246.866 104.373 246.772 104.034 246.671 103.322C247.017 102.94 246.906 102.979 247.404 103.082C251.642 103.951 257.214 104.296 261.408 102.948C259.782 102.322 257.512 102.563 256.294 101.174L256.5 100.881C257.876 100.495 259.448 100.535 260.877 100.46C261.286 98.2665 261.687 95.8951 262.607 93.8488C263.491 91.8785 264.909 90.1212 266.18 88.3894C267.954 85.9701 269.956 83.5004 271.429 80.8879C272.752 78.5452 273.687 75.9572 274.42 73.3754C277.05 64.1192 275.114 58.4421 270.616 50.4047C271.051 49.7365 270.891 48.8985 270.896 48.1083Z" fill="#0C1524"/>
<path d="M327.152 94.2344C328.282 94.451 330.587 94.662 331.52 95.3448C331.929 95.6432 332.349 96.1333 332.412 96.6406C332.667 98.6922 330.819 101.411 329.566 102.928C328.46 104.082 327.389 104.479 325.912 104.986C326.096 103.667 326.534 102.352 326.753 101.029C327.129 98.7495 327.159 96.5349 327.152 94.2344Z" fill="white"/>
<path d="M273.658 91.3047L273.784 91.3052L273.878 91.4146L272.04 92.9302C269.211 95.6364 268.634 98.8104 268.493 102.578L267.203 102.274C266.242 102.092 265.765 102.155 264.967 102.722L264.822 102.829L264.448 103.122L264.211 103.023C264.247 100.583 264.159 97.3937 265.319 95.1651C266.35 93.1844 271.588 91.999 273.658 91.3047Z" fill="white"/>
<path d="M291.688 65.9141C294.835 66.5156 297.083 67.7406 299.37 69.9375C299.26 70.5927 298.864 71.2302 298.582 71.8307L297.04 75.289L296.725 75.4849C296.321 74.8021 295.879 74.0693 295.287 73.5318C293.655 72.051 291.655 72.0792 289.614 72.2021C289.924 70.3641 291.047 68.6594 291.348 66.8057C291.406 66.4443 291.479 66.2286 291.688 65.9141Z" fill="white"/>
<path d="M298.307 172.75L298.575 172.624C298.921 172.531 299.342 172.67 299.656 172.815C301.835 173.819 303.411 176.178 304.232 178.354C305.615 182.018 306.418 186.174 304.667 189.853C303.611 192.071 301.836 193.55 299.511 194.302C295.274 195.673 290.265 194.641 286.419 192.639L288.852 187.547C289.14 187.915 289.035 187.748 289.244 188.135C289.779 189.121 290.35 190.07 291.182 190.839C292.128 191.714 292.958 192.038 294.238 192.005L294.476 191.695C293.942 190.282 292.62 188.684 292.41 187.265C292.326 186.699 292.255 186.443 292.577 185.982L296.776 185.666C298.326 185.347 299.758 184.201 300.603 182.881C302.123 180.507 301.369 177.53 299.828 175.376C299.369 174.735 298.453 173.868 298.341 173.081L298.307 172.75Z" fill="white"/>
<path d="M315.983 90.5098C318.577 90.2713 321.345 90.3827 323.893 90.9176C324.829 95.064 324.274 100.446 322.326 104.219C320.793 107.187 318.168 110.051 314.914 111.071C314.436 110.98 314.031 110.248 313.723 109.851C312.357 107.567 311.154 105.149 309.974 102.763C309.129 101.056 308.436 98.9374 307.083 97.5551C306.145 96.5968 305.443 96.5978 304.173 96.628L303.798 96.639L306.541 92.7447C308.363 90.6478 313.404 90.7098 315.983 90.5098Z" fill="white"/>
<path d="M309.556 96.776L310.039 96.7266C310.269 96.9109 310.5 97.0891 310.695 97.3115C311.574 98.3177 311.787 99.7937 311.685 101.073L311.265 101.071C310.295 99.9026 309.894 98.2328 309.556 96.776Z" fill="#1E1C1D"/>
<path d="M319.78 93.6484C320.301 93.6656 320.739 93.8047 321.212 94.024C321.967 94.374 322.562 95.0495 322.815 95.8422C323.014 96.4641 323.096 97.0099 322.806 97.6L322.167 97.6484C321.213 96.9792 320.392 95.5974 319.67 94.6609L318.17 95.826L314.787 99.4974C314.898 99.0771 315.104 98.7151 315.311 98.3365C316.327 96.4734 317.643 94.2719 319.78 93.6484Z" fill="#1E1C1D"/>
<path d="M288.142 90.5157C290.024 90.3412 296.296 90.3365 297.636 91.4448C299.025 92.5938 299.281 96.9443 299.314 98.6386C298.5 98.7219 297.458 98.6537 296.791 99.1234L296.843 99.7099C297.29 100.354 298.103 100.473 298.833 100.732C298.101 104.239 296.67 108.992 294.418 111.807C291.786 115.096 287.957 116.355 283.916 116.81C280.505 116.691 277.54 115.515 274.964 113.276C272.197 110.872 270.539 107.306 270.32 103.656C270.14 100.633 271.499 96.9427 273.523 94.6886C276.897 90.9323 283.46 90.8094 288.142 90.5157Z" fill="white"/>
<path d="M292.5 96.5847C292.907 96.5884 292.739 96.5154 293.017 96.7795C292.04 98.3743 291.134 100.071 290.636 101.881C290.302 103.094 290.353 104.777 289.745 105.829L289.513 105.614C289.3 104.929 289.219 104.333 289.248 103.611C289.337 101.348 290.79 98.0956 292.5 96.5847Z" fill="#1E1C1D"/>
<path d="M308.071 188.766L308.234 188.847C311.204 194.759 312.009 201.832 313.866 208.15L320.682 232.808L324.008 247.49L331.796 280.707L334.57 297.999C335.269 303.41 335.779 308.903 336.932 314.237C336.06 313.826 335.654 312.459 334.552 312.062C334.124 311.908 334.03 311.973 333.637 312.138C333.534 312.858 333.983 313.459 334.295 314.105C334.86 315.274 335.489 316.443 335.957 317.654C336.344 318.655 336.57 319.722 336.792 320.769L340.326 340.442C341.165 344.801 342.511 349.128 343.134 353.511C343.373 355.187 342.679 357.359 342.439 359.048C343.273 358.163 343.81 357.17 344.823 356.445L345.132 356.734C345.216 358.369 344.939 359.71 344.468 361.269C342.148 368.941 336.611 374.057 329.671 377.758C319.16 383.365 307.228 383.745 295.966 380.271C286.169 377.248 276.146 371.145 269.25 363.564C266.13 360.134 263.68 356.438 261.507 352.358C263.423 348.863 263.726 344.389 264.208 340.486L266.195 346.45C267.405 349.355 269.59 352.249 271.669 354.598C275.477 358.899 280.885 363.837 286.411 365.716C288.31 366.362 290.233 366.544 292.223 366.659C289.998 364.95 287.506 363.671 285.221 362.047C279.59 358.045 274.187 352.418 270.48 346.583C268.554 343.551 267.564 340.027 265.558 337.08C265.225 336.59 266.584 331.088 266.786 330.002C267.758 324.763 268.696 319.55 269.172 314.239L273.876 319.327C276.747 322.15 280.693 324.778 284.863 324.74L285.096 324.41C284.569 323.364 283.37 322.851 282.384 322.314C280.993 321.556 279.548 320.834 278.292 319.861C275.139 317.417 272.825 314.186 269.983 311.44C269.724 311.19 269.866 310.903 269.9 310.553L271.534 287.37L272.545 267.498L272.814 260.774L272.623 257.125L272.116 241.695C271.785 235.132 271.33 228.462 270.31 221.969C268.932 213.192 266.651 204.344 263.758 195.954C267.312 199.109 270.722 201.512 275.085 203.456C276.782 204.211 278.485 204.96 280.37 204.907C283.132 203.837 284.834 198.107 286.045 195.607C286.929 195.744 287.801 196.199 288.668 196.445C290.2 196.878 291.821 197.199 293.402 197.383C297.527 197.863 302.298 197.021 305.566 194.312C307.405 192.788 307.839 191.029 308.071 188.766Z" fill="white"/>
<path d="M297.966 203.616C298.395 203.521 298.663 203.459 299.103 203.559C300.232 203.817 301.796 205.316 302.366 206.31C302.716 206.92 302.799 207.597 302.614 208.275C302.407 209.035 301.844 209.347 301.217 209.722C300.52 209.808 299.69 209.925 299.006 209.724C298.159 209.475 297.312 208.471 296.898 207.717C296.488 206.971 296.337 205.694 296.603 204.882C296.821 204.215 297.39 203.917 297.966 203.616Z" fill="#1E1C1D"/>
<path d="M332.325 320.799L332.55 320.712C333.28 320.502 334.004 320.628 334.667 320.96C334.942 321.353 335.016 321.44 335.058 321.91L334.667 322.368C333.985 322.575 333.159 322.742 332.73 323.354C331.161 325.588 329.873 328.046 327.907 329.975C326.469 331.387 324.646 332.86 322.623 333.241C321.301 333.491 319.847 333.384 318.505 333.364C317.975 333.377 317.349 333.445 316.838 333.299C316.362 333.163 316.336 333.02 316.11 332.615C316.512 332.032 316.723 331.992 317.381 331.723C319.258 330.954 321.383 331.13 323.194 330.254C325.055 329.354 326.787 327.905 327.987 326.224C329.311 324.37 330.335 322.03 332.325 320.799Z" fill="#1E1C1D"/>
<path d="M303.161 212.404C303.811 212.216 304.065 212.216 304.687 212.506C307.094 213.625 307.281 215.769 307.871 218.076L309.006 221.83C306.851 226.231 311.972 229.012 311.304 233.198C310.654 237.262 313.304 239.883 313.884 243.663L313.941 244.044C314.144 245.333 314.037 246.624 313.976 247.922C314.904 248.875 315.652 249.693 315.794 251.075C315.988 252.983 315.952 255.416 314.662 256.935L314.37 257.143C313.828 257.42 313.156 257.284 312.644 257.014C310.346 255.803 310.701 251.709 311.105 249.568C311.213 248.995 311.575 247.583 311.454 247.064C311.414 246.893 310.91 246.327 310.782 246.148C310.317 245.497 309.913 244.878 309.66 244.11C308.98 242.047 308.61 239.596 308.231 237.448C308.132 236.887 308.184 236.292 308.037 235.744C307.581 234.047 306.333 232.518 305.772 230.824C305.025 228.569 305.95 226.133 305.257 224.025C304.887 222.898 304.204 221.397 303.641 220.343C303.207 219.528 302.618 218.699 302.372 217.806C301.895 216.071 302.287 213.948 303.161 212.404Z" fill="#1E1C1D"/>
<path d="M49.9541 400.001L51.4893 392.679C49.6951 389.982 47.6994 387.458 46.0176 384.68C42.6505 379.117 39.6525 373.292 37.0337 367.342C34.0365 360.533 31.5995 353.775 30.4508 346.388C29.9306 343.044 29.5527 339.828 30.2402 336.471C30.7964 333.756 31.9406 331.097 33.0267 328.557L40.5556 312.88L51.5161 289.064L58.5703 274.709L66.1354 256.849L65.8547 256.817C64.9437 256.707 64.3739 256.673 63.8052 255.892C62.9297 254.691 62.3755 253.04 61.9583 251.626C60.9135 248.085 60.3193 244.203 60.0099 240.533C59.9167 239.433 60.1229 236.828 59.6016 235.939C59.3005 235.426 58.7682 235.175 58.2203 235.057C57.2927 234.857 56.1693 234.981 55.2156 235.013C52.5698 235.103 49.5723 235.173 47.0655 236.076C45.3359 236.699 43.7971 237.784 42.0903 238.469C38.883 239.756 34.9697 239.882 32.7706 236.745C31.5991 235.074 31.1414 232.453 31.5766 230.464C32.3853 226.767 35.1682 225.044 38.0424 223.005C35.474 223.819 33.2885 224.175 30.598 224.328C28.5716 224.444 26.5423 224.487 24.6676 223.568C22.5932 222.55 21.6196 220.841 20.9578 218.717C20.6642 217.774 20.4081 216.71 20.3084 215.725C20.2403 215.052 20.4614 213.351 20.2167 212.818C20.0002 212.347 18.5029 211.282 18.0609 210.892C12.7882 206.236 5.03483 201.872 4.22949 194.212C3.99849 192.014 4.41399 189.897 5.45774 187.951C6.9106 185.244 9.51596 182.698 12.497 181.828C15.2858 181.013 18.0558 181.777 20.8172 182.332C14.9904 176.354 9.05799 171.904 9.14164 162.726L9.33794 160.158C10.0456 155.151 12.193 150.05 16.3087 146.911C20.0761 144.039 24.2607 142.149 28.8074 140.886C34.0599 139.427 39.5317 138.811 44.6896 136.999C46.7412 136.279 48.8616 135.418 50.602 134.089C53.5813 131.813 55.4583 127.908 55.938 124.245C56.5068 119.902 55.9828 115.351 56.3349 110.956C57.3188 98.6814 63.3125 85.857 73.1088 78.1726C80.6937 72.2237 91.9041 66.8627 101.745 67.2877L101.855 67.0549C101.208 66.3148 100.692 65.9851 99.8046 65.5831C99.2791 65.345 98.7171 65.1898 98.4374 64.6508C99.2051 63.9565 102.109 63.8768 103.286 63.7289C97.3468 59.0701 92.7452 52.8737 91.8187 45.2172C90.8598 37.2918 93.7244 30.1007 98.6124 23.9663C105.101 15.8226 114.658 11.3647 124.901 10.2503C134.446 9.21206 143.685 12.3628 151.071 18.3751C157.822 23.8712 163.298 32.0436 164.152 40.9078C164.354 43.0051 164.372 45.1769 164.112 47.268C163.117 55.3024 158.501 64.9893 152.024 70.0705C151.249 70.6794 150.431 71.2268 149.551 71.6747C154.659 73.7575 158.747 76.8382 162.286 81.0768C165.849 85.3455 168.963 90.0127 171.572 94.9221L181.117 114.464L189.595 129.503C193.159 135.93 196.581 142.689 199.439 149.455C204.959 162.517 207.758 177.149 208.392 191.272L208.35 199.428C208.503 205.449 206.169 212.356 201.981 216.701C199.286 219.497 196.158 221.818 192.845 223.83C191.234 224.809 189.512 225.647 187.958 226.713C190.477 226.392 192.611 226.522 194.689 228.171C196.275 229.431 197.26 231.146 197.455 233.171C197.699 235.688 196.327 238.203 194.716 240.037C193.281 241.669 191.287 243.149 189.257 243.956C188.678 244.186 187.779 244.333 187.319 244.723L198.703 299.428C199.547 292.293 201.211 285.381 202.64 278.358L205.292 263.277L207.938 245.296C209.148 235.21 209.676 224.309 213.574 214.821C215.978 208.969 220.233 204.668 225.138 200.809C228.805 197.923 234.268 193.962 239.16 194.197C239.487 194.394 239.662 194.392 239.777 194.78C239.889 195.158 239.851 195.306 239.745 195.669C238.702 196.399 237.258 196.759 236.064 197.213C234.622 197.761 233.226 198.455 231.89 199.224C221.296 205.325 215.376 214.338 213.267 226.272L212.031 236.045L209.782 254.896L204.749 282.595L200.762 302.915C200.568 303.818 200.348 304.701 200.061 305.579C199.938 305.957 199.609 306.645 199.636 307.033C199.72 308.219 200.417 309.796 200.753 310.99L203.067 319.239C204.019 322.424 205.394 325.992 205.365 329.349C205.346 331.534 204.854 334.121 203.998 336.134C202.96 338.578 201.379 340.887 200.019 343.166C193.55 354.008 186.008 364.418 177.76 373.977C176.015 375.998 174.133 378.41 172.033 380.053C173.107 381.358 174.24 382.664 175.119 384.111C178.147 389.096 178.873 394.376 179.877 400.001H153.31H149.257H140.74H123.756H108.594H101.313H86.5515H71.3026H64.7995H63.9422H49.9541Z" fill="#0C1524"/>
<path d="M112.427 89.7489C112.847 89.689 112.861 89.6776 113.227 89.8848C113.384 90.4567 113.505 90.8192 113.307 91.4072L112.792 91.6468L111.97 91.5442L111.779 91.1166C111.89 90.4614 111.979 90.239 112.427 89.7489Z" fill="white"/>
<path d="M129.805 67.6791C130.385 67.5948 131.023 67.7479 131.52 68.0698C131.956 68.351 132.194 68.6448 132.27 69.1437L131.738 69.7161L130.957 70.0401C130.479 69.4708 129.978 68.4031 129.805 67.6791Z" fill="white"/>
<path d="M141.326 133.688C141.845 134.455 142.314 135.181 143.037 135.773C143.281 135.973 143.576 136.165 143.739 136.444C144.137 137.125 143.874 138.057 143.652 138.741L143.461 139.031L143.203 139.058C142.414 137.359 141.856 135.484 141.326 133.688Z" fill="white"/>
<path d="M98.2457 142.93C99.5602 143.66 101.058 144.265 102.535 144.563C102.811 144.618 102.8 144.705 102.963 144.923C102.879 145.465 102.855 145.978 102.5 146.42L101.855 146.25C100.111 145.626 98.5337 145.222 96.6899 145.006L98.2457 142.93Z" fill="white"/>
<path d="M150.483 129.979L150.807 129.898C150.936 129.898 151.075 129.912 151.185 129.979C151.713 130.296 152.731 132.038 153.197 132.597C154.201 133.801 155.318 134.919 156.408 136.045L154.806 135.372C153.886 134.967 152.946 134.553 152.124 133.966C150.788 133.012 149.686 131.859 148.244 131.037L147.985 130.893C148.788 130.487 149.627 130.244 150.483 129.979Z" fill="white"/>
<path d="M22.416 216.023C24.2224 217.449 26.0235 218.853 28.195 219.674C31.971 221.101 35.8435 220.69 39.4528 219.068L39.7769 219.201L39.7996 220.021L39.3551 220.395C35.6267 220.904 32.1687 221.747 28.3629 221.281C27.3388 221.155 26.2773 221.042 25.3423 220.572C23.5224 219.659 23.0291 217.81 22.416 216.023Z" fill="white"/>
<path d="M149.257 399.998C148.421 399.447 147.533 398.923 146.765 398.279L155.829 393.578L153.309 399.998H149.257Z" fill="white"/>
<path d="M21.286 186.742C20.0576 188.853 18.6232 190.456 17.7655 192.804C16.7067 195.701 15.9173 199.103 16.7551 202.146C17.3599 204.343 18.6661 206.537 19.6255 208.621C19.1801 208.324 18.8682 207.91 18.5263 207.505C16.4104 204.89 13.8674 201.473 13.9415 197.926C14.0241 193.974 18.5868 189.265 21.286 186.742Z" fill="white"/>
<path d="M71.3022 399.996C72.2429 399.161 73.4913 398.218 73.8575 396.969C73.9575 396.625 74.0658 395.804 74.2314 395.545C74.5725 395.011 75.8725 394.248 76.4126 393.93L86.5512 399.996H71.3022Z" fill="white"/>
<path d="M117.171 77.05L117.455 77.0391C117.229 77.451 116.854 77.637 116.477 77.8963C114.621 79.1729 113.241 80.4766 111.921 82.3057C110.244 84.6302 109.11 87.2713 107.887 89.8484C106.993 91.7302 106.056 94.4822 104.208 95.6041L103.92 95.4973C103.799 94.2026 104.521 92.6724 104.878 91.4312C105.392 89.6427 105.683 87.8198 106.458 86.1135C107.661 83.464 109.459 81.2026 111.667 79.3208C112.268 78.8088 113.047 78.1234 113.758 77.7984C114.664 77.3844 115.936 77.5323 116.962 77.1344L117.171 77.05Z" fill="white"/>
<path d="M15.2385 184.629C16.7902 184.578 18.1953 184.695 19.7267 184.947L15.7128 187.829C13.4726 189.436 11.5021 191.96 11.0982 194.733L11.0494 195.102C10.619 198.22 12.3746 201.209 13.7695 203.86L13.7329 204.323C11.1892 202.375 8.22774 199.641 7.20467 196.503C6.61973 194.709 7.16405 192.722 7.96832 191.095C9.40941 188.18 12.1789 185.7 15.2385 184.629Z" fill="white"/>
<path d="M188.155 228.942C189.417 228.864 190.645 228.829 191.81 229.395C193.699 230.31 194.392 231.693 195.023 233.566C194.294 237.122 191.843 239.016 189.077 241.08L186.824 242.525C186.045 238.432 184.583 234.636 182.843 230.865C184.616 230.015 186.238 229.39 188.155 228.942Z" fill="white"/>
<path d="M100.481 90.7207C100.914 90.6056 101.041 90.5916 101.464 90.8337C102.043 91.1655 102.25 91.4681 102.387 92.0874C99.096 101.012 93.2658 110.456 85.6736 116.389C81.8502 119.377 77.3106 121.718 72.9835 123.909L65.4789 127.686C65.0461 127.902 64.632 127.928 64.1601 127.976L64.02 127.634C64.8825 125.832 68.0487 124.245 69.7247 123.173L83.1096 115.011C87.1564 112.581 90.7804 109.633 93.6517 105.866C95.2616 103.755 96.3491 101.439 97.4314 99.0342C98.6626 96.2994 99.7481 93.6369 100.481 90.7207Z" fill="white"/>
<path d="M123.755 399.997C123.872 396.893 124.119 394.062 126.558 391.838C128.139 390.397 130.173 389.468 132.054 388.484C134.857 392.893 138.232 396.2 142.39 399.314C142.019 399.75 141.276 399.844 140.74 399.997H123.755Z" fill="white"/>
<path d="M101.313 399.997C106.726 395.974 112.687 392.679 117.869 388.348C120.406 386.226 122.81 383.945 125.138 381.597C127.22 379.498 129.18 376.995 131.713 375.438L128.805 380.397L131.465 385.297L108.594 399.997H101.313Z" fill="white"/>
<path d="M168.088 94.2031L169.325 96.0104C173.391 102.986 176.334 110.663 180.082 117.829C185.876 128.907 192.414 139.692 197.286 151.232C201.747 161.798 204.487 173.085 205.603 184.483C206.229 190.867 206.536 197.811 204.92 204.06C204.808 204.362 204.698 204.56 204.527 204.827C204.408 203.707 204.559 202.49 204.598 201.358L204.749 194.553C204.692 187.546 203.853 180.399 202.542 173.523C200.894 164.87 198.265 156.26 194.687 148.21C190.726 139.299 185.582 130.966 180.906 122.426C175.905 113.294 171.516 104.049 168.088 94.2031Z" fill="white"/>
<path d="M163.144 290.914C163.555 291.165 163.589 292.119 163.686 292.594C165.057 299.291 166.649 305.779 168.716 312.307L171.964 321.747C171.14 323.536 169.771 324.894 168.467 326.336C167.876 327.001 166.893 328.234 166.069 328.571C163.965 325.462 163.442 322.146 162.895 318.508C161.509 309.287 161.884 300.12 163.144 290.914Z" fill="white"/>
<path d="M81.0979 142.477C82.4463 142.468 83.8239 143.291 85.1958 143.566C88.5822 144.243 92.0791 144.623 95.527 144.738C93.9317 148.546 93.8958 152.915 92.628 156.87C91.3395 158.376 89.7025 158.714 87.8161 158.884C86.1489 159.035 84.3036 158.644 83.0354 157.495C80.8203 155.489 80.3083 152.12 80.2468 149.289C80.2151 147.828 80.1484 143.468 81.0979 142.477Z" fill="white"/>
<path d="M112.835 68.1797C114.049 68.4953 115.304 68.9094 116.551 69.0599C117.904 69.2229 119.333 69.1708 120.696 69.1823C121.484 69.8635 122.032 70.9167 122.602 71.7838C121.236 71.9568 119.701 72.0391 118.385 72.4276C116.055 73.1146 114.428 74.7182 112.749 76.3812C111.067 75.4276 109.35 74.1755 107.423 73.8021C105.715 73.4713 103.943 73.4375 102.209 73.3682C94.1057 73.0432 85.6786 74.8765 78.8896 79.4656C69.3969 85.8812 63.6933 95.1093 61.4579 106.247C60.4105 111.465 60.7074 117.954 63.3943 122.609C63.6417 122.913 63.8381 123.173 63.999 123.532C62.2282 125.54 60.7896 127.734 58.71 129.449C59.3235 127.877 59.9792 126.279 60.1969 124.593C60.5245 122.054 59.9943 119.434 59.7245 116.906C59.2605 112.562 59.3678 108.049 60.3516 103.787C62.9917 92.3515 69.3224 83.1099 79.3537 76.9083C85.3297 73.2135 92.2666 70.6755 99.2942 70.1995C100.696 70.1047 102.359 69.9516 103.73 70.2927C105.263 70.674 106.522 70.3411 107.996 70.5198C109.752 70.7333 111.467 71.6854 113.259 71.601C113.55 71.3854 113.672 71.3818 113.772 71.0115C114.01 70.1245 113.247 68.9354 112.835 68.1797Z" fill="white"/>
<path d="M153.322 142.587C154.722 142.499 155.833 142.637 157.113 143.218C158.949 144.051 160.546 145.476 161.222 147.414C162.166 150.125 161.297 153.385 160.11 155.9C158.589 159.123 156.302 161.312 152.938 162.505C150.917 163.076 148.721 163.166 146.83 162.093C145.929 161.582 145.005 160.723 144.784 159.668C144.571 158.653 144.759 157.339 144.891 156.317C145.318 153.002 146.309 149.806 147.935 146.881C149.276 144.471 150.678 143.326 153.322 142.587Z" fill="white"/>
<path d="M155.535 146.744C156.516 146.687 157.921 146.686 158.805 147.174C159.393 147.499 159.361 147.743 159.552 148.34L159.277 148.644L156.362 148.248L152.636 148.821L152.372 148.536C153.274 147.436 154.174 147.075 155.535 146.744Z" fill="#1E1C1D"/>
<path d="M88.2533 351.266L88.4413 351.305C88.9012 351.506 88.5949 353.547 88.5517 354.077L87.1699 372.86C86.9288 375.733 86.2501 378.549 86.2319 381.441C86.2241 382.692 86.3918 383.654 86.9194 384.791C90.1267 383.578 92.873 381.368 95.7314 379.514C106.011 372.848 116.34 365.71 124.494 356.461C125.598 355.209 126.533 353.845 127.553 352.528L128.613 352.732C129.818 352.968 130.972 353.067 132.197 353.135L123.759 363.369L116.626 370.136C111.817 374.185 106.514 377.539 101.228 380.921L88.4762 389.055C86.2955 390.405 83.8048 392.37 81.3621 393.153C80.0205 393.582 77.8887 393.124 76.4897 393.004C77.3705 391.587 78.5668 390.123 80.0522 389.318C81.2272 388.681 82.5632 388.212 83.5173 387.242C83.9554 386.797 84.3418 386.245 84.3246 385.597C84.2913 384.301 83.6955 383.752 82.8543 382.89C83.9069 379.073 83.934 375.023 84.2475 371.09L86.0241 351.376L88.2533 351.266Z" fill="white"/>
<path d="M127.468 12.97C135.653 12.3517 144.107 15.7963 150.268 21.0779C156.303 26.2522 161.119 34.6417 161.63 42.673C162.122 50.404 158.776 58.8232 153.612 64.5367C151.572 66.7945 148.662 69.4622 145.62 70.2164C144.672 70.4518 143.611 70.4492 142.637 70.4976C145.927 68.6575 148.376 67.0039 150.777 63.9997C155.641 57.9164 158.692 50.2416 157.77 42.3474C156.861 34.5756 152.965 26.8825 146.736 22.0548C140.175 16.9692 132.843 16.4852 124.869 17.4539L123.828 17.6065C116.243 19.0549 109.785 22.9836 105.394 29.4044C102.033 34.3203 100.105 39.7424 101.25 45.7407C102.896 54.3669 107.661 61.1107 115.838 64.5378C118.392 65.6086 121.107 66.081 123.431 67.6456C122.188 67.5872 120.942 67.2846 119.71 67.0935C114.194 66.2357 108.781 64.6315 104.395 61.0492C99.2411 56.8419 95.1182 50.9006 94.527 44.1354C93.8796 36.727 96.8369 30.1209 101.604 24.5565C108.137 16.9311 117.747 13.7573 127.468 12.97Z" fill="white"/>
<path d="M76.8105 130.449C76.9934 129.496 79.334 127.727 80.0782 126.988L84.8397 121.893C85.5241 122.346 86.0261 122.997 86.7621 123.39C89.2902 124.737 92.3662 125.087 95.0938 125.894C95.8647 126.122 96.5766 126.559 97.3459 126.761C98.0178 126.938 98.5183 126.758 99.073 126.412C99.3324 125.78 99.4662 125.469 99.2199 124.803C98.5193 122.909 95.1615 123.336 93.5543 123.005C92.2605 122.738 91.1194 122.31 89.9532 121.698C90.7397 120.157 91.7699 118.762 92.6329 117.263L96.2449 110.73L100.075 104.517L102.354 100.584C102.647 100.084 103.018 99.2229 103.406 98.8141C103.573 98.637 104.407 98.3859 104.661 98.2745C106.413 97.5068 107.409 96.751 108.568 95.2344C109.515 97.3974 110.161 98.7318 112.481 99.751C114.903 100.815 116.533 99.8812 118.808 98.9766L117.282 102.032L118.63 103.221C118.269 103.717 117.633 103.163 117.032 103.611L117.942 105.186C117.782 106.419 117.634 107.856 117.783 109.09C117.969 110.645 118.604 112.106 119.185 113.546C119.966 115.478 120.72 117.478 121.765 119.285C122.718 120.932 123.947 122.46 125.069 123.998L124.991 124.315L124.35 124.532C125.124 124.826 125.504 125.168 126.069 125.766C127.065 126.418 127.915 127.334 128.838 128.09C131.568 130.326 134.767 132.463 138.123 133.592C138.452 133.702 138.329 133.631 138.562 133.889C138.722 135.013 139.376 137.38 139.052 138.411C130.545 134.951 121.47 134.435 112.396 134.652C109.635 134.718 106.655 135.203 103.927 134.895C100.476 134.504 97.2308 133.112 93.8433 132.405C90.4095 131.687 86.7631 131.63 83.2777 131.291C81.1157 131.08 78.9704 130.589 76.8105 130.449Z" fill="white"/>
<path d="M126.069 125.769C124.277 127.621 121.866 127.326 119.505 127.294C117.648 127.27 115.703 127.194 113.853 127.36C112.73 127.461 111.36 128.094 110.284 128.47C108.794 128.21 106.735 127.247 105.833 126.029C105.468 125.536 105.126 124.614 105.29 124.007C105.356 123.76 105.57 123.648 105.774 123.522C107.559 122.413 107.952 125.244 109.473 125.572L109.691 125.438L110.014 125.256C111.32 124.508 112.938 124.64 114.398 124.624L119.845 124.647C121.271 124.681 122.715 124.805 124.128 124.575L124.35 124.535C125.124 124.829 125.504 125.171 126.069 125.769Z" fill="#1E1C1D"/>
<path d="M76.8107 130.453C78.9706 130.593 81.1159 131.084 83.2779 131.294C86.7633 131.633 90.4096 131.691 93.8435 132.408C97.231 133.116 100.476 134.508 103.927 134.898C106.655 135.207 109.635 134.722 112.396 134.656C121.471 134.439 130.545 134.955 139.052 138.415C139.579 138.445 139.578 138.573 139.943 138.966L140.058 140.016L140.435 138.356C140.644 139.793 140.936 141.29 140.975 142.74C141.037 145.066 140.463 147.847 139.836 150.099C139.178 152.456 137.743 157.09 135.432 158.222C133.988 158.93 131.749 157.988 130.335 157.515L131.339 158.585C132.426 159.705 133.865 160.399 135.449 160.354C136.785 160.316 137.803 159.72 138.706 158.766C139.798 157.613 140.505 156.01 141.091 154.548C143.164 149.384 143.399 144.679 143.341 139.176C144.177 140.267 144.849 141.419 145.748 142.48C145.918 142.682 146.831 143.626 146.855 143.775C146.868 143.858 146.385 144.691 146.315 144.829L144.826 148.048C143.417 151.497 142.448 154.749 142.231 158.472C142.179 159.363 142.048 160.404 142.207 161.284C142.365 162.155 143.308 162.751 143.973 163.215L144.197 163.369L143.825 164.226L139.67 172.069C138.559 174.06 137.498 176.099 136.132 177.933C131.384 184.313 123.966 189.29 116.511 191.951C112.838 193.263 108.646 194.476 104.937 192.695C101.799 191.187 99.3492 188.866 96.9628 186.387C89.2258 178.348 83.8581 168.535 80.1774 158.079L80.7737 158.679C81.7524 159.705 82.5597 160.304 83.9331 160.73L84.2768 160.833C85.8352 161.312 87.7305 161.285 89.3326 161.013L89.6482 160.956C91.4393 160.652 92.6008 160.053 94.0773 159.05C94.2633 159.786 94.5008 160.487 94.8154 161.179C95.9362 163.644 97.0799 166.803 99.8346 167.754C101.092 168.188 103.026 168.153 104.205 167.512C105.138 167.006 105.876 166.216 106.131 165.17C106.334 164.337 106.226 163.519 105.77 162.793C105.545 162.435 105.617 162.46 105.176 162.349C104.573 163.144 104.464 164.185 103.865 164.96C103.548 165.371 103.067 165.529 102.564 165.594C101.478 165.733 100.375 165.519 99.5211 164.804C98.8023 164.203 98.3555 163.334 97.9185 162.519C96.3695 159.63 95.8763 156.659 95.6685 153.418C96.4159 152.954 97.2529 152.621 97.9555 152.086C99.4289 150.964 100.6 149.745 102.228 148.792C102.359 149.782 102.756 152.982 103.347 153.658C103.908 154.302 104.205 155.237 104.591 155.999C105.222 157.248 105.938 158.474 106.868 159.526C109.035 161.973 112.33 163.738 115.625 163.899C118.798 164.054 121.672 163.298 124.063 161.126C124.911 160.357 125.585 159.448 126.101 158.427C127.218 156.218 127.786 153.61 128.401 151.223C129.384 147.406 130.427 143.377 130.616 139.432L128.613 139.865C127.434 140.137 126.164 139.573 124.966 139.453L118.047 139.015C116.794 138.949 115.358 138.755 114.128 138.94C113.523 139.031 113.485 139.19 113.126 139.65C113.024 140.227 112.843 140.764 113.129 141.31C114.7 141.677 116.564 141.645 118.18 141.733C121.005 141.888 123.605 142.076 126.384 142.668L125.794 143.849C125.732 143.964 125.391 144.596 125.317 144.642C124.941 144.879 123.231 144.695 122.695 144.68L116.481 144.585C115.129 144.568 113.715 144.424 112.403 144.797C116.997 146.774 122.325 146.671 127.227 146.693C126.571 150.298 125.828 154.129 123.936 157.319C122.652 159.483 121.168 161.011 118.632 161.563C116.015 162.134 112.874 161.403 110.622 159.998C108.058 158.399 106.463 155.784 105.792 152.872C105.019 149.51 105.32 146.333 105.849 142.97C105.898 142.664 105.943 141.668 106.074 141.462C106.433 140.897 108.036 140.885 108.565 140.041L108.308 139.747C107.203 139.535 106.133 139.503 105.012 139.474C104.434 140.303 104.088 141.127 103.727 142.06C102.439 142.015 100.87 141.286 99.669 140.82L99.2206 140.041C99.0716 139.772 98.9497 139.519 98.7299 139.296C96.7044 137.233 92.9826 136.893 90.2685 136.603C88.5237 136.417 86.7951 136.238 85.0394 136.21C84.2904 136.783 83.5883 137.331 82.9513 138.033L83.9472 138.347C87.5248 139.527 92.0883 138.629 95.4883 140.25C95.5768 140.571 95.5643 140.736 95.4945 141.067C95.3523 141.74 95.4044 142.026 94.8237 142.397L84.4722 141.868C83.8977 141.85 81.5253 142.005 81.1258 141.78C80.9586 141.685 80.8352 140.107 80.1758 139.66L79.8508 139.819C79.1243 141.06 79.0493 142.86 78.9071 144.268L78.3612 151.564L78.1248 151.736L77.6602 151.466C76.993 150.256 77.38 148.004 77.4763 146.62C77.7149 143.194 77.9217 139.814 78.4451 136.416L79.1987 136.312C80.4633 136.148 80.9664 135.705 81.9472 134.916C80.405 134.271 78.8435 133.873 77.2289 133.457C71.0097 136.569 64.7415 139.066 57.9134 140.494C53.2603 141.468 48.6158 141.707 43.9022 142.157C37.0905 142.806 30.1659 143.8 23.663 145.989C21.6966 146.65 19.7471 147.24 18.1281 148.588C17.1233 149.424 16.5351 150.526 15.911 151.654C14.2219 154.707 13.2777 157.663 13.002 161.144C12.5799 166.473 14.7925 172.015 18.973 175.376C21.0137 177.017 23.0801 178.086 24.8163 180.129C24.8002 180.979 24.4743 181.863 24.258 182.686L23.8418 181.837C23.1833 180.482 21.7814 179.513 20.6604 178.543C18.7499 176.89 16.7719 175.302 15.2139 173.295C12.246 169.472 10.9968 164.906 11.6571 160.123C12.2999 155.468 14.7575 150.822 18.5052 147.944C20.0272 146.774 21.9235 145.973 23.6869 145.234C29.3035 142.88 35.4845 141.667 41.5266 141.037C45.7871 140.593 50.0629 140.57 54.2967 139.852C60.2097 138.848 66.5014 136.692 71.742 133.786C73.0863 133.041 74.5107 132.319 75.7243 131.376L75.879 131.253L76.3987 131.611C76.4138 131.118 76.5612 130.872 76.8107 130.453Z" fill="white"/>
<path d="M100.108 173.727C100.508 173.749 100.407 173.695 100.708 173.859C102.767 174.984 104.154 176.078 106.57 175.217C107.202 174.992 107.71 174.744 108.398 174.785C108.871 175.17 108.994 175.196 109.142 175.778L108.691 176.531C107.956 177.201 107.158 177.659 106.152 177.772C104.491 177.958 102.433 177.14 101.178 176.059C100.346 175.343 100.179 174.787 100.108 173.727Z" fill="#0C1524"/>
<path d="M76.8109 130.453C78.9708 130.593 81.1161 131.084 83.2781 131.294C86.7635 131.633 90.4098 131.691 93.8437 132.408C97.2312 133.116 100.476 134.508 103.928 134.898C106.655 135.207 109.635 134.722 112.396 134.656C121.471 134.439 130.546 134.955 139.052 138.415C139.579 138.445 139.578 138.573 139.943 138.966L140.058 140.016L139.972 140.564C139.277 140.926 138.527 140.678 137.783 140.503C135.42 139.947 133.265 139.022 130.972 138.29C128.183 137.4 125.363 137.203 122.461 137.033C116.95 136.711 111.548 136.97 106.044 137.221C101.582 137.425 97.6056 135.427 93.2614 134.651C88.7213 133.84 84.0541 134.026 79.5635 132.894C78.5234 132.632 77.2015 132.344 76.3989 131.611C76.414 131.118 76.5614 130.872 76.8109 130.453Z" fill="#1E1C1D"/>
<path d="M63.942 400.001C61.1644 398.492 58.9707 396.396 56.7504 394.181C51.8673 389.309 48.4813 383.605 45.246 377.581C40.2457 368.271 36.2479 358.776 33.9037 348.441C33.2994 345.777 32.58 343.03 32.5738 340.288C32.5676 337.565 33.3005 334.96 34.34 332.455L42.7988 314.589L52.3941 293.576L65.0613 266.463L71.4483 249.205C73.5311 243.482 75.4128 236.409 79.5769 231.852L77.5498 240.398C76.1805 245.22 74.491 250.342 74.2488 255.368C74.0732 259.004 75.0878 262.859 75.6894 266.443C76.4837 271.173 77.1378 276.022 77.2342 280.826C77.3852 288.354 74.6373 295.681 71.9727 302.596L66.3186 316.337L62.2941 324.318C60.7186 327.499 59.567 330.92 57.3254 333.71C55.9446 332.973 53.592 331.344 51.953 331.985C51.4931 332.165 51.2365 332.536 50.9505 332.912C51.3121 333.936 56.265 336.35 57.541 336.938C58.2113 337.247 58.7368 337.338 59.4728 337.313C59.5603 337.269 59.6514 337.233 59.7353 337.182C60.5373 336.7 60.7926 335.632 61.0884 334.797L63.0696 329.182C65.1931 323.828 68.2941 318.975 70.5691 313.702C71.7675 310.925 72.5769 307.983 73.7165 305.177L74.8394 314.081C75.043 315.341 75.1592 316.661 75.5639 317.872L75.9826 318.068C76.6019 317.421 76.5524 316.332 76.5337 315.482L76.1712 306.643C76.1258 305.536 75.8717 303.924 76.1743 302.863C76.7357 300.891 77.9503 298.712 78.9904 296.938C79.3305 302.813 79.8311 308.858 79.3831 314.737C79.0269 319.408 78.0227 324.089 76.7477 328.591C76.0441 331.076 75.3561 333.629 74.2639 335.975C73.2493 338.155 71.8785 340.163 70.6123 342.202C70.0863 343.049 68.8488 344.829 68.8535 345.863C68.8582 346.787 69.5889 348.38 70.2316 349C71.1556 349.891 72.6904 349.806 73.8785 349.725L74.1269 349.706C71.6691 354.756 71.8165 361.109 70.9316 366.606C69.1462 363.189 68.317 359.377 66.7962 355.837C65.3655 352.507 63.2623 349.762 61.4123 346.69C60.1092 344.527 59.1337 341.954 57.3717 340.119C56.3707 339.076 55.0144 338.297 53.6431 337.859C51.9913 337.333 50.0194 336.986 48.3961 337.772C47.9877 337.97 47.7161 338.222 47.4316 338.575L47.5585 338.911C48.558 339.322 49.5931 339.413 50.6355 339.663C53.1754 340.27 55.7936 341.505 56.9582 343.996L57.4066 345.375C57.067 346.121 56.7092 346.852 56.479 347.641C58.1311 348.817 59.6019 349.555 60.804 351.284C63.7509 355.522 64.8243 361.03 67.4467 365.536C69.6806 369.376 72.9404 372.458 75.5607 376.013C77.6321 378.822 78.9665 381.962 80.4644 385.087L75.0113 391.186C72.0191 394.746 69.2311 398.212 64.7993 400.001H63.942Z" fill="white"/>
<path d="M135.559 188.43C136.616 193.271 139.286 198.637 142.831 202.124L148.505 207.233C151.607 210.299 154.567 213.479 157.904 216.296C155.329 218.715 153.936 221.901 152.484 225.058C151.68 226.807 150.925 228.661 149.544 230.045C146.927 232.666 142.683 235.602 138.869 235.551C135.742 235.51 132.428 234.12 130.251 231.861C128.432 229.974 127.198 227.202 127.31 224.563C127.37 223.134 128.227 221.667 128.968 220.471C131.499 216.385 135.079 212.671 138.767 209.601C140.568 208.103 142.558 206.922 144.28 205.317C143.169 205.54 141.984 205.722 140.921 206.121C138.362 207.083 135.89 208.908 133.844 210.688C129.892 214.126 125.124 219.957 124.85 225.402C124.704 228.291 125.929 231.675 127.849 233.839C130.052 236.324 133.872 238.059 137.172 238.255C140.126 238.431 143.937 237.685 146.204 235.667C148.436 233.682 150.04 231.101 152.286 229.112C152.342 231.287 152.043 233.364 151.963 235.525C151.808 239.746 152.01 243.927 152.569 248.114C153.551 255.463 155.878 262.572 157.632 269.757C158.46 273.149 159.346 276.669 159.558 280.168C159.939 286.426 158.709 292.896 158.116 299.118C157.825 302.165 157.588 305.337 157.82 308.396C158.202 313.4 159.601 318.393 161.214 323.122C161.849 324.986 162.506 327.184 163.824 328.682C164.926 329.936 166.347 329.859 167.879 329.917C170.209 328.336 172.985 325.775 174.097 323.138C174.225 322.834 174.55 322.191 174.551 321.901C174.555 321.246 174.113 320.091 173.9 319.452L172.095 314.198L169.844 306.494L162.015 275.355C159.913 267.049 157.282 258.901 155.762 250.445C155.167 247.139 154.587 243.695 154.642 240.327C154.714 235.953 156.58 232.234 157.426 228.024C155.791 229.696 154.964 231.146 154.124 233.297C154.037 230.188 155.341 225.617 156.903 222.9C158.257 220.545 160.912 218.735 163.533 218.096C166.202 217.446 169.298 218.104 171.582 219.583C176.032 222.468 178.417 227.993 180.271 232.744C182.688 238.94 184.546 245.456 185.894 251.97L188.922 269.138L193.647 294.171L199.41 316.681C200.25 319.78 201.292 322.828 201.961 325.974C202.255 327.354 202.565 328.833 202.454 330.246C202.195 333.531 200.546 336.819 198.986 339.645L192.354 350.393C184.176 362.732 174.745 374.351 163.81 384.337C160.602 387.266 157.282 390.223 153.604 392.554C150.823 394.317 147.617 395.681 144.533 396.819C142.465 396.011 140.778 394.993 139.128 393.495C136.798 391.379 134.927 388.732 133.536 385.915C132.996 384.822 132.436 383.656 132.416 382.414C132.375 379.894 134.637 376.174 135.966 374.125C137.313 372.048 138.94 370.164 140.417 368.179C141.597 366.593 142.644 364.877 143.913 363.362C144.942 362.133 146.203 361.078 147.287 359.889C149.009 358.001 150.529 355.857 151.968 353.745L158.391 344.651C158.924 343.856 159.213 342.938 159.653 342.091C160.653 340.168 162.231 338.477 164.005 337.242C166.024 335.838 168.262 334.9 170.616 334.222C172.801 333.592 175.085 333.263 177.326 332.891C177.976 332.783 179.482 332.703 179.98 332.381C180.16 332.264 180.288 332.081 180.442 331.93C180.314 331.563 180.36 331.569 180.015 331.298C178.557 330.155 175.077 330.712 173.279 330.92C167.218 331.624 161.532 334.984 157.849 339.815C154.435 344.293 152.073 349.557 148.593 354.002C148.044 353.006 146.901 350.639 145.851 350.144C145.059 349.77 142.308 350.454 141.392 350.535C139.962 350.661 138.525 350.714 137.089 350.654L109.473 348.275L93.8388 348.202C88.905 348.312 83.9904 348.55 79.056 348.171C77.2446 348.032 75.4576 347.619 73.6909 347.214C72.6399 346.973 71.5378 346.799 70.6305 346.189C70.4472 345.738 70.4639 345.725 70.7472 345.289C71.5659 344.026 72.8441 342.89 73.8138 341.719C75.8664 339.24 77.5253 336.518 78.9185 333.623C85.9695 318.978 82.969 302.776 81.1643 287.293L79.1628 269.718L77.8086 262.408C77.1711 259.411 76.3159 256.089 76.6841 253.021L76.8633 251.571C77.4456 247.624 78.7227 243.816 80.0664 240.073C82.8758 232.245 86.2664 224.272 92.4753 218.524C96.3997 214.891 101.394 212.096 105.713 208.91C104.458 211.374 102.964 213.73 101.854 216.265C99.1721 222.391 97.2763 229.048 93.2154 234.48C92.2174 235.816 91.0195 236.937 89.6482 237.883C88.7154 238.527 87.6497 239.033 86.9456 239.939L87.207 240.286C87.43 240.329 87.5237 240.357 87.7362 240.364C89.5654 240.43 92.1846 238.567 93.4805 237.379C100.55 230.898 101.743 221.341 105.71 213.141C107.293 209.867 109.474 206.705 111.333 203.566C112.223 202.064 113.237 200.414 113.802 198.758C114.076 197.957 114.029 196.863 114.073 196.015C115.312 195.992 116.656 196.056 117.869 195.793L118.164 195.724C122.014 194.853 125.447 192.911 129.041 191.365C131.289 190.397 133.451 189.736 135.559 188.43Z" fill="white"/>
<path d="M114.934 201.267C115.334 201.192 115.298 201.221 115.644 201.361C115.91 202.461 112.543 213.607 111.983 215.329L111.665 215.743L111.393 215.578L111.373 215.359C111.165 212.328 112.957 203.608 114.934 201.267Z" fill="#1E1C1D"/>
<path d="M115.58 218.354C115.851 218.33 116.242 218.261 116.504 218.321C117.098 218.457 117.238 218.785 117.564 219.236C117.535 219.419 117.578 219.628 117.48 219.785C117.054 220.468 114 221.217 113.158 221.613C112.221 222.053 111.222 222.659 110.478 223.381C109.668 224.167 109.12 225.4 108.576 226.38C108.113 226.772 108.099 226.824 107.501 226.853L107.384 226.637C107.076 225.79 107.56 224.385 107.91 223.598C109.164 220.771 112.851 219.34 115.58 218.354Z" fill="#1E1C1D"/>
<path d="M146.307 273.733C148.218 273.435 147.881 274.991 149.05 275.646C149.335 275.805 149.519 275.579 149.804 275.59C150.083 275.602 150.817 276.09 151.05 276.252C151.831 276.797 152.495 277.371 152.659 278.323C152.45 279.042 152.266 279.43 151.756 279.983C151.409 280.13 151.442 280.143 151.094 280.196C149.997 280.365 148.421 279.396 147.61 278.716C146.586 277.857 145.452 276.37 145.353 275.003C145.641 274.296 145.643 274.168 146.307 273.733Z" fill="#1E1C1D"/>
<path d="M146.472 298.656C147.036 298.692 147.665 298.696 148.198 298.897C149.009 299.204 149.481 299.825 149.783 300.615C150.135 301.535 150.272 302.571 149.834 303.487C149.371 304.455 148.834 304.741 147.839 305.072C147.276 305.049 146.666 305.049 146.132 304.847C145.265 304.519 144.628 303.773 144.281 302.93C143.912 302.032 144.293 300.822 144.654 299.96C144.995 299.148 145.698 298.943 146.472 298.656Z" fill="#1E1C1D"/>
<path d="M146.674 322.36L146.911 322.311C148.663 322.023 150.81 322.945 152.175 323.971C153.218 324.755 153.911 325.439 154.075 326.754C153.79 327.59 153.597 327.635 152.902 328.138L152.318 328.214C150.947 328.361 149.484 328.173 148.415 327.231C147.649 326.556 147.006 325.623 146.27 324.885C146.131 324.746 145.559 324.279 145.499 324.117C145.432 323.934 145.471 323.727 145.456 323.532C145.807 322.93 146.071 322.702 146.674 322.36Z" fill="#1E1C1D"/>
<path d="M142.869 247.757C143.191 247.704 143.352 247.802 143.652 247.91C144.412 248.875 143.845 250.116 143.382 251.139C142.343 253.436 140.951 255.609 139.84 257.883C138.017 261.615 136.153 265.371 134.737 269.28C132.622 275.117 131.319 281.298 130.599 287.456C129.292 298.646 131.679 309.018 135.402 319.498C136.833 323.529 138.276 327.424 140.382 331.159C142.204 334.387 144.702 337.208 146.467 340.433C147.396 342.132 147.945 343.939 148.433 345.804L148.242 346.113L147.679 345.804C144.774 342.7 141.644 339.416 139.377 335.814C136.832 331.772 135.098 327.294 133.473 322.827C130.803 315.49 128.382 307.797 127.891 299.966C126.768 282.075 130.709 261.511 142.869 247.757Z" fill="#1E1C1D"/>
<path d="M126.828 206.74L127.238 206.688C127.438 207.265 126.492 208.279 126.121 208.791C124.912 210.456 123.82 212.101 122.96 213.977C121.746 216.626 121.019 219.564 120.224 222.364L118.277 229.446C116.838 235.44 115.641 241.386 113.743 247.273C111.585 253.97 108.789 260.507 106.89 267.281C106.562 268.453 106.184 269.684 106.079 270.9C105.926 272.68 106.239 275.018 105.76 276.698C105.603 277.245 105.432 277.308 104.98 277.592C104.418 277.514 104.215 277.299 103.832 276.916L103.695 276.775L103.387 276.791C103.378 278.044 103.394 279.341 103.101 280.568C102.337 283.771 100.126 286.936 98.3134 289.648L98.1326 289.458L97.8649 289.162C97.3665 288.615 96.9878 288.044 96.5962 287.418C94.6061 284.233 92.5556 280.76 92.1056 276.958C91.7342 273.818 92.4207 269.996 92.9545 266.896C94.7358 256.545 97.8446 246.455 101.027 236.463L103.95 227.532L106.975 215.287C107.172 214.209 107.387 212.716 108.041 211.818L108.496 211.775C109.334 212.992 108.806 214.208 108.508 215.56L105.989 225.519L104.55 231.718L96.5826 261.674C95.9087 264.499 95.28 267.424 94.9681 270.314L94.6556 274.307C94.6264 274.871 94.7082 275.74 94.553 276.271L94.3472 276.759C93.7603 278.931 97.2238 285.232 98.4108 287.017C99.5113 285.173 100.524 283.344 101.23 281.309C101.98 279.149 102.016 276.927 102.523 274.722C103.306 271.313 104.426 267.855 105.469 264.515L110.285 250.355L114.257 237.41C114.898 235.212 115.809 232.928 116.285 230.704C116.473 229.824 115.854 229.818 115.908 229.006C117.354 227.55 117.472 225.377 118.062 223.473C119.503 218.824 121.168 213.826 124.042 209.864C124.82 208.792 125.621 207.69 126.666 206.863L126.828 206.74Z" fill="#1E1C1D"/>
<path d="M493 399.483C403.468 396.53 312.353 400.618 222.782 399.483C174.584 398.872 125.645 396.476 77.4649 399.483C50.0024 401.197 24.4603 397.969 -2.99999 399.483" stroke="#0C1524" stroke-linecap="round"/>
</g>
<defs>
<clipPath id="clip0_7531_41150">
<rect width="400" height="400" fill="white"/>
</clipPath>
</defs>
</svg>
