<svg width="94" height="28" viewBox="0 0 94 28" fill="none" xmlns="http://www.w3.org/2000/svg">
<path d="M0 10V0H10V10H8V2H2V10H0Z" fill="#0C1524"/>
<path d="M14 10V8H20V10H14ZM12 8V2H14V8H12ZM20 8V2H22V8H20ZM14 2V0H20V2H14Z" fill="#0C1524"/>
<path d="M28 6V4H30V6H28ZM24 10V0H26V2H28V4H26V10H24ZM32 10V4H30V2H32V0H34V10H32Z" fill="#0C1524"/>
<path d="M38 10V8H44V10H38ZM36 8V2H38V8H36ZM44 8V2H46V8H44ZM38 2V0H44V2H38Z" fill="#0C1524"/>
<path d="M58 12V10H48V0H50V8H52V0H54V8H56V0H58V8H60V12H58Z" fill="#0C1524"/>
<path d="M62 10V0H64V4H70V0H72V10H70V6H64V10H62Z" fill="#0C1524"/>
<path d="M78 6V4H80V6H78ZM74 10V0H76V6H78V8H76V10H74ZM82 10V4H80V2H82V0H84V10H82Z" fill="#0C1524"/>
<path d="M92 10V8H94V10H92ZM90 8V6H92V8H90ZM90 4V2H92V4H90ZM86 10V0H88V4H90V6H88V10H86ZM92 2V0H94V2H92Z" fill="#0C1524"/>
<path d="M0 28V26H8V28H0ZM0 22V16H2V22H0ZM8 26V24H2V22H8V16H10V26H8Z" fill="#0C1524"/>
<path d="M12 20V16H14V20H12ZM20 26V22H14V20H20V16H22V26H20Z" fill="#0C1524"/>
<path d="M26 26V24H34V26H26ZM24 24V18H26V20H32V18H34V22H26V24H24ZM26 18V16H32V18H26Z" fill="#0C1524"/>
<path d="M36 26V16H38V20H44V16H46V26H44V22H38V26H36Z" fill="#0C1524"/>
<path d="M52 22V20H54V22H52ZM48 26V16H50V22H52V24H50V26H48ZM56 26V20H54V18H56V16H58V26H56Z" fill="#0C1524"/>
<path d="M66 26V24H68V26H66ZM64 24V22H66V24H64ZM64 20V18H66V20H64ZM60 26V16H62V20H64V22H62V26H60ZM66 18V16H68V18H66Z" fill="#0C1524"/>
<path d="M70 24V22H72V24H70ZM72 26V24H78V22H72V20H78V18H80V26H72ZM72 18V16H78V18H72Z" fill="#0C1524"/>
</svg>
