<?xml version="1.0" standalone="no"?>
<!DOCTYPE svg PUBLIC "-//W3C//DTD SVG 20010904//EN"
 "http://www.w3.org/TR/2001/REC-SVG-20010904/DTD/svg10.dtd">
<svg version="1.0" xmlns="http://www.w3.org/2000/svg"
 width="1072.000000pt" height="1072.000000pt" viewBox="0 0 1072.000000 1072.000000"
 preserveAspectRatio="xMidYMid meet">
<metadata>
Created by potrace 1.14, written by Peter Selinger 2001-2017
</metadata>
<g transform="translate(0.000000,1072.000000) scale(0.100000,-0.100000)"
fill="#000000" stroke="none">
<path d="M2 5363 l3 -4497 995 -1 c547 0 1005 1 1017 3 22 4 22 4 21 261 0
141 1 261 2 266 1 6 2 12 1 15 -3 7 -4 613 -1 625 1 6 2 12 1 15 -3 7 -4 613
-1 625 1 6 2 12 0 15 -2 7 -3 453 0 465 1 6 2 12 0 15 -2 7 -3 453 0 465 1 6
2 12 0 15 -2 7 -3 453 0 465 1 6 2 12 1 15 -3 7 -4 933 -1 945 1 6 2 12 0 15
-2 7 -3 453 0 465 1 6 2 12 0 15 -2 7 -3 453 0 465 1 6 1 15 0 20 -1 9 -2 502
-1 515 1 6 51 -67 51 -74 0 -2 22 -41 50 -86 27 -45 50 -83 50 -85 0 -2 14
-24 30 -48 17 -25 30 -50 30 -56 0 -6 4 -11 10 -11 5 0 9 -3 8 -7 -1 -5 5 -19
13 -33 9 -14 24 -38 35 -55 10 -16 26 -43 35 -60 9 -16 25 -44 35 -62 11 -17
45 -75 76 -128 32 -54 58 -101 58 -106 0 -5 5 -9 10 -9 6 0 10 -4 10 -9 0 -5
41 -78 91 -162 51 -85 101 -170 112 -189 11 -19 45 -78 76 -130 49 -81 90
-151 215 -363 10 -18 30 -52 44 -77 13 -25 31 -52 38 -61 8 -8 14 -18 14 -21
0 -3 18 -36 40 -72 22 -36 40 -70 40 -76 0 -5 3 -10 8 -10 4 0 12 -10 18 -23
6 -12 48 -85 94 -162 76 -129 93 -158 132 -226 7 -13 16 -26 19 -29 3 -3 16
-25 30 -50 13 -25 27 -46 32 -48 4 -2 7 -9 7 -16 0 -8 9 -25 21 -40 11 -14 17
-26 12 -26 -4 0 -3 -4 3 -8 6 -4 30 -41 55 -82 24 -41 52 -88 62 -105 9 -16
20 -38 23 -47 4 -10 10 -18 15 -18 5 0 9 -4 9 -9 0 -6 32 -62 70 -127 38 -64
70 -118 70 -120 0 -2 16 -28 35 -58 19 -30 35 -58 35 -62 0 -4 11 -22 25 -40
14 -18 25 -35 25 -38 0 -3 40 -73 90 -157 49 -83 90 -153 90 -156 0 -2 13 -24
30 -48 16 -24 30 -46 30 -49 0 -5 13 -27 126 -211 27 -44 49 -82 49 -85 0 -3
8 -16 16 -30 55 -86 149 -250 149 -259 0 -6 5 -11 10 -11 6 0 10 -7 10 -15 0
-8 5 -15 12 -15 6 0 9 -3 6 -6 -3 -3 9 -29 28 -57 19 -28 34 -57 34 -64 0 -7
5 -13 10 -13 6 0 10 -5 10 -11 0 -6 13 -29 28 -52 16 -23 31 -49 35 -57 3 -8
25 -46 49 -84 l43 -70 480 1 c264 1 485 2 491 2 6 1 18 16 27 33 18 36 39 70
47 78 3 3 14 21 24 40 11 19 34 58 53 86 18 28 33 56 33 63 0 6 4 11 9 11 5 0
11 8 15 17 3 10 11 27 18 38 7 11 24 38 38 60 14 22 31 49 38 60 7 11 15 28
18 38 4 9 10 17 14 17 4 0 10 8 13 18 6 18 38 74 48 82 3 3 16 25 30 50 13 25
27 47 30 50 3 3 20 30 37 60 18 30 38 64 45 75 64 105 77 127 77 135 0 6 5 10
10 10 6 0 10 4 10 9 0 11 61 113 72 121 4 3 12 17 17 30 6 14 36 65 66 113 30
48 55 92 55 98 0 5 5 9 10 9 6 0 10 4 10 9 0 5 29 55 65 112 36 57 71 115 78
129 7 14 23 43 37 65 36 59 40 65 137 225 48 80 93 151 100 158 7 7 13 18 13
24 0 5 8 22 19 36 10 15 28 43 39 62 21 38 66 111 240 398 62 101 112 188 112
193 0 5 5 9 10 9 6 0 10 5 10 12 0 6 6 19 14 27 7 9 24 36 37 61 13 25 26 47
30 50 5 5 143 233 176 290 8 14 23 39 33 55 11 17 27 45 37 62 9 18 20 33 25
33 4 0 8 5 8 10 0 13 132 234 143 238 4 2 7 7 7 12 0 8 131 229 162 273 11 15
16 27 11 27 -4 0 0 5 10 11 9 6 15 14 12 20 -4 5 -1 9 4 9 6 0 11 7 11 15 0 8
5 15 10 15 6 0 10 4 10 9 0 5 18 38 40 72 22 35 43 71 47 79 3 8 19 34 35 57
15 23 28 46 28 52 0 6 4 11 9 11 5 0 11 8 14 18 4 9 18 35 31 57 14 22 31 49
36 60 17 32 33 58 56 90 12 17 23 35 25 40 2 6 27 47 54 93 l50 82 5 -2847 5
-2847 993 -1 992 0 0 4498 0 4497 -1028 0 -1028 0 -29 -55 c-17 -30 -33 -55
-37 -55 -5 0 -8 -4 -8 -10 0 -5 -18 -39 -40 -75 -22 -36 -40 -68 -40 -71 0 -2
-5 -10 -10 -17 -17 -20 -140 -229 -140 -238 0 -5 -4 -9 -10 -9 -5 0 -10 -5
-10 -10 0 -9 -32 -65 -78 -136 -6 -10 -15 -26 -19 -34 -3 -8 -21 -37 -38 -65
-17 -27 -34 -57 -38 -65 -4 -8 -16 -28 -27 -45 -11 -16 -23 -37 -27 -45 -4 -8
-14 -26 -24 -40 -13 -19 -149 -247 -214 -358 -41 -70 -124 -210 -143 -240 -13
-20 -25 -45 -29 -54 -3 -10 -9 -18 -14 -18 -5 0 -9 -4 -9 -10 0 -5 -25 -51
-56 -102 -63 -104 -54 -88 -197 -333 -59 -99 -110 -185 -114 -190 -4 -6 -17
-26 -27 -45 -11 -19 -31 -53 -44 -75 -14 -22 -24 -42 -23 -44 2 -2 -1 -7 -6
-10 -7 -5 -86 -132 -103 -166 -3 -5 -34 -59 -70 -118 -36 -60 -74 -125 -85
-145 -11 -20 -23 -41 -28 -47 -18 -24 -167 -279 -167 -286 0 -5 -4 -9 -10 -9
-5 0 -10 -5 -10 -10 0 -9 -32 -65 -78 -136 -6 -10 -15 -26 -19 -34 -3 -8 -14
-26 -23 -40 -10 -14 -28 -45 -42 -70 -14 -25 -44 -75 -67 -112 -22 -37 -41
-72 -41 -78 0 -5 -4 -10 -8 -10 -4 0 -18 -19 -30 -42 -12 -24 -33 -61 -46 -83
-14 -22 -41 -67 -61 -100 -19 -33 -40 -67 -45 -75 -5 -8 -49 -82 -98 -165
-198 -336 -267 -450 -274 -453 -5 -2 -6 -7 -3 -12 3 -4 -2 -13 -10 -20 -8 -7
-15 -19 -15 -26 0 -8 -4 -14 -10 -14 -5 0 -10 -4 -10 -9 0 -9 -69 -131 -80
-141 -3 -3 -16 -25 -29 -50 -13 -25 -37 -64 -53 -88 -15 -24 -28 -45 -28 -48
0 -2 -22 -41 -50 -85 -27 -44 -50 -82 -50 -83 0 -2 -25 -43 -55 -92 -31 -49
-58 -97 -61 -106 -4 -10 -10 -18 -14 -18 -4 0 -11 -11 -14 -25 -11 -42 -17
-37 -71 60 -15 28 -39 70 -54 95 -32 55 -50 89 -86 158 -15 28 -31 52 -36 52
-5 0 -9 9 -9 20 0 11 -4 20 -8 20 -4 0 -15 15 -23 33 -21 43 -77 143 -104 187
-12 19 -25 42 -28 50 -4 8 -18 33 -31 55 -13 22 -50 87 -83 145 -33 58 -70
123 -82 145 -13 22 -35 60 -49 85 -14 25 -32 56 -41 70 -8 14 -16 27 -16 30 0
3 -19 37 -41 75 -49 83 -151 261 -186 325 -14 25 -35 63 -48 85 -12 22 -31 56
-42 75 -11 19 -30 53 -44 75 -13 22 -27 47 -31 55 -4 8 -26 47 -48 85 -23 39
-44 77 -48 85 -4 8 -17 31 -28 50 -12 19 -50 87 -86 150 -35 63 -68 122 -73
130 -47 79 -100 174 -100 180 0 5 -3 10 -7 12 -8 3 -17 20 -74 128 -13 25 -26
47 -29 50 -5 5 -18 27 -44 75 -6 11 -13 22 -16 25 -3 3 -15 25 -28 50 -36 71
-87 159 -100 172 -7 7 -12 15 -12 19 0 7 -52 101 -124 224 -22 39 -41 72 -41
75 0 3 -8 16 -16 30 -31 49 -129 221 -129 227 0 2 -8 17 -18 31 -18 25 -32 50
-113 200 -18 31 -37 64 -43 72 -7 8 -21 33 -31 55 -11 22 -22 42 -25 45 -5 5
-33 55 -58 105 -9 17 -18 32 -21 35 -4 3 -12 16 -19 30 -13 27 -45 83 -96 168
-17 29 -29 56 -28 59 2 3 -1 9 -6 12 -5 3 -40 60 -77 126 -76 135 -96 169
-126 223 -12 20 -34 58 -48 83 -14 26 -89 157 -166 293 l-140 246 -1148 0
-1147 0 2 -4497z"/>
</g>
</svg>
