<svg width="64" height="64" viewBox="0 0 64 64" fill="none" xmlns="http://www.w3.org/2000/svg">
<g id="mem_dots_square" clip-path="url(#clip0_9176_75219)">
<path id="Vector" d="M1.76909 3.39072C2.70541 3.39072 3.46445 2.63168 3.46445 1.69536C3.46445 0.759038 2.70541 0 1.76909 0C0.832769 0 0.0737305 0.759038 0.0737305 1.69536C0.0737305 2.63168 0.832769 3.39072 1.76909 3.39072Z" fill="#0C1524"/>
<path id="Vector_2" d="M10.4063 3.39072C11.3426 3.39072 12.1017 2.63168 12.1017 1.69536C12.1017 0.759038 11.3426 0 10.4063 0C9.46998 0 8.71094 0.759038 8.71094 1.69536C8.71094 2.63168 9.46998 3.39072 10.4063 3.39072Z" fill="#0C1524"/>
<path id="Vector_3" d="M19.044 3.39072C19.9803 3.39072 20.7394 2.63168 20.7394 1.69536C20.7394 0.759038 19.9803 0 19.044 0C18.1077 0 17.3486 0.759038 17.3486 1.69536C17.3486 2.63168 18.1077 3.39072 19.044 3.39072Z" fill="#0C1524"/>
<path id="Vector_4" d="M27.6812 3.39072C28.6175 3.39072 29.3766 2.63168 29.3766 1.69536C29.3766 0.759038 28.6175 0 27.6812 0C26.7449 0 25.9858 0.759038 25.9858 1.69536C25.9858 2.63168 26.7449 3.39072 27.6812 3.39072Z" fill="#0C1524"/>
<path id="Vector_5" d="M36.3189 3.39072C37.2552 3.39072 38.0143 2.63168 38.0143 1.69536C38.0143 0.759038 37.2552 0 36.3189 0C35.3826 0 34.6235 0.759038 34.6235 1.69536C34.6235 2.63168 35.3826 3.39072 36.3189 3.39072Z" fill="#0C1524"/>
<path id="Vector_6" d="M44.9561 3.39072C45.8924 3.39072 46.6515 2.63168 46.6515 1.69536C46.6515 0.759038 45.8924 0 44.9561 0C44.0198 0 43.2607 0.759038 43.2607 1.69536C43.2607 2.63168 44.0198 3.39072 44.9561 3.39072Z" fill="#0C1524"/>
<path id="Vector_7" d="M53.5938 3.39072C54.5301 3.39072 55.2892 2.63168 55.2892 1.69536C55.2892 0.759038 54.5301 0 53.5938 0C52.6575 0 51.8984 0.759038 51.8984 1.69536C51.8984 2.63168 52.6575 3.39072 53.5938 3.39072Z" fill="#0C1524"/>
<path id="Vector_8" d="M62.231 3.39072C63.1673 3.39072 63.9264 2.63168 63.9264 1.69536C63.9264 0.759038 63.1673 0 62.231 0C61.2947 0 60.5356 0.759038 60.5356 1.69536C60.5356 2.63168 61.2947 3.39072 62.231 3.39072Z" fill="#0C1524"/>
<path id="Vector_9" d="M1.76909 12.0509C2.70541 12.0509 3.46445 11.2918 3.46445 10.3555C3.46445 9.41919 2.70541 8.66016 1.76909 8.66016C0.832769 8.66016 0.0737305 9.41919 0.0737305 10.3555C0.0737305 11.2918 0.832769 12.0509 1.76909 12.0509Z" fill="#0C1524"/>
<path id="Vector_10" d="M10.4063 12.0509C11.3426 12.0509 12.1017 11.2918 12.1017 10.3555C12.1017 9.41919 11.3426 8.66016 10.4063 8.66016C9.46998 8.66016 8.71094 9.41919 8.71094 10.3555C8.71094 11.2918 9.46998 12.0509 10.4063 12.0509Z" fill="#0C1524"/>
<path id="Vector_11" d="M19.044 12.0509C19.9803 12.0509 20.7394 11.2918 20.7394 10.3555C20.7394 9.41919 19.9803 8.66016 19.044 8.66016C18.1077 8.66016 17.3486 9.41919 17.3486 10.3555C17.3486 11.2918 18.1077 12.0509 19.044 12.0509Z" fill="#0C1524"/>
<path id="Vector_12" d="M27.6812 12.0509C28.6175 12.0509 29.3766 11.2918 29.3766 10.3555C29.3766 9.41919 28.6175 8.66016 27.6812 8.66016C26.7449 8.66016 25.9858 9.41919 25.9858 10.3555C25.9858 11.2918 26.7449 12.0509 27.6812 12.0509Z" fill="#0C1524"/>
<path id="Vector_13" d="M36.3189 12.0509C37.2552 12.0509 38.0143 11.2918 38.0143 10.3555C38.0143 9.41919 37.2552 8.66016 36.3189 8.66016C35.3826 8.66016 34.6235 9.41919 34.6235 10.3555C34.6235 11.2918 35.3826 12.0509 36.3189 12.0509Z" fill="#0C1524"/>
<path id="Vector_14" d="M44.9561 12.0509C45.8924 12.0509 46.6515 11.2918 46.6515 10.3555C46.6515 9.41919 45.8924 8.66016 44.9561 8.66016C44.0198 8.66016 43.2607 9.41919 43.2607 10.3555C43.2607 11.2918 44.0198 12.0509 44.9561 12.0509Z" fill="#0C1524"/>
<path id="Vector_15" d="M53.5938 12.0509C54.5301 12.0509 55.2892 11.2918 55.2892 10.3555C55.2892 9.41919 54.5301 8.66016 53.5938 8.66016C52.6575 8.66016 51.8984 9.41919 51.8984 10.3555C51.8984 11.2918 52.6575 12.0509 53.5938 12.0509Z" fill="#0C1524"/>
<path id="Vector_16" d="M62.231 12.0509C63.1673 12.0509 63.9264 11.2918 63.9264 10.3555C63.9264 9.41919 63.1673 8.66016 62.231 8.66016C61.2947 8.66016 60.5356 9.41919 60.5356 10.3555C60.5356 11.2918 61.2947 12.0509 62.231 12.0509Z" fill="#0C1524"/>
<path id="Vector_17" d="M1.76909 20.7071C2.70541 20.7071 3.46445 19.9481 3.46445 19.0118C3.46445 18.0754 2.70541 17.3164 1.76909 17.3164C0.832769 17.3164 0.0737305 18.0754 0.0737305 19.0118C0.0737305 19.9481 0.832769 20.7071 1.76909 20.7071Z" fill="#0C1524"/>
<path id="Vector_18" d="M10.4063 20.7071C11.3426 20.7071 12.1017 19.9481 12.1017 19.0118C12.1017 18.0754 11.3426 17.3164 10.4063 17.3164C9.46998 17.3164 8.71094 18.0754 8.71094 19.0118C8.71094 19.9481 9.46998 20.7071 10.4063 20.7071Z" fill="#0C1524"/>
<path id="Vector_19" d="M19.044 20.7071C19.9803 20.7071 20.7394 19.9481 20.7394 19.0118C20.7394 18.0754 19.9803 17.3164 19.044 17.3164C18.1077 17.3164 17.3486 18.0754 17.3486 19.0118C17.3486 19.9481 18.1077 20.7071 19.044 20.7071Z" fill="#0C1524"/>
<path id="Vector_20" d="M27.6812 20.7071C28.6175 20.7071 29.3766 19.9481 29.3766 19.0118C29.3766 18.0754 28.6175 17.3164 27.6812 17.3164C26.7449 17.3164 25.9858 18.0754 25.9858 19.0118C25.9858 19.9481 26.7449 20.7071 27.6812 20.7071Z" fill="#0C1524"/>
<path id="Vector_21" d="M36.3189 20.7071C37.2552 20.7071 38.0143 19.9481 38.0143 19.0118C38.0143 18.0754 37.2552 17.3164 36.3189 17.3164C35.3826 17.3164 34.6235 18.0754 34.6235 19.0118C34.6235 19.9481 35.3826 20.7071 36.3189 20.7071Z" fill="#0C1524"/>
<path id="Vector_22" d="M44.9561 20.7071C45.8924 20.7071 46.6515 19.9481 46.6515 19.0118C46.6515 18.0754 45.8924 17.3164 44.9561 17.3164C44.0198 17.3164 43.2607 18.0754 43.2607 19.0118C43.2607 19.9481 44.0198 20.7071 44.9561 20.7071Z" fill="#0C1524"/>
<path id="Vector_23" d="M53.5938 20.7071C54.5301 20.7071 55.2892 19.9481 55.2892 19.0118C55.2892 18.0754 54.5301 17.3164 53.5938 17.3164C52.6575 17.3164 51.8984 18.0754 51.8984 19.0118C51.8984 19.9481 52.6575 20.7071 53.5938 20.7071Z" fill="#0C1524"/>
<path id="Vector_24" d="M62.231 20.7071C63.1673 20.7071 63.9264 19.9481 63.9264 19.0118C63.9264 18.0754 63.1673 17.3164 62.231 17.3164C61.2947 17.3164 60.5356 18.0754 60.5356 19.0118C60.5356 19.9481 61.2947 20.7071 62.231 20.7071Z" fill="#0C1524"/>
<path id="Vector_25" d="M1.76909 29.3673C2.70541 29.3673 3.46445 28.6082 3.46445 27.6719C3.46445 26.7356 2.70541 25.9766 1.76909 25.9766C0.832769 25.9766 0.0737305 26.7356 0.0737305 27.6719C0.0737305 28.6082 0.832769 29.3673 1.76909 29.3673Z" fill="#0C1524"/>
<path id="Vector_26" d="M10.4063 29.3673C11.3426 29.3673 12.1017 28.6082 12.1017 27.6719C12.1017 26.7356 11.3426 25.9766 10.4063 25.9766C9.46998 25.9766 8.71094 26.7356 8.71094 27.6719C8.71094 28.6082 9.46998 29.3673 10.4063 29.3673Z" fill="#0C1524"/>
<path id="Vector_27" d="M19.044 29.3673C19.9803 29.3673 20.7394 28.6082 20.7394 27.6719C20.7394 26.7356 19.9803 25.9766 19.044 25.9766C18.1077 25.9766 17.3486 26.7356 17.3486 27.6719C17.3486 28.6082 18.1077 29.3673 19.044 29.3673Z" fill="#0C1524"/>
<path id="Vector_28" d="M27.6812 29.3673C28.6175 29.3673 29.3766 28.6082 29.3766 27.6719C29.3766 26.7356 28.6175 25.9766 27.6812 25.9766C26.7449 25.9766 25.9858 26.7356 25.9858 27.6719C25.9858 28.6082 26.7449 29.3673 27.6812 29.3673Z" fill="#0C1524"/>
<path id="Vector_29" d="M36.3189 29.3673C37.2552 29.3673 38.0143 28.6082 38.0143 27.6719C38.0143 26.7356 37.2552 25.9766 36.3189 25.9766C35.3826 25.9766 34.6235 26.7356 34.6235 27.6719C34.6235 28.6082 35.3826 29.3673 36.3189 29.3673Z" fill="#0C1524"/>
<path id="Vector_30" d="M44.9561 29.3673C45.8924 29.3673 46.6515 28.6082 46.6515 27.6719C46.6515 26.7356 45.8924 25.9766 44.9561 25.9766C44.0198 25.9766 43.2607 26.7356 43.2607 27.6719C43.2607 28.6082 44.0198 29.3673 44.9561 29.3673Z" fill="#0C1524"/>
<path id="Vector_31" d="M53.5938 29.3673C54.5301 29.3673 55.2892 28.6082 55.2892 27.6719C55.2892 26.7356 54.5301 25.9766 53.5938 25.9766C52.6575 25.9766 51.8984 26.7356 51.8984 27.6719C51.8984 28.6082 52.6575 29.3673 53.5938 29.3673Z" fill="#0C1524"/>
<path id="Vector_32" d="M62.231 29.3673C63.1673 29.3673 63.9264 28.6082 63.9264 27.6719C63.9264 26.7356 63.1673 25.9766 62.231 25.9766C61.2947 25.9766 60.5356 26.7356 60.5356 27.6719C60.5356 28.6082 61.2947 29.3673 62.231 29.3673Z" fill="#0C1524"/>
<path id="Vector_33" d="M1.76909 38.0235C2.70541 38.0235 3.46445 37.2645 3.46445 36.3282C3.46445 35.3918 2.70541 34.6328 1.76909 34.6328C0.832769 34.6328 0.0737305 35.3918 0.0737305 36.3282C0.0737305 37.2645 0.832769 38.0235 1.76909 38.0235Z" fill="#0C1524"/>
<path id="Vector_34" d="M10.4063 38.0235C11.3426 38.0235 12.1017 37.2645 12.1017 36.3282C12.1017 35.3918 11.3426 34.6328 10.4063 34.6328C9.46998 34.6328 8.71094 35.3918 8.71094 36.3282C8.71094 37.2645 9.46998 38.0235 10.4063 38.0235Z" fill="#0C1524"/>
<path id="Vector_35" d="M19.044 38.0235C19.9803 38.0235 20.7394 37.2645 20.7394 36.3282C20.7394 35.3918 19.9803 34.6328 19.044 34.6328C18.1077 34.6328 17.3486 35.3918 17.3486 36.3282C17.3486 37.2645 18.1077 38.0235 19.044 38.0235Z" fill="#0C1524"/>
<path id="Vector_36" d="M27.6812 38.0235C28.6175 38.0235 29.3766 37.2645 29.3766 36.3282C29.3766 35.3918 28.6175 34.6328 27.6812 34.6328C26.7449 34.6328 25.9858 35.3918 25.9858 36.3282C25.9858 37.2645 26.7449 38.0235 27.6812 38.0235Z" fill="#0C1524"/>
<path id="Vector_37" d="M36.3189 38.0235C37.2552 38.0235 38.0143 37.2645 38.0143 36.3282C38.0143 35.3918 37.2552 34.6328 36.3189 34.6328C35.3826 34.6328 34.6235 35.3918 34.6235 36.3282C34.6235 37.2645 35.3826 38.0235 36.3189 38.0235Z" fill="#0C1524"/>
<path id="Vector_38" d="M44.9561 38.0235C45.8924 38.0235 46.6515 37.2645 46.6515 36.3282C46.6515 35.3918 45.8924 34.6328 44.9561 34.6328C44.0198 34.6328 43.2607 35.3918 43.2607 36.3282C43.2607 37.2645 44.0198 38.0235 44.9561 38.0235Z" fill="#0C1524"/>
<path id="Vector_39" d="M53.5938 38.0235C54.5301 38.0235 55.2892 37.2645 55.2892 36.3282C55.2892 35.3918 54.5301 34.6328 53.5938 34.6328C52.6575 34.6328 51.8984 35.3918 51.8984 36.3282C51.8984 37.2645 52.6575 38.0235 53.5938 38.0235Z" fill="#0C1524"/>
<path id="Vector_40" d="M62.231 38.0235C63.1673 38.0235 63.9264 37.2645 63.9264 36.3282C63.9264 35.3918 63.1673 34.6328 62.231 34.6328C61.2947 34.6328 60.5356 35.3918 60.5356 36.3282C60.5356 37.2645 61.2947 38.0235 62.231 38.0235Z" fill="#0C1524"/>
<path id="Vector_41" d="M1.76909 46.6837C2.70541 46.6837 3.46445 45.9247 3.46445 44.9883C3.46445 44.052 2.70541 43.293 1.76909 43.293C0.832769 43.293 0.0737305 44.052 0.0737305 44.9883C0.0737305 45.9247 0.832769 46.6837 1.76909 46.6837Z" fill="#0C1524"/>
<path id="Vector_42" d="M10.4063 46.6837C11.3426 46.6837 12.1017 45.9247 12.1017 44.9883C12.1017 44.052 11.3426 43.293 10.4063 43.293C9.46998 43.293 8.71094 44.052 8.71094 44.9883C8.71094 45.9247 9.46998 46.6837 10.4063 46.6837Z" fill="#0C1524"/>
<path id="Vector_43" d="M19.044 46.6837C19.9803 46.6837 20.7394 45.9247 20.7394 44.9883C20.7394 44.052 19.9803 43.293 19.044 43.293C18.1077 43.293 17.3486 44.052 17.3486 44.9883C17.3486 45.9247 18.1077 46.6837 19.044 46.6837Z" fill="#0C1524"/>
<path id="Vector_44" d="M27.6812 46.6837C28.6175 46.6837 29.3766 45.9247 29.3766 44.9883C29.3766 44.052 28.6175 43.293 27.6812 43.293C26.7449 43.293 25.9858 44.052 25.9858 44.9883C25.9858 45.9247 26.7449 46.6837 27.6812 46.6837Z" fill="#0C1524"/>
<path id="Vector_45" d="M36.3189 46.6837C37.2552 46.6837 38.0143 45.9247 38.0143 44.9883C38.0143 44.052 37.2552 43.293 36.3189 43.293C35.3826 43.293 34.6235 44.052 34.6235 44.9883C34.6235 45.9247 35.3826 46.6837 36.3189 46.6837Z" fill="#0C1524"/>
<path id="Vector_46" d="M44.9561 46.6837C45.8924 46.6837 46.6515 45.9247 46.6515 44.9883C46.6515 44.052 45.8924 43.293 44.9561 43.293C44.0198 43.293 43.2607 44.052 43.2607 44.9883C43.2607 45.9247 44.0198 46.6837 44.9561 46.6837Z" fill="#0C1524"/>
<path id="Vector_47" d="M53.5938 46.6837C54.5301 46.6837 55.2892 45.9247 55.2892 44.9883C55.2892 44.052 54.5301 43.293 53.5938 43.293C52.6575 43.293 51.8984 44.052 51.8984 44.9883C51.8984 45.9247 52.6575 46.6837 53.5938 46.6837Z" fill="#0C1524"/>
<path id="Vector_48" d="M62.231 46.6837C63.1673 46.6837 63.9264 45.9247 63.9264 44.9883C63.9264 44.052 63.1673 43.293 62.231 43.293C61.2947 43.293 60.5356 44.052 60.5356 44.9883C60.5356 45.9247 61.2947 46.6837 62.231 46.6837Z" fill="#0C1524"/>
<path id="Vector_49" d="M1.76909 55.3399C2.70541 55.3399 3.46445 54.5809 3.46445 53.6446C3.46445 52.7083 2.70541 51.9492 1.76909 51.9492C0.832769 51.9492 0.0737305 52.7083 0.0737305 53.6446C0.0737305 54.5809 0.832769 55.3399 1.76909 55.3399Z" fill="#0C1524"/>
<path id="Vector_50" d="M10.4063 55.3399C11.3426 55.3399 12.1017 54.5809 12.1017 53.6446C12.1017 52.7083 11.3426 51.9492 10.4063 51.9492C9.46998 51.9492 8.71094 52.7083 8.71094 53.6446C8.71094 54.5809 9.46998 55.3399 10.4063 55.3399Z" fill="#0C1524"/>
<path id="Vector_51" d="M19.044 55.3399C19.9803 55.3399 20.7394 54.5809 20.7394 53.6446C20.7394 52.7083 19.9803 51.9492 19.044 51.9492C18.1077 51.9492 17.3486 52.7083 17.3486 53.6446C17.3486 54.5809 18.1077 55.3399 19.044 55.3399Z" fill="#0C1524"/>
<path id="Vector_52" d="M27.6812 55.3399C28.6175 55.3399 29.3766 54.5809 29.3766 53.6446C29.3766 52.7083 28.6175 51.9492 27.6812 51.9492C26.7449 51.9492 25.9858 52.7083 25.9858 53.6446C25.9858 54.5809 26.7449 55.3399 27.6812 55.3399Z" fill="#0C1524"/>
<path id="Vector_53" d="M36.3189 55.3399C37.2552 55.3399 38.0143 54.5809 38.0143 53.6446C38.0143 52.7083 37.2552 51.9492 36.3189 51.9492C35.3826 51.9492 34.6235 52.7083 34.6235 53.6446C34.6235 54.5809 35.3826 55.3399 36.3189 55.3399Z" fill="#0C1524"/>
<path id="Vector_54" d="M44.9561 55.3399C45.8924 55.3399 46.6515 54.5809 46.6515 53.6446C46.6515 52.7083 45.8924 51.9492 44.9561 51.9492C44.0198 51.9492 43.2607 52.7083 43.2607 53.6446C43.2607 54.5809 44.0198 55.3399 44.9561 55.3399Z" fill="#0C1524"/>
<path id="Vector_55" d="M53.5938 55.3399C54.5301 55.3399 55.2892 54.5809 55.2892 53.6446C55.2892 52.7083 54.5301 51.9492 53.5938 51.9492C52.6575 51.9492 51.8984 52.7083 51.8984 53.6446C51.8984 54.5809 52.6575 55.3399 53.5938 55.3399Z" fill="#0C1524"/>
<path id="Vector_56" d="M62.231 55.3399C63.1673 55.3399 63.9264 54.5809 63.9264 53.6446C63.9264 52.7083 63.1673 51.9492 62.231 51.9492C61.2947 51.9492 60.5356 52.7083 60.5356 53.6446C60.5356 54.5809 61.2947 55.3399 62.231 55.3399Z" fill="#0C1524"/>
<path id="Vector_57" d="M1.76909 64.0001C2.70541 64.0001 3.46445 63.2411 3.46445 62.3047C3.46445 61.3684 2.70541 60.6094 1.76909 60.6094C0.832769 60.6094 0.0737305 61.3684 0.0737305 62.3047C0.0737305 63.2411 0.832769 64.0001 1.76909 64.0001Z" fill="#0C1524"/>
<path id="Vector_58" d="M10.4063 64.0001C11.3426 64.0001 12.1017 63.2411 12.1017 62.3047C12.1017 61.3684 11.3426 60.6094 10.4063 60.6094C9.46998 60.6094 8.71094 61.3684 8.71094 62.3047C8.71094 63.2411 9.46998 64.0001 10.4063 64.0001Z" fill="#0C1524"/>
<path id="Vector_59" d="M19.044 64.0001C19.9803 64.0001 20.7394 63.2411 20.7394 62.3047C20.7394 61.3684 19.9803 60.6094 19.044 60.6094C18.1077 60.6094 17.3486 61.3684 17.3486 62.3047C17.3486 63.2411 18.1077 64.0001 19.044 64.0001Z" fill="#0C1524"/>
<path id="Vector_60" d="M27.6812 64.0001C28.6175 64.0001 29.3766 63.2411 29.3766 62.3047C29.3766 61.3684 28.6175 60.6094 27.6812 60.6094C26.7449 60.6094 25.9858 61.3684 25.9858 62.3047C25.9858 63.2411 26.7449 64.0001 27.6812 64.0001Z" fill="#0C1524"/>
<path id="Vector_61" d="M36.3189 64.0001C37.2552 64.0001 38.0143 63.2411 38.0143 62.3047C38.0143 61.3684 37.2552 60.6094 36.3189 60.6094C35.3826 60.6094 34.6235 61.3684 34.6235 62.3047C34.6235 63.2411 35.3826 64.0001 36.3189 64.0001Z" fill="#0C1524"/>
<path id="Vector_62" d="M44.9561 64.0001C45.8924 64.0001 46.6515 63.2411 46.6515 62.3047C46.6515 61.3684 45.8924 60.6094 44.9561 60.6094C44.0198 60.6094 43.2607 61.3684 43.2607 62.3047C43.2607 63.2411 44.0198 64.0001 44.9561 64.0001Z" fill="#0C1524"/>
<path id="Vector_63" d="M53.5938 64.0001C54.5301 64.0001 55.2892 63.2411 55.2892 62.3047C55.2892 61.3684 54.5301 60.6094 53.5938 60.6094C52.6575 60.6094 51.8984 61.3684 51.8984 62.3047C51.8984 63.2411 52.6575 64.0001 53.5938 64.0001Z" fill="#0C1524"/>
<path id="Vector_64" d="M62.231 64.0001C63.1673 64.0001 63.9264 63.2411 63.9264 62.3047C63.9264 61.3684 63.1673 60.6094 62.231 60.6094C61.2947 60.6094 60.5356 61.3684 60.5356 62.3047C60.5356 63.2411 61.2947 64.0001 62.231 64.0001Z" fill="#0C1524"/>
</g>
<defs>
<clipPath id="clip0_9176_75219">
<rect width="64" height="64" fill="white"/>
</clipPath>
</defs>
</svg>
