<svg width="32" height="32" viewBox="0 0 32 32" fill="none" xmlns="http://www.w3.org/2000/svg">
<path d="M27.9 8.55L25.9 4.55C25.8139 4.38537 25.6847 4.24723 25.5262 4.15035C25.3676 4.05348 25.1858 4.00151 25 4H7C6.81422 4.00151 6.63235 4.05348 6.47383 4.15035C6.3153 4.24723 6.18609 4.38537 6.1 4.55L4.1 8.55C4.03596 8.69149 4.00191 8.84471 4 9V26C4 26.5304 4.21071 27.0391 4.58579 27.4142C4.96086 27.7893 5.46957 28 6 28H26C26.5304 28 27.0391 27.7893 27.4142 27.4142C27.7893 27.0391 28 26.5304 28 26V9C27.9981 8.84471 27.964 8.69149 27.9 8.55ZM20.95 19.4625L16.7125 23.7125C16.5214 23.8973 16.2659 24.0006 16 24.0006C15.7341 24.0006 15.4786 23.8973 15.2875 23.7125L11.05 19.4625C10.8776 19.2723 10.785 19.0231 10.7914 18.7664C10.7977 18.5098 10.9024 18.2655 11.0839 18.0839C11.2655 17.9024 11.5098 17.7977 11.7664 17.7914C12.0231 17.785 12.2723 17.8776 12.4625 18.05L15 20.5875V13C15 12.7348 15.1054 12.4804 15.2929 12.2929C15.4804 12.1054 15.7348 12 16 12C16.2652 12 16.5196 12.1054 16.7071 12.2929C16.8946 12.4804 17 12.7348 17 13V20.5875L19.5375 18.05C19.7277 17.8776 19.9769 17.785 20.2336 17.7914C20.4902 17.7977 20.7345 17.9024 20.9161 18.0839C21.0976 18.2655 21.2023 18.5098 21.2086 18.7664C21.215 19.0231 21.1224 19.2723 20.95 19.4625ZM6.6125 8L7.6125 6H24.3875L25.3875 8H6.6125Z" fill="#0576FF"/>
</svg>
