<svg width="12" height="14" viewBox="0 0 12 14" xmlns="http://www.w3.org/2000/svg"><path d="M10.5188 6.14373L1.51875 0.64998C1.36884 0.554978 1.19571 0.502986 1.01826 0.49968C0.840804 0.496373 0.665855 0.541879 0.512504 0.63123C0.356887 0.716609 0.227158 0.842355 0.13697 0.995235C0.0467811 1.14812 -0.000533409 1.32248 4.53647e-06 1.49998V12.5C-0.000533409 12.6775 0.0467811 12.8518 0.13697 13.0047C0.227158 13.1576 0.356887 13.2833 0.512504 13.3687C0.665855 13.4581 0.840804 13.5036 1.01826 13.5003C1.19571 13.497 1.36884 13.445 1.51875 13.35L10.5188 7.85623C10.6663 7.76724 10.7883 7.64165 10.873 7.49163C10.9577 7.34161 11.0022 7.17226 11.0022 6.99998C11.0022 6.8277 10.9577 6.65835 10.873 6.50833C10.7883 6.35831 10.6663 6.23272 10.5188 6.14373Z"/></svg>