<svg width="20" height="20" viewBox="0 0 20 20" fill="none" xmlns="http://www.w3.org/2000/svg">
<path d="M17.4999 5.55501C17.3528 5.6312 17.1815 5.64585 17.0235 5.59575C16.8656 5.54565 16.734 5.43489 16.6577 5.28782C16.0612 4.1093 15.1582 3.11321 14.0437 2.40423C13.9742 2.36042 13.9141 2.30336 13.8667 2.23631C13.8193 2.16925 13.7855 2.09352 13.7674 2.01343C13.7493 1.93334 13.7471 1.85046 13.761 1.76953C13.7749 1.68859 13.8046 1.61119 13.8484 1.54173C13.8922 1.47227 13.9492 1.41212 14.0163 1.36472C14.0833 1.31731 14.1591 1.28358 14.2392 1.26544C14.3193 1.24731 14.4021 1.24512 14.4831 1.25902C14.564 1.27291 14.6414 1.30261 14.7109 1.34642C16.0098 2.17809 17.0645 3.33983 17.7671 4.71282C17.8433 4.85995 17.858 5.0313 17.8079 5.18922C17.7578 5.34715 17.647 5.47871 17.4999 5.55501ZM2.78978 5.62532C2.90428 5.62528 3.01657 5.59377 3.11439 5.53426C3.21221 5.47474 3.29179 5.38949 3.34447 5.28782C3.94103 4.1093 4.84401 3.11321 5.95853 2.40423C6.0988 2.31576 6.19818 2.17518 6.23481 2.01343C6.27144 1.85168 6.24231 1.682 6.15384 1.54173C6.06537 1.40146 5.92479 1.30207 5.76304 1.26544C5.60129 1.22882 5.43161 1.25794 5.29134 1.34642C3.99244 2.17809 2.93773 3.33983 2.23509 4.71282C2.18574 4.80807 2.16175 4.91442 2.1654 5.02163C2.16906 5.12884 2.20025 5.23331 2.25597 5.32497C2.31169 5.41664 2.39007 5.49242 2.48356 5.54502C2.57705 5.59762 2.6825 5.62528 2.78978 5.62532ZM17.3288 13.7456C17.4396 13.9355 17.4983 14.1512 17.499 14.371C17.4998 14.5908 17.4426 14.8069 17.3331 14.9976C17.2237 15.1882 17.066 15.3466 16.8758 15.4568C16.6856 15.567 16.4697 15.6252 16.2499 15.6253H13.0624C12.919 16.3318 12.5357 16.9669 11.9776 17.4231C11.4195 17.8792 10.7208 18.1285 9.99993 18.1285C9.27909 18.1285 8.58041 17.8792 8.02227 17.4231C7.46414 16.9669 7.08088 16.3318 6.93743 15.6253H3.74993C3.53026 15.6249 3.31459 15.5666 3.12463 15.4563C2.93467 15.3459 2.77714 15.1875 2.6679 14.9969C2.55867 14.8063 2.50159 14.5903 2.50241 14.3706C2.50323 14.151 2.56193 13.9354 2.67259 13.7456C3.3765 12.5308 3.74993 10.8034 3.74993 8.75032C3.74993 7.09272 4.40841 5.50301 5.58052 4.33091C6.75262 3.1588 8.34233 2.50032 9.99993 2.50032C11.6575 2.50032 13.2472 3.1588 14.4194 4.33091C15.5915 5.50301 16.2499 7.09272 16.2499 8.75032C16.2499 10.8027 16.6234 12.53 17.3288 13.7456ZM11.7671 15.6253H8.23275C8.36223 15.9905 8.60166 16.3066 8.91811 16.5301C9.23456 16.7537 9.61249 16.8737 9.99993 16.8737C10.3874 16.8737 10.7653 16.7537 11.0818 16.5301C11.3982 16.3066 11.6376 15.9905 11.7671 15.6253ZM16.2499 14.3753C15.4187 12.948 14.9999 11.0558 14.9999 8.75032C14.9999 7.42424 14.4731 6.15247 13.5355 5.21479C12.5978 4.27711 11.326 3.75032 9.99993 3.75032C8.67385 3.75032 7.40208 4.27711 6.4644 5.21479C5.52672 6.15247 4.99993 7.42424 4.99993 8.75032C4.99993 11.0566 4.57962 12.9488 3.74993 14.3753H16.2499Z" fill="#E4411B"/>
</svg>
