<svg width="169" height="101" viewBox="0 0 169 101" fill="none" xmlns="http://www.w3.org/2000/svg">
<path d="M109.231 85.1757C77.7713 79.7901 46.3119 74.4044 14.8525 69.0188C33.9612 61.3028 53.0699 53.6128 72.1785 45.8968C102.058 52.5512 131.938 59.2055 161.792 65.8599C144.289 72.3071 126.76 78.7285 109.231 85.1757Z" fill="white" stroke="#C5D0FF" stroke-width="3"/>
<path d="M107.936 85.5652C108.04 85.8759 108.117 86.2125 108.221 86.5232C108.35 86.9375 108.972 86.8598 108.972 86.4197C108.972 86.1607 108.972 85.9277 108.972 85.6688C108.972 85.1768 108.195 85.1768 108.195 85.6688C108.195 85.9795 108.143 86.2643 108.014 86.5491C108.273 86.5491 108.506 86.5491 108.764 86.5491C108.661 86.2125 108.635 85.9018 108.713 85.5393C108.48 85.5652 108.247 85.5911 108.014 85.6429C108.091 85.7206 108.091 85.7724 108.04 85.85C108.273 85.8759 108.506 85.9018 108.739 85.9536C108.687 85.7724 108.713 85.617 108.816 85.4616C108.583 85.384 108.324 85.3322 108.091 85.2545C108.04 85.6688 107.988 86.0572 107.936 86.4715C107.91 86.6786 108.143 86.8598 108.324 86.8598C108.557 86.8598 108.687 86.6786 108.713 86.4715C108.764 86.0572 108.816 85.6688 108.868 85.2545C108.92 84.8661 108.324 84.7625 108.143 85.0474C107.936 85.384 107.884 85.7724 107.988 86.1607C108.065 86.4973 108.531 86.5232 108.687 86.2643C108.894 85.9536 108.894 85.5652 108.661 85.2804C108.48 85.0474 108.014 85.0215 107.962 85.384C107.858 85.85 107.884 86.342 108.014 86.8081C108.143 87.1964 108.635 87.1447 108.764 86.8081C108.894 86.4456 108.972 86.0831 108.972 85.7206C108.713 85.7206 108.454 85.7206 108.195 85.7206C108.195 85.9795 108.195 86.2125 108.195 86.4715C108.454 86.4456 108.713 86.3938 108.946 86.3679C108.842 86.0572 108.764 85.7206 108.661 85.4099C108.557 84.8661 107.806 85.0733 107.936 85.5652V85.5652Z" fill="#0576FF"/>
<path d="M108.532 87.4286C112.7 85.2795 117.257 84.1402 121.737 82.8715C123.938 82.2501 126.113 81.5769 128.21 80.6965C130.23 79.868 132.171 78.8323 134.165 77.9002C138.593 75.8288 143.383 74.4823 148.018 72.9547C152.834 71.3494 157.624 69.744 162.44 68.1646C162.906 68.0092 162.699 67.2583 162.233 67.4137C157.417 69.019 152.627 70.6244 147.811 72.2038C143.253 73.7056 138.567 75.052 134.191 77.0457C131.913 78.0814 129.686 79.2984 127.355 80.2046C125.232 81.0331 123.057 81.6805 120.856 82.3019C116.532 83.5447 112.157 84.684 108.117 86.7554C107.703 86.9884 108.091 87.6616 108.532 87.4286V87.4286Z" fill="#0576FF"/>
<path d="M108.894 87.2738C126.786 81.0855 144.626 74.8195 162.466 68.45C163.864 67.958 163.268 65.7054 161.844 66.1973C144.03 72.5669 126.164 78.8329 108.273 85.0212C106.874 85.5131 107.47 87.7658 108.894 87.2738V87.2738Z" fill="#0576FF"/>
<path d="M106.874 62.2616C110.24 62.5982 113.114 64.6438 116.429 65.2911C116.921 65.3946 117.128 64.6438 116.636 64.5402C113.27 63.867 110.344 61.8215 106.874 61.4849C106.382 61.459 106.382 62.2358 106.874 62.2616V62.2616Z" fill="#0576FF"/>
<path d="M116.662 64.9293C118.707 63.8159 120.623 62.4954 122.358 60.9418C122.721 60.6052 122.177 60.0615 121.814 60.3981C120.105 61.8998 118.267 63.1945 116.273 64.2561C115.833 64.515 116.222 65.1882 116.662 64.9293V64.9293Z" fill="#0576FF"/>
<path d="M107.677 60.7851C109.308 59.62 110.991 58.5066 112.726 57.4709C113.166 57.2119 112.752 56.5387 112.338 56.7977C110.603 57.8334 108.92 58.9209 107.289 60.1119C106.874 60.4226 107.263 61.0958 107.677 60.7851V60.7851Z" fill="#0576FF"/>
<path d="M112.856 57.6005C115.807 58.7139 118.759 59.8013 121.737 60.9147C122.203 61.096 122.41 60.3451 121.944 60.1638C118.992 59.0505 116.04 57.963 113.063 56.8496C112.597 56.6942 112.39 57.4451 112.856 57.6005V57.6005Z" fill="#0576FF"/>
<path d="M104.544 65.2135C112.338 67.6215 120.028 70.392 127.563 73.525C128.029 73.7062 128.236 72.9553 127.77 72.7741C120.235 69.6411 112.545 66.8706 104.751 64.4626C104.259 64.3072 104.052 65.0581 104.544 65.2135V65.2135Z" fill="#0576FF"/>
<path d="M105.295 71.2467C110.137 73.577 115.03 75.7779 119.976 77.927C120.442 78.1341 120.83 77.4609 120.364 77.2538C115.419 75.1306 110.525 72.9038 105.683 70.5735C105.243 70.3664 104.855 71.0396 105.295 71.2467V71.2467Z" fill="#0576FF"/>
<path d="M105.994 77.9009C108.635 79.2473 111.276 80.6196 113.917 81.966C114.357 82.1991 114.746 81.5259 114.305 81.2928C111.664 79.9464 109.023 78.5741 106.382 77.2277C105.942 76.9947 105.554 77.6679 105.994 77.9009V77.9009Z" fill="#0576FF"/>
<path d="M107.496 78.1348C111.147 75.0277 114.979 72.1795 118.966 69.5384C119.38 69.2536 118.992 68.5804 118.578 68.8652C114.539 71.5322 110.655 74.458 106.952 77.591C106.564 77.9276 107.107 78.4714 107.496 78.1348V78.1348Z" fill="#0576FF"/>
<path d="M106.538 72.8249C108.609 71.375 110.681 69.925 112.752 68.4491C113.166 68.1643 112.778 67.4911 112.364 67.7759C110.292 69.2259 108.221 70.6759 106.149 72.1517C105.761 72.4365 106.149 73.1098 106.538 72.8249V72.8249Z" fill="#0576FF"/>
<path d="M107.832 86.9631C75.2856 81.4221 42.7387 75.8811 10.1918 70.3401C7.13652 47.2181 4.05531 24.122 1 1C36.0325 5.71243 71.0392 10.4249 106.072 15.1632C106.667 39.0879 107.263 63.0125 107.832 86.9631Z" fill="white" stroke="#C5D0FF"/>
<path d="M49.8331 46.9593C47.0109 46.0789 45.4832 43.6968 45.2502 40.8227C45.0171 37.8969 45.5868 35.0746 48.3055 33.547C50.7135 32.2006 53.5876 32.5889 55.7366 34.2202C57.8857 35.8514 59.8017 39.1915 58.067 41.7549C57.7821 42.1692 58.4553 42.5575 58.7402 42.1433C60.6044 39.3987 58.8437 35.7737 56.5652 33.8836C54.209 31.9416 51.0242 31.3461 48.2537 32.7184C45.043 34.2978 44.2145 37.5085 44.4734 40.8486C44.7323 44.0852 46.4412 46.7521 49.626 47.736C50.0921 47.8655 50.2992 47.1146 49.8331 46.9593V46.9593Z" fill="#0576FF"/>
<path d="M50.5583 47.2441C49.3672 45.2762 49.7556 42.5316 51.6716 41.1593C53.5877 39.787 56.3323 40.3567 57.7823 42.1174C58.093 42.5057 58.6367 41.962 58.326 41.5736C56.6171 39.5281 53.4064 38.9585 51.1797 40.5379C48.9529 42.1432 48.4869 45.3539 49.8851 47.6325C50.144 48.0467 50.8172 47.6583 50.5583 47.2441V47.2441Z" fill="#0576FF"/>
<path d="M53.2252 48.3306C52.0082 47.036 52.1895 44.628 53.8207 43.6958C55.426 42.7637 57.601 43.8253 58.1188 45.5342C58.2742 46.0003 59.0251 45.819 58.8697 45.3271C58.1965 43.1521 55.4778 41.8575 53.4323 43.0485C51.3868 44.2396 51.1279 47.2431 52.6814 48.9002C53.018 49.2368 53.5618 48.6931 53.2252 48.3306V48.3306Z" fill="#0576FF"/>
<path d="M55.2189 50.1441C56.2287 50.5066 57.3939 49.911 57.7823 48.953C58.1966 47.995 57.6528 46.9593 56.7466 46.545C55.8404 46.1307 54.7529 46.3638 54.2609 47.2441C53.7948 48.0986 53.9502 49.2637 54.727 49.8851C55.1154 50.1959 55.6591 49.6521 55.2707 49.3414C54.235 48.5387 54.96 46.6486 56.3323 47.2182C56.9278 47.4513 57.3421 48.0727 57.0573 48.72C56.7725 49.3414 56.0475 49.6521 55.4261 49.4191C54.96 49.2378 54.7529 49.9887 55.2189 50.1441V50.1441Z" fill="#0576FF"/>
<path d="M106.072 15.1379L108.35 86.4717" stroke="#C5D0FF" stroke-width="3"/>
<path d="M106.227 15.0846C106.926 38.5432 107.625 62.0018 108.324 85.4604" stroke="#C5D0FF" stroke-width="3"/>
<path opacity="0.37" d="M61.4072 10.3213C63.0902 11.2016 77.5382 19.0729 78.548 33.0549C79.1177 40.7708 75.3374 46.6225 72.9553 50.1957C60.1126 69.5115 34.712 72.9293 27.8246 73.6543C37.845 80.3087 72.8517 102.24 111.121 100.945C119.639 100.66 132.845 100.065 147.163 92.1933C157.909 86.2898 164.874 78.7033 168.861 73.6543C166.401 72.1266 163.967 70.6249 161.508 69.0972C143.435 75.2855 125.336 81.4738 107.263 87.6362C106.331 63.7116 105.399 39.8128 104.466 15.8882C90.0961 14.0757 75.7517 12.2114 61.4072 10.3213Z" fill="#C5D0FF"/>
<path opacity="0.5" d="M40.8226 75.337C44.1886 77.5637 49.393 80.7485 56.125 83.8038C64.5142 87.6359 89.3451 98.9768 116.247 92.6849C135.796 88.102 150.917 75.5441 149.934 73.4727C149.312 72.1781 141.726 73.5245 107.936 86.9627C107.392 76.0102 106.848 65.0317 106.331 54.0792C105.398 63.2969 104.44 72.5147 103.508 81.7065C82.6131 79.6092 61.7178 77.4601 40.8226 75.337Z" fill="#C5D0FF"/>
</svg>
