<svg xmlns="http://www.w3.org/2000/svg" width="48" height="48" viewBox="0 0 48 48" fill="none">
  <path fill-rule="evenodd" clip-rule="evenodd" d="M6.75 25.5C6.75 24.6716 7.42157 24 8.25 24H18.75C19.5784 24 20.25 24.6716 20.25 25.5C20.25 26.3284 19.5784 27 18.75 27H9.75V39C9.75 39.8284 9.07843 40.5 8.25 40.5C7.42157 40.5 6.75 39.8284 6.75 39V25.5Z" fill="#FFB40A"/>
  <path fill-rule="evenodd" clip-rule="evenodd" d="M3.75 39C3.75 38.1716 4.42157 37.5 5.25 37.5H32C32.8284 37.5 33.5 38.1716 33.5 39C33.5 39.8284 32.8284 40.5 32 40.5H5.25C4.42157 40.5 3.75 39.8284 3.75 39Z" fill="#FFB40A"/>
  <path fill-rule="evenodd" clip-rule="evenodd" d="M17.25 16.5C17.25 15.6716 17.9216 15 18.75 15H29.25C30.0784 15 30.75 15.6716 30.75 16.5C30.75 17.3284 30.0784 18 29.25 18H20.25V39C20.25 39.8284 19.5784 40.5 18.75 40.5C17.9216 40.5 17.25 39.8284 17.25 39V16.5Z" fill="#FFB40A"/>
  <path fill-rule="evenodd" clip-rule="evenodd" d="M27.75 7.5C27.75 6.67157 28.4216 6 29.25 6H39.75C40.5784 6 41.25 6.67157 41.25 7.5V30C41.25 30.8284 40.5784 31.5 39.75 31.5C38.9216 31.5 38.25 30.8284 38.25 30V9H30.75V39C30.75 39.8284 30.0784 40.5 29.25 40.5C28.4216 40.5 27.75 39.8284 27.75 39V7.5Z" fill="#FFB40A"/>
  <path fill-rule="evenodd" clip-rule="evenodd" d="M46.0607 32.9393C46.6464 33.5251 46.6464 34.4749 46.0607 35.0607L37.0607 44.0607C36.4749 44.6464 35.5251 44.6464 34.9393 44.0607C34.3536 43.4749 34.3536 42.5251 34.9393 41.9393L43.9393 32.9393C44.5251 32.3536 45.4749 32.3536 46.0607 32.9393Z" fill="#FFB40A"/>
  <path fill-rule="evenodd" clip-rule="evenodd" d="M34.9393 32.9393C35.5251 32.3536 36.4749 32.3536 37.0607 32.9393L46.0607 41.9393C46.6464 42.5251 46.6464 43.4749 46.0607 44.0607C45.4749 44.6464 44.5251 44.6464 43.9393 44.0607L34.9393 35.0607C34.3536 34.4749 34.3536 33.5251 34.9393 32.9393Z" fill="#FFB40A"/>
</svg>