<svg xmlns="http://www.w3.org/2000/svg" viewBox="0 0 13 11.92139">
  <path d="M.99707,11.92139A.99943.99943,0,0,1,0,10.93018V1A1.00026,1.00026,0,0,1,1,0H12a1.00026,1.00026,0,0,1,1,1V8.99951a.99859.99859,0,0,1-1,1L3.627,10.023,1.64014,11.689a.99129.99129,0,0,1-.51465.22364A.94042.94042,0,0,1,.99707,11.92139ZM1,1v9.92529L3.05371,9.19873a.50273.50273,0,0,1,.1543-.08887l.23144-.082a.5106.5106,0,0,1,.167-.02832H12V1ZM9,4a.49971.49971,0,0,0-.5-.5h-4a.5.5,0,0,0,0,1h4A.49971.49971,0,0,0,9,4ZM9,6a.49971.49971,0,0,0-.5-.5h-4a.5.5,0,0,0,0,1h4A.49971.49971,0,0,0,9,6Z"/>
</svg>
