<svg xmlns="http://www.w3.org/2000/svg" viewBox="0 0 16.33 16.34"><path d="M0,16.14v-2.6c0-.11.52-.19,1.17-.19h0c.64,0,1.16.08,1.16.19v2.6c0,.11-.52.19-1.16.19h0C.52,16.33,0,16.25,0,16.14Zm4.67,0v-2.6c0-.1.52-.19,1.16-.19h0c.65,0,1.17.09,1.17.19v2.6c0,.11-.52.19-1.17.19h0C5.19,16.33,4.67,16.24,4.67,16.14ZM14,15.86V9.38c.05-.26.57-.46,1.16-.45h0c.6,0,1.12.18,1.17.45v6.48c0,.27-.57.47-1.17.45h0C14.57,16.33,14.05,16.13,14,15.86Zm-4.67,0V9.4c.08-.29.6-.5,1.17-.47h0c.57,0,1.08.18,1.16.47v6.47c-.08.29-.59.5-1.16.46h0C9.93,16.37,9.41,16.16,9.33,15.87ZM1,0H15.31a1.1,1.1,0,0,1,1,1.17h0a1.1,1.1,0,0,1-1,1.16H1A1.1,1.1,0,0,1,0,1.17H0A1.1,1.1,0,0,1,1,0ZM.44,8.93H6.56c.25,0,.44.52.44,1.17H7c0,.64-.19,1.16-.44,1.16H.44C.2,11.26,0,10.74,0,10.1H0C0,9.45.2,8.93.44,8.93ZM1,4.51H15.31a1.1,1.1,0,0,1,1,1.16h0a1.1,1.1,0,0,1-1,1.17H1A1.1,1.1,0,0,1,0,5.67H0A1.1,1.1,0,0,1,1,4.51Z" /></svg>