<!doctype html>
<svg viewBox="366.404 109.306 22 22" width="22" height="22">
  <rect width="20" height="20" rx="10" fill="#3DB45A" transform="matrix(1, 0, 0, 1, 367.404144, 110.306313)" style=""></rect>
  <path d="M 10 -0.5 C 12.864 -0.5 15.552 0.703 17.425 2.575 C 19.297 4.448 20.5 7.136 20.5 10 C 20.5 12.864 19.297 15.552 17.425 17.425 C 15.552 19.297 12.864 20.5 10 20.5 C 7.136 20.5 4.448 19.297 2.575 17.425 C 0.703 15.552 -0.5 12.864 -0.5 10 C -0.5 7.136 0.703 4.448 2.575 2.575 C 4.448 0.703 7.136 -0.5 10 -0.5 Z M 3.282 3.282 C 1.536 5.029 0.5 7.341 0.5 10 C 0.5 12.659 1.536 14.971 3.282 16.718 C 5.029 18.464 7.341 19.5 10 19.5 C 12.659 19.5 14.971 18.464 16.718 16.718 C 18.464 14.971 19.5 12.659 19.5 10 C 19.5 7.341 18.464 5.029 16.718 3.282 C 14.971 1.536 12.659 0.5 10 0.5 C 7.341 0.5 5.029 1.536 3.282 3.282 Z" style="fill: none;" transform="matrix(1, 0, 0, 1, 367.404144, 110.306313)"></path>
  <path d="M 10 -0.5 C 12.864 -0.5 15.552 0.703 17.425 2.575 C 19.297 4.448 20.5 7.136 20.5 10 C 20.5 12.864 19.297 15.552 17.425 17.425 C 15.552 19.297 12.864 20.5 10 20.5 C 7.136 20.5 4.448 19.297 2.575 17.425 C 0.703 15.552 -0.5 12.864 -0.5 10 C -0.5 7.136 0.703 4.448 2.575 2.575 C 4.448 0.703 7.136 -0.5 10 -0.5 Z M 3.282 3.282 C 1.536 5.029 0.5 7.341 0.5 10 C 0.5 12.659 1.536 14.971 3.282 16.718 C 5.029 18.464 7.341 19.5 10 19.5 C 12.659 19.5 14.971 18.464 16.718 16.718 C 18.464 14.971 19.5 12.659 19.5 10 C 19.5 7.341 18.464 5.029 16.718 3.282 C 14.971 1.536 12.659 0.5 10 0.5 C 7.341 0.5 5.029 1.536 3.282 3.282 Z" style="fill: none;" transform="matrix(1, 0, 0, 1, 367.404144, 110.306313)"></path>
  <path d="M 10 -1 C 12.966 -1 15.831 0.298 17.779 2.222 C 19.702 4.169 21 7.034 21 10 C 21 12.966 19.702 15.831 17.778 17.779 C 15.831 19.702 12.966 21 10 21 C 7.034 21 4.169 19.702 2.221 17.778 C 0.298 15.831 -1 12.966 -1 10 C -1 7.034 0.298 4.169 2.222 2.221 C 4.169 0.298 7.034 -1 10 -1 Z M 0 10 C 0 12.758 1.105 15.265 2.92 17.063 C 1.128 15.242 0 12.757 0 10 C 0 7.243 1.128 4.757 2.92 2.937 C 1.105 4.735 0 7.242 0 10 Z M 10 20 C 12.758 20 15.265 18.895 17.063 17.08 C 15.242 18.872 12.757 20 10 20 C 7.243 20 4.758 18.872 2.937 17.08 C 4.735 18.896 7.242 20 10 20 Z M 20 10 C 20 7.242 18.895 4.735 17.08 2.937 C 18.872 4.758 20 7.243 20 10 C 20 12.757 18.872 15.243 17.08 17.063 C 18.895 15.265 20 12.758 20 10 Z M 10 0 C 7.242 0 4.735 1.105 2.937 2.92 C 4.758 1.128 7.243 0 10 0 C 12.757 0 15.242 1.128 17.063 2.92 C 15.265 1.104 12.758 0 10 0 Z M 3.635 3.636 C 1.941 5.308 1 7.443 1 10 C 1 12.557 1.941 14.692 3.636 16.364 C 5.308 18.059 7.443 19 10 19 C 12.557 19 14.692 18.059 16.365 16.364 C 18.059 14.692 19 12.557 19 10 C 19 7.443 18.059 5.308 16.364 3.635 C 14.692 1.941 12.557 1 10 1 C 7.443 1 5.308 1.941 3.635 3.636 Z" style="fill: none;" transform="matrix(1, 0, 0, 1, 367.404144, 110.306313)"></path>
  <path d="M 14.46 6.873 C 14.714 7.127 14.714 7.539 14.46 7.793 L 9.126 13.126 L 8.667 13.586 L 8.207 13.126 L 5.54 10.459 C 5.286 10.206 5.286 9.794 5.54 9.54 C 5.794 9.286 6.206 9.286 6.459 9.54 L 8.667 11.747 L 13.541 6.873 C 13.794 6.62 14.206 6.62 14.46 6.873 Z" style="fill: none;" transform="matrix(1, 0, 0, 1, 367.404144, 110.306313)"></path>
  <path d="M 14.46 6.873 C 14.714 7.127 14.714 7.539 14.46 7.793 L 9.126 13.126 L 8.667 13.586 L 8.207 13.126 L 5.54 10.459 C 5.286 10.206 5.286 9.794 5.54 9.54 C 5.794 9.286 6.206 9.286 6.459 9.54 L 8.667 11.747 L 13.541 6.873 C 13.794 6.62 14.206 6.62 14.46 6.873 Z" style="fill: rgb(255, 255, 255);" transform="matrix(1, 0, 0, 1, 367.404144, 110.306313)"></path>
  <path d="M 14.814 6.519 C 14.997 6.734 15.151 7.077 15.151 7.333 C 15.151 7.589 14.997 7.932 14.814 8.147 L 9.48 13.479 L 8.667 14.293 L 8.313 13.94 L 5.187 10.813 C 5.003 10.599 4.85 10.255 4.85 10 C 4.85 9.744 4.987 9.386 5.186 9.186 C 5.386 8.987 5.744 8.849 6 8.849 C 6.255 8.849 6.598 9.002 6.812 9.186 L 8.667 11.04 L 13.187 6.519 C 13.402 6.336 13.745 6.183 14 6.183 C 14.255 6.183 14.599 6.336 14.814 6.519 Z M 14 7.183 C 13.923 7.183 13.933 7.157 13.895 7.227 L 8.667 12.454 L 6.106 9.894 C 6.067 9.824 6.077 9.849 6 9.849 C 5.923 9.849 5.948 9.839 5.894 9.894 C 5.839 9.948 5.85 9.923 5.85 10 C 5.85 10.077 5.823 10.066 5.893 10.105 L 8.667 12.878 L 8.772 12.773 L 14.107 7.439 C 14.177 7.4 14.151 7.41 14.151 7.333 C 14.151 7.256 14.177 7.266 14.107 7.227 C 14.068 7.157 14.078 7.183 14 7.183 Z" style="fill: none;" transform="matrix(1, 0, 0, 1, 367.404144, 110.306313)"></path>
</svg>