<svg width="24" height="24" viewBox="0 0 24 24" fill="none" xmlns="http://www.w3.org/2000/svg">
  <path
    d="M18.781 17.7198C18.8507 17.7895 18.906 17.8722 18.9437 17.9632C18.9814 18.0543 19.0008 18.1519 19.0008 18.2504C19.0008 18.349 18.9814 18.4465 18.9437 18.5376C18.906 18.6286 18.8507 18.7114 18.781 18.781C18.7114 18.8507 18.6286 18.906 18.5376 18.9437C18.4465 18.9814 18.349 19.0008 18.2504 19.0008C18.1519 19.0008 18.0543 18.9814 17.9632 18.9437C17.8722 18.906 17.7895 18.8507 17.7198 18.781L11.5004 12.5607L5.28104 18.781C5.14031 18.9218 4.94944 19.0008 4.75042 19.0008C4.55139 19.0008 4.36052 18.9218 4.21979 18.781C4.07906 18.6403 4 18.4494 4 18.2504C4 18.0514 4.07906 17.8605 4.21979 17.7198L10.4401 11.5004L4.21979 5.28104C4.07906 5.14031 4 4.94944 4 4.75042C4 4.55139 4.07906 4.36052 4.21979 4.21979C4.36052 4.07906 4.55139 4 4.75042 4C4.94944 4 5.14031 4.07906 5.28104 4.21979L11.5004 10.4401L17.7198 4.21979C17.8605 4.07906 18.0514 4 18.2504 4C18.4494 4 18.6403 4.07906 18.781 4.21979C18.9218 4.36052 19.0008 4.55139 19.0008 4.75042C19.0008 4.94944 18.9218 5.14031 18.781 5.28104L12.5607 11.5004L18.781 17.7198Z"
    fill="currentColor"/>
</svg>
