<svg width="64" height="64" viewBox="0 0 64 64" fill="none" xmlns="http://www.w3.org/2000/svg">
<rect width="64" height="64" rx="8" fill="#007AFF"/>
<path d="M22.25 32.9995H42.25C42.5152 32.9995 42.7696 32.8942 42.9571 32.7066C43.1446 32.5191 43.25 32.2647 43.25 31.9995V26.9995C43.2515 26.7335 43.1482 26.4775 42.9625 26.287L35.9625 19.287C35.772 19.1013 35.516 18.998 35.25 18.9995H23.25C22.7196 18.9995 22.2109 19.2102 21.8358 19.5853C21.4607 19.9604 21.25 20.4691 21.25 20.9995V31.9995C21.25 32.2647 21.3554 32.5191 21.5429 32.7066C21.7304 32.8942 21.9848 32.9995 22.25 32.9995ZM35.25 21.4995L40.75 26.9995H35.25V21.4995Z" fill="white"/>
<path d="M22.4627 43C22.3893 43 22.3293 42.9767 22.2827 42.93C22.236 42.8833 22.2127 42.8233 22.2127 42.75V36.25C22.2127 36.1767 22.236 36.1167 22.2827 36.07C22.3293 36.0233 22.3893 36 22.4627 36H24.9727C25.6393 36 26.196 36.1067 26.6427 36.32C27.0893 36.5267 27.4293 36.8333 27.6627 37.24C27.9027 37.64 28.0293 38.1367 28.0427 38.73C28.0493 39.0233 28.0527 39.28 28.0527 39.5C28.0527 39.72 28.0493 39.9733 28.0427 40.26C28.0227 40.88 27.8993 41.3933 27.6727 41.8C27.446 42.2067 27.1127 42.51 26.6727 42.71C26.2327 42.9033 25.6827 43 25.0227 43H22.4627ZM23.8027 41.71H24.9727C25.306 41.71 25.5793 41.66 25.7927 41.56C26.006 41.46 26.1627 41.3033 26.2627 41.09C26.3693 40.87 26.426 40.5867 26.4327 40.24C26.4393 40.0467 26.4427 39.8733 26.4427 39.72C26.4493 39.5667 26.4493 39.4133 26.4427 39.26C26.4427 39.1067 26.4393 38.9367 26.4327 38.75C26.4193 38.25 26.2893 37.8833 26.0427 37.65C25.8027 37.41 25.4293 37.29 24.9227 37.29H23.8027V41.71ZM32.5825 43.1C31.9758 43.1 31.4525 43 31.0125 42.8C30.5725 42.6 30.2292 42.3 29.9825 41.9C29.7358 41.4933 29.6025 40.9833 29.5825 40.37C29.5758 40.0833 29.5725 39.8 29.5725 39.52C29.5725 39.2333 29.5758 38.9433 29.5825 38.65C29.6025 38.05 29.7358 37.5467 29.9825 37.14C30.2358 36.7267 30.5825 36.4167 31.0225 36.21C31.4692 36.0033 31.9892 35.9 32.5825 35.9C33.1692 35.9 33.6825 36.0033 34.1225 36.21C34.5692 36.4167 34.9192 36.7267 35.1725 37.14C35.4258 37.5467 35.5592 38.05 35.5725 38.65C35.5858 38.9433 35.5925 39.2333 35.5925 39.52C35.5925 39.8 35.5858 40.0833 35.5725 40.37C35.5525 40.9833 35.4192 41.4933 35.1725 41.9C34.9258 42.3 34.5825 42.6 34.1425 42.8C33.7025 43 33.1825 43.1 32.5825 43.1ZM32.5825 41.81C32.9692 41.81 33.2858 41.6933 33.5325 41.46C33.7858 41.22 33.9192 40.84 33.9325 40.32C33.9458 40.0267 33.9525 39.7533 33.9525 39.5C33.9525 39.24 33.9458 38.9667 33.9325 38.68C33.9258 38.3333 33.8625 38.05 33.7425 37.83C33.6225 37.61 33.4625 37.45 33.2625 37.35C33.0692 37.2433 32.8425 37.19 32.5825 37.19C32.3225 37.19 32.0925 37.2433 31.8925 37.35C31.6925 37.45 31.5325 37.61 31.4125 37.83C31.2992 38.05 31.2358 38.3333 31.2225 38.68C31.2158 38.9667 31.2125 39.24 31.2125 39.5C31.2125 39.7533 31.2158 40.0267 31.2225 40.32C31.2425 40.84 31.3758 41.22 31.6225 41.46C31.8692 41.6933 32.1892 41.81 32.5825 41.81ZM40.1138 43.1C39.4871 43.1 38.9538 42.9967 38.5138 42.79C38.0804 42.5767 37.7438 42.27 37.5038 41.87C37.2638 41.4633 37.1304 40.97 37.1038 40.39C37.0971 40.1167 37.0938 39.8233 37.0938 39.51C37.0938 39.1967 37.0971 38.8967 37.1038 38.61C37.1304 38.0367 37.2638 37.55 37.5038 37.15C37.7504 36.7433 38.0938 36.4333 38.5338 36.22C38.9738 36.0067 39.5004 35.9 40.1138 35.9C40.5604 35.9 40.9671 35.9567 41.3338 36.07C41.7004 36.1833 42.0171 36.3467 42.2838 36.56C42.5504 36.7733 42.7571 37.0233 42.9038 37.31C43.0504 37.5967 43.1304 37.9167 43.1438 38.27C43.1438 38.33 43.1204 38.38 43.0738 38.42C43.0338 38.46 42.9838 38.48 42.9238 38.48H41.7838C41.7038 38.48 41.6404 38.46 41.5938 38.42C41.5471 38.38 41.5104 38.3133 41.4838 38.22C41.3838 37.8267 41.2171 37.5567 40.9838 37.41C40.7504 37.2633 40.4604 37.19 40.1138 37.19C39.7004 37.19 39.3738 37.3033 39.1338 37.53C38.8938 37.7567 38.7638 38.1333 38.7438 38.66C38.7238 39.2067 38.7238 39.7667 38.7438 40.34C38.7638 40.8667 38.8938 41.2433 39.1338 41.47C39.3738 41.6967 39.7004 41.81 40.1138 41.81C40.4604 41.81 40.7504 41.7367 40.9838 41.59C41.2238 41.4367 41.3904 41.1667 41.4838 40.78C41.5104 40.68 41.5471 40.6133 41.5938 40.58C41.6404 40.54 41.7038 40.52 41.7838 40.52H42.9238C42.9838 40.52 43.0338 40.54 43.0738 40.58C43.1204 40.62 43.1438 40.67 43.1438 40.73C43.1304 41.0833 43.0504 41.4033 42.9038 41.69C42.7571 41.9767 42.5504 42.2267 42.2838 42.44C42.0171 42.6533 41.7004 42.8167 41.3338 42.93C40.9671 43.0433 40.5604 43.1 40.1138 43.1Z" fill="white"/>
</svg>