<svg fill="currentColor" height="24" viewBox="0 0 24 24" width="24" xmlns="http://www.w3.org/2000/svg">
  <path d="m20.0306 7.71938-5.25-5.25c-.0697-.06963-.1524-.12484-.2435-.16248-.091-.03764-.1886-.05698-.2871-.0569h-9c-.39782 0-.77936.15804-1.06066.43934s-.43934.66284-.43934 1.06066v16.5c0 .3978.15804.7794.43934 1.0607s.66284.4393 1.06066.4393h13.5c.3978 0 .7794-.158 1.0607-.4393s.4393-.6629.4393-1.0607v-12c.0001-.09852-.0193-.19609-.0569-.28714-.0376-.09104-.0928-.17378-.1625-.24348zm-5.0306-2.90907 2.6897 2.68969h-2.6897zm3.75 15.43969h-13.5v-16.5h8.25v4.5c0 .19891.079.38968.2197.53033.1406.14065.3314.21967.5303.21967h4.5z"/>
</svg>
