<svg width="64" height="64" viewBox="0 0 64 64" fill="none" xmlns="http://www.w3.org/2000/svg">
<rect width="64" height="64" rx="8" fill="#007AFF"/>
<path d="M22.25 32.9995H42.25C42.5152 32.9995 42.7696 32.8942 42.9571 32.7066C43.1446 32.5191 43.25 32.2647 43.25 31.9995V26.9995C43.2515 26.7335 43.1482 26.4775 42.9625 26.287L35.9625 19.287C35.772 19.1013 35.516 18.998 35.25 18.9995H23.25C22.7196 18.9995 22.2109 19.2102 21.8358 19.5853C21.4607 19.9604 21.25 20.4691 21.25 20.9995V31.9995C21.25 32.2647 21.3554 32.5191 21.5429 32.7066C21.7304 32.8942 21.9848 32.9995 22.25 32.9995ZM35.25 21.4995L40.75 26.9995H35.25V21.4995Z" fill="white"/>
<path d="M18.4265 43C18.3532 43 18.2932 42.9767 18.2465 42.93C18.1999 42.8833 18.1765 42.8233 18.1765 42.75V36.25C18.1765 36.1767 18.1999 36.1167 18.2465 36.07C18.2932 36.0233 18.3532 36 18.4265 36H20.9365C21.6032 36 22.1599 36.1067 22.6065 36.32C23.0532 36.5267 23.3932 36.8333 23.6265 37.24C23.8665 37.64 23.9932 38.1367 24.0065 38.73C24.0132 39.0233 24.0165 39.28 24.0165 39.5C24.0165 39.72 24.0132 39.9733 24.0065 40.26C23.9865 40.88 23.8632 41.3933 23.6365 41.8C23.4099 42.2067 23.0765 42.51 22.6365 42.71C22.1965 42.9033 21.6465 43 20.9865 43H18.4265ZM19.7665 41.71H20.9365C21.2699 41.71 21.5432 41.66 21.7565 41.56C21.9699 41.46 22.1265 41.3033 22.2265 41.09C22.3332 40.87 22.3899 40.5867 22.3965 40.24C22.4032 40.0467 22.4065 39.8733 22.4065 39.72C22.4132 39.5667 22.4132 39.4133 22.4065 39.26C22.4065 39.1067 22.4032 38.9367 22.3965 38.75C22.3832 38.25 22.2532 37.8833 22.0065 37.65C21.7665 37.41 21.3932 37.29 20.8865 37.29H19.7665V41.71ZM28.5464 43.1C27.9397 43.1 27.4164 43 26.9764 42.8C26.5364 42.6 26.193 42.3 25.9464 41.9C25.6997 41.4933 25.5664 40.9833 25.5464 40.37C25.5397 40.0833 25.5364 39.8 25.5364 39.52C25.5364 39.2333 25.5397 38.9433 25.5464 38.65C25.5664 38.05 25.6997 37.5467 25.9464 37.14C26.1997 36.7267 26.5464 36.4167 26.9864 36.21C27.433 36.0033 27.953 35.9 28.5464 35.9C29.133 35.9 29.6464 36.0033 30.0864 36.21C30.533 36.4167 30.883 36.7267 31.1364 37.14C31.3897 37.5467 31.523 38.05 31.5364 38.65C31.5497 38.9433 31.5564 39.2333 31.5564 39.52C31.5564 39.8 31.5497 40.0833 31.5364 40.37C31.5164 40.9833 31.383 41.4933 31.1364 41.9C30.8897 42.3 30.5464 42.6 30.1064 42.8C29.6664 43 29.1464 43.1 28.5464 43.1ZM28.5464 41.81C28.933 41.81 29.2497 41.6933 29.4964 41.46C29.7497 41.22 29.883 40.84 29.8964 40.32C29.9097 40.0267 29.9164 39.7533 29.9164 39.5C29.9164 39.24 29.9097 38.9667 29.8964 38.68C29.8897 38.3333 29.8264 38.05 29.7064 37.83C29.5864 37.61 29.4264 37.45 29.2264 37.35C29.033 37.2433 28.8064 37.19 28.5464 37.19C28.2864 37.19 28.0564 37.2433 27.8564 37.35C27.6564 37.45 27.4964 37.61 27.3764 37.83C27.263 38.05 27.1997 38.3333 27.1864 38.68C27.1797 38.9667 27.1764 39.24 27.1764 39.5C27.1764 39.7533 27.1797 40.0267 27.1864 40.32C27.2064 40.84 27.3397 41.22 27.5864 41.46C27.833 41.6933 28.153 41.81 28.5464 41.81ZM36.0776 43.1C35.451 43.1 34.9176 42.9967 34.4776 42.79C34.0443 42.5767 33.7076 42.27 33.4676 41.87C33.2276 41.4633 33.0943 40.97 33.0676 40.39C33.061 40.1167 33.0576 39.8233 33.0576 39.51C33.0576 39.1967 33.061 38.8967 33.0676 38.61C33.0943 38.0367 33.2276 37.55 33.4676 37.15C33.7143 36.7433 34.0576 36.4333 34.4976 36.22C34.9376 36.0067 35.4643 35.9 36.0776 35.9C36.5243 35.9 36.931 35.9567 37.2976 36.07C37.6643 36.1833 37.981 36.3467 38.2476 36.56C38.5143 36.7733 38.721 37.0233 38.8676 37.31C39.0143 37.5967 39.0943 37.9167 39.1076 38.27C39.1076 38.33 39.0843 38.38 39.0376 38.42C38.9976 38.46 38.9476 38.48 38.8876 38.48H37.7476C37.6676 38.48 37.6043 38.46 37.5576 38.42C37.511 38.38 37.4743 38.3133 37.4476 38.22C37.3476 37.8267 37.181 37.5567 36.9476 37.41C36.7143 37.2633 36.4243 37.19 36.0776 37.19C35.6643 37.19 35.3376 37.3033 35.0976 37.53C34.8576 37.7567 34.7276 38.1333 34.7076 38.66C34.6876 39.2067 34.6876 39.7667 34.7076 40.34C34.7276 40.8667 34.8576 41.2433 35.0976 41.47C35.3376 41.6967 35.6643 41.81 36.0776 41.81C36.4243 41.81 36.7143 41.7367 36.9476 41.59C37.1876 41.4367 37.3543 41.1667 37.4476 40.78C37.4743 40.68 37.511 40.6133 37.5576 40.58C37.6043 40.54 37.6676 40.52 37.7476 40.52H38.8876C38.9476 40.52 38.9976 40.54 39.0376 40.58C39.0843 40.62 39.1076 40.67 39.1076 40.73C39.0943 41.0833 39.0143 41.4033 38.8676 41.69C38.721 41.9767 38.5143 42.2267 38.2476 42.44C37.981 42.6533 37.6643 42.8167 37.2976 42.93C36.931 43.0433 36.5243 43.1 36.0776 43.1ZM40.1657 43C40.1057 43 40.0557 42.98 40.0157 42.94C39.9757 42.8933 39.9557 42.8433 39.9557 42.79C39.9557 42.77 39.959 42.75 39.9657 42.73C39.9723 42.71 39.979 42.69 39.9857 42.67L42.1957 39.43L40.1357 36.33C40.1157 36.29 40.1057 36.25 40.1057 36.21C40.1057 36.1567 40.1257 36.11 40.1657 36.07C40.2057 36.0233 40.2557 36 40.3157 36H41.5457C41.6323 36 41.699 36.0233 41.7457 36.07C41.799 36.1167 41.839 36.16 41.8657 36.2L43.2057 38.19L44.5557 36.2C44.5823 36.16 44.6223 36.1167 44.6757 36.07C44.729 36.0233 44.799 36 44.8857 36H46.0557C46.109 36 46.1557 36.0233 46.1957 36.07C46.2423 36.11 46.2657 36.1567 46.2657 36.21C46.2657 36.2567 46.2523 36.2967 46.2257 36.33L44.1657 39.42L46.3857 42.67C46.399 42.69 46.4057 42.71 46.4057 42.73C46.4123 42.75 46.4157 42.77 46.4157 42.79C46.4157 42.8433 46.3957 42.8933 46.3557 42.94C46.3157 42.98 46.2657 43 46.2057 43H44.9357C44.849 43 44.779 42.9767 44.7257 42.93C44.679 42.8833 44.6423 42.8433 44.6157 42.81L43.1557 40.71L41.7057 42.81C41.6857 42.8433 41.649 42.8833 41.5957 42.93C41.549 42.9767 41.479 43 41.3857 43H40.1657Z" fill="white"/>
</svg>
