<svg fill="currentColor" height="64" viewBox="0 0 64 64" width="64" xmlns="http://www.w3.org/2000/svg">
    <path
      d="m1.76909 3.39072c.93632 0 1.69536-.75904 1.69536-1.69536 0-.936322-.75904-1.69536-1.69536-1.69536-.936321 0-1.6953595.759038-1.6953595 1.69536 0 .93632.7590385 1.69536 1.6953595 1.69536z"/>
    <path
      d="m10.4063 3.39072c.9363 0 1.6954-.75904 1.6954-1.69536 0-.936322-.7591-1.69536-1.6954-1.69536-.93632 0-1.69536.759038-1.69536 1.69536 0 .93632.75904 1.69536 1.69536 1.69536z"/>
    <path
      d="m19.044 3.39072c.9363 0 1.6954-.75904 1.6954-1.69536 0-.936322-.7591-1.69536-1.6954-1.69536s-1.6954.759038-1.6954 1.69536c0 .93632.7591 1.69536 1.6954 1.69536z"/>
    <path
      d="m27.6812 3.39072c.9363 0 1.6954-.75904 1.6954-1.69536 0-.936322-.7591-1.69536-1.6954-1.69536s-1.6954.759038-1.6954 1.69536c0 .93632.7591 1.69536 1.6954 1.69536z"/>
    <path
      d="m36.3189 3.39072c.9363 0 1.6954-.75904 1.6954-1.69536 0-.936322-.7591-1.69536-1.6954-1.69536s-1.6954.759038-1.6954 1.69536c0 .93632.7591 1.69536 1.6954 1.69536z"/>
    <path
      d="m44.9561 3.39072c.9363 0 1.6954-.75904 1.6954-1.69536 0-.936322-.7591-1.69536-1.6954-1.69536s-1.6954.759038-1.6954 1.69536c0 .93632.7591 1.69536 1.6954 1.69536z"/>
    <path
      d="m53.5938 3.39072c.9363 0 1.6954-.75904 1.6954-1.69536 0-.936322-.7591-1.69536-1.6954-1.69536s-1.6954.759038-1.6954 1.69536c0 .93632.7591 1.69536 1.6954 1.69536z"/>
    <path
      d="m62.231 3.39072c.9363 0 1.6954-.75904 1.6954-1.69536 0-.936322-.7591-1.69536-1.6954-1.69536s-1.6954.759038-1.6954 1.69536c0 .93632.7591 1.69536 1.6954 1.69536z"/>
    <path
      d="m1.76909 12.0509c.93632 0 1.69536-.7591 1.69536-1.6954 0-.93631-.75904-1.69534-1.69536-1.69534-.936321 0-1.6953595.75903-1.6953595 1.69534 0 .9363.7590385 1.6954 1.6953595 1.6954z"/>
    <path
      d="m10.4063 12.0509c.9363 0 1.6954-.7591 1.6954-1.6954 0-.93631-.7591-1.69534-1.6954-1.69534-.93632 0-1.69536.75903-1.69536 1.69534 0 .9363.75904 1.6954 1.69536 1.6954z"/>
    <path
      d="m19.044 12.0509c.9363 0 1.6954-.7591 1.6954-1.6954 0-.93631-.7591-1.69534-1.6954-1.69534s-1.6954.75903-1.6954 1.69534c0 .9363.7591 1.6954 1.6954 1.6954z"/>
    <path
      d="m27.6812 12.0509c.9363 0 1.6954-.7591 1.6954-1.6954 0-.93631-.7591-1.69534-1.6954-1.69534s-1.6954.75903-1.6954 1.69534c0 .9363.7591 1.6954 1.6954 1.6954z"/>
    <path
      d="m36.3189 12.0509c.9363 0 1.6954-.7591 1.6954-1.6954 0-.93631-.7591-1.69534-1.6954-1.69534s-1.6954.75903-1.6954 1.69534c0 .9363.7591 1.6954 1.6954 1.6954z"/>
    <path
      d="m44.9561 12.0509c.9363 0 1.6954-.7591 1.6954-1.6954 0-.93631-.7591-1.69534-1.6954-1.69534s-1.6954.75903-1.6954 1.69534c0 .9363.7591 1.6954 1.6954 1.6954z"/>
    <path
      d="m53.5938 12.0509c.9363 0 1.6954-.7591 1.6954-1.6954 0-.93631-.7591-1.69534-1.6954-1.69534s-1.6954.75903-1.6954 1.69534c0 .9363.7591 1.6954 1.6954 1.6954z"/>
    <path
      d="m62.231 12.0509c.9363 0 1.6954-.7591 1.6954-1.6954 0-.93631-.7591-1.69534-1.6954-1.69534s-1.6954.75903-1.6954 1.69534c0 .9363.7591 1.6954 1.6954 1.6954z"/>
    <path
      d="m1.76909 20.7071c.93632 0 1.69536-.759 1.69536-1.6953 0-.9364-.75904-1.6954-1.69536-1.6954-.936321 0-1.6953595.759-1.6953595 1.6954 0 .9363.7590385 1.6953 1.6953595 1.6953z"/>
    <path
      d="m10.4063 20.7071c.9363 0 1.6954-.759 1.6954-1.6953 0-.9364-.7591-1.6954-1.6954-1.6954-.93632 0-1.69536.759-1.69536 1.6954 0 .9363.75904 1.6953 1.69536 1.6953z"/>
    <path
      d="m19.044 20.7071c.9363 0 1.6954-.759 1.6954-1.6953 0-.9364-.7591-1.6954-1.6954-1.6954s-1.6954.759-1.6954 1.6954c0 .9363.7591 1.6953 1.6954 1.6953z"/>
    <path
      d="m27.6812 20.7071c.9363 0 1.6954-.759 1.6954-1.6953 0-.9364-.7591-1.6954-1.6954-1.6954s-1.6954.759-1.6954 1.6954c0 .9363.7591 1.6953 1.6954 1.6953z"/>
    <path
      d="m36.3189 20.7071c.9363 0 1.6954-.759 1.6954-1.6953 0-.9364-.7591-1.6954-1.6954-1.6954s-1.6954.759-1.6954 1.6954c0 .9363.7591 1.6953 1.6954 1.6953z"/>
    <path
      d="m44.9561 20.7071c.9363 0 1.6954-.759 1.6954-1.6953 0-.9364-.7591-1.6954-1.6954-1.6954s-1.6954.759-1.6954 1.6954c0 .9363.7591 1.6953 1.6954 1.6953z"/>
    <path
      d="m53.5938 20.7071c.9363 0 1.6954-.759 1.6954-1.6953 0-.9364-.7591-1.6954-1.6954-1.6954s-1.6954.759-1.6954 1.6954c0 .9363.7591 1.6953 1.6954 1.6953z"/>
    <path
      d="m62.231 20.7071c.9363 0 1.6954-.759 1.6954-1.6953 0-.9364-.7591-1.6954-1.6954-1.6954s-1.6954.759-1.6954 1.6954c0 .9363.7591 1.6953 1.6954 1.6953z"/>
    <path
      d="m1.76909 29.3673c.93632 0 1.69536-.7591 1.69536-1.6954s-.75904-1.6953-1.69536-1.6953c-.936321 0-1.6953595.759-1.6953595 1.6953s.7590385 1.6954 1.6953595 1.6954z"/>
    <path
      d="m10.4063 29.3673c.9363 0 1.6954-.7591 1.6954-1.6954s-.7591-1.6953-1.6954-1.6953c-.93632 0-1.69536.759-1.69536 1.6953s.75904 1.6954 1.69536 1.6954z"/>
    <path
      d="m19.044 29.3673c.9363 0 1.6954-.7591 1.6954-1.6954s-.7591-1.6953-1.6954-1.6953-1.6954.759-1.6954 1.6953.7591 1.6954 1.6954 1.6954z"/>
    <path
      d="m27.6812 29.3673c.9363 0 1.6954-.7591 1.6954-1.6954s-.7591-1.6953-1.6954-1.6953-1.6954.759-1.6954 1.6953.7591 1.6954 1.6954 1.6954z"/>
    <path
      d="m36.3189 29.3673c.9363 0 1.6954-.7591 1.6954-1.6954s-.7591-1.6953-1.6954-1.6953-1.6954.759-1.6954 1.6953.7591 1.6954 1.6954 1.6954z"/>
    <path
      d="m44.9561 29.3673c.9363 0 1.6954-.7591 1.6954-1.6954s-.7591-1.6953-1.6954-1.6953-1.6954.759-1.6954 1.6953.7591 1.6954 1.6954 1.6954z"/>
    <path
      d="m53.5938 29.3673c.9363 0 1.6954-.7591 1.6954-1.6954s-.7591-1.6953-1.6954-1.6953-1.6954.759-1.6954 1.6953.7591 1.6954 1.6954 1.6954z"/>
    <path
      d="m62.231 29.3673c.9363 0 1.6954-.7591 1.6954-1.6954s-.7591-1.6953-1.6954-1.6953-1.6954.759-1.6954 1.6953.7591 1.6954 1.6954 1.6954z"/>
    <path
      d="m1.76909 38.0235c.93632 0 1.69536-.759 1.69536-1.6953 0-.9364-.75904-1.6954-1.69536-1.6954-.936321 0-1.6953595.759-1.6953595 1.6954 0 .9363.7590385 1.6953 1.6953595 1.6953z"/>
    <path
      d="m10.4063 38.0235c.9363 0 1.6954-.759 1.6954-1.6953 0-.9364-.7591-1.6954-1.6954-1.6954-.93632 0-1.69536.759-1.69536 1.6954 0 .9363.75904 1.6953 1.69536 1.6953z"/>
    <path
      d="m19.044 38.0235c.9363 0 1.6954-.759 1.6954-1.6953 0-.9364-.7591-1.6954-1.6954-1.6954s-1.6954.759-1.6954 1.6954c0 .9363.7591 1.6953 1.6954 1.6953z"/>
    <path
      d="m27.6812 38.0235c.9363 0 1.6954-.759 1.6954-1.6953 0-.9364-.7591-1.6954-1.6954-1.6954s-1.6954.759-1.6954 1.6954c0 .9363.7591 1.6953 1.6954 1.6953z"/>
    <path
      d="m36.3189 38.0235c.9363 0 1.6954-.759 1.6954-1.6953 0-.9364-.7591-1.6954-1.6954-1.6954s-1.6954.759-1.6954 1.6954c0 .9363.7591 1.6953 1.6954 1.6953z"/>
    <path
      d="m44.9561 38.0235c.9363 0 1.6954-.759 1.6954-1.6953 0-.9364-.7591-1.6954-1.6954-1.6954s-1.6954.759-1.6954 1.6954c0 .9363.7591 1.6953 1.6954 1.6953z"/>
    <path
      d="m53.5938 38.0235c.9363 0 1.6954-.759 1.6954-1.6953 0-.9364-.7591-1.6954-1.6954-1.6954s-1.6954.759-1.6954 1.6954c0 .9363.7591 1.6953 1.6954 1.6953z"/>
    <path
      d="m62.231 38.0235c.9363 0 1.6954-.759 1.6954-1.6953 0-.9364-.7591-1.6954-1.6954-1.6954s-1.6954.759-1.6954 1.6954c0 .9363.7591 1.6953 1.6954 1.6953z"/>
    <path
      d="m1.76909 46.6837c.93632 0 1.69536-.759 1.69536-1.6954 0-.9363-.75904-1.6953-1.69536-1.6953-.936321 0-1.6953595.759-1.6953595 1.6953 0 .9364.7590385 1.6954 1.6953595 1.6954z"/>
    <path
      d="m10.4063 46.6837c.9363 0 1.6954-.759 1.6954-1.6954 0-.9363-.7591-1.6953-1.6954-1.6953-.93632 0-1.69536.759-1.69536 1.6953 0 .9364.75904 1.6954 1.69536 1.6954z"/>
    <path
      d="m19.044 46.6837c.9363 0 1.6954-.759 1.6954-1.6954 0-.9363-.7591-1.6953-1.6954-1.6953s-1.6954.759-1.6954 1.6953c0 .9364.7591 1.6954 1.6954 1.6954z"/>
    <path
      d="m27.6812 46.6837c.9363 0 1.6954-.759 1.6954-1.6954 0-.9363-.7591-1.6953-1.6954-1.6953s-1.6954.759-1.6954 1.6953c0 .9364.7591 1.6954 1.6954 1.6954z"/>
    <path
      d="m36.3189 46.6837c.9363 0 1.6954-.759 1.6954-1.6954 0-.9363-.7591-1.6953-1.6954-1.6953s-1.6954.759-1.6954 1.6953c0 .9364.7591 1.6954 1.6954 1.6954z"/>
    <path
      d="m44.9561 46.6837c.9363 0 1.6954-.759 1.6954-1.6954 0-.9363-.7591-1.6953-1.6954-1.6953s-1.6954.759-1.6954 1.6953c0 .9364.7591 1.6954 1.6954 1.6954z"/>
    <path
      d="m53.5938 46.6837c.9363 0 1.6954-.759 1.6954-1.6954 0-.9363-.7591-1.6953-1.6954-1.6953s-1.6954.759-1.6954 1.6953c0 .9364.7591 1.6954 1.6954 1.6954z"/>
    <path
      d="m62.231 46.6837c.9363 0 1.6954-.759 1.6954-1.6954 0-.9363-.7591-1.6953-1.6954-1.6953s-1.6954.759-1.6954 1.6953c0 .9364.7591 1.6954 1.6954 1.6954z"/>
    <path
      d="m1.76909 55.3399c.93632 0 1.69536-.759 1.69536-1.6953s-.75904-1.6954-1.69536-1.6954c-.936321 0-1.6953595.7591-1.6953595 1.6954s.7590385 1.6953 1.6953595 1.6953z"/>
    <path
      d="m10.4063 55.3399c.9363 0 1.6954-.759 1.6954-1.6953s-.7591-1.6954-1.6954-1.6954c-.93632 0-1.69536.7591-1.69536 1.6954s.75904 1.6953 1.69536 1.6953z"/>
    <path
      d="m19.044 55.3399c.9363 0 1.6954-.759 1.6954-1.6953s-.7591-1.6954-1.6954-1.6954-1.6954.7591-1.6954 1.6954.7591 1.6953 1.6954 1.6953z"/>
    <path
      d="m27.6812 55.3399c.9363 0 1.6954-.759 1.6954-1.6953s-.7591-1.6954-1.6954-1.6954-1.6954.7591-1.6954 1.6954.7591 1.6953 1.6954 1.6953z"/>
    <path
      d="m36.3189 55.3399c.9363 0 1.6954-.759 1.6954-1.6953s-.7591-1.6954-1.6954-1.6954-1.6954.7591-1.6954 1.6954.7591 1.6953 1.6954 1.6953z"/>
    <path
      d="m44.9561 55.3399c.9363 0 1.6954-.759 1.6954-1.6953s-.7591-1.6954-1.6954-1.6954-1.6954.7591-1.6954 1.6954.7591 1.6953 1.6954 1.6953z"/>
    <path
      d="m53.5938 55.3399c.9363 0 1.6954-.759 1.6954-1.6953s-.7591-1.6954-1.6954-1.6954-1.6954.7591-1.6954 1.6954.7591 1.6953 1.6954 1.6953z"/>
    <path
      d="m62.231 55.3399c.9363 0 1.6954-.759 1.6954-1.6953s-.7591-1.6954-1.6954-1.6954-1.6954.7591-1.6954 1.6954.7591 1.6953 1.6954 1.6953z"/>
    <path
      d="m1.76909 64.0001c.93632 0 1.69536-.759 1.69536-1.6954 0-.9363-.75904-1.6953-1.69536-1.6953-.936321 0-1.6953595.759-1.6953595 1.6953 0 .9364.7590385 1.6954 1.6953595 1.6954z"/>
    <path
      d="m10.4063 64.0001c.9363 0 1.6954-.759 1.6954-1.6954 0-.9363-.7591-1.6953-1.6954-1.6953-.93632 0-1.69536.759-1.69536 1.6953 0 .9364.75904 1.6954 1.69536 1.6954z"/>
    <path
      d="m19.044 64.0001c.9363 0 1.6954-.759 1.6954-1.6954 0-.9363-.7591-1.6953-1.6954-1.6953s-1.6954.759-1.6954 1.6953c0 .9364.7591 1.6954 1.6954 1.6954z"/>
    <path
      d="m27.6812 64.0001c.9363 0 1.6954-.759 1.6954-1.6954 0-.9363-.7591-1.6953-1.6954-1.6953s-1.6954.759-1.6954 1.6953c0 .9364.7591 1.6954 1.6954 1.6954z"/>
    <path
      d="m36.3189 64.0001c.9363 0 1.6954-.759 1.6954-1.6954 0-.9363-.7591-1.6953-1.6954-1.6953s-1.6954.759-1.6954 1.6953c0 .9364.7591 1.6954 1.6954 1.6954z"/>
    <path
      d="m44.9561 64.0001c.9363 0 1.6954-.759 1.6954-1.6954 0-.9363-.7591-1.6953-1.6954-1.6953s-1.6954.759-1.6954 1.6953c0 .9364.7591 1.6954 1.6954 1.6954z"/>
    <path
      d="m53.5938 64.0001c.9363 0 1.6954-.759 1.6954-1.6954 0-.9363-.7591-1.6953-1.6954-1.6953s-1.6954.759-1.6954 1.6953c0 .9364.7591 1.6954 1.6954 1.6954z"/>
    <path
      d="m62.231 64.0001c.9363 0 1.6954-.759 1.6954-1.6954 0-.9363-.7591-1.6953-1.6954-1.6953s-1.6954.759-1.6954 1.6953c0 .9364.7591 1.6954 1.6954 1.6954z"/>
</svg>
