<svg viewBox="81.716 44.931 17.749 12.667" width="17.749" height="12.667">
  <path d="M 28.796 18.19 C 28.796 18.19 28.165 19.733 26.767 21.256 C 25.391 22.753 23.12 24.334 20 24.334 C 16.881 24.334 14.609 22.753 13.233 21.256 C 11.835 19.733 11.204 18.19 11.204 18.19 L 11.126 17.999 L 11.204 17.812 C 11.204 17.812 11.835 16.268 13.233 14.746 C 14.609 13.248 16.881 11.667 20 11.667 C 23.12 11.667 25.391 13.248 26.767 14.746 C 28.165 16.268 28.796 17.812 28.796 17.812 L 28.875 18.003 Z M 26.031 15.422 C 24.728 14.003 22.833 12.667 20 12.667 C 17.167 12.667 15.272 14.003 13.97 15.422 C 12.689 16.817 12.411 17.573 12.213 17.999 C 12.412 18.421 12.689 19.185 13.969 20.579 C 15.272 21.998 17.167 23.334 20 23.334 C 22.833 23.334 24.728 21.998 26.031 20.579 C 27.311 19.185 27.589 18.429 27.787 18.003 C 27.588 17.581 27.311 16.817 26.031 15.422 Z" transform="matrix(1, 0, 0, 1, 70.58989, 33.264046)"></path>
  <path d="M 17 18 C 17 17.207 17.363 16.394 17.879 15.879 C 18.394 15.363 19.207 15 20 15 C 20.793 15 21.606 15.363 22.121 15.879 C 22.637 16.394 23 17.207 23 18 C 23 18.793 22.637 19.606 22.121 20.121 C 21.606 20.637 20.793 21 20 21 C 19.207 21 18.394 20.637 17.879 20.121 C 17.363 19.606 17 18.793 17 18 Z M 18.586 19.414 C 18.975 19.804 19.412 20 20 20 C 20.588 20 21.025 19.804 21.414 19.414 C 21.804 19.025 22 18.588 22 18 C 22 17.412 21.804 16.975 21.414 16.586 C 21.025 16.196 20.588 16 20 16 C 19.412 16 18.975 16.196 18.586 16.586 C 18.196 16.975 18 17.412 18 18 C 18 18.588 18.196 19.025 18.586 19.414 Z" transform="matrix(1, 0, 0, 1, 70.58989, 33.264046)"></path>
</svg>