<svg viewBox="275.328 135.188 18.191 15.403" width="18.191" height="15.403">
  <path d="M 283.828 135.188 L 285.019 135.188 C 287.322 135.206 289.499 136.065 291.01 137.426 C 292.526 138.79 293.519 140.79 293.519 142.89 C 293.519 144.989 292.526 146.989 291.01 148.353 C 289.499 149.714 287.322 150.573 285.019 150.591 L 283.828 150.591 C 281.525 150.573 279.348 149.714 277.837 148.353 C 276.321 146.989 275.328 144.989 275.328 142.89 C 275.328 140.79 276.321 138.79 277.837 137.426 C 279.348 136.065 281.525 135.206 283.828 135.188 Z M 278.506 138.169 C 277.126 139.411 276.328 141.012 276.328 142.89 C 276.328 144.767 277.126 146.368 278.506 147.61 C 279.89 148.856 281.712 149.609 283.828 149.591 L 285.019 149.591 C 287.135 149.609 288.957 148.856 290.341 147.61 C 291.721 146.368 292.519 144.767 292.519 142.89 C 292.519 141.012 291.721 139.411 290.341 138.169 C 288.957 136.923 287.135 136.17 285.019 136.188 L 283.828 136.188 C 281.712 136.17 279.89 136.923 278.506 138.169 Z" style="fill: none;"></path>
  <path d="M25.7109 17.9453L27.5 21.0312" stroke-linecap="round" stroke-linejoin="round" transform="matrix(1, 0, 0, 1, 264.410095, 123.853928)" style=""></path>
  <path d="M 25.46 17.513 C 25.699 17.374 26.005 17.456 26.143 17.695 L 27.933 20.78 C 28.071 21.019 27.99 21.325 27.751 21.464 C 27.512 21.602 27.206 21.521 27.067 21.282 L 25.278 18.196 C 25.14 17.957 25.221 17.651 25.46 17.513 Z" transform="matrix(1, 0, 0, 1, 264.410095, 123.853928)"></path>
  <path d="M22.0469 19.6641L22.6016 22.8125" stroke-linecap="round" stroke-linejoin="round" transform="matrix(1, 0, 0, 1, 264.410095, 123.853928)" style=""></path>
  <path d="M 21.96 19.172 C 22.232 19.124 22.491 19.305 22.539 19.577 L 23.094 22.726 C 23.142 22.998 22.96 23.257 22.688 23.305 C 22.416 23.353 22.157 23.171 22.109 22.899 L 21.554 19.751 C 21.507 19.479 21.688 19.22 21.96 19.172 Z" transform="matrix(1, 0, 0, 1, 264.410095, 123.853928)"></path>
  <path d="M17.9453 19.6562L17.3906 22.8125" stroke-linecap="round" stroke-linejoin="round" transform="matrix(1, 0, 0, 1, 264.410095, 123.853928)" style=""></path>
  <path d="M 17.477 22.32 C 17.205 22.272 16.946 22.454 16.898 22.726 L 17.453 19.57 C 17.405 19.842 17.587 20.101 17.859 20.149 C 18.131 20.196 18.39 20.015 18.438 19.743 L 17.883 22.899 C 17.931 22.627 17.749 22.368 17.477 22.32 Z" transform="matrix(1, 0, 0, 1, 264.410095, 123.853928)"></path>
  <path d="M14.2812 17.9453L12.4922 21.0469" stroke-linecap="round" stroke-linejoin="round" transform="matrix(1, 0, 0, 1, 264.410095, 123.853928)" style=""></path>
  <path d="M 14.531 17.512 C 14.77 17.65 14.852 17.956 14.714 18.195 L 12.925 21.297 C 12.787 21.536 12.482 21.618 12.242 21.48 C 12.003 21.342 11.921 21.036 12.059 20.797 L 13.848 17.695 C 13.986 17.456 14.292 17.374 14.531 17.512 Z" transform="matrix(1, 0, 0, 1, 264.410095, 123.853928)"></path>
  <path d="M 12.864 15.853 C 12.726 15.741 12.538 15.712 12.373 15.777 C 12.207 15.841 12.089 15.99 12.063 16.166 C 12.038 16.343 12.109 16.519 12.25 16.628 C 12.25 16.628 12.199 16.589 12.25 16.628 C 12.25 16.628 13.781 18.329 15.074 19.077 C 16.356 19.819 18.031 20.375 20 20.375 C 23.944 20.375 26.544 18.168 27.889 16.509 C 28.062 16.295 28.029 15.98 27.814 15.806 C 27.599 15.633 27.285 15.666 27.111 15.881 C 25.831 17.473 23.619 19.375 20 19.375 C 18.188 19.375 16.769 18.903 15.575 18.212 C 14.982 17.869 14.481 17.491 14.028 17.084 C 13.802 16.881 13.601 16.682 13.409 16.478 C 13.217 16.274 12.865 15.853 12.865 15.853 C 12.871 15.861 12.865 15.853 12.865 15.853 Z" transform="matrix(1, 0, 0, 1, 264.410095, 123.853928)"></path>
</svg>