<svg xmlns="http://www.w3.org/2000/svg" viewBox="0 0 64.75498 63.09599">
  <path d="M12.71746,50.39206h.00146a12.56262,12.56262,0,0,1,1.83691-5.35358,31.38553,31.38553,0,0,1,2.8443-4.43262,42.37708,42.37708,0,0,1,7.5835-7.30181.58966.58966,0,0,0-.613-1.0066,25.29967,25.29967,0,0,0-8.617,7.5683c-.15613.20923-.30377.42432-.45508.6369a15.88438,15.88438,0,0,1,1.41779-9.20758,24.15947,24.15947,0,0,1,7.53521-8.8742c6.349-4.82587,14.00556-7.56317,20.311-12.45429.14874-.11542.293-.23828.44049-.35589C40.27574,20.722,36.2224,32.46994,26.36077,39.97177a26.44166,26.44166,0,0,1-10.34729,4.8418c-.923.2016-.49091,1.54431.40936,1.39007,6.97229-1.20208,12.81189-5.884,17.11023-11.30475,4.96039-6.25524,7.94-13.689,10.9024-21.02673.79682-1.97388,1.61566-3.94147,2.47394-5.891a22.13846,22.13846,0,0,0,2.3-2.46326C50.33855,4.091,51.42,2.015,50.37438.26407a.56393.56393,0,0,0-.96552.01709c-1.19806,2.18957-2.27637,4.47571-3.30755,6.80261a35.836,35.836,0,0,1-3.46344,2.75207,105.31378,105.31378,0,0,1-10.3451,5.93763C25.62145,19.338,18.62,23.50668,15.38323,30.69229a15.55343,15.55343,0,0,0-.94788,11.08594,27.63578,27.63578,0,0,0-1.675,2.97015c-.83758,1.74347-1.904,3.86951-1.23169,5.82648A.60981.60981,0,0,0,12.71746,50.39206ZM49.75456,2.0477a4.78792,4.78792,0,0,1-1.4743,2.94623Q48.9876,3.506,49.75456,2.0477ZM23.67,55.81229a3.07627,3.07627,0,0,1-3.54181,2.11706,3.0359,3.0359,0,0,1-2.12909-1.81641,19.5426,19.5426,0,0,1-6.29431,5.59852c-2.33881,1.27221-5.26154,1.93328-7.78931.81134C1.71141,61.54629-.13746,59.41806.008,56.89017c.14612-2.53742,2.12464-5.6991,4.62531-6.4906,2.11975-.6728,4.82947,1.10711,4.13721,3.48358l.00329-.003a.57992.57992,0,0,1-1.12341-.21668c.12939-.99591-.82184-1.70611-1.74835-1.7876a3.29142,3.29142,0,0,0-2.65754,1.57361c-1.20593,1.6026-2.13153,3.73487-.9743,5.60279a5.40662,5.40662,0,0,0,4.86511,2.38739c4.44532-.21149,8.15247-4.14,10.66352-7.43091a.67425.67425,0,0,1,1.19567.58392,1.97368,1.97368,0,0,0,1.54718,2.18048,2.284,2.284,0,0,0,2.42554-1.30511C23.17913,55.05228,23.78856,55.40536,23.67,55.81229ZM63.83464,49.8237c-3.03351-1.55731-6.58587-1.1405-9.81646-.57214a44.98964,44.98964,0,0,1-8.93915.98474c-3.07691-.074-6.13129-.579-9.21289-.48194-2.1554.06861-6.17987.29413-6.83728,2.91931-.18781.74579-.53131,1.65912-1.50153,1.37391a1.63794,1.63794,0,0,1-.81256-.68518c-.13025-.17554-.41919-.77491-.66559-.70063l.00476-.00128a.31384.31384,0,0,1-.27362-.53729c.77942-.58075,1.296.28137,1.83051.73718.22961.19678.26025.24091.41949.00769a5.48758,5.48758,0,0,0,.32214-.87042,4.32309,4.32309,0,0,1,.95881-1.34436c1.9002-1.8689,5.006-2.004,7.50738-2.047,3.2287-.05444,6.45068.3216,9.67743.24671,5.98248-.13843,12.30457-3.24054,17.98248-.00123C65.14012,49.22818,64.48912,50.15884,63.83464,49.8237Z"/>
</svg>
