<svg xmlns="http://www.w3.org/2000/svg" viewBox="0 0 15 15.44961">
  <path d="M14.6562,1.13714A.64056.64056,0,0,0,14,1.19964c-2.2109,1.65625-4.0859.85937-6.25-.07032S3.03906-.89412.25,1.19964H.24219l-.03125.02343L.19531,1.2387l-.02343.02344-.02344.02343L.13281,1.309l-.02343.02344c0,.00781-.00782.01562-.01563.02344l-.01563.03125c0,.00781-.00781.01562-.00781.02343a.06251.06251,0,0,0-.01562.03125c-.00781.00782-.00781.01563-.01563.03125s-.00781.01563-.00781.02344S.02344,1.52.02344,1.52776s-.00782.01563-.00782.02344-.00781.02344-.00781.03125v.03906C.00781,1.62932,0,1.645,0,1.65276V14.82461a.625.625,0,1,0,1.25,0v-3.4297c2.10156-1.414,3.91406-.6406,6,.2579a10.6951,10.6951,0,0,0,4.1094,1.125,5.47382,5.47382,0,0,0,3.3906-1.2032.63285.63285,0,0,0,.25-.5v-9.375a.64069.64069,0,0,0-.3438-.5625Z"/>
</svg>
