<svg fill="currentColor" height="24" viewBox="0 0 24 24" width="24" xmlns="http://www.w3.org/2000/svg">
  <path d="m12 2.25c-1.9284 0-3.81343.57183-5.41681 1.64317-1.60337 1.07134-2.85306 2.59409-3.59101 4.37567-.73796 1.78156-.93104 3.74196-.55483 5.63326.3762 1.8913 1.3048 3.6286 2.66836 4.9922 1.36357 1.3636 3.10085 2.2922 4.99219 2.6684 1.8913.3762 3.8517.1831 5.6333-.5549 1.7815-.7379 3.3043-1.9876 4.3756-3.591 1.0714-1.6034 1.6432-3.4884 1.6432-5.4168-.0027-2.58502-1.0308-5.06339-2.8587-6.89128-1.8279-1.82788-4.3063-2.85599-6.8913-2.85872zm0 1.5c1.5984-.0017 3.1625.46361 4.5 1.33875v1.84875l-2.0784 2.41313-2.9503.39937-.0291-.02063-1.84407-1.20562c-.16349-.11517-.34837-.19648-.54374-.23915-.19538-.04268-.39732-.04585-.59394-.00934-.19663.03651-.38396.11197-.551.22195-.16703.10997-.31039.25223-.42163.41841l-1.96313 2.93438c-.16354.2445-.25157.5318-.25312.8259l-.02157 3.3966-.30656.2016c-.75786-1.2513-1.1694-2.6815-1.19243-4.1442s.34328-2.90521 1.06137-4.17969c.7181-1.27448 1.76216-2.33511 3.02518-3.07318s2.69954-1.12703 4.16244-1.12703zm-6.16031 13.7316.23625-.1547c.2063-.1361.37578-.321.49338-.5384.11759-.2174.17966-.4604.18068-.7076l.01969-3.3965 1.965-2.9344c.00963.00741.01964.01429.03.02063l1.84411 1.20657c.309.2181.6892.3109 1.064.2597l2.9522-.4003c.3641-.0486.6976-.2291.9375-.5072l2.0784-2.41503c.2325-.27233.3598-.61883.3591-.97687v-.59344c1.0144 1.07325 1.7217 2.39946 2.0478 3.83984.326 1.4403.2589 2.9418-.1944 4.3473l-1.5131-1.3837c-.2103-.1931-.4714-.3221-.7526-.3719-.2811-.0499-.5707-.0184-.8346.0907l-2.8556 1.1859c-.2388.1002-.4477.2603-.6067.4647-.1589.2044-.2625.4464-.3008.7025l-.2241 1.5178c-.0538.3653.029.7377.2326 1.0458.2036.308.5137.5302.8709.6239l2.0119.5306.2212.2222c-1.6429.9426-3.5604 1.2904-5.4296.9847-1.86928-.3056-3.57614-1.246-4.83321-2.6628zm11.50411.7996-.4032-.404c-.188-.1888-.4229-.324-.6806-.3919l-2.01-.5306.2241-1.5178 2.8547-1.1869 1.89 1.7325c-.4818.8727-1.1169 1.6515-1.875 2.2987z"/>
</svg>
