<svg xmlns="http://www.w3.org/2000/svg" viewBox="0 0 595.27528 595.2753">
  <path d="M297.63749,595.2753C133.7046,595.2753,0,461.5707,0,297.6378,0,133.7046,133.7046,0,297.63749,0c163.9332,0,297.63779,133.7046,297.63779,297.6378C595.27528,461.5707,461.57069,595.2753,297.63749,595.2753Z" fill="#0066b3" fill-rule="evenodd"/>
  <path d="M497.8426,297.63211c0,35.915-2.97638,66.274-3.17481,67.4646a107.31708,107.31708,0,0,1-36.49921,66.07635c-19.76318,16.867-24.40631,18.652-54.36846,36.70874-29.96222,18.05671-56.55121,30.359-57.54334,30.95429a90.56906,90.56906,0,0,1-35.27716,7.1626c-.54144,0-1.10474-.01111-1.63471-.01111l-.0003-.00342c-.5304.00342-1.09363.01453-1.635.01453a90.59723,90.59723,0,0,1-35.2713-7.15808c-1.19049,0-27.77948-12.89765-57.54328-30.95435-29.76373-18.0567-53.37634-35.91486-54.36853-36.70856a92.53577,92.53577,0,0,1-21.632-25.7984l17.06463-10.11969a73.36046,73.36046,0,0,0,17.066,19.8479c6.82044,5.52435,23.61261,18.0567,52.58258,35.51807,28.97009,17.46142,55.36072,29.76379,55.75751,29.96222a79.419,79.419,0,0,0,56.954.0003c9.07934-3.48834,26.78735-12.50079,55.75745-29.96222a629.38053,629.38053,0,0,0,52.5827-35.51812,87.797,87.797,0,0,0,28.76343-52.3877c3.15857-20.2796,3.1748-30.55749,3.1748-65.48028s-2.97644-65.28187-3.1748-65.48029a87.91284,87.91284,0,0,0-28.77112-52.38294C431.24109,165.82248,423.03907,161.32,394.069,143.85849a523.7656,523.7656,0,0,0-56.74646-29.36719,79.39694,79.39694,0,0,0-56.9522-.0025c-9.07941,3.48828-26.78754,12.50079-55.55909,29.96216-28.77173,17.46142-51.98321,35.12384-52.18164,35.3222a73.51933,73.51933,0,0,0-17.06646,19.84174l-16.66584-9.722a92.18011,92.18011,0,0,1,22.02411-25.793c8.86853-7.149,24.40631-18.652,54.36853-36.70868,29.96216-18.0567,56.55115-30.359,57.54328-30.95434a99.173,99.173,0,0,1,73.61859.00311c1.19049,0,27.58111,12.89771,57.54327,30.95428,29.96222,18.05671,52.38263,35.90961,54.16846,36.70331a107.32578,107.32578,0,0,1,36.50427,66.07C494.66779,231.35806,497.8426,261.71719,497.8426,297.63211Z" fill="#fff" fill-rule="evenodd"/>
  <path d="M158.73987,257.95267H99.21229v99.21264H79.36982V238.1102h79.37Z" fill="#fff" fill-rule="evenodd"/>
  <path d="M297.63752,297.63779a59.53452,59.53452,0,0,0-59.52735-59.52759h-.0003a59.52744,59.52744,0,1,0,59.52765,59.52759Zm-99.21234,0a39.68506,39.68506,0,1,1,39.685,39.68469A39.6898,39.6898,0,0,1,198.42518,297.63779Z" fill="#fff" fill-rule="evenodd"/>
  <path d="M337.36109,297.63779A39.68372,39.68372,0,0,0,402.60328,327.996l12.69922,15.27869a59.53279,59.53279,0,0,1-38.21839,13.89038h-.07989l.00335.00024a59.52749,59.52749,0,1,1,36.11512-106.95453l-12.104,15.67548a39.70834,39.70834,0,0,0-23.81329-7.93408h-.19867A39.68827,39.68827,0,0,0,337.36109,297.63779Z" fill="#fff" fill-rule="evenodd"/>
</svg>
