<svg xmlns="http://www.w3.org/2000/svg" viewBox="0 0 16.33 16.33"><path d="M0,15.82V8.68c0-.29.52-.51,1.17-.51h0c.64,0,1.16.22,1.16.51v7.14c0,.28-.52.51-1.16.51h0C.52,16.33,0,16.1,0,15.82Zm4.67-.19V5.81c0-.38.52-.7,1.16-.7h0c.65,0,1.17.32,1.17.7v9.82c0,.39-.52.7-1.17.7h0C5.19,16.33,4.67,16,4.67,15.63ZM14,15.31V1a1.1,1.1,0,0,1,1.16-1h0a1.1,1.1,0,0,1,1.17,1V15.31a1.1,1.1,0,0,1-1.17,1h0A1.1,1.1,0,0,1,14,15.31Zm-4.67.12V2.81A1.06,1.06,0,0,1,10.5,1.9h0a1.06,1.06,0,0,1,1.16.91V15.43a1.05,1.05,0,0,1-1.16.9h0A1.06,1.06,0,0,1,9.33,15.43Z" /></svg>