<svg viewBox="299.832 106.404 19 19" width="19" height="19">
  <path d="M 299.832 115.904 C 299.832 113.317 300.923 110.878 302.614 109.186 C 304.306 107.495 306.745 106.404 309.332 106.404 C 311.919 106.404 314.358 107.495 316.05 109.186 C 317.741 110.878 318.832 113.317 318.832 115.904 C 318.832 118.491 317.741 120.93 316.05 122.622 C 314.358 124.313 311.919 125.404 309.332 125.404 C 306.745 125.404 304.306 124.313 302.614 122.622 C 300.923 120.93 299.832 118.491 299.832 115.904 Z M 303.322 121.914 C 304.887 123.48 306.949 124.404 309.332 124.404 C 311.715 124.404 313.777 123.48 315.342 121.914 C 316.908 120.349 317.832 118.287 317.832 115.904 C 317.832 113.521 316.908 111.459 315.342 109.894 C 313.777 108.328 311.715 107.404 309.332 107.404 C 306.949 107.404 304.887 108.328 303.322 109.894 C 301.756 111.459 300.832 113.521 300.832 115.904 C 300.832 118.287 301.756 120.349 303.322 121.914 Z" fill="currentColor"></path>
  <path d="M 310.457 120.779 C 310.457 121.018 310.276 121.426 310.127 121.574 C 309.979 121.723 309.571 121.904 309.332 121.904 C 309.093 121.904 308.685 121.723 308.536 121.574 C 308.388 121.426 308.207 121.018 308.207 120.779 C 308.207 120.54 308.388 120.132 308.536 119.984 C 308.685 119.835 309.093 119.654 309.332 119.654 C 309.571 119.654 309.979 119.835 310.127 119.984 C 310.276 120.132 310.457 120.54 310.457 120.779 Z" fill="currentColor"></path>
  <path d="M 309.332 117.904 C 309.608 117.904 309.832 117.68 309.832 117.404 L 309.832 117.105 C 310.272 117.029 310.576 116.956 311.068 116.627 C 311.56 116.299 311.983 115.767 312.219 115.225 C 312.436 114.674 312.512 114 312.397 113.419 C 312.282 112.839 311.953 112.245 311.542 111.819 C 311.116 111.409 310.522 111.08 309.942 110.964 C 309.361 110.849 308.687 110.925 308.136 111.142 C 307.594 111.378 307.062 111.801 306.734 112.293 C 306.405 112.785 306.218 113.437 306.207 114.029 C 306.207 114.305 306.431 114.529 306.707 114.529 C 306.983 114.529 307.207 114.305 307.207 114.029 C 307.196 113.582 307.317 113.22 307.565 112.848 C 307.813 112.477 308.102 112.227 308.519 112.066 C 308.927 111.885 309.309 111.858 309.747 111.945 C 310.185 112.032 310.526 112.203 310.835 112.526 C 311.158 112.835 311.329 113.176 311.416 113.614 C 311.503 114.052 311.476 114.434 311.295 114.842 C 311.134 115.259 310.884 115.548 310.513 115.796 C 310.141 116.044 309.779 116.165 309.332 116.154 L 308.832 116.142 L 308.832 116.654 L 308.832 117.404 C 308.832 117.68 309.056 117.904 309.332 117.904 Z" fill="currentColor"></path>
</svg>
