<svg xmlns="http://www.w3.org/2000/svg" viewBox="0 0 25.8374 25.8374">
  <path class="input-checkbox-bg" d="M6.818.8725h12.0005a6,6,0,0,1,6,6v12a6,6,0,0,1-6,6H6.818a6,6,0,0,1-6-6v-12A6,6,0,0,1,6.818.8725Z"/>
  <path class="input-checkbox-border" d="M18.14788,25.83753H7.68987A7.69909,7.69909,0,0,1-.00007,18.1471V7.68958A7.69857,7.69857,0,0,1,7.68987.00012h10.458a7.69815,7.69815,0,0,1,7.68945,7.68946V18.1471A7.69867,7.69867,0,0,1,18.14788,25.83753ZM7.68987,1.00012A6.69727,6.69727,0,0,0,.99993,7.68958V18.1471a6.69747,6.69747,0,0,0,6.68994,6.69043h10.458a6.69737,6.69737,0,0,0,6.68945-6.69043V7.68958a6.69716,6.69716,0,0,0-6.68945-6.68946Z" fill="#ced6e0"/>
  <path class="input-checkbox-mark" d="M19.80865,9.86255l-8.00006,7.99957a1.40744,1.40744,0,0,1-.99145.41058,1.38712,1.38712,0,0,1-.98871-.41015l-4.00049-4a1.39991,1.39991,0,0,1,1.97974-1.9798l3.01062,3.01019,7.01062-7.01019a1.39991,1.39991,0,0,1,1.97973,1.9798Z" fill="#fff"/>
</svg>
