<svg xmlns="http://www.w3.org/2000/svg" viewBox="0 0 25.71631 25.71582">
  <path class="input-radio-bg" d="M25.45811,12.86392A12.53946,12.53946,0,1,1,12.91865.32447,12.53945,12.53945,0,0,1,25.45811,12.86392Z"/>
  <path class="input-radio-border" d="M12.91846,25.72168A12.85791,12.85791,0,1,1,25.77685,12.86377,12.8722,12.8722,0,0,1,12.91846,25.72168Zm0-24.71582A11.85791,11.85791,0,1,0,24.77685,12.86377,11.87121,11.87121,0,0,0,12.91846,1.00586Z"  fill="#ced6e0"/>
  <path class="input-radio-mark" d="M18.47634,12.91883a5.55769,5.55769,0,1,1-5.55769-5.55769A5.55768,5.55768,0,0,1,18.47634,12.91883Z" fill="#fff"/>
</svg>
