<svg fill="none" height="101" viewBox="0 0 169 101" width="169" xmlns="http://www.w3.org/2000/svg">
  <path
    d="m109.231 85.1773c-31.4597-5.3856-62.9191-10.7712-94.3785-16.1569 19.1087-7.7159 38.2174-15.406 57.326-23.122 29.8795 6.6544 59.7595 13.3088 89.6135 19.9631-17.503 6.4473-35.032 12.8686-52.561 19.3158z"
    fill="#fff" stroke="#c5d0ff" stroke-width="3"/>
  <g fill="#266fed">
    <path
      d="m107.935 85.5667c.104.3107.182.6474.285.9581.13.4142.751.3366.751-.1036 0-.2589 0-.492 0-.7509 0-.4919-.777-.4919-.777 0 0 .3107-.051.5955-.181.8804h.751c-.104-.3366-.129-.6474-.052-1.0099-.233.0259-.466.0518-.699.1036.078.0777.078.1295.026.2072.233.0258.466.0517.699.1035-.052-.1812-.026-.3366.078-.4919-.233-.0777-.492-.1295-.725-.2072-.052.4143-.104.8027-.156 1.217-.025.2071.208.3884.389.3884.233 0 .362-.1813.388-.3884.052-.4143.104-.8027.156-1.217.051-.3884-.544-.4919-.725-.2071-.208.3366-.259.725-.156 1.1134.078.3366.544.3625.699.1035.207-.3107.207-.6991-.026-.9839-.181-.233-.647-.2589-.699.1036-.103.4661-.077.958.052 1.4241.13.3884.622.3366.751 0 .129-.3625.207-.725.207-1.0875-.259 0-.518 0-.777 0v.7509c.259-.0259.518-.0777.751-.1036-.103-.3107-.181-.6473-.285-.958-.103-.5438-.854-.3366-.725.1553z"/>
    <path
      d="m108.532 87.4305c4.169-2.1491 8.726-3.2884 13.205-4.5571 2.201-.6214 4.376-1.2946 6.473-2.175 2.02-.8285 3.962-1.8642 5.956-2.7964 4.427-2.0714 9.217-3.4178 13.852-4.9454 4.816-1.6054 9.606-3.2107 14.422-4.7901.466-.1554.259-.9063-.207-.7509-4.816 1.6053-9.606 3.2106-14.422 4.7901-4.557 1.5017-9.244 2.8482-13.619 4.8419-2.279 1.0357-4.506 2.2526-6.836 3.1589-2.123.8285-4.298 1.4758-6.499 2.0973-4.324 1.2428-8.7 2.3821-12.739 4.4535-.414.233-.026.9062.414.6732z"/>
    <path
      d="m108.893 87.2752c17.892-6.1883 35.732-12.4543 53.572-18.8238 1.398-.492.803-2.7447-.621-2.2527-17.814 6.3696-35.68 12.6355-53.572 18.8239-1.398.4919-.803 2.7446.621 2.2526z"/>
    <path
      d="m106.874 62.2618c3.366.3366 6.24 2.3821 9.554 3.0294.492.1036.699-.6473.207-.7509-3.366-.6732-6.292-2.7187-9.761-3.0553-.492-.0259-.492.7509 0 .7768z"/>
    <path
      d="m116.662 64.9301c2.046-1.1134 3.962-2.4339 5.696-3.9875.363-.3366-.181-.8803-.543-.5437-1.709 1.5017-3.548 2.7964-5.541 3.858-.44.2589-.052.9321.388.6732z"/>
    <path
      d="m107.677 60.784c1.631-1.1652 3.314-2.2786 5.049-3.3143.44-.2589.026-.9321-.389-.6732-1.734 1.0357-3.417 2.1232-5.049 3.3143-.414.3107-.025.9839.389.6732z"/>
    <path
      d="m112.855 57.6c2.952 1.1134 5.904 2.2009 8.882 3.3143.466.1812.673-.5697.207-.7509-2.952-1.1134-5.904-2.2009-8.881-3.3142-.466-.1554-.674.5955-.208.7508z"/>
    <path
      d="m104.544 65.2133c7.794 2.408 15.484 5.1785 23.018 8.3115.466.1813.674-.5696.208-.7509-7.535-3.133-15.225-5.9035-23.019-8.3115-.492-.1553-.699.5956-.207.7509z"/>
    <path
      d="m105.295 71.2475c4.842 2.3303 9.736 4.5312 14.681 6.6802.466.2072.855-.466.389-.6732-4.946-2.1232-9.84-4.3499-14.681-6.6802-.441-.2072-.829.466-.389.6732z"/>
    <path
      d="m105.994 77.9012c2.641 1.3464 5.282 2.7187 7.924 4.0651.44.2331.828-.4401.388-.6732-2.641-1.3464-5.282-2.7187-7.923-4.0651-.44-.233-.829.4402-.389.6732z"/>
    <path
      d="m107.496 78.1352c3.651-3.1071 7.483-5.9553 11.47-8.5963.414-.2848.026-.958-.388-.6732-4.04 2.6669-7.923 5.5928-11.626 8.7258-.388.3366.155.8803.544.5437z"/>
    <path
      d="m106.538 72.8249c2.071-1.45 4.142-2.9 6.214-4.3758.414-.2849.026-.9581-.389-.6733-2.071 1.45-4.142 2.9-6.214 4.3759-.388.2848 0 .958.389.6732z"/>
  </g>
  <path
    d="m107.832 86.9631c-32.5464-5.541-65.0933-11.082-97.6402-16.623-3.05528-23.122-6.13649-46.2181-9.1918-69.3401 35.0325 4.71243 70.0392 9.4249 105.072 14.1632.595 23.9247 1.191 47.8493 1.76 71.7999z"
    fill="#fff" stroke="#c5d0ff"/>
  <path
    d="m49.8327 46.9601c-2.8223-.8804-4.3499-3.2625-4.583-6.1365-.233-2.9259.3366-5.7482 3.0554-7.2758 2.408-1.3464 5.282-.9581 7.4311.6732 2.1491 1.6312 4.0651 4.9713 2.3303 7.5347-.2848.4143.3884.8026.6732.3884 1.8643-2.7446.1036-6.3696-2.1749-8.2597-2.3563-1.942-5.541-2.5375-8.3115-1.1652-3.2107 1.5794-4.0393 4.7901-3.7803 8.1302.2589 3.2366 1.9678 5.9035 5.1526 6.8874.466.1295.6732-.6214.2071-.7767z"
    fill="#266fed"/>
  <path
    d="m50.558 47.2423c-1.191-1.9678-.8027-4.7124 1.1134-6.0847 1.916-1.3723 4.6606-.8027 6.1106.958.3107.3884.8545-.1553.5438-.5437-1.7089-2.0455-4.9196-2.6152-7.1464-1.0357-2.2267 1.6053-2.6928 4.816-1.2946 7.0945.2589.4143.9321.0259.6732-.3884z"
    fill="#266fed"/>
  <path
    d="m53.2252 48.329c-1.217-1.2946-1.0357-3.7026.5955-4.6348 1.6053-.9321 3.7803.1295 4.2981 1.8384.1554.4661.9063.2848.7509-.2072-.6732-2.1749-3.3919-3.4695-5.4374-2.2785-2.0455 1.1911-2.3044 4.1946-.7509 5.8517.3366.3366.8804-.2071.5438-.5696z"
    fill="#266fed"/>
  <path
    d="m55.2192 50.1456c1.0098.3625 2.175-.2331 2.5634-1.1911.4142-.958-.1295-1.9937-1.0357-2.408-.9063-.4143-1.9938-.1812-2.4857.6991-.4661.8545-.3107 2.0196.466 2.641.3884.3108.9322-.233.5438-.5437-1.0357-.8027-.3107-2.6928 1.0616-2.1232.5955.233 1.0098.8545.725 1.5018-.2848.6214-1.0098.9321-1.6313.6991-.466-.1813-.6732.5696-.2071.725z"
    fill="#266fed"/>
  <path d="m106.071 15.1367 2.279 71.3338" stroke="#c5d0ff" stroke-width="3"/>
  <path d="m106.228 15.0859c.699 23.4586 1.398 46.9172 2.097 70.3758" stroke="#c5d0ff" stroke-width="3"/>
  <path
    d="m61.4068 10.3203c1.683.8804 16.131 8.7517 17.1408 22.7336.5696 7.716-3.2107 13.5677-5.5928 17.1408-12.8426 19.3158-38.2432 22.7337-45.1306 23.4586 10.0204 6.6544 45.0271 28.5857 83.2958 27.2907 8.519-.285 21.724-.88 36.043-8.7516 10.745-5.9035 17.71-13.49 21.698-18.5391-2.46-1.5276-4.894-3.0294-7.354-4.557-18.073 6.1883-36.172 12.3766-54.245 18.539-.932-23.9247-1.864-47.8234-2.796-71.7481-14.3703-1.8125-28.7148-3.6767-43.0592-5.5669z"
    fill="#c5d0ff" opacity=".37"/>
  <path
    d="m40.8223 75.3359c3.366 2.2267 8.5704 5.4115 15.3024 8.4668 8.3892 3.8321 33.2201 15.173 60.1223 8.8811 19.549-4.5829 34.67-17.1408 33.686-19.2122-.621-1.2946-8.208.0518-41.997 13.49-.544-10.9525-1.088-21.931-1.606-32.8835-.932 9.2178-1.89 18.4355-2.822 27.6273-20.8953-2.0973-41.7905-4.2464-62.6857-6.3695z"
    fill="#c5d0ff" opacity=".5"/>
</svg>
