<svg xmlns="http://www.w3.org/2000/svg" viewBox="0 0 9.60038 9.6">
  <path fill="#0c1524" d="M.66667,4.7998H1.73333A.66667.66667,0,0,1,2.4,5.46647V8.93313a.66667.66667,0,0,1-.66667.66667H.66667A.66667.66667,0,0,1,0,8.93313V5.46647A.66667.66667,0,0,1,.66667,4.7998Z"/>
  <path fill="#0c1524" d="M4.26665,2.3999H5.33331A.66667.66667,0,0,1,6,3.06657V8.93323a.66667.66667,0,0,1-.66667.66667H4.26665A.66667.66667,0,0,1,3.6,8.93323V3.06657A.66667.66667,0,0,1,4.26665,2.3999Z"/>
  <path fill="#ced6e0" d="M7.86705,0H8.93371a.66667.66667,0,0,1,.66667.66667V8.93333A.66667.66667,0,0,1,8.93371,9.6H7.86705a.66667.66667,0,0,1-.66667-.66667V.66667A.66667.66667,0,0,1,7.86705,0Z"/>
</svg>