<svg fill="currentColor" height="24" viewBox="0 0 16 16" width="24" xmlns="http://www.w3.org/2000/svg">
  <path d="m14 6.25c.0003.09871-.0286.19531-.0831.27762-.0545.0823-.1321.14663-.2231.18488-.0617.02449-.1274.03721-.1938.0375-.1328-.00056-.2603-.05201-.3562-.14375l-1.5188-1.525-2.275 2.275c-.09333.09192-.21901.14353-.35.14375-.13277-.00056-.26027-.05201-.35625-.14375-.09351-.09373-.14602-.22072-.14602-.35312s.05251-.25939.14602-.35313l2.27495-2.275-1.52495-1.51875c-.06783-.07229-.11381-.16231-.13261-.25964-.0188-.09734-.00966-.198.02636-.29036.03825-.091.10258-.16864.18489-.22314.0823-.0545.1789-.08342.27761-.08311h3.75c.1326 0 .2598.05268.3536.14645.0937.09377.1464.22094.1464.35355zm-2.5 2.25c-.1326 0-.2598.05268-.3536.14645-.0937.09377-.1464.22094-.1464.35355v4h-8v-8h4c.13261 0 .25979-.05268.35355-.14644.09377-.09377.14645-.22095.14645-.35356s-.05268-.25978-.14645-.35355c-.09376-.09377-.22094-.14645-.35355-.14645h-4c-.26522 0-.51957.10536-.70711.2929-.18753.18753-.29289.44189-.29289.7071v8c0 .2652.10536.5196.29289.7071.18754.1875.44189.2929.70711.2929h8c.2652 0 .5196-.1054.7071-.2929s.2929-.4419.2929-.7071v-4c0-.13261-.0527-.25978-.1464-.35355-.0938-.09377-.221-.14645-.3536-.14645z"/>
</svg>
