<svg width="24" height="24" viewBox="0 0 24 24" fill="none" xmlns="http://www.w3.org/2000/svg">
<g id="Icon/Navi">
<path id="Vector" d="M4.03035 9.28091L4.02982 9.27949L4.03014 9.28132C3.74808 9.38088 3.5046 9.56686 3.33435 9.81279C3.1641 10.0587 3.07573 10.3521 3.08184 10.6511C3.08794 10.9502 3.1882 11.2397 3.36834 11.4785C3.54849 11.7172 3.79935 11.8931 4.08524 11.9811L11.2627 14.1899L11.3023 14.202L11.3144 14.2415L13.5232 21.419L13.5234 21.4198C13.6087 21.7076 13.7841 21.9604 14.0239 22.1409C14.2637 22.3213 14.5551 22.42 14.8551 22.4223C14.8552 22.4223 14.8553 22.4223 14.8554 22.4223L14.8829 22.4223L14.8836 22.4223C15.1779 22.4251 15.4656 22.335 15.7059 22.1649C15.9461 21.9949 16.1266 21.7534 16.2218 21.4749L16.2217 21.4749L16.2224 21.473L22.3406 4.98048L22.3405 4.98047L22.3415 4.97818L22.3422 4.97568L22.3418 4.97558L22.3446 4.9674C22.4306 4.71555 22.4442 4.4446 22.3839 4.18539C22.3235 3.92619 22.1916 3.68912 22.0032 3.50116C21.8148 3.3132 21.5774 3.1819 21.318 3.12219C21.0587 3.06248 20.7878 3.07675 20.5361 3.1634L20.5361 3.16343L20.534 3.1641L20.5209 3.16818L4.03035 9.28091ZM4.4799 10.697L4.35593 10.6589L4.44763 10.5671L4.4495 10.5652L4.46147 10.5533L4.47733 10.5473L4.49232 10.5417L4.49259 10.5416L20.9757 4.42722L21.1354 4.36799L21.0761 4.52764L14.9603 21.0105L14.9599 21.0117L14.9547 21.0265L14.8759 21.2496L14.8063 21.0234L12.5976 13.846C12.5976 13.846 12.5976 13.846 12.5976 13.8459C12.5294 13.6245 12.408 13.423 12.2442 13.2592C12.0803 13.0953 11.8789 12.974 11.6574 12.9058C11.6574 12.9058 11.6574 12.9058 11.6574 12.9058L4.4799 10.697Z" fill="currentColor" stroke="currentColor" stroke-width="0.15625"/>
</g>
</svg>
