<svg width="24" height="24" viewBox="0 0 24 24" fill="none" xmlns="http://www.w3.org/2000/svg">
  <path
    d="M3.00784 10.6443C3.01011 10.9612 3.11422 11.269 3.30481 11.5222C3.4954 11.7754 3.76236 11.9606 4.06627 12.0505L11.2438 14.2593L13.4525 21.4368C13.5425 21.7406 13.7278 22.0075 13.981 22.198C14.2342 22.3886 14.5419 22.4928 14.8588 22.4952H14.8869C15.1976 22.4981 15.5014 22.403 15.755 22.2234C16.0086 22.0439 16.1992 21.789 16.2997 21.4949L22.4141 5.00333C22.4161 4.99847 22.4176 4.99345 22.4188 4.98833C22.5102 4.72286 22.5252 4.43707 22.4622 4.16346C22.3993 3.88985 22.2607 3.63942 22.0625 3.44065C21.8642 3.24187 21.6141 3.10274 21.3406 3.03907C21.0672 2.97541 20.7813 2.98977 20.5156 3.08052L20.5006 3.08521L4.00815 9.20333C3.70952 9.30541 3.45136 9.5003 3.27139 9.75955C3.09142 10.0188 2.99907 10.3288 3.00784 10.6443Z"
    fill="currentColor"/>
</svg>
