<svg width="95" height="46" viewBox="0 0 95 46" fill="none" xmlns="http://www.w3.org/2000/svg">
<path d="M10.64 20V8.3H4.4V20H1.94V6H13.1V20H10.64ZM16.5991 18.9C15.7057 18.0067 15.2591 16.8733 15.2591 15.5C15.2591 14.1267 15.7057 13 16.5991 12.12C17.5057 11.2267 18.6924 10.78 20.1591 10.78C21.6257 10.78 22.8057 11.2267 23.6991 12.12C24.6057 13 25.0591 14.1267 25.0591 15.5C25.0591 16.8733 24.6057 18.0067 23.6991 18.9C22.8057 19.78 21.6257 20.22 20.1591 20.22C18.6924 20.22 17.5057 19.78 16.5991 18.9ZM17.7191 15.5C17.7191 16.2467 17.9457 16.8667 18.3991 17.36C18.8657 17.84 19.4524 18.08 20.1591 18.08C20.8791 18.08 21.4657 17.8467 21.9191 17.38C22.3857 16.9 22.6191 16.2733 22.6191 15.5C22.6191 14.7533 22.3857 14.14 21.9191 13.66C21.4524 13.18 20.8657 12.94 20.1591 12.94C19.4657 12.94 18.8857 13.18 18.4191 13.66C17.9524 14.1267 17.7191 14.74 17.7191 15.5ZM26.5495 20V11H28.6295L31.6895 14.76L34.5895 11H36.6095V20H34.3095V14.5L31.6495 17.86H31.5895L28.8495 14.5V20H26.5495ZM39.4467 18.9C38.5534 18.0067 38.1067 16.8733 38.1067 15.5C38.1067 14.1267 38.5534 13 39.4467 12.12C40.3534 11.2267 41.5401 10.78 43.0067 10.78C44.4734 10.78 45.6534 11.2267 46.5467 12.12C47.4534 13 47.9067 14.1267 47.9067 15.5C47.9067 16.8733 47.4534 18.0067 46.5467 18.9C45.6534 19.78 44.4734 20.22 43.0067 20.22C41.5401 20.22 40.3534 19.78 39.4467 18.9ZM40.5667 15.5C40.5667 16.2467 40.7934 16.8667 41.2467 17.36C41.7134 17.84 42.3001 18.08 43.0067 18.08C43.7267 18.08 44.3134 17.8467 44.7667 17.38C45.2334 16.9 45.4667 16.2733 45.4667 15.5C45.4667 14.7533 45.2334 14.14 44.7667 13.66C44.3001 13.18 43.7134 12.94 43.0067 12.94C42.3134 12.94 41.7334 13.18 41.2667 13.66C40.8001 14.1267 40.5667 14.74 40.5667 15.5ZM49.3972 20V11H51.6972V17.86H54.2372V11H56.5372V17.86H59.0972V11H61.3972V17.86H62.8972V22.1H60.7372V20H49.3972ZM70.1567 20V16.56H66.2167V20H63.9167V11H66.2167V14.4H70.1567V11H72.4567V20H70.1567ZM76.8105 20H74.5105V11H76.8105V16.7L81.0105 11H83.3105V20H81.0105V14.3L76.8105 20ZM93.8977 11L90.4377 15.28L94.3177 20H91.3177L87.7577 15.46L90.9977 11H93.8977ZM85.3777 20V11H87.6777V20H85.3777Z" fill="#0C1524"/>
<path d="M9.96 29L6.42 38C5.78 39.56 5.20667 40.6133 4.7 41.16C4.20667 41.72 3.62 42 2.94 42C2.28667 42 1.64 41.7667 1 41.3L1.74 39.56C2.1 39.7733 2.41333 39.88 2.68 39.88C3.22667 39.88 3.68667 39.4133 4.06 38.48L4.26 38L0.1 29H2.86L4.96 33.92C5.04 34.12 5.18667 34.5533 5.4 35.22C5.50667 34.6333 5.61333 34.1933 5.72 33.9L7.34 29H9.96ZM18.0986 29V38H15.7986V34.9C15.1453 35.2467 14.3986 35.42 13.5586 35.42C12.4253 35.42 11.5986 35.1267 11.0786 34.54C10.5586 33.94 10.2986 33.0533 10.2986 31.88V29H12.7586V31.6C12.7586 32.7067 13.2453 33.26 14.2186 33.26C14.8586 33.26 15.3853 33.14 15.7986 32.9V29H18.0986ZM27.2228 35.48L27.8828 37.1C27.0028 37.8467 25.8561 38.22 24.4428 38.22C22.9895 38.22 21.8161 37.7867 20.9228 36.92C20.0428 36.0533 19.6028 34.9133 19.6028 33.5C19.6028 32.1533 20.0361 31.0333 20.9028 30.14C21.7695 29.2333 22.9228 28.78 24.3628 28.78C25.5495 28.78 26.5561 29.1733 27.3828 29.96C28.2095 30.7333 28.6228 31.7333 28.6228 32.96C28.6228 33.4667 28.5761 33.88 28.4828 34.2H21.9828C22.0761 34.8667 22.3695 35.3867 22.8628 35.76C23.3561 36.12 23.9628 36.3 24.6828 36.3C25.6961 36.3 26.5428 36.0267 27.2228 35.48ZM24.2628 30.7C22.9561 30.7 22.1695 31.3533 21.9028 32.66H26.3228C26.3361 32.1 26.1561 31.6333 25.7828 31.26C25.4095 30.8867 24.9028 30.7 24.2628 30.7ZM36.2153 38V34.56H32.2753V38H29.9753V29H32.2753V32.4H36.2153V29H38.5153V38H36.2153ZM42.8691 38H40.5691V29H42.8691V34.7L47.0691 29H49.3691V38H47.0691V32.3L42.8691 38ZM59.9563 29L56.4963 33.28L60.3763 38H57.3763L53.8163 33.46L57.0563 29H59.9563ZM51.4363 38V29H53.7363V38H51.4363ZM61.9292 31.32L61.3492 29.64C62.3226 29.0667 63.3826 28.78 64.5292 28.78C65.8092 28.78 66.7292 29.0933 67.2892 29.72C67.8492 30.3467 68.1292 31.28 68.1292 32.52V38H66.1292V36.96C65.5826 37.7333 64.6959 38.12 63.4692 38.12C62.6292 38.12 61.9492 37.8733 61.4292 37.38C60.9092 36.8867 60.6492 36.2133 60.6492 35.36C60.6492 34.4133 60.9559 33.6933 61.5692 33.2C62.1826 32.6933 62.9692 32.44 63.9292 32.44C64.7559 32.44 65.4359 32.6333 65.9692 33.02C65.9959 32.2333 65.8826 31.6533 65.6292 31.28C65.3759 30.8933 64.9292 30.7 64.2892 30.7C63.6226 30.7 62.8359 30.9067 61.9292 31.32ZM64.2292 36.18C65.0026 36.18 65.5826 35.9067 65.9692 35.36V34.44C65.5826 34.1467 65.0559 34 64.3892 34C63.9759 34 63.6292 34.1 63.3492 34.3C63.0826 34.4867 62.9492 34.76 62.9492 35.12C62.9492 35.4533 63.0692 35.7133 63.3092 35.9C63.5492 36.0867 63.8559 36.18 64.2292 36.18Z" fill="#0C1524"/>
</svg>
