<svg width="24" height="24" viewBox="0 0 24 24" fill="none" xmlns="http://www.w3.org/2000/svg">
<path d="M3.2 10.4031C3.2 9.9613 3.55817 9.60312 4 9.60312H7.2C7.64183 9.60312 8 9.9613 8 10.4031V13.6031C8 14.045 7.64183 14.4031 7.2 14.4031H4C3.55817 14.4031 3.2 14.045 3.2 13.6031V10.4031Z" fill="currentColor"/>
<path d="M16 10.4031C16 9.9613 16.3582 9.60312 16.8 9.60312H20C20.4418 9.60312 20.8 9.9613 20.8 10.4031V13.6031C20.8 14.045 20.4418 14.4031 20 14.4031H16.8C16.3582 14.4031 16 14.045 16 13.6031V10.4031Z" fill="currentColor"/>
<path d="M16 16.8031C16 16.3613 16.3582 16.0031 16.8 16.0031H20C20.4418 16.0031 20.8 16.3613 20.8 16.8031V20.0031C20.8 20.445 20.4418 20.8031 20 20.8031H16.8C16.3582 20.8031 16 20.445 16 20.0031V16.8031Z" fill="currentColor"/>
<path d="M3.2 4.00313C3.2 3.5613 3.55817 3.20312 4 3.20312H7.2C7.64183 3.20312 8 3.5613 8 4.00312V7.20312C8 7.64495 7.64183 8.00312 7.2 8.00312H4C3.55817 8.00312 3.2 7.64495 3.2 7.20312V4.00313Z" fill="currentColor"/>
<path d="M9.6 19.2031C9.6 18.7613 9.95817 18.4031 10.4 18.4031H13.6C14.0418 18.4031 14.4 18.7613 14.4 19.2031V20.0031C14.4 20.445 14.0418 20.8031 13.6 20.8031H10.4C9.95817 20.8031 9.6 20.445 9.6 20.0031V19.2031Z" fill="currentColor"/>
<path d="M9.6 12.8031C9.6 12.3613 9.95817 12.0031 10.4 12.0031H13.6C14.0418 12.0031 14.4 12.3613 14.4 12.8031V13.6031C14.4 14.045 14.0418 14.4031 13.6 14.4031H10.4C9.95817 14.4031 9.6 14.045 9.6 13.6031V12.8031Z" fill="currentColor"/>
<path d="M16 4.00313C16 3.5613 16.3582 3.20312 16.8 3.20312H20C20.4418 3.20312 20.8 3.5613 20.8 4.00312V7.20312C20.8 7.64495 20.4418 8.00312 20 8.00312H16.8C16.3582 8.00312 16 7.64495 16 7.20312V4.00313Z" fill="currentColor"/>
<path d="M4 16.0031L5.08036 18.9228L8 20.0031L5.08036 21.0835L4 24.0031L2.91964 21.0835L0 20.0031L2.91964 18.9228L4 16.0031Z" fill="currentColor"/>
</svg>
