<svg fill="currentColor" height="24" viewBox="0 0 24 24" width="24" xmlns="http://www.w3.org/2000/svg">
  <path d="m21.4613 4.65854c-.0899-.07-.1945-.11862-.3059-.14218-.1115-.02355-.2268-.02142-.3373.00624l-5.7309 1.4325-5.75157-2.87625c-.16026-.07993-.34382-.09988-.51751-.05625l-6 1.5c-.16225.04056-.30629.13419-.40923.266-.10294.13182-.15886.29426-.15889.4615v13.5c.00002.114.02601.2264.07599.3288.04999.1025.12265.1921.21248.2623.08984.0701.19447.1188.30595.1425.11149.0236.22689.0215.33745-.0061l5.73094-1.4325 5.75159 2.8763c.1044.0514.2192.0784.3356.0787.0613 0 .1224-.0076.1819-.0225l6-1.5c.1622-.0406.3063-.1342.4092-.266s.1589-.2942.1589-.4615v-13.5c0-.11407-.026-.22664-.076-.32915s-.1228-.19225-.2127-.26241zm-11.7113.30469 4.5 2.25v11.82377l-4.5-2.25zm-6 .87281 4.5-1.125v11.95316l-4.5 1.125zm16.5 12.32816-4.5 1.125v-11.95316l4.5-1.125z"/>
</svg>
