<svg xmlns="http://www.w3.org/2000/svg" viewBox="0 0 18.66612 16.3003">
  <path d="M2.96,12.75H2.959a1.77527,1.77527,0,0,0-.34668,3.51612,1.81215,1.81215,0,0,0,.34717.03418A1.77515,1.77515,0,0,0,2.96,12.75Z"/>
  <path d="M9.335,12.75H9.334a1.77527,1.77527,0,0,0-.34668,3.51612,1.81215,1.81215,0,0,0,.34717.03418A1.77515,1.77515,0,1,0,9.335,12.75Z"/>
  <path d="M2.96,0H2.959a1.77527,1.77527,0,0,0-.34666,3.51607,1.81215,1.81215,0,0,0,.34717.03418A1.77515,1.77515,0,0,0,2.96,0Z"/>
  <path d="M2.96,6.375H2.959a1.77527,1.77527,0,0,0-.34668,3.51612,1.81134,1.81134,0,0,0,.34717.03417A1.77515,1.77515,0,0,0,2.96,6.375Z"/>
  <path d="M9.335,0H9.334a1.77527,1.77527,0,0,0-.34668,3.51612,1.81215,1.81215,0,0,0,.34717.03418A1.77515,1.77515,0,1,0,9.335,0Z"/>
  <path d="M15.7099,12.75h-.001a1.77057,1.77057,0,1,0,.001,0Z"/>
  <path d="M9.335,6.375H9.334a1.77527,1.77527,0,0,0-.34668,3.51612,1.81134,1.81134,0,0,0,.34717.03417A1.77515,1.77515,0,0,0,9.33495,6.375Z"/>
  <path d="M15.7099,6.375h-.001a1.77057,1.77057,0,1,0,.001,0Z"/>
  <path d="M15.708,3.54975h.001a1.77278,1.77278,0,1,0-.001,0Z"/>
</svg>
