<svg xmlns="http://www.w3.org/2000/svg" viewBox="0 0 32 32">
  <path d="M0,10.624C0,1.87514,1.87514,0,10.624,0H21.376C30.1249,0,32,1.87514,32,10.624V21.376C32,30.1249,30.1249,32,21.376,32H10.624C1.87514,32,0,30.1249,0,21.376Z" fill="#0576ff"/>
  <path d="M16.2521,11.4294h1.808v7.5213h2.8763V11.4294h1.808v7.5213h2.8763V11.4294h1.808v9.1428H16.2521Z" fill="#fff"/>
  <path d="M4.57156,11.4294H6.60965l2.7777,5.3477,2.77775-5.3477h1.9394v9.1428H12.2966V14.2757l-2.30111,4.399H8.6806l-2.30106-4.399v6.2965h-1.808Z" fill="#fff"/>
</svg>
