<svg xmlns="http://www.w3.org/2000/svg" viewBox="0 0 22 22"><path d="M19.7,15.12a12,12,0,0,1-1.22-6V8.46A7.55,7.55,0,0,0,11.05.88a8.14,8.14,0,0,0-2.88.55A7.61,7.61,0,0,0,5.72,3.06a7.51,7.51,0,0,0-2.2,5.32v.74a12.08,12.08,0,0,1-1.22,6,1.47,1.47,0,0,0-.2.74,1.52,1.52,0,0,0,.74,1.3,1.66,1.66,0,0,0,.75.21H7.25a3.75,3.75,0,0,0,7.5,0h3.66a1.66,1.66,0,0,0,.75-.21,1.52,1.52,0,0,0,.74-1.3A1.53,1.53,0,0,0,19.7,15.12ZM12.59,19a2.3,2.3,0,0,1-3.18,0,2.27,2.27,0,0,1-.66-1.59h4.5A2.22,2.22,0,0,1,12.59,19ZM14,15.88H3.6A13.44,13.44,0,0,0,5,9.12V8.38H5A6,6,0,0,1,8.74,2.82,6.07,6.07,0,0,1,11,2.38h0A6,6,0,0,1,17,8.46v.66a13.31,13.31,0,0,0,1.43,6.76Z"/></svg>