<svg width="64" height="64" viewBox="0 0 64 64" fill="none" xmlns="http://www.w3.org/2000/svg">
<rect width="64" height="64" rx="8" fill="#007AFF"/>
<path d="M22.25 32.9995H42.25C42.5152 32.9995 42.7696 32.8942 42.9571 32.7066C43.1446 32.5191 43.25 32.2647 43.25 31.9995V26.9995C43.2515 26.7335 43.1482 26.4775 42.9625 26.287L35.9625 19.287C35.772 19.1013 35.516 18.998 35.25 18.9995H23.25C22.7196 18.9995 22.2109 19.2102 21.8358 19.5853C21.4607 19.9604 21.25 20.4691 21.25 20.9995V31.9995C21.25 32.2647 21.3554 32.5191 21.5429 32.7066C21.7304 32.8942 21.9848 32.9995 22.25 32.9995ZM35.25 21.4995L40.75 26.9995H35.25V21.4995Z" fill="white"/>
<path d="M23.0632 43C22.9899 43 22.9299 42.9767 22.8832 42.93C22.8366 42.8833 22.8132 42.8233 22.8132 42.75V36.25C22.8132 36.1767 22.8366 36.1167 22.8832 36.07C22.9299 36.0233 22.9899 36 23.0632 36H25.7932C26.3332 36 26.7999 36.0833 27.1932 36.25C27.5932 36.4167 27.9032 36.67 28.1232 37.01C28.3499 37.3433 28.4632 37.76 28.4632 38.26C28.4632 38.7667 28.3499 39.1867 28.1232 39.52C27.9032 39.8467 27.5932 40.09 27.1932 40.25C26.7999 40.41 26.3332 40.49 25.7932 40.49H24.4532V42.75C24.4532 42.8233 24.4299 42.8833 24.3832 42.93C24.3366 42.9767 24.2766 43 24.2032 43H23.0632ZM24.4232 39.25H25.7432C26.0832 39.25 26.3466 39.1667 26.5332 39C26.7266 38.8333 26.8232 38.5833 26.8232 38.25C26.8232 37.9567 26.7366 37.7167 26.5632 37.53C26.3966 37.3433 26.1232 37.25 25.7432 37.25H24.4232V39.25ZM30.2332 43C30.1598 43 30.0998 42.9767 30.0532 42.93C30.0065 42.8833 29.9832 42.8233 29.9832 42.75V36.25C29.9832 36.1767 30.0065 36.1167 30.0532 36.07C30.0998 36.0233 30.1598 36 30.2332 36H32.7432C33.4098 36 33.9665 36.1067 34.4132 36.32C34.8598 36.5267 35.1998 36.8333 35.4332 37.24C35.6732 37.64 35.7998 38.1367 35.8132 38.73C35.8198 39.0233 35.8232 39.28 35.8232 39.5C35.8232 39.72 35.8198 39.9733 35.8132 40.26C35.7932 40.88 35.6698 41.3933 35.4432 41.8C35.2165 42.2067 34.8832 42.51 34.4432 42.71C34.0032 42.9033 33.4532 43 32.7932 43H30.2332ZM31.5732 41.71H32.7432C33.0765 41.71 33.3498 41.66 33.5632 41.56C33.7765 41.46 33.9332 41.3033 34.0332 41.09C34.1398 40.87 34.1965 40.5867 34.2032 40.24C34.2098 40.0467 34.2132 39.8733 34.2132 39.72C34.2198 39.5667 34.2198 39.4133 34.2132 39.26C34.2132 39.1067 34.2098 38.9367 34.2032 38.75C34.1898 38.25 34.0598 37.8833 33.8132 37.65C33.5732 37.41 33.1998 37.29 32.6932 37.29H31.5732V41.71ZM37.823 43C37.7497 43 37.6897 42.9767 37.643 42.93C37.5963 42.8833 37.573 42.8233 37.573 42.75V36.25C37.573 36.1767 37.5963 36.1167 37.643 36.07C37.6897 36.0233 37.7497 36 37.823 36H42.283C42.3563 36 42.4163 36.0233 42.463 36.07C42.5097 36.1167 42.533 36.1767 42.533 36.25V37.1C42.533 37.1733 42.5097 37.2333 42.463 37.28C42.4163 37.3267 42.3563 37.35 42.283 37.35H39.133V39.04H42.083C42.1563 39.04 42.2163 39.0633 42.263 39.11C42.3097 39.1567 42.333 39.2167 42.333 39.29V40.14C42.333 40.2067 42.3097 40.2633 42.263 40.31C42.2163 40.3567 42.1563 40.38 42.083 40.38H39.133V42.75C39.133 42.8233 39.1097 42.8833 39.063 42.93C39.0163 42.9767 38.9563 43 38.883 43H37.823Z" fill="white"/>
</svg>
