<svg xmlns="http://www.w3.org/2000/svg" viewBox="0 0 15.09379 9.83838">
  <path d="M5,7.5A3.75,3.75,0,1,1,8.75,3.75,3.7541,3.7541,0,0,1,5,7.5ZM5,1A2.75,2.75,0,1,0,7.75,3.75,2.7528,2.7528,0,0,0,5,1Z" fill="#7f838a"/>
  <g opacity="0.5" style="isolation: isolate">
    <path d="M10.09373,7.5a.5.5,0,0,1,0-1,2.74971,2.74971,0,0,0,1.94434-4.69434,2.7888,2.7888,0,0,0-2.69434-.7041A.49985.49985,0,1,1,9.082.13672a3.79708,3.79708,0,0,1,3.66309.96191,3.74924,3.74924,0,0,1,0,5.30323A3.7211,3.7211,0,0,1,10.09373,7.5Z" fill="#7f838a"/>
  </g>
  <path d="M9.5,9.83789A.49927.49927,0,0,1,9.0908,9.625,5.02083,5.02083,0,0,0,7.30516,8.0625a5.08722,5.08722,0,0,0-4.61035,0A5.02086,5.02086,0,0,0,.90916,9.625.49986.49986,0,1,1,.0908,9.05078a6.01765,6.01765,0,0,1,2.14307-1.875,6.09711,6.09711,0,0,1,5.53223,0,6.0134,6.0134,0,0,1,2.14306,1.875A.5.5,0,0,1,9.5,9.83789Z" fill="#7f838a"/>
  <g opacity="0.5" style="isolation: isolate">
    <path d="M14.59373,9.83789a.498.498,0,0,1-.40918-.21289A4.99427,4.99427,0,0,0,10.09373,7.5a.5.5,0,0,1,0-1,5.998,5.998,0,0,1,4.90918,2.55078.5.5,0,0,1-.40918.78711Z" fill="#7f838a"/>
  </g>
</svg>
