<svg xmlns="http://www.w3.org/2000/svg" viewBox="0 0 16.50003 16.5">
  <path d="M16.36719,15.32422a10.01049,10.01049,0,0,0-3.541-3.1543,9.40751,9.40751,0,0,0-1.35449-.571A6.279,6.279,0,0,0,8.25,0,6.27917,6.27917,0,0,0,5.02869,11.59912a9.41658,9.41658,0,0,0-1.35486.5708,10.00224,10.00224,0,0,0-3.541,3.1543.74981.74981,0,0,0,1.23438.85156A8.50145,8.50145,0,0,1,4.375,13.49609a8.40712,8.40712,0,0,1,7.75,0,8.50145,8.50145,0,0,1,3.00781,2.67969.74981.74981,0,0,0,1.23438-.85156ZM3.5835,6.26611A4.72243,4.72243,0,0,1,8.25,1.5a4.72284,4.72284,0,0,1,4.667,4.76611A4.72285,4.72285,0,0,1,8.25,11.03223,4.72244,4.72244,0,0,1,3.5835,6.26611Z" transform="translate(0.00008)"/>
</svg>
