<svg fill="currentColor" height="24" viewBox="0 0 24 24" width="24" xmlns="http://www.w3.org/2000/svg">
  <path d="m20.8472 14.8554-4.4166-1.979-.0122-.0057c-.2292-.098-.4794-.1374-.7277-.1145-.2483.023-.487.1074-.6944.2458-.0245.0161-.0479.0337-.0704.0525l-2.2818 1.9453c-1.4457-.7022-2.93815-2.1834-3.64034-3.6103l1.94814-2.31656c.0187-.02344.0365-.04688.0534-.07219.1354-.20691.2176-.44408.2392-.6904.0216-.24633-.0181-.49417-.1154-.72148v-.01125l-1.98472-4.42406c-.12868-.29694-.34994-.5443-.63076-.70515s-.60612-.22657-.92736-.18735c-1.27034.16716-2.4364.79103-3.28038 1.75509s-1.30817 2.20237-1.30587 3.48366c0 7.44379 6.05625 13.49999 13.49999 13.49999 1.2813.0023 2.5196-.4619 3.4837-1.3059.964-.8439 1.5879-2.01 1.7551-3.2803.0393-.3212-.0263-.6464-.187-.9272s-.4078-.5021-.7046-.631zm-4.3472 4.6444c-3.1815-.0035-6.2318-1.2689-8.48144-3.5185-2.24968-2.2497-3.51508-5.3-3.51855-8.48149-.00353-.91548.3263-1.80094.92788-2.49102.60158-.69009 1.43378-1.13761 2.34118-1.25898-.00037.00374-.00037.00751 0 .01125l1.96875 4.40625-1.93781 2.31939c-.01967.0226-.03754.0468-.05344.0722-.14108.2165-.22384.4657-.24027.7236-.01642.2579.03405.5156.14652.7482.84938 1.7372 2.59968 3.4744 4.35558 4.3229.2344.1114.4936.1601.7524.1414.2588-.0188.5084-.1043.7242-.2483.0241-.0162.0472-.0338.0694-.0525l2.279-1.9444 4.4063 1.9734h.0103c-.1199.9087-.5667 1.7426-1.2569 2.3457-.6903.6031-1.5765.934-2.4931.9309z"/>
</svg>
