<svg width="64" height="64" viewBox="0 0 64 64" fill="none" xmlns="http://www.w3.org/2000/svg">
<rect width="64" height="64" rx="8" fill="#007AFF"/>
<path d="M22.25 32.9995H42.25C42.5152 32.9995 42.7696 32.8942 42.9571 32.7066C43.1446 32.5191 43.25 32.2647 43.25 31.9995V26.9995C43.2515 26.7335 43.1482 26.4775 42.9625 26.287L35.9625 19.287C35.772 19.1013 35.516 18.998 35.25 18.9995H23.25C22.7196 18.9995 22.2109 19.2102 21.8358 19.5853C21.4607 19.9604 21.25 20.4691 21.25 20.9995V31.9995C21.25 32.2647 21.3554 32.5191 21.5429 32.7066C21.7304 32.8942 21.9848 32.9995 22.25 32.9995ZM35.25 21.4995L40.75 26.9995H35.25V21.4995Z" fill="white"/>
<path d="M23.0584 43C22.985 43 22.925 42.9767 22.8784 42.93C22.8317 42.8833 22.8084 42.8233 22.8084 42.75V36.25C22.8084 36.1767 22.8317 36.1167 22.8784 36.07C22.925 36.0233 22.985 36 23.0584 36H25.7884C26.3284 36 26.795 36.0833 27.1884 36.25C27.5884 36.4167 27.8984 36.67 28.1184 37.01C28.345 37.3433 28.4584 37.76 28.4584 38.26C28.4584 38.7667 28.345 39.1867 28.1184 39.52C27.8984 39.8467 27.5884 40.09 27.1884 40.25C26.795 40.41 26.3284 40.49 25.7884 40.49H24.4484V42.75C24.4484 42.8233 24.425 42.8833 24.3784 42.93C24.3317 42.9767 24.2717 43 24.1984 43H23.0584ZM24.4184 39.25H25.7384C26.0784 39.25 26.3417 39.1667 26.5284 39C26.7217 38.8333 26.8184 38.5833 26.8184 38.25C26.8184 37.9567 26.7317 37.7167 26.5584 37.53C26.3917 37.3433 26.1184 37.25 25.7384 37.25H24.4184V39.25ZM30.2283 43C30.1549 43 30.0949 42.9767 30.0483 42.93C30.0016 42.8833 29.9783 42.8233 29.9783 42.75V36.25C29.9783 36.1767 30.0016 36.1167 30.0483 36.07C30.0949 36.0233 30.1549 36 30.2283 36H32.9583C33.4983 36 33.9649 36.0833 34.3583 36.25C34.7583 36.4167 35.0683 36.67 35.2883 37.01C35.5149 37.3433 35.6283 37.76 35.6283 38.26C35.6283 38.7667 35.5149 39.1867 35.2883 39.52C35.0683 39.8467 34.7583 40.09 34.3583 40.25C33.9649 40.41 33.4983 40.49 32.9583 40.49H31.6183V42.75C31.6183 42.8233 31.5949 42.8833 31.5483 42.93C31.5016 42.9767 31.4416 43 31.3683 43H30.2283ZM31.5883 39.25H32.9083C33.2483 39.25 33.5116 39.1667 33.6983 39C33.8916 38.8333 33.9883 38.5833 33.9883 38.25C33.9883 37.9567 33.9016 37.7167 33.7283 37.53C33.5616 37.3433 33.2883 37.25 32.9083 37.25H31.5883V39.25ZM39.6682 43.1C39.0282 43.1 38.4915 43.0067 38.0582 42.82C37.6315 42.6333 37.3082 42.39 37.0882 42.09C36.8682 41.79 36.7515 41.47 36.7382 41.13C36.7382 41.0767 36.7582 41.03 36.7982 40.99C36.8382 40.9433 36.8882 40.92 36.9482 40.92H38.0182C38.1049 40.92 38.1715 40.94 38.2182 40.98C38.2649 41.0133 38.3082 41.0567 38.3482 41.11C38.3949 41.2233 38.4682 41.3333 38.5682 41.44C38.6749 41.5467 38.8182 41.6367 38.9982 41.71C39.1782 41.7767 39.4015 41.81 39.6682 41.81C40.1015 41.81 40.4249 41.74 40.6382 41.6C40.8582 41.46 40.9682 41.27 40.9682 41.03C40.9682 40.8567 40.9082 40.7167 40.7882 40.61C40.6749 40.5033 40.4915 40.4067 40.2382 40.32C39.9915 40.2333 39.6615 40.14 39.2482 40.04C38.7482 39.9333 38.3215 39.7967 37.9682 39.63C37.6215 39.4567 37.3582 39.2367 37.1782 38.97C37.0049 38.6967 36.9182 38.36 36.9182 37.96C36.9182 37.56 37.0282 37.2067 37.2482 36.9C37.4682 36.5867 37.7782 36.3433 38.1782 36.17C38.5782 35.99 39.0549 35.9 39.6082 35.9C40.0549 35.9 40.4482 35.96 40.7882 36.08C41.1349 36.2 41.4215 36.3567 41.6482 36.55C41.8815 36.7433 42.0582 36.95 42.1782 37.17C42.2982 37.39 42.3615 37.6033 42.3682 37.81C42.3682 37.8633 42.3482 37.9133 42.3082 37.96C42.2682 38 42.2182 38.02 42.1582 38.02H41.0382C40.9715 38.02 40.9115 38.0067 40.8582 37.98C40.8049 37.9533 40.7615 37.9067 40.7282 37.84C40.6882 37.6667 40.5682 37.5167 40.3682 37.39C40.1749 37.2567 39.9215 37.19 39.6082 37.19C39.2815 37.19 39.0215 37.25 38.8282 37.37C38.6415 37.49 38.5482 37.6733 38.5482 37.92C38.5482 38.08 38.5949 38.2167 38.6882 38.33C38.7882 38.4367 38.9515 38.5333 39.1782 38.62C39.4115 38.7 39.7182 38.79 40.0982 38.89C40.6849 39.01 41.1615 39.1533 41.5282 39.32C41.8949 39.4867 42.1649 39.7033 42.3382 39.97C42.5115 40.23 42.5982 40.56 42.5982 40.96C42.5982 41.4067 42.4715 41.79 42.2182 42.11C41.9715 42.43 41.6282 42.6767 41.1882 42.85C40.7549 43.0167 40.2482 43.1 39.6682 43.1Z" fill="white"/>
</svg>
