<svg width="64" height="64" viewBox="0 0 64 64" fill="none" xmlns="http://www.w3.org/2000/svg">
<rect width="64" height="64" rx="8" fill="#007AFF"/>
<path d="M22.25 32.9995H42.25C42.5152 32.9995 42.7696 32.8942 42.9571 32.7066C43.1446 32.5191 43.25 32.2647 43.25 31.9995V26.9995C43.2515 26.7335 43.1482 26.4775 42.9625 26.287L35.9625 19.287C35.772 19.1013 35.516 18.998 35.25 18.9995H23.25C22.7196 18.9995 22.2109 19.2102 21.8358 19.5853C21.4607 19.9604 21.25 20.4691 21.25 20.9995V31.9995C21.25 32.2647 21.3554 32.5191 21.5429 32.7066C21.7304 32.8942 21.9848 32.9995 22.25 32.9995ZM35.25 21.4995L40.75 26.9995H35.25V21.4995Z" fill="white"/>
<path d="M23.2341 43C23.1608 43 23.1008 42.9767 23.0541 42.93C23.0075 42.8833 22.9841 42.8233 22.9841 42.75V36.25C22.9841 36.1767 23.0075 36.1167 23.0541 36.07C23.1008 36.0233 23.1608 36 23.2341 36H25.9641C26.5041 36 26.9708 36.0833 27.3641 36.25C27.7641 36.4167 28.0741 36.67 28.2941 37.01C28.5208 37.3433 28.6341 37.76 28.6341 38.26C28.6341 38.7667 28.5208 39.1867 28.2941 39.52C28.0741 39.8467 27.7641 40.09 27.3641 40.25C26.9708 40.41 26.5041 40.49 25.9641 40.49H24.6241V42.75C24.6241 42.8233 24.6008 42.8833 24.5541 42.93C24.5075 42.9767 24.4475 43 24.3741 43H23.2341ZM24.5941 39.25H25.9141C26.2541 39.25 26.5175 39.1667 26.7041 39C26.8975 38.8333 26.9941 38.5833 26.9941 38.25C26.9941 37.9567 26.9075 37.7167 26.7341 37.53C26.5675 37.3433 26.2941 37.25 25.9141 37.25H24.5941V39.25ZM30.4041 43C30.3307 43 30.2707 42.9767 30.2241 42.93C30.1774 42.8833 30.1541 42.8233 30.1541 42.75V36.25C30.1541 36.1767 30.1774 36.1167 30.2241 36.07C30.2707 36.0233 30.3307 36 30.4041 36H33.1341C33.6741 36 34.1407 36.0833 34.5341 36.25C34.9341 36.4167 35.2441 36.67 35.4641 37.01C35.6907 37.3433 35.8041 37.76 35.8041 38.26C35.8041 38.7667 35.6907 39.1867 35.4641 39.52C35.2441 39.8467 34.9341 40.09 34.5341 40.25C34.1407 40.41 33.6741 40.49 33.1341 40.49H31.7941V42.75C31.7941 42.8233 31.7707 42.8833 31.7241 42.93C31.6774 42.9767 31.6174 43 31.5441 43H30.4041ZM31.7641 39.25H33.0841C33.4241 39.25 33.6874 39.1667 33.8741 39C34.0674 38.8333 34.1641 38.5833 34.1641 38.25C34.1641 37.9567 34.0774 37.7167 33.9041 37.53C33.7374 37.3433 33.4641 37.25 33.0841 37.25H31.7641V39.25ZM39.114 43C39.0407 43 38.9807 42.9767 38.934 42.93C38.8873 42.8833 38.864 42.8233 38.864 42.75V37.39H37.044C36.9773 37.39 36.9207 37.3667 36.874 37.32C36.8273 37.2733 36.804 37.2167 36.804 37.15V36.25C36.804 36.1767 36.8273 36.1167 36.874 36.07C36.9207 36.0233 36.9773 36 37.044 36H42.284C42.3573 36 42.4173 36.0233 42.464 36.07C42.5107 36.1167 42.534 36.1767 42.534 36.25V37.15C42.534 37.2167 42.5107 37.2733 42.464 37.32C42.4173 37.3667 42.3573 37.39 42.284 37.39H40.474V42.75C40.474 42.8233 40.4507 42.8833 40.404 42.93C40.3573 42.9767 40.2973 43 40.224 43H39.114Z" fill="white"/>
</svg>
