<svg width="64" height="64" viewBox="0 0 64 64" fill="none" xmlns="http://www.w3.org/2000/svg">
<rect width="64" height="64" rx="8" fill="#007AFF"/>
<path d="M22.25 32.9995H42.25C42.5152 32.9995 42.7696 32.8942 42.9571 32.7066C43.1446 32.5191 43.25 32.2647 43.25 31.9995V26.9995C43.2515 26.7335 43.1482 26.4775 42.9625 26.287L35.9625 19.287C35.772 19.1013 35.516 18.998 35.25 18.9995H23.25C22.7196 18.9995 22.2109 19.2102 21.8358 19.5853C21.4607 19.9604 21.25 20.4691 21.25 20.9995V31.9995C21.25 32.2647 21.3554 32.5191 21.5429 32.7066C21.7304 32.8942 21.9848 32.9995 22.25 32.9995ZM35.25 21.4995L40.75 26.9995H35.25V21.4995Z" fill="white"/>
<path d="M19.1052 43C19.0319 43 18.9719 42.9767 18.9252 42.93C18.8786 42.8833 18.8552 42.8233 18.8552 42.75V36.25C18.8552 36.1767 18.8786 36.1167 18.9252 36.07C18.9719 36.0233 19.0319 36 19.1052 36H21.8352C22.3752 36 22.8419 36.0833 23.2352 36.25C23.6352 36.4167 23.9452 36.67 24.1652 37.01C24.3919 37.3433 24.5052 37.76 24.5052 38.26C24.5052 38.7667 24.3919 39.1867 24.1652 39.52C23.9452 39.8467 23.6352 40.09 23.2352 40.25C22.8419 40.41 22.3752 40.49 21.8352 40.49H20.4952V42.75C20.4952 42.8233 20.4719 42.8833 20.4252 42.93C20.3786 42.9767 20.3186 43 20.2452 43H19.1052ZM20.4652 39.25H21.7852C22.1252 39.25 22.3886 39.1667 22.5752 39C22.7686 38.8333 22.8652 38.5833 22.8652 38.25C22.8652 37.9567 22.7786 37.7167 22.6052 37.53C22.4386 37.3433 22.1652 37.25 21.7852 37.25H20.4652V39.25ZM26.2752 43C26.2018 43 26.1418 42.9767 26.0952 42.93C26.0485 42.8833 26.0252 42.8233 26.0252 42.75V36.25C26.0252 36.1767 26.0485 36.1167 26.0952 36.07C26.1418 36.0233 26.2018 36 26.2752 36H29.0052C29.5452 36 30.0118 36.0833 30.4052 36.25C30.8052 36.4167 31.1152 36.67 31.3352 37.01C31.5618 37.3433 31.6752 37.76 31.6752 38.26C31.6752 38.7667 31.5618 39.1867 31.3352 39.52C31.1152 39.8467 30.8052 40.09 30.4052 40.25C30.0118 40.41 29.5452 40.49 29.0052 40.49H27.6652V42.75C27.6652 42.8233 27.6418 42.8833 27.5952 42.93C27.5485 42.9767 27.4885 43 27.4152 43H26.2752ZM27.6352 39.25H28.9552C29.2952 39.25 29.5585 39.1667 29.7452 39C29.9385 38.8333 30.0352 38.5833 30.0352 38.25C30.0352 37.9567 29.9485 37.7167 29.7752 37.53C29.6085 37.3433 29.3352 37.25 28.9552 37.25H27.6352V39.25ZM34.9851 43C34.9117 43 34.8517 42.9767 34.8051 42.93C34.7584 42.8833 34.7351 42.8233 34.7351 42.75V37.39H32.9151C32.8484 37.39 32.7917 37.3667 32.7451 37.32C32.6984 37.2733 32.6751 37.2167 32.6751 37.15V36.25C32.6751 36.1767 32.6984 36.1167 32.7451 36.07C32.7917 36.0233 32.8484 36 32.9151 36H38.1551C38.2284 36 38.2884 36.0233 38.3351 36.07C38.3817 36.1167 38.4051 36.1767 38.4051 36.25V37.15C38.4051 37.2167 38.3817 37.2733 38.3351 37.32C38.2884 37.3667 38.2284 37.39 38.1551 37.39H36.3451V42.75C36.3451 42.8233 36.3217 42.8833 36.2751 42.93C36.2284 42.9767 36.1684 43 36.0951 43H34.9851ZM39.487 43C39.427 43 39.377 42.98 39.337 42.94C39.297 42.8933 39.277 42.8433 39.277 42.79C39.277 42.77 39.2803 42.75 39.287 42.73C39.2936 42.71 39.3003 42.69 39.307 42.67L41.517 39.43L39.457 36.33C39.437 36.29 39.427 36.25 39.427 36.21C39.427 36.1567 39.447 36.11 39.487 36.07C39.527 36.0233 39.577 36 39.637 36H40.867C40.9536 36 41.0203 36.0233 41.067 36.07C41.1203 36.1167 41.1603 36.16 41.187 36.2L42.527 38.19L43.877 36.2C43.9036 36.16 43.9436 36.1167 43.997 36.07C44.0503 36.0233 44.1203 36 44.207 36H45.377C45.4303 36 45.477 36.0233 45.517 36.07C45.5636 36.11 45.587 36.1567 45.587 36.21C45.587 36.2567 45.5736 36.2967 45.547 36.33L43.487 39.42L45.707 42.67C45.7203 42.69 45.727 42.71 45.727 42.73C45.7336 42.75 45.737 42.77 45.737 42.79C45.737 42.8433 45.717 42.8933 45.677 42.94C45.637 42.98 45.587 43 45.527 43H44.257C44.1703 43 44.1003 42.9767 44.047 42.93C44.0003 42.8833 43.9636 42.8433 43.937 42.81L42.477 40.71L41.027 42.81C41.007 42.8433 40.9703 42.8833 40.917 42.93C40.8703 42.9767 40.8003 43 40.707 43H39.487Z" fill="white"/>
</svg>
