<svg viewBox="253.081 135.358 13.5 12.25" width="13.5" height="12.25">
  <path d="M 3 3.5 C 2.724 3.5 2.5 3.276 2.5 3 L 2.5 0.5 L 2.5 0 L 3 0 C 3 0 11 0 11 0 L 11.5 0 L 11.5 0.5 L 11.5 3 C 11.5 3.276 11.276 3.5 11 3.5 C 10.724 3.5 10.5 3.276 10.5 3 L 10.5 1 L 3.5 1 L 3.5 3 C 3.5 3.276 3.276 3.5 3 3.5 Z" transform="matrix(1, 0, 0, 1, 252.831268, 135.357864)"></path>
  <path d="M 2.5 12.25 L 2.5 7 L 11.5 7 L 11.5 12.25 Z M 10.5 8 L 3.5 8 L 3.5 11.25 L 10.5 11.25 Z" transform="matrix(1, 0, 0, 1, 252.831268, 135.357864)"></path>
  <path d="M 3.5 9 C 3.5 9.276 3.276 9.5 3 9.5 L 0.75 9.5 L 0.25 9.5 L 0.25 9 C 0.25 9 0.25 4 0.25 4 C 0.275 3.615 0.466 3.169 0.729 2.927 C 0.988 2.687 1.438 2.519 1.831 2.5 L 12.169 2.5 C 12.562 2.519 13.012 2.687 13.271 2.927 C 13.534 3.169 13.725 3.615 13.75 4 L 13.75 9 L 13.75 9.5 L 13.25 9.5 L 11 9.5 C 10.724 9.5 10.5 9.276 10.5 9 C 10.5 8.724 10.724 8.5 11 8.5 L 12.75 8.5 L 12.75 4 C 12.775 3.835 12.722 3.781 12.593 3.661 C 12.46 3.538 12.37 3.481 12.169 3.5 L 1.831 3.5 C 1.63 3.481 1.54 3.538 1.407 3.661 C 1.278 3.781 1.225 3.835 1.25 4 L 1.25 8.5 L 3 8.5 C 3.276 8.5 3.5 8.724 3.5 9 Z" transform="matrix(1, 0, 0, 1, 252.831268, 135.357864)"></path>
  <path d="M10.75 6C11.1642 6 11.5 5.66421 11.5 5.25C11.5 4.83579 11.1642 4.5 10.75 4.5C10.3358 4.5 10 4.83579 10 5.25C10 5.66421 10.3358 6 10.75 6Z" transform="matrix(1, 0, 0, 1, 252.831268, 135.357864)" style=""></path>
  <path d="M 9.5 5.25 C 9.5 4.941 9.667 4.565 9.866 4.366 C 10.065 4.167 10.441 4 10.75 4 C 11.059 4 11.435 4.167 11.634 4.366 C 11.833 4.565 12 4.941 12 5.25 C 12 5.559 11.833 5.935 11.634 6.134 C 11.435 6.333 11.059 6.5 10.75 6.5 C 10.441 6.5 10.065 6.333 9.866 6.134 C 9.667 5.935 9.5 5.559 9.5 5.25 Z M 10.573 5.427 C 10.646 5.499 10.645 5.5 10.75 5.5 C 10.855 5.5 10.854 5.499 10.927 5.427 C 10.999 5.354 11 5.355 11 5.25 C 11 5.145 10.999 5.146 10.927 5.073 C 10.854 5.001 10.855 5 10.75 5 C 10.645 5 10.646 5.001 10.573 5.073 C 10.501 5.146 10.5 5.145 10.5 5.25 C 10.5 5.355 10.501 5.354 10.573 5.427 Z" transform="matrix(1, 0, 0, 1, 252.831268, 135.357864)"></path>
</svg>
