<svg width="24" height="25" viewBox="0 0 24 25" fill="none" xmlns="http://www.w3.org/2000/svg">
<path d="M12 21.5C16.9706 21.5 21 17.4706 21 12.5C21 7.52944 16.9706 3.5 12 3.5C7.02944 3.5 3 7.52944 3 12.5C3 17.4706 7.02944 21.5 12 21.5Z" stroke="#93979E" stroke-linecap="round" stroke-linejoin="round"/>
<path d="M12.125 17.375C12.125 17.444 12.069 17.5 12 17.5C11.931 17.5 11.875 17.444 11.875 17.375C11.875 17.306 11.931 17.25 12 17.25C12.069 17.25 12.125 17.306 12.125 17.375Z" fill="#93979E" stroke="#93979E" stroke-width="2"/>
<path d="M12.0001 14.0004V13.2504C12.5192 13.2504 13.0268 13.0964 13.4584 12.808C13.8901 12.5195 14.2266 12.1096 14.4252 11.6299C14.6239 11.1503 14.6759 10.6225 14.5746 10.1133C14.4733 9.60405 14.2233 9.13632 13.8562 8.76921C13.4891 8.4021 13.0214 8.15209 12.5122 8.05081C12.003 7.94952 11.4752 8.0015 10.9955 8.20018C10.5159 8.39886 10.1059 8.73532 9.81745 9.16699C9.52902 9.59867 9.37506 10.1062 9.37506 10.6254" stroke="#93979E" stroke-linecap="round" stroke-linejoin="round"/>
</svg>
