<svg viewBox="232.424 148.31 12.516 11.978" width="12.516" height="11.978">
  <path d="M 9.513 4.231 C 9.513 4.508 9.736 4.731 10.013 4.731 L 13.013 4.731 L 13.513 4.731 L 13.513 4.231 L 13.513 1.231 C 13.513 0.955 13.289 0.731 13.013 0.731 C 12.736 0.731 12.513 0.955 12.513 1.231 L 12.513 3.731 L 10.013 3.731 C 9.736 3.731 9.513 3.955 9.513 4.231 Z" style="fill: rgb(127, 131, 138);" transform="matrix(1, 0, 0, 1, 231.427353, 148.298874)"></path>
  <path d="M 11.241 9.534 C 11.436 9.729 11.436 10.046 11.241 10.241 C 10.413 11.054 9.305 11.647 8.169 11.884 C 7.029 12.101 5.778 11.978 4.702 11.544 C 3.634 11.09 2.662 10.293 2.008 9.334 C 1.372 8.363 0.997 7.161 0.997 6 C 0.997 4.839 1.372 3.637 2.008 2.666 C 2.662 1.707 3.634 0.91 4.702 0.456 C 5.778 0.022 7.029 -0.101 8.169 0.116 C 9.305 0.353 10.413 0.945 11.241 1.758 L 13.366 3.877 C 13.561 4.072 13.562 4.389 13.367 4.584 C 13.172 4.78 12.855 4.78 12.659 4.585 L 10.534 2.467 C 9.824 1.741 8.972 1.284 7.974 1.096 C 6.98 0.887 6.018 0.982 5.084 1.38 C 4.142 1.759 3.395 2.372 2.84 3.222 C 2.267 4.06 1.997 4.985 1.997 6 C 1.997 7.015 2.267 7.94 2.84 8.778 C 3.395 9.628 4.142 10.241 5.084 10.62 C 6.018 11.018 6.98 11.113 7.974 10.904 C 8.972 10.716 9.824 10.26 10.534 9.534 C 10.729 9.339 11.046 9.339 11.241 9.534 Z" style="fill: rgb(127, 131, 138);" transform="matrix(1, 0, 0, 1, 231.427353, 148.298874)"></path>
</svg>
