<svg width="64" height="64" viewBox="0 0 64 64" fill="none" xmlns="http://www.w3.org/2000/svg">
<rect width="64" height="64" rx="8" fill="#007AFF"/>
<path d="M22.25 32.9995H42.25C42.5152 32.9995 42.7696 32.8942 42.9571 32.7066C43.1446 32.5191 43.25 32.2647 43.25 31.9995V26.9995C43.2515 26.7335 43.1482 26.4775 42.9625 26.287L35.9625 19.287C35.772 19.1013 35.516 18.998 35.25 18.9995H23.25C22.7196 18.9995 22.2109 19.2102 21.8358 19.5853C21.4607 19.9604 21.25 20.4691 21.25 20.9995V31.9995C21.25 32.2647 21.3554 32.5191 21.5429 32.7066C21.7304 32.8942 21.9848 32.9995 22.25 32.9995ZM35.25 21.4995L40.75 26.9995H35.25V21.4995Z" fill="white"/>
<path d="M23.4832 43C23.4098 43 23.3498 42.9767 23.3032 42.93C23.2565 42.8833 23.2332 42.8233 23.2332 42.75V36.25C23.2332 36.1767 23.2565 36.1167 23.3032 36.07C23.3498 36.0233 23.4098 36 23.4832 36H26.1332C26.9665 36 27.6232 36.1933 28.1032 36.58C28.5832 36.96 28.8232 37.51 28.8232 38.23C28.8232 38.7167 28.7065 39.1233 28.4732 39.45C28.2398 39.7767 27.9265 40.02 27.5332 40.18L28.9432 42.68C28.9632 42.72 28.9732 42.7567 28.9732 42.79C28.9732 42.8433 28.9532 42.8933 28.9132 42.94C28.8732 42.98 28.8232 43 28.7632 43H27.6532C27.5332 43 27.4432 42.97 27.3832 42.91C27.3232 42.8433 27.2798 42.7833 27.2532 42.73L26.0332 40.44H24.8232V42.75C24.8232 42.8233 24.7998 42.8833 24.7532 42.93C24.7065 42.9767 24.6465 43 24.5732 43H23.4832ZM24.8232 39.17H26.1032C26.4698 39.17 26.7398 39.0867 26.9132 38.92C27.0932 38.7533 27.1832 38.52 27.1832 38.22C27.1832 37.92 27.0965 37.6833 26.9232 37.51C26.7498 37.3367 26.4765 37.25 26.1032 37.25H24.8232V39.17ZM32.2712 43C32.1979 43 32.1379 42.9767 32.0912 42.93C32.0445 42.8833 32.0212 42.8233 32.0212 42.75V37.39H30.2012C30.1345 37.39 30.0779 37.3667 30.0312 37.32C29.9845 37.2733 29.9612 37.2167 29.9612 37.15V36.25C29.9612 36.1767 29.9845 36.1167 30.0312 36.07C30.0779 36.0233 30.1345 36 30.2012 36H35.4412C35.5145 36 35.5745 36.0233 35.6212 36.07C35.6679 36.1167 35.6912 36.1767 35.6912 36.25V37.15C35.6912 37.2167 35.6679 37.2733 35.6212 37.32C35.5745 37.3667 35.5145 37.39 35.4412 37.39H33.6312V42.75C33.6312 42.8233 33.6079 42.8833 33.5612 42.93C33.5145 42.9767 33.4545 43 33.3812 43H32.2712ZM37.4031 43C37.3298 43 37.2698 42.9767 37.2231 42.93C37.1764 42.8833 37.1531 42.8233 37.1531 42.75V36.25C37.1531 36.1767 37.1764 36.1167 37.2231 36.07C37.2698 36.0233 37.3298 36 37.4031 36H41.8631C41.9364 36 41.9964 36.0233 42.0431 36.07C42.0898 36.1167 42.1131 36.1767 42.1131 36.25V37.1C42.1131 37.1733 42.0898 37.2333 42.0431 37.28C41.9964 37.3267 41.9364 37.35 41.8631 37.35H38.7131V39.04H41.6631C41.7364 39.04 41.7964 39.0633 41.8431 39.11C41.8898 39.1567 41.9131 39.2167 41.9131 39.29V40.14C41.9131 40.2067 41.8898 40.2633 41.8431 40.31C41.7964 40.3567 41.7364 40.38 41.6631 40.38H38.7131V42.75C38.7131 42.8233 38.6898 42.8833 38.6431 42.93C38.5964 42.9767 38.5364 43 38.4631 43H37.4031Z" fill="white"/>
</svg>
