<svg xmlns="http://www.w3.org/2000/svg" viewBox="0 0 24.01592 22.01463">
  <path d="M25.8026,13.02236a.99985.99985,0,0,1-1,1h-11a1,1,0,0,1,0-2h11a.99985.99985,0,0,1,1,1Zm-12-7h11a1,1,0,1,0,0-2h-11a1,1,0,0,0,0,2Zm11,14h-11a1,1,0,0,0,0,2h11a1,1,0,1,0,0-2ZM8.62765,2.28485l-3.6625,3.375-1.4875-1.375a1,1,0,0,0-1.35,1.475l2.1625,2a.99993.99993,0,0,0,.675.2625,1.025,1.025,0,0,0,.6875-.2625l4.325-4a1,1,0,1,0-1.35-1.475Zm0,8-3.6625,3.375-1.4875-1.375a1,1,0,1,0-1.35,1.475l2.1625,2a.99988.99988,0,0,0,.675.2625,1.025,1.025,0,0,0,.6875-.2625l4.325-4a1,1,0,1,0-1.35-1.475Zm0,8-3.6625,3.375-1.4875-1.375a1,1,0,1,0-1.35,1.475l2.1625,2a.99988.99988,0,0,0,.675.2625,1.025,1.025,0,0,0,.6875-.2625l4.325-4a1,1,0,0,0-1.35-1.475Z" transform="translate(-1.78667 -2.00774)"/>
</svg>
