<svg xmlns="http://www.w3.org/2000/svg" viewBox="0 0 25.99991 26.0301">
  <path d="M10.29468,11.56335a1.01258,1.01258,0,0,0,.5-.875v-9a1,1,0,0,0-1.33753-.95A13.0376,13.0376,0,0,0,.79468,13.00085a13.63968,13.63968,0,0,0,.21246,2.375,1.01235,1.01235,0,0,0,.5625.725,1.051,1.051,0,0,0,.425.1,1.0003,1.0003,0,0,0,.5-.13752ZM4.41876,7.25848A11.037,11.037,0,0,1,8.79468,3.20087V10.1134L2.80713,13.57587c-.01245-.2-.01245-.38752-.01245-.575A11.03713,11.03713,0,0,1,4.41876,7.25848ZM26.79455,13a13,13,0,0,1-24.225,6.58746L2.532,19.525V19.5a.98771.98771,0,0,1,.375-1.36255L12.79455,12.425V1a1,1,0,0,1,1-1A12.98691,12.98691,0,0,1,25.007,6.4375l.05.0625a.09993.09993,0,0,0,.025.05A12.936,12.936,0,0,1,26.79455,13Z" transform="translate(-0.79468)"/>
</svg>
