<svg xmlns="http://www.w3.org/2000/svg" viewBox="0 0 27.58927 25.16822">
  <path d="M27.58927,16.00986a.99985.99985,0,0,1-1,1h-2v2a1,1,0,1,1-2,0v-2h-2a1,1,0,0,1,0-2h2v-2a1,1,0,0,1,2,0v2h2a1,1,0,0,1,1,1Zm-23-10.49995h1.5v1.5a1,1,0,0,0,2,0v-1.5h1.5a1,1,0,0,0,0-2h-1.5v-1.5a1,1,0,1,0-2,0v1.5h-1.5a1,1,0,0,0,0,2Zm15,15.5h-1v-1a1,1,0,0,0-2,0v1h-1a1,1,0,1,0,0,2h1v1a1,1,0,1,0,2,0v-1h1a1,1,0,0,0,0-2Zm-.2875-9.2875-13.3,13.2875a1.98737,1.98737,0,0,1-2.825,0l-2.5875-2.5875a1.98755,1.98755,0,0,1,0-2.825L19.17677,1.00991a2.01251,2.01251,0,0,1,2.825,0l2.5875,2.5875a1.98737,1.98737,0,0,1,0,2.825Zm-3.3-4.71245,2.5875,2.5875,4.5875-4.5875-2.5875-2.5875Z" transform="translate(0 -0.43094)"/>
</svg>
