<svg width="24" height="24" viewBox="0 0 24 24" fill="none" xmlns="http://www.w3.org/2000/svg">
  <path
    d="M21.5308 20.4667L16.8368 15.7735C18.1973 14.1401 18.8757 12.0451 18.7309 9.92422C18.5861 7.80336 17.6293 5.81996 16.0593 4.38663C14.4894 2.9533 12.4274 2.1804 10.3021 2.2287C8.17687 2.277 6.15205 3.14278 4.64888 4.64595C3.14571 6.14912 2.27993 8.17394 2.23163 10.2992C2.18333 12.4244 2.95623 14.4865 4.38956 16.0564C5.82289 17.6263 7.80629 18.5832 9.92715 18.728C12.048 18.8728 14.1431 18.1944 15.7765 16.8338L20.4696 21.5279C20.5393 21.5976 20.622 21.6529 20.713 21.6906C20.8041 21.7283 20.9017 21.7477 21.0002 21.7477C21.0988 21.7477 21.1963 21.7283 21.2874 21.6906C21.3784 21.6529 21.4612 21.5976 21.5308 21.5279C21.6005 21.4582 21.6558 21.3755 21.6935 21.2845C21.7312 21.1934 21.7506 21.0958 21.7506 20.9973C21.7506 20.8987 21.7312 20.8012 21.6935 20.7101C21.6558 20.6191 21.6005 20.5363 21.5308 20.4667ZM3.75021 10.4973C3.75021 9.16226 4.14609 7.85722 4.88779 6.74718C5.62949 5.63715 6.6837 4.77199 7.9171 4.2611C9.1505 3.75021 10.5077 3.61653 11.8171 3.87698C13.1264 4.13743 14.3292 4.78031 15.2732 5.72431C16.2172 6.66832 16.8601 7.87105 17.1205 9.18042C17.381 10.4898 17.2473 11.847 16.7364 13.0804C16.2255 14.3138 15.3603 15.368 14.2503 16.1097C13.1403 16.8514 11.8352 17.2473 10.5002 17.2473C8.71061 17.2453 6.99488 16.5335 5.72944 15.2681C4.46399 14.0026 3.7522 12.2869 3.75021 10.4973Z"
    fill="currentColor"/>
</svg>
