<svg width="48" height="48" viewBox="0 0 48 48" fill="none" xmlns="http://www.w3.org/2000/svg">
<path d="M0.32906 7.85689C1.5749 5.91243 6.77882 0 24 0C41.2212 0 46.4251 5.91243 47.6709 7.85689C47.9227 8.24991 48.0102 8.69233 47.9991 9.15078C47.8477 15.2826 45.598 38.9316 26.4773 47.0668C24.8987 47.7385 23.1013 47.7385 21.5227 47.0668C2.40199 38.9316 0.152253 15.2826 0.000934163 9.15078C-0.0102182 8.69233 0.0772657 8.24991 0.32906 7.85689Z" fill="url(#paint0_linear_11900_57462)"/>
<path d="M19.2586 28.504H23.2186V17.248L19.2586 20.056V17.08L23.3146 14.2H26.0986V28.504H29.3386V31H19.2586V28.504Z" fill="white"/>
<defs>
<linearGradient id="paint0_linear_11900_57462" x1="-11.4393" y1="57.3913" x2="52.3954" y2="46.695" gradientUnits="userSpaceOnUse">
<stop stop-color="#00B09B"/>
<stop offset="1" stop-color="#96C93D"/>
</linearGradient>
</defs>
</svg>
