<svg xmlns="http://www.w3.org/2000/svg" viewBox="0 0 17.50433 16.85399">
  <path d="M16.52931,6.57714a1.14693,1.14693,0,0,0-1.02108-.79731L11.3539,5.49309,9.81521,1.61149a1.14159,1.14159,0,0,0-2.12611,0L6.12247,5.51407l-4.12638.26576A1.154,1.154,0,0,0,.975,6.57714,1.17495,1.17495,0,0,0,1.33867,7.843l3.17521,2.68561-.94416,3.7138a1.29376,1.29376,0,0,0,.48956,1.37075,1.25883,1.25883,0,0,0,1.40577.042L8.74517,13.578h.014l3.53194,2.231a1.12583,1.12583,0,0,0,.60839.18182,1.154,1.154,0,0,0,1.10505-1.45472l-1.00013-4.06347L16.16568,7.843a1.17476,1.17476,0,0,0,.36363-1.26588Z" opacity="0"/>
  <path d="M13.38616,16.854a1.25873,1.25873,0,0,1-.68359-.20008L8.75109,14.14464h0L5.07471,16.47885a1.40054,1.40054,0,0,1-1.56726-.05,1.4589,1.4589,0,0,1-.55021-1.52557L4.016,10.735.46464,7.7339a1.30034,1.30034,0,0,1,.73361-2.29253l4.6184-.29178L7.559.80629A1.32556,1.32556,0,0,1,8.02582.22274a1.29214,1.29214,0,0,1,1.45054,0A1.23376,1.23376,0,0,1,9.9432.823l1.71731,4.32662,4.64341.31679a1.30546,1.30546,0,0,1,.73361,2.30086L13.50287,10.685l1.08374,4.54337A1.29216,1.29216,0,0,1,13.35282,16.854ZM1.24827,6.78354,4.7996,9.72631a1.27547,1.27547,0,0,1,.40849.60856,1.34215,1.34215,0,0,1,0,.72528L4.14936,15.22838a.17506.17506,0,0,0,.06669.20007.13337.13337,0,0,0,.16673,0l3.668-2.31753a1.2421,1.2421,0,0,1,1.35051,0h0l3.93481,2.50093-1.10041-4.54337a1.30878,1.30878,0,0,1,0-.71693,1.41724,1.41724,0,0,1,.40015-.60857l3.618-2.95944v-.0917L11.6105,6.39173a1.26716,1.26716,0,0,1-.68359-.2501,1.20873,1.20873,0,0,1-.42516-.56688L8.75109,1.24813l-1.75066,4.335a1.25043,1.25043,0,0,1-.4335.56688A1.27544,1.27544,0,0,1,5.9,6.39173l-4.65175.30011"/>
</svg>
