<svg width="25" height="24" viewBox="0 0 25 24" fill="none"
     xmlns="http://www.w3.org/2000/svg">
    <path d="M22.7587 9.13125C22.6648 8.83592 22.4839 8.57585 22.2396 8.38513C21.9954 8.19441 21.6992 8.08195 21.3899 8.0625L15.8212 7.67813L13.7587 2.475C13.646 2.1885 13.45 1.94241 13.1959 1.76858C12.9419 1.59475 12.6415 1.50118 12.3337 1.5C12.0258 1.50118 11.7254 1.59475 11.4714 1.76858C11.2173 1.94241 11.0213 2.1885 10.9087 2.475L8.80865 7.70625L3.2774 8.0625C2.9685 8.08321 2.67292 8.19614 2.4289 8.38668C2.18488 8.57722 2.00365 8.83659 1.90865 9.13125C1.8111 9.43043 1.8054 9.75197 1.89229 10.0544C1.97918 10.3569 2.15468 10.6263 2.39615 10.8281L6.6524 14.4281L5.38678 19.4062C5.29921 19.743 5.31497 20.0983 5.432 20.426C5.54904 20.7537 5.76194 21.0386 6.04303 21.2438C6.31587 21.4396 6.64093 21.5495 6.97663 21.5596C7.31232 21.5696 7.64337 21.4792 7.9274 21.3L12.3243 18.5156H12.343L17.0774 21.5062C17.3203 21.6641 17.6034 21.7487 17.893 21.75C18.1295 21.7481 18.3624 21.6921 18.5739 21.5861C18.7853 21.4802 18.9696 21.3272 19.1127 21.1389C19.2557 20.9505 19.3537 20.7319 19.399 20.4998C19.4444 20.2677 19.4359 20.0283 19.3743 19.8L18.0337 14.3531L22.2712 10.8281C22.5126 10.6263 22.6881 10.3569 22.775 10.0544C22.8619 9.75197 22.8562 9.43043 22.7587 9.13125Z"
          fill="#FFB40A"/>
</svg>
