<svg width="29" height="29" viewBox="0 0 29 29" fill="none" xmlns="http://www.w3.org/2000/svg">
<path d="M24 17C24.0025 17.4077 23.8786 17.8062 23.6454 18.1407C23.4121 18.4751 23.081 18.729 22.6975 18.8675L16.2412 21.2425L13.8662 27.6938C13.7256 28.0758 13.4711 28.4056 13.1372 28.6385C12.8032 28.8714 12.4059 28.9963 11.9987 28.9963C11.5916 28.9963 11.1942 28.8714 10.8603 28.6385C10.5263 28.4056 10.2719 28.0758 10.1312 27.6938L7.74995 21.25L1.29745 18.875C0.915366 18.7344 0.585613 18.4799 0.352687 18.146C0.119761 17.812 -0.00512695 17.4147 -0.00512695 17.0075C-0.00512695 16.6003 0.119761 16.203 0.352687 15.869C0.585613 15.5351 0.915366 15.2806 1.29745 15.14L7.7537 12.765L10.1287 6.31375C10.2694 5.93166 10.5238 5.60191 10.8578 5.36898C11.1917 5.13606 11.5891 5.01117 11.9962 5.01117C12.4034 5.01117 12.8007 5.13606 13.1347 5.36898C13.4686 5.60191 13.7231 5.93166 13.8637 6.31375L16.2387 12.77L22.69 15.145C23.0728 15.2815 23.4042 15.533 23.6387 15.8651C23.8732 16.1971 23.9994 16.5935 24 17ZM17 5H19V7C19 7.26522 19.1053 7.51957 19.2928 7.70711C19.4804 7.89464 19.7347 8 20 8C20.2652 8 20.5195 7.89464 20.7071 7.70711C20.8946 7.51957 21 7.26522 21 7V5H23C23.2652 5 23.5195 4.89464 23.7071 4.70711C23.8946 4.51957 24 4.26522 24 4C24 3.73478 23.8946 3.48043 23.7071 3.29289C23.5195 3.10536 23.2652 3 23 3H21V1C21 0.734784 20.8946 0.48043 20.7071 0.292893C20.5195 0.105357 20.2652 0 20 0C19.7347 0 19.4804 0.105357 19.2928 0.292893C19.1053 0.48043 19 0.734784 19 1V3H17C16.7347 3 16.4804 3.10536 16.2928 3.29289C16.1053 3.48043 16 3.73478 16 4C16 4.26522 16.1053 4.51957 16.2928 4.70711C16.4804 4.89464 16.7347 5 17 5ZM28 9H27V8C27 7.73478 26.8946 7.48043 26.7071 7.29289C26.5195 7.10536 26.2652 7 26 7C25.7347 7 25.4804 7.10536 25.2928 7.29289C25.1053 7.48043 25 7.73478 25 8V9H24C23.7347 9 23.4804 9.10536 23.2928 9.29289C23.1053 9.48043 23 9.73478 23 10C23 10.2652 23.1053 10.5196 23.2928 10.7071C23.4804 10.8946 23.7347 11 24 11H25V12C25 12.2652 25.1053 12.5196 25.2928 12.7071C25.4804 12.8946 25.7347 13 26 13C26.2652 13 26.5195 12.8946 26.7071 12.7071C26.8946 12.5196 27 12.2652 27 12V11H28C28.2652 11 28.5195 10.8946 28.7071 10.7071C28.8946 10.5196 29 10.2652 29 10C29 9.73478 28.8946 9.48043 28.7071 9.29289C28.5195 9.10536 28.2652 9 28 9Z" fill="url(#paint0_linear_10338_31026)"/>
<defs>
<linearGradient id="paint0_linear_10338_31026" x1="-0.00512695" y1="14.4982" x2="29" y2="14.4982" gradientUnits="userSpaceOnUse">
<stop stop-color="#00B09B"/>
<stop offset="1" stop-color="#96C93D"/>
</linearGradient>
</defs>
</svg>
