<svg width="32" height="33" viewBox="0 0 32 33" fill="none" xmlns="http://www.w3.org/2000/svg">
<path d="M26.0002 18.2749C26.0027 18.6826 25.8789 19.0811 25.6456 19.4156C25.4124 19.75 25.0812 20.0039 24.6977 20.1424L18.2414 22.5174L15.8664 28.9687C15.7258 29.3507 15.4713 29.6805 15.1374 29.9134C14.8035 30.1463 14.4061 30.2712 13.9989 30.2712C13.5918 30.2712 13.1944 30.1463 12.8605 29.9134C12.5266 29.6805 12.2721 29.3507 12.1314 28.9687L9.7502 22.5249L3.2977 20.1499C2.91561 20.0093 2.58586 19.7548 2.35293 19.4209C2.12001 19.0869 1.99512 18.6896 1.99512 18.2824C1.99512 17.8752 2.12001 17.4779 2.35293 17.144C2.58586 16.81 2.91561 16.5555 3.2977 16.4149L9.75395 14.0399L12.1289 7.58865C12.2696 7.20656 12.5241 6.87681 12.858 6.64388C13.1919 6.41096 13.5893 6.28607 13.9964 6.28607C14.4036 6.28607 14.801 6.41096 15.1349 6.64388C15.4688 6.87681 15.7233 7.20656 15.8639 7.58865L18.2389 14.0449L24.6902 16.4199C25.0731 16.5564 25.4044 16.8079 25.6389 17.14C25.8734 17.472 25.9996 17.8684 26.0002 18.2749ZM19.0002 6.2749H21.0002V8.2749C21.0002 8.54012 21.1056 8.79447 21.2931 8.98201C21.4806 9.16955 21.735 9.2749 22.0002 9.2749C22.2654 9.2749 22.5198 9.16955 22.7073 8.98201C22.8948 8.79447 23.0002 8.54012 23.0002 8.2749V6.2749H25.0002C25.2654 6.2749 25.5198 6.16955 25.7073 5.98201C25.8948 5.79447 26.0002 5.54012 26.0002 5.2749C26.0002 5.00969 25.8948 4.75533 25.7073 4.5678C25.5198 4.38026 25.2654 4.2749 25.0002 4.2749H23.0002V2.2749C23.0002 2.00969 22.8948 1.75533 22.7073 1.5678C22.5198 1.38026 22.2654 1.2749 22.0002 1.2749C21.735 1.2749 21.4806 1.38026 21.2931 1.5678C21.1056 1.75533 21.0002 2.00969 21.0002 2.2749V4.2749H19.0002C18.735 4.2749 18.4806 4.38026 18.2931 4.5678C18.1056 4.75533 18.0002 5.00969 18.0002 5.2749C18.0002 5.54012 18.1056 5.79447 18.2931 5.98201C18.4806 6.16955 18.735 6.2749 19.0002 6.2749ZM30.0002 10.2749H29.0002V9.2749C29.0002 9.00969 28.8948 8.75533 28.7073 8.5678C28.5198 8.38026 28.2654 8.2749 28.0002 8.2749C27.735 8.2749 27.4806 8.38026 27.2931 8.5678C27.1056 8.75533 27.0002 9.00969 27.0002 9.2749V10.2749H26.0002C25.735 10.2749 25.4806 10.3803 25.2931 10.5678C25.1056 10.7553 25.0002 11.0097 25.0002 11.2749C25.0002 11.5401 25.1056 11.7945 25.2931 11.982C25.4806 12.1695 25.735 12.2749 26.0002 12.2749H27.0002V13.2749C27.0002 13.5401 27.1056 13.7945 27.2931 13.982C27.4806 14.1695 27.735 14.2749 28.0002 14.2749C28.2654 14.2749 28.5198 14.1695 28.7073 13.982C28.8948 13.7945 29.0002 13.5401 29.0002 13.2749V12.2749H30.0002C30.2654 12.2749 30.5198 12.1695 30.7073 11.982C30.8948 11.7945 31.0002 11.5401 31.0002 11.2749C31.0002 11.0097 30.8948 10.7553 30.7073 10.5678C30.5198 10.3803 30.2654 10.2749 30.0002 10.2749Z" fill="url(#paint0_linear_5995_66488)"/>
<defs>
<linearGradient id="paint0_linear_5995_66488" x1="1.99512" y1="15.7731" x2="31.0002" y2="15.7731" gradientUnits="userSpaceOnUse">
<stop stop-color="#00B09B"/>
<stop offset="1" stop-color="#96C93D"/>
</linearGradient>
</defs>
</svg>
