<svg xmlns="http://www.w3.org/2000/svg" viewBox="0 0 22 22"><path d="M16.56,21.25a1.51,1.51,0,0,1-.82-.24L11,18h0L6.59,20.8a1.68,1.68,0,0,1-1.88-.06,1.75,1.75,0,0,1-.66-1.83l1.27-5-4.26-3.6A1.56,1.56,0,0,1,.58,8.63,1.55,1.55,0,0,1,1.94,7.56l5.54-.35L9.57,2a1.59,1.59,0,0,1,.56-.7,1.55,1.55,0,0,1,1.74,0,1.48,1.48,0,0,1,.56.72l2.06,5.19,5.57.38a1.55,1.55,0,0,1,1.36,1.07,1.56,1.56,0,0,1-.48,1.69L16.7,13.85,18,19.3a1.55,1.55,0,0,1-1.48,1.95ZM2,9.17,6.26,12.7a1.53,1.53,0,0,1,.49.73,1.61,1.61,0,0,1,0,.87l-1.27,5a.21.21,0,0,0,.08.24.16.16,0,0,0,.2,0l4.4-2.78a1.49,1.49,0,0,1,1.62,0h0l4.72,3-1.32-5.45a1.57,1.57,0,0,1,0-.86,1.7,1.7,0,0,1,.48-.73L20,9.17V9.06L14.43,8.7a1.52,1.52,0,0,1-.82-.3,1.45,1.45,0,0,1-.51-.68L11,2.53,8.9,7.73a1.5,1.5,0,0,1-.52.68,1.53,1.53,0,0,1-.8.29L2,9.06"/></svg>