<svg xmlns="http://www.w3.org/2000/svg" viewBox="0 0 98.51 89.55"><path d="M25.56,59.33A23.12,23.12,0,0,1,28.48,42.9,36.53,36.53,0,0,1,41,30.5C51.12,24,63,20.89,73.11,14.33a40.4,40.4,0,0,0,7.56-6.11c1.88-2,3.77-5,2.42-7.76a.86.86,0,0,0-1.46-.1C69,19.48,62.24,44.26,41.89,57.19a39.88,39.88,0,0,1-16.19,6c-1.41.19-.93,2.27.44,2.15,10.65-.93,20-7.23,27.2-14.85C61.6,41.68,67,30.86,72.42,20.19A186.89,186.89,0,0,1,83,1.31l-1.45-.09c1.51,3.09-1.91,5.89-4,7.64a53.15,53.15,0,0,1-7.33,5A158.27,158.27,0,0,1,53.9,21.51C43.4,26,32.33,31.42,26.55,41.82c-3,5.43-4.36,11.8-2.54,17.83.29,1,1.78.7,1.55-.31ZM20,71.14c.36-2.89,1.88-5.42,3.45-7.82A47.13,47.13,0,0,1,28.32,57,63.73,63.73,0,0,1,40.67,47a.9.9,0,0,0-.8-1.6,38.28,38.28,0,0,0-13.93,10.3,45.32,45.32,0,0,0-5.13,7c-1.48,2.52-3.36,5.59-2.59,8.62A.92.92,0,0,0,20,71.14ZM13.65,75.9c1.34-3.49-2.51-6.52-5.79-5.77C4,71,.62,75.51.07,79.31s2,7.23,5.17,9c3.66,2,8.15,1.38,11.83-.24a29.68,29.68,0,0,0,11.74-9.56L27,77.72a5,5,0,0,0,3.22,5.71,4.64,4.64,0,0,0,5.6-2.74c.23-.59-.64-1.2-1-.6A3.45,3.45,0,0,1,31,81.74,3,3,0,0,1,29,78.26a1,1,0,0,0-1.73-1c-4.2,4.64-10.28,10.08-17,9.83a8.17,8.17,0,0,1-7-4.21c-1.5-3,.16-6,2.18-8.31,1-1.14,2.57-2.31,4.2-2,1.39.24,2.73,1.43,2.41,2.91a.87.87,0,0,0,1.66.47Zm26.16.35c.38-.08.74.86.92,1.14a2.45,2.45,0,0,0,1.13,1.14c1.43.55,2.06-.78,2.44-1.88C45.62,72.78,51.71,73,55,73.12c4.65.25,9.19,1.4,13.81,1.9a67.77,67.77,0,0,0,13.58-.35c4.94-.44,10.34-.62,14.71,2.11.94.59,2-.73,1.09-1.38C90,69.8,80.1,73.67,71.08,73.12c-4.87-.3-9.67-1.28-14.54-1.6-3.77-.26-8.46-.45-11.56,2.12a6.47,6.47,0,0,0-1.62,1.91,8.6,8.6,0,0,1-.59,1.27c-.27.33-.31.26-.63-.07-.75-.75-1.42-2.12-2.66-1.34a.47.47,0,0,0,.34.84Z" /></svg>