<svg xmlns="http://www.w3.org/2000/svg" viewBox="0 0 77.78 90"><path d="M31.82,78.2A39.22,39.22,0,0,0,46.89,88a33,33,0,0,0,8.76,2c2.7.16,5.32-.57,6.83-3s2.15-5.72,2.47-8.6a40.75,40.75,0,0,0-.29-10.29,115.38,115.38,0,0,0-5-20.06,150.82,150.82,0,0,0-17.52-36C39,7.29,35,1.78,29.13.29a7.4,7.4,0,0,0-7.72,2.16c-1.73,2.09-2.19,4.86-2.33,7.49A95.68,95.68,0,0,0,21,32.77,91,91,0,0,0,28.4,55.22c.66,1.35,3.05.38,2.47-1C26,42.32,22.76,29.91,22.13,17.08a54.56,54.56,0,0,1,0-8.48c.24-2.22.94-4.89,3.28-5.73,2.62-.94,5.68.62,7.72,2.18a28.52,28.52,0,0,1,5.67,6.19A144.18,144.18,0,0,1,56,43.36a147.69,147.69,0,0,1,5.6,17.81c1.49,6,2.72,12.82,1.65,19.22-.52,3.11-1.36,7.28-4.85,8.24-3,.82-6.54-.14-9.42-1a38.25,38.25,0,0,1-16.64-10c-.34-.36-.89.18-.54.54Zm-10.47-46A55.94,55.94,0,0,0,8,45.63,53.89,53.89,0,0,0,3.2,54.07a35.18,35.18,0,0,0-3,8.85c-.47,3-.17,6.17,2,8.42s5.63,2.91,8.69,3.13c7.41.53,14.65-2.08,21.3-5.07A115.6,115.6,0,0,0,66.5,45.91c4.66-4.64,9-10.1,10.67-16.57,1.49-5.7.44-12.51-5.24-15.47-5.06-2.63-11.34-1.57-16.49.2a55.1,55.1,0,0,0-17.8,9.81q-1.94,1.66-3.72,3.47c-.83.83.39,2,1.27,1.27A70.83,70.83,0,0,1,51.11,18.51C56,16.27,61.71,14.15,67.19,15a9.58,9.58,0,0,1,6,3.11,10.68,10.68,0,0,1,2,8c-.61,6-4.34,11.4-8.29,15.74a108,108,0,0,1-30,22.48C31,67.36,24.8,70.22,18.24,71.46c-4.83.91-14.5,1.65-15.66-4.94C2,63.36,3.31,60,4.43,57.08a54.94,54.94,0,0,1,4.26-8.64,54.22,54.22,0,0,1,13.39-15c.73-.56,0-1.81-.73-1.26Zm11.4,9.34a6.22,6.22,0,0,0,3.48,7.57,6.09,6.09,0,0,0,5.38-10.81c-2.52-1.52-6.19-1.34-8,1.2-.62.9.63,2.18,1.53,1.53a4.86,4.86,0,0,1,4.94-.75,3.35,3.35,0,0,1,1.6,4.55,3.71,3.71,0,0,1-4.64,2.25A4.46,4.46,0,0,1,34.43,42a.87.87,0,0,0-1.68-.47Z" /></svg>