<svg xmlns="http://www.w3.org/2000/svg" viewBox="0 0 68.6 89.67"><path d="M52.39,24.29c-.88-36.5-65.44-29.5-50,5.28C13.19,44,32.74,47.43,46.93,57.63,54.76,63,74,78.16,61.1,87a1.4,1.4,0,0,0,.75,2.7c5.91-.93,7.71-8.08,6.29-13C61.22,59.77,42.9,51.6,27.55,43.8-32.61,20.88,32.33-22.52,49.74,20c.52,1.18.65,7.68,2.65,4.26ZM34.27,61.35c1.19-2.16,21-10.53,14.56-11.43-1.85.28-22,11.27-14.56,11.43ZM53.1,43.81c.7,1.87,3.14,14.81,5.86,9.44-.25-5.07-7.27-4.26-.69-9,1.24-1.14,7.65-6.56,2.9-6.39-3.14,2.56-7.71,5.48-8.84,9.47-.11,2.72,3.3,3.66,3.92,6l2.53-.68c-1.44-1.13-4.11-14.2-5.68-8.76Z" /></svg>