<svg xmlns="http://www.w3.org/2000/svg" viewBox="0 0 89.02 90"><path d="M21.43,43.8a16.33,16.33,0,0,0,4.21,18.54c5.43,4.74,13.7,5,19.81,1.4C51.9,60,55,52.17,54,44.91s-6.55-13.93-14-15A17,17,0,0,0,27,33.8a19.1,19.1,0,0,0-4.14,4.82,15.17,15.17,0,0,0-2,6c-.11.92,1.28,1,1.54.21C24.52,38.23,30,32.46,37.16,32.07,44,31.71,49.75,37,51.47,43.4a17.23,17.23,0,0,1-5.1,17.31,16,16,0,0,1-17.91,1.65,15.09,15.09,0,0,1-6.11-18.17c.22-.52-.68-.91-.91-.39ZM32.18,4.1a8.62,8.62,0,0,0-3.29,9.75,9.68,9.68,0,0,0,8.74,6.38,10.35,10.35,0,0,0,9.55-5.76c2-3.82,1.73-8.9-1.5-12C42.19-.84,36.14-1,33.09,3c-.54.71.52,1.76,1.23,1.24,2.7-2,6.2-2.78,9-.58a7.64,7.64,0,0,1,2,9,8.15,8.15,0,0,1-6.62,5.11,7.67,7.67,0,0,1-7.27-3.62,7.65,7.65,0,0,1,1.52-9c.56-.5-.18-1.48-.81-1.05ZM74.25,38.8c-4.28.08-6.37,4.85-5.59,8.57a10.43,10.43,0,0,0,8.63,8,10.76,10.76,0,0,0,10.44-5.5,8.62,8.62,0,0,0,1-6.77A9.16,9.16,0,0,0,84,38.37C79.75,36.21,73.72,36,70,39.35c-.58.52,0,1.65.78,1.35a20.86,20.86,0,0,1,5-1.4,13.67,13.67,0,0,1,5,.4,10.89,10.89,0,0,1,4.56,2.52,4.62,4.62,0,0,1,1,5,8.77,8.77,0,0,1-6.93,5.88,8.05,8.05,0,0,1-7.91-4.19,7.34,7.34,0,0,1-.87-5.14c.42-1.82,1.57-3.72,3.61-3.85a.55.55,0,0,0,0-1.09ZM.59,76.45a9.55,9.55,0,0,0,3.1,10.71C6.77,89.7,11.33,91,15,89.07c3.32-1.74,5.23-5.56,5.72-9.15.58-4.12-.84-8.35-4.62-10.44a10,10,0,0,0-6.63-1,9.94,9.94,0,0,0-3.29,1.2A7.26,7.26,0,0,0,3.75,72c-.48.73.46,1.6,1.18,1.18,2.79-1.65,5.69-3.11,9-2s4.69,4.08,4.59,7.29A10.79,10.79,0,0,1,15,86.38c-2.62,2.18-6.31,1.56-9-.09a8.75,8.75,0,0,1-4.22-9.52A.59.59,0,0,0,.59,76.45ZM19.2,69.38c1.23-1.24,2.52-2.44,3.68-3.76.68-.77-.4-1.88-1.15-1.14-1.24,1.23-2.37,2.59-3.54,3.9-.6.68.35,1.66,1,1ZM37.06,19.64c-.11,1.29-.22,2.59-.32,3.88a17.62,17.62,0,0,0-.06,3.84c.15,1,1.78.95,2,0a17.55,17.55,0,0,0,.22-3.84c0-1.29,0-2.59,0-3.88a.92.92,0,0,0-1.84,0ZM54.82,47.22a25.53,25.53,0,0,1,4.53-.41c1.43,0,3.13.4,4.48-.13A.92.92,0,0,0,64.05,45c-1.27-1-3.34-.78-4.85-.67a24.24,24.24,0,0,0-4.92.91A1,1,0,0,0,54.82,47.22ZM22.75,72A42.79,42.79,0,0,1,27,67.15c.79-.89-.23-2.42-1.32-1.72A14.23,14.23,0,0,0,21.09,71a1,1,0,0,0,1.66,1ZM39.14,37.13A19.93,19.93,0,0,1,43,38.73a9.59,9.59,0,0,1,3,3,11.57,11.57,0,0,1,1.12,8.78c-.2,1,1.18,1.68,1.7.71a10.48,10.48,0,0,0-.91-10.6,11.65,11.65,0,0,0-3.71-3.45,8.2,8.2,0,0,0-4.89-1.35A.69.69,0,0,0,39.14,37.13Z" /></svg>