<svg xmlns="http://www.w3.org/2000/svg" viewBox="0 0 89.98 82.65"><path d="M2.53,26.79C.37,36-1.18,46,1.19,55.32s9.44,16.61,18.14,21.13a53.78,53.78,0,0,0,29.43,6A47.15,47.15,0,0,0,74.39,72.06,42.57,42.57,0,0,0,88.8,50,39.93,39.93,0,0,0,86.31,23.7c-4-8.62-11.27-15-20-18.68A65.6,65.6,0,0,0,36.52.17C26.82.9,17.65,4.58,11.26,12.06A41.78,41.78,0,0,0,1.63,36a38.56,38.56,0,0,0,.26,6.44,1.31,1.31,0,0,0,2.62,0c.27-7.92,2-16.24,6.05-23.13A30.52,30.52,0,0,1,30.16,4.79c9.08-2.13,19.07-1.11,28,1.34,8.45,2.32,16.59,6.68,21.71,13.94A36.13,36.13,0,0,1,86.2,43.42a37,37,0,0,1-9.61,21.83A43.71,43.71,0,0,1,55.35,78.11a50.43,50.43,0,0,1-28.2-1.25c-9-3-17.39-8.13-21.83-16.36S1,42.49,2.4,33.61c.35-2.18.79-4.35,1.27-6.51.17-.73-1-1.05-1.14-.31Zm14.86,2.79c.16,1.58.64,3.09.76,4.67a23.1,23.1,0,0,1-.06,4.63A23.94,23.94,0,0,1,15,47.45c-1.36,2.43,2.08,4.27,3.67,2.13a19.59,19.59,0,0,0,3.54-10.3c.26-3.31-.06-7.66-2.07-10.45-.77-1-2.94-.86-2.78.75Zm5.66-9.34a7.22,7.22,0,0,0,4.54,6.23c3.09,1.38,6.91,1,10-.18,1.82-.67,1.75-3.79-.49-3.61-3.45.27-9.92,2-11.12-2.84a1.5,1.5,0,0,0-2.92.4Zm5.47,17.4a20.18,20.18,0,0,0,3.6-2.2c1.2-.76,2.51-1.45,3.72-2.26,1.56-1,.64-3.78-1.35-3.17a13.39,13.39,0,0,0-4.24,2.24,9.85,9.85,0,0,0-3.31,3.36c-.44,1,.32,2.51,1.58,2ZM53.25,23.9c-1.2,2.57-2,5.89.62,7.91s5.09.13,6.47-2.17,1.85-5.86-.82-7.45c-1.91-1.14-5.1-.84-5.52,1.75a1.23,1.23,0,0,0,2.23.93c.37-.52,1.44-.31,1.84.06,1,.93.19,2.73-.36,3.67-.71,1.2-1.71,2.08-2.9.81s-.55-3.42-.08-4.88c.28-.86-1.09-1.47-1.48-.63ZM55,30.61a5.33,5.33,0,0,0-3.37,6,5.17,5.17,0,0,0,6.19,3.9A4.77,4.77,0,0,0,61,34.09c-1.13-2.36-4.69-3.5-6.56-1.33-.69.81-.05,2.52,1.19,2,.85-.34,2.25-.45,2.79.47.71,1.22-.55,2.7-1.79,2.74-3.45.11-3.49-4.5-1-5.85.81-.44.25-1.87-.65-1.52Zm-4.28,6.13c-.66-.17-1.66-.69-2.34-.53a2.69,2.69,0,0,0-1.33,1,4.88,4.88,0,0,0-1,3.45A4.36,4.36,0,0,0,51,44.71c2.41-.3,4.5-2.4,3.93-4.93-.53-2.35-3.63-4.66-5.77-2.7a1,1,0,0,0,.44,1.67c1,.14,2.26.37,2.59,1.49.25.9-.57,1.54-1.39,1.67a1.69,1.69,0,0,1-2-1.12c-.39-1.13.22-2.06.88-2.93l-1,.56a10.82,10.82,0,0,1,1.8,0,.87.87,0,0,0,.24-1.71Zm-7.51,4.32A27.06,27.06,0,0,0,41,45.28c-.47,1.1-1,2.31-.33,3.46,1.12,2,4.38,2.08,6.3,1.59,2.12-.54,3.77-2.42,3.13-4.65-.55-1.92-3-3.63-4.5-1.63a1.11,1.11,0,0,0,.67,1.64c.58.12,1.44.26,1.18,1.14s-1.85.92-2.58.89a3.31,3.31,0,0,1-1.47-.21c-.56-.33-.36-.7-.19-1.31a45.21,45.21,0,0,1,1.54-4.51c.35-.9-1-1.37-1.51-.63ZM27.68,57C26.39,58.64,25,60.54,25,62.75a5.06,5.06,0,0,0,2.55,4.51C31.63,69.45,33.77,64,34.15,61c.22-1.76-.14-3.95-2-4.76a3.29,3.29,0,0,0-4.09,1.22c-.55,1.12.53,3.37,1.78,2.07.33-.34.34-.9,1-.83.91.11.71,1.68.62,2.33-.19,1.37-1,5.28-3.16,3.85-2.62-1.73-.44-5.22.76-7.11.56-.89-.78-1.59-1.39-.8Zm7.86,4.52a4.05,4.05,0,0,0-2.21,5.38c1.06,2.39,4.32,2.52,6.16.94a3.84,3.84,0,0,0-1-6.32c-2.4-1.23-6.59,1.05-5.42,4a.94.94,0,0,0,1.79,0c.44-1.18,1.34-2.95,2.89-1.86a1.6,1.6,0,0,1-.15,2.82C35,67.77,33.74,63.82,36,62.49c.54-.31.18-1.26-.43-1Zm7.64-1.53c-1.7,2-2.63,5.47.51,6.68,2.22.85,5-.31,5.32-2.79a4.4,4.4,0,0,0-4.8-4.77c-2.38.36-5.46,4-3.26,6.16a.93.93,0,0,0,1.54-.4c.47-1.26.19-2.78,1.7-3.45a2.06,2.06,0,0,1,2.72,2,1.69,1.69,0,0,1-2.41,1.24c-1.68-.66-.85-2.73-.18-3.83.41-.68-.6-1.51-1.14-.87Zm5.64-3.39a5.38,5.38,0,0,0-.77,3.67,2.3,2.3,0,0,0,2,2.23,3.85,3.85,0,0,0,4.61-3A3.92,3.92,0,0,0,51.08,55c-2.25,0-4.8,2.34-3.53,4.54a.94.94,0,0,0,1.59,0c.34-.73.54-1.64,1.34-2a1.31,1.31,0,0,1,1.75.76c.66,1.49-1.18,2.32-2.32,1.59l.52.67a5.13,5.13,0,0,1,0-3.33A.88.88,0,0,0,48.82,56.55Zm4.4,5.06c-1.85,1.15-1.63,3.83-.15,5.21,1.77,1.66,4.34.52,5.16-1.5a3.77,3.77,0,0,0-2.52-5.23c-2.23-.5-5.78,1.21-5.14,3.89a1.06,1.06,0,0,0,1.75.46c.72-.84,1.17-1.87,2.4-2a1.43,1.43,0,0,1,1.6,1.84c-.18.92-1,1.76-2,1.12a1.7,1.7,0,0,1-.28-2.66c.63-.5-.18-1.52-.86-1.1Zm7.43-1.17a3.6,3.6,0,0,0-1.92,4.63c.9,2.35,3.91,2.25,5.41.54a3.28,3.28,0,0,0,.77-3.1,3.06,3.06,0,0,0-2.69-1.81,4.73,4.73,0,0,0-3.21.83c-.92.66-1.81,1.84-1,2.86a.81.81,0,0,0,.77.21c.6-.12.82-.65,1.23-1a2.43,2.43,0,0,1,1.42-.7c1-.13,1.89.34,1.1,1.33a1.42,1.42,0,0,1-2.4.07A2.22,2.22,0,0,1,61,61.21c.41-.23.13-.94-.33-.77ZM68.1,34c-.55,3.37-1,6.95.8,10.07,1.42,2.5,4.89,5,7.62,2.93a1.41,1.41,0,0,0-.29-2.2c-.8-.52-1.76-.68-2.55-1.21a5.55,5.55,0,0,1-1.85-2.06c-1.09-2.12-.87-4.84-.81-7.14,0-1.63-2.65-2.07-2.92-.4Zm7.71,3A5.58,5.58,0,0,0,82,35.43a1.46,1.46,0,0,0,.11-1.89,1.42,1.42,0,0,0-1.87-.37,4.36,4.36,0,0,1-3.68,1.09,1.38,1.38,0,0,0-.74,2.65Z" /></svg>