<svg xmlns="http://www.w3.org/2000/svg" viewBox="0 0 96 95"><path d="M1.2,41.76A34.55,34.55,0,0,0,8.3,33.1l-3.22-.87c.08,6.91.09,13.78-.16,20.69-.09,2.6,3.77,2.52,4,0a95.8,95.8,0,0,0-.44-21.14c-.25-1.8-2.87-1.47-3.33,0a21.78,21.78,0,0,1-4.95,9A.7.7,0,0,0,1.2,41.76Zm16.06-5.62C17,42.39,17,50,23.14,53.54a8.17,8.17,0,0,0,7.87.39c2.75-1.47,4.24-4.56,5.32-7.34a29,29,0,0,0,0-20.94c-1.08-2.69-2.89-5.46-5.69-6.58-3.22-1.29-6.13.5-8.57,2.5-5.58,4.58-9.7,12-9.29,19.35.08,1.39,2.35,1.9,2.6.36.81-5.1,2.33-10.1,5.64-14.18,1.58-2,3.8-4.43,6.26-5.24s4.45,1.41,5.56,3.35c2.84,5,3.36,11.48,2.21,17-.95,4.52-3.54,11.92-9.55,10C18.75,50,18.64,42,18.8,36.14,18.82,35.15,17.32,35.16,17.26,36.14Zm31.06-.08A18.82,18.82,0,0,0,59,21.74,1.54,1.54,0,0,0,56.73,20c-1.63,1-2,2.66-2.29,4.4q-.59,3.55-.95,7.14c-.49,4.82-.85,9.73,0,14.51.31,1.73,2.73,1.13,2.87-.39.37-4,.19-8,.38-12.06.1-2,.24-3.92.44-5.87.1-1,.21-2,.35-3,.09-.64.1-1.77.74-2.12L56,20.94a17.76,17.76,0,0,1-9,12.92c-1.46.79-.18,2.89,1.28,2.2Zm26-29.56c-3.66,1.53-6,4.8-7.17,8.48a42.15,42.15,0,0,0-1.93,14,17.77,17.77,0,0,0,4.33,11.73,11.7,11.7,0,0,0,10.58,3.86C89.42,43,93.64,32,95.15,23.91,96.49,16.68,97.49,2.62,88,.23,83-1,78.65,3,75.34,6.1A44,44,0,0,0,66.1,18.22a1.45,1.45,0,0,0,2.5,1.45,68,68,0,0,1,6.86-8.74C77.82,8.41,80.7,5.34,84,4c3.59-1.49,6.51,1.24,7.51,4.55,1.09,3.57.94,7.65.55,11.32a38.89,38.89,0,0,1-3,11.3c-1.44,3.3-3.4,6.63-6.62,8.46-6.59,3.76-12.32-2.15-13.62-8.39-.89-4.27-.41-9,.24-13.25.6-4,2-8.07,6-9.84.92-.41.25-2-.7-1.65ZM26.66,77.56a24.75,24.75,0,0,0,5.47-11.35l-2.77-.76A90.34,90.34,0,0,0,28.43,78,43.4,43.4,0,0,0,29.8,90.4a1.27,1.27,0,0,0,2.48-.33c0-4-.53-8.06-.62-12.11a92.74,92.74,0,0,1,.52-12.13c.17-1.59-2.53-2-2.82-.38a20.81,20.81,0,0,1-4.83,10c-1.27,1.45.88,3.59,2.13,2.12ZM50.05,61.62c-3.87-.3-5.8,3.93-6.64,7a25.33,25.33,0,0,0,.05,12.88c1.83,7,9,17.44,17.38,11.91,3.54-2.35,5.4-6.44,6.52-10.39a65.34,65.34,0,0,0,2-14.93c.22-4.59.25-9.41-1.5-13.74-1.5-3.7-4.54-7.4-9-6.2-2.31.62-4.22,2.3-6,3.85a47.75,47.75,0,0,0-5.3,5.62,45.8,45.8,0,0,0-7.5,13.24C39.58,72.47,42.2,73.6,42.9,72A55.39,55.39,0,0,1,55.43,54.15,12.43,12.43,0,0,1,59.5,51.2c1.93-.69,3.48.36,4.57,1.92,2.13,3.07,2.5,7.17,2.52,10.8A79,79,0,0,1,65.76,76,30.61,30.61,0,0,1,62.48,86.8c-1.51,2.62-4,5.18-7.3,4.59S49.51,87.45,48,84.65A23.28,23.28,0,0,1,45.39,73.1c.09-2.84.58-9.74,4.66-9.74a.88.88,0,0,0,0-1.75ZM76.72,65.5A39.73,39.73,0,0,0,84,52.8l-3.37-.93a92.36,92.36,0,0,0-1.31,11.72,55,55,0,0,0,.33,11.75c.3,1.89,3.16,1.33,3.23-.44.14-3.77-.08-7.54.08-11.31s.6-7.51,1.1-11.25c.27-2-2.89-2.28-3.43-.47a37.74,37.74,0,0,1-6.07,12c-.92,1.21,1.13,2.79,2.12,1.63Z" /></svg>