<svg xmlns="http://www.w3.org/2000/svg" viewBox="-12 0 68.72 90"><path d="M.3,46.44C1.69,49.59,6,50.05,8.54,48.09a7.27,7.27,0,0,0,2.64-4.44c.3-1.62.27-3.64-1.49-4.4C5.6,37.46,3.43,43.78,3,46.63a16.14,16.14,0,0,0,.17,6c.39,1.75,1.06,3.7,2.79,4.53,1.9.91,4.11.24,5.88-.65a12.18,12.18,0,0,0,5-4.57.82.82,0,0,0-1.28-1c-1.79,1.94-4.2,3.86-6.84,4.4a2.44,2.44,0,0,1-3-1.36,11.33,11.33,0,0,1-1-4.13,13.48,13.48,0,0,1,.39-4.29,9.23,9.23,0,0,1,1.89-4A1.73,1.73,0,0,1,8.6,40.9c.69.16.74.79.71,1.4A6.29,6.29,0,0,1,8,45.7c-1.53,2-4.91,2.31-6.09-.21-.52-1.11-2.12-.14-1.64.95ZM20.35,3.89C17.73.28,12.71-.77,8.57.54,3.64,2.1.81,6.74.16,11.65c-1.55,11.84,8.47,21.13,16,28.77S32.09,56.11,35,66.79A18.53,18.53,0,0,1,35.5,76a13.39,13.39,0,0,1-4.6,7.21c-4.12,3.54-10.34,5.26-15.34,2.53-4.31-2.36-6.62-7.48-4.07-12a6.71,6.71,0,0,1,5.1-3.54,6.94,6.94,0,0,1,5.81,2.45,6.25,6.25,0,0,1,1.26,2.77,1.1,1.1,0,0,0,2.14-.29c-.38-5-5.94-8.35-10.72-7.26-5.19,1.19-8,7-7.23,12,.91,5.48,6.14,9.43,11.46,10.09,6.26.77,12.65-2.52,16.35-7.46,4-5.38,3.61-12.37,1.46-18.41a48.41,48.41,0,0,0-8.83-14.65c-3.72-4.44-7.92-8.46-12-12.56-4.26-4.28-8.7-8.68-11.58-14C2.07,17.85,1.14,11.76,4,6.7A9.8,9.8,0,0,1,9.58,2a9.4,9.4,0,0,1,6.9.33,7.35,7.35,0,0,1,2.68,2.3c.5.72,1.71,0,1.19-.7Z" /></svg>