<svg xmlns="http://www.w3.org/2000/svg" viewBox="0 0 65.17 90"><path d="M6.94.19C0,8.37,2.12,19.74,7,28.37,11.61,36.66,18.4,43.54,25,50.25s13.1,13.06,17.9,21a49.72,49.72,0,0,1,3.18,6.1c.86,2,2.41,4.9.93,6.89-1.21,1.62-3.45,2.27-5.33,2.64a22,22,0,0,1-6.48.23,26.36,26.36,0,0,1-12.9-5.17,25.43,25.43,0,0,1-8.52-11.58.75.75,0,0,0-1.44.4c1.93,8.6,9.61,15.38,17.76,18a25,25,0,0,0,13.26.64,10.25,10.25,0,0,0,5.74-3.2c1.8-2.22,1.51-4.91.56-7.44-6.9-18.3-24.26-29.34-36-44.18-3.75-4.74-7.17-10-8.76-15.85S3.81,6,7.73,1C8.16.43,7.41-.37,6.94.19ZM1.33,41.82A36.17,36.17,0,0,1,16.85,22.06a34.14,34.14,0,0,1,11.71-4.55c2.55-.47,5.43-.76,7.83.44a11.11,11.11,0,0,1,4.55,4.94A26.07,26.07,0,0,1,38.6,50.34C33.45,57.1,24.78,61.63,16.16,60.45A14.56,14.56,0,0,1,9.72,58a8.41,8.41,0,0,1-2.45-2.52,2.87,2.87,0,0,1,.86-3.64c4-3.71,10.41-1.52,14.34,1.12.76.51,1.72-.71,1-1.28-3.9-3-9.42-4.91-14.22-2.89-2.16.91-4.39,2.79-4.56,5.3s1.84,4.57,3.63,6c8.2,6.46,20.11,3.22,27.56-2.74a28.6,28.6,0,0,0,9.48-29.65c-1.32-4.83-4-10.46-9.11-12.21-2.7-.94-5.69-.58-8.43-.05a34.66,34.66,0,0,0-6.9,2.13A36.13,36.13,0,0,0,0,41.46.68.68,0,0,0,1.33,41.82ZM46.05,41a2.85,2.85,0,0,0-.29,3.12,2.63,2.63,0,0,0,2.66,1.06c2.81-.41,3.11-3.5,2.88-5.78l-2.23.3c.55,2.56,1,5.15,1.39,7.75.18,1.16.36,2.32.47,3.49s.25,2.63-.55,3.54c-.49.54-1.45,1-2.08.44s-.7-2.17-.68-3.07a10.3,10.3,0,0,1,1.91-5.55,14.45,14.45,0,0,1,4.53-4.19,19.36,19.36,0,0,1,2.85-1.31,3.34,3.34,0,0,0,1.8-1.39c.72-1.44-.76-2.64-2.13-2.17s-2,2.52-2.18,3.92c-.22,1.94.69,3.73,2.87,3.69,2.48-.05,5.16-1.3,7.3-2.45,1.38-.75.14-2.88-1.24-2.11a17.56,17.56,0,0,1-6.21,2.38c-1,.1-1.08-.84-1-1.65a7.76,7.76,0,0,1,.2-1.05,2.82,2.82,0,0,1,.18-.61.7.7,0,0,1,.42-.57c.25-.28.34-.25.26.1-.29.56-1.82.85-2.39,1.1a15.82,15.82,0,0,0-2.38,1.32A16.52,16.52,0,0,0,48.53,45,12.17,12.17,0,0,0,46,54.75a3.25,3.25,0,0,0,3.46,2.77,4.3,4.3,0,0,0,3.65-3.17c.69-2.24,0-4.85-.34-7.1-.43-2.73-1-5.45-1.53-8.16-.25-1.23-2.35-1-2.22.3.1,1,.37,2.58-.48,3.34a1.24,1.24,0,0,1-1.06.32c-.52-.22-.49-1.34-.55-1.81a.48.48,0,0,0-.89-.24Z" /></svg>