<svg xmlns="http://www.w3.org/2000/svg" viewBox="0 0 73.04 88.8"><path d="M29.47,9.43a29.75,29.75,0,0,0-21.28,10A33.21,33.21,0,0,0,.05,39.69,35.43,35.43,0,0,0,5.54,60.74,35.68,35.68,0,0,0,22.17,74.18,36.43,36.43,0,0,0,43.76,76,37.71,37.71,0,0,0,62.15,65.52c11-11.34,15-29.73,5.67-43.34C59,9.26,41.51,4.52,27,9.74a20,20,0,0,0-4.8,2.58c-.75.54.07,1.55.83,1.27a51.07,51.07,0,0,1,10-2.88,35.27,35.27,0,0,1,10.31,0,33,33,0,0,1,18.62,9,27.72,27.72,0,0,1,8.24,20.77,34.47,34.47,0,0,1-7.09,19.6C55,70.81,41.33,76.33,28.11,73.27a34.55,34.55,0,0,1-17.26-9.73,32.11,32.11,0,0,1-8.37-18.3A33.18,33.18,0,0,1,6.22,25.47,30.61,30.61,0,0,1,24,11.12a25.92,25.92,0,0,1,5.53-.95c.41,0,.38-.76,0-.74ZM28.38,88.74c1,.23,1.41-.28,2-1A19.15,19.15,0,0,0,32.28,85a18.45,18.45,0,0,0,2.3-6l-2.29.13c.63,3.64,2.73,8.53,6.83,9.26a.94.94,0,0,0,.78-1.54c-1.11-1.23-2.5-2.13-3.51-3.47a9.06,9.06,0,0,1-1.83-4.69c-.09-1.21-1.83-1.14-2.22-.17a40.77,40.77,0,0,1-2.67,6c-.36.6-3.1,3.87-1.29,4.29ZM46.93.37c-1.2,1.83-2.69,3.82-3.15,6a1,1,0,0,0,1.81.94C47,5.6,47.73,3.23,48.47,1.17a.88.88,0,0,0-1.54-.8Zm1.39,13.94c8.5,10.89,11.57,25.26,7.25,38.51a50,50,0,0,1-5.09,10.83.68.68,0,0,0,1.11.77c8.71-11.54,9.71-27.78,3.82-40.79A38.35,38.35,0,0,0,49,13.77a.41.41,0,0,0-.62.54Zm-11.4-2.59c-7.07,1.56-11.77,7.46-14.75,13.72-3.79,8-6.16,17.12-5.12,26a25,25,0,0,0,5,12.8c.51.64,1.64-.07,1.23-.81a34.11,34.11,0,0,1-3.72-22.95A62.63,62.63,0,0,1,23.17,28a39.48,39.48,0,0,1,4.75-8.82c2.35-3.15,5.27-5.78,9.13-6.83.4-.11.29-.74-.13-.65ZM7.9,37.24c12.81,8.08,28.93,11.06,43.89,9.61a59.2,59.2,0,0,0,13-2.6c.48-.16.38-.89-.15-.78a95.4,95.4,0,0,1-22.42,2.05,80.58,80.58,0,0,1-22.14-4A112.11,112.11,0,0,1,8.18,36.69c-.32-.16-.58.36-.28.55Z" /></svg>