<svg xmlns="http://www.w3.org/2000/svg" viewBox="0 0 72 90"><path d="M1.09,66.45c4.59-2.08,9.17-4.15,13.78-6.18l-1.34-.54A76.58,76.58,0,0,0,30.89,89.65a1.23,1.23,0,0,0,2-1.19Q25.89,66,18,43.9q-2.21-6.21-4.49-12.4L12.88,33A308.34,308.34,0,0,1,55.16,7.83c4.15-2,8.34-4,12.52-6,1-.47.29-2.22-.77-1.81A220.24,220.24,0,0,0,44.5,10.51Q33.52,16.27,23.1,23q-5.85,3.75-11.51,7.77A1.32,1.32,0,0,0,11,32.18c5.41,14.71,10.5,29.53,15.46,44.39,1.4,4.18,2.77,8.35,4.12,12.54l2-1.19A79.71,79.71,0,0,1,15.3,59.24.94.94,0,0,0,14,58.7c-4.51,2.2-9,4.36-13.58,6.52-.84.39-.11,1.6.72,1.23ZM20.5,35.06A24.27,24.27,0,0,0,28.23,43a25.87,25.87,0,0,0,4.93,2.41,19.18,19.18,0,0,0,2.76.77,5.17,5.17,0,0,0,2.81.05.76.76,0,0,0,.18-1.36,7,7,0,0,0-2.4-.81c-.85-.2-1.68-.46-2.5-.73a23.31,23.31,0,0,1-4.59-2.12,23.57,23.57,0,0,1-7.45-7c-.6-.9-2-.09-1.47.86ZM30.42,32a9.83,9.83,0,0,0-1.93,4.84c-.34,2.15-.47,4.34-.61,6.51a77,77,0,0,0,.1,14c.1.88,1.42.94,1.43,0,.05-4.33-.14-8.65-.05-13q0-3.14.26-6.27c.12-1.89.25-3.88,1.48-5.43.37-.47-.29-1.15-.68-.67Zm11.74,3.86C44.09,34.92,46,34,47.92,33a41.83,41.83,0,0,0,5.64-3c.86-.61.38-2.27-.78-1.84A41.49,41.49,0,0,0,47,31.09c-1.89,1-3.83,2.11-5.73,3.2C40.24,34.88,41.13,36.33,42.16,35.84Zm0-6.55a41.84,41.84,0,0,0,2.21,5.17c.82,1.74,1.6,3.48,2.54,5.15.51.9,2.12.28,1.71-.71-.72-1.75-1.58-3.42-2.43-5.11a39.55,39.55,0,0,0-2.74-5c-.43-.63-1.53-.27-1.29.54ZM56.42,16.77A79.06,79.06,0,0,0,63,21.9c1.11.79,2.25,1.55,3.39,2.28,1,.64,2.53,2,3.77,1.55a1.06,1.06,0,0,0,.72-1.26c-.2-1.24-2-1.9-3-2.49s-2.21-1.39-3.3-2.12c-2.22-1.49-4.36-3.09-6.47-4.73-1.14-.89-2.78.63-1.64,1.64ZM69.62,11a69.45,69.45,0,0,1-.21,14.84A70.24,70.24,0,0,1,65.8,40.28c-.39,1.12,1.46,1.92,2,.82A51,51,0,0,0,71,10.85c-.16-.78-1.47-.62-1.4.18ZM36.43,59.65a137,137,0,0,1,11.7-8.19c2-1.21,4.1-2.35,6.21-3.39a57.94,57.94,0,0,0,6.45-3.23,1,1,0,0,0-.73-1.72,25.62,25.62,0,0,0-6.68,2.71C51.19,47,49,48.16,47,49.46a66.82,66.82,0,0,0-11.58,8.82c-.68.68.25,2,1.06,1.37Zm9.59,3a44.52,44.52,0,0,0,6.89-3c1.1-.6,2.17-1.25,3.21-1.94s2.06-1.58,3.15-2.28l-.88-1.5c-3.21,2.33-5.48,6.07-6.88,9.7-.35.92.84,1.68,1.6,1.23A21.88,21.88,0,0,1,57,62.93c1.17-.4,2.84-1.08,4.09-.82,2.18.46,1.68,3.94,1.22,5.42-1.5,4.78-6.42,7.59-11.22,7.78a24.56,24.56,0,0,1-9.57-1.85c-1.3-.5-2.21,1.64-.95,2.24,6.06,2.86,13.7,3.48,19.29-.8a13,13,0,0,0,4.8-7c.63-2.49.53-6.07-2-7.55-1.6-.94-3.63-.37-5.29.12A22.48,22.48,0,0,0,52,62.9l1.6,1.22A22.93,22.93,0,0,1,56,59.36a40.72,40.72,0,0,1,3.41-4.16c.73-.83-.43-2-1.23-1.22a27.55,27.55,0,0,1-6,4.11,42,42,0,0,1-6.62,3c-1,.34-.54,1.84.41,1.51Z" /></svg>