<svg xmlns="http://www.w3.org/2000/svg" viewBox="0 0 88.29 81.35"><path d="M39.73,1.27C44.08,5.06,47.06,10.11,47,16c0,5.48-2,10.8-3.16,16.1-2.34,10.62-3.46,21.73-1.42,32.48,1.11,5.88,3.13,11.78,7,16.42.78.93,2.11-.27,1.62-1.25a63,63,0,0,1-5.69-15.12,63.05,63.05,0,0,1-1-16.4,104.92,104.92,0,0,1,2.38-16.63c1.18-5.38,3.08-10.82,2.73-16.4C49.09,9.2,45.92,3.15,40.62.1c-.72-.42-1.55.61-.9,1.17Zm15.7,28.65c11,1.25,22,4.73,30.13,12.51,1.47,1.41,3.72-.85,2.24-2.27-8.73-8.39-20.54-12.07-32.35-13.42C53.41,26.5,53.41,29.68,55.43,29.92ZM.05,7.75C2,15.67,8.35,21.61,15.6,24.85S31,28.83,39,29.11c2.05.07,2.07-3.11,0-3.18-7.27-.25-14.74-.77-21.49-3.68S4.89,14.22,3.13,7C2.65,5-.43,5.77.05,7.75ZM31.13,21.9c3.56-2.24,7.37-4.13,10.88-6.44.66-.44.27-1.67-.56-1.37a37.89,37.89,0,0,0-11,6.92c-.5.42.15,1.24.69.89ZM22,21.26a49.19,49.19,0,0,1,10.12-8.18c3.73-2.27,7.62-3.7,11.5-5.52.66-.31.18-1.22-.46-1.12-4.26.74-8.46,3-12,5.34a51.83,51.83,0,0,0-10,8.57c-.56.62.34,1.51.92.91Zm-7.54-5.7C17.62,11,21.68,7.63,26.07,4.35a.88.88,0,0,0-.88-1.52C20.14,5.46,16.07,10,13.06,14.76c-.56.89.82,1.64,1.4.8ZM48.26,44.74a37.17,37.17,0,0,0,10.86-6.83c.62-.58-.32-1.51-.94-.93A43.37,43.37,0,0,1,48,44.28c-.31.16,0,.58.26.45ZM47.25,57c7.9-2.81,14.89-8.64,18.16-16.46.42-1-.94-1.87-1.51-.86A36,36,0,0,1,46.65,55.52c-.82.34-.25,1.75.6,1.45ZM52,69.75a45.67,45.67,0,0,0,12.75-9.63c3.65-4,6.77-8.47,8.19-13.58a.89.89,0,0,0-1.62-.66c-2.59,4.42-5,8.88-8.29,12.84A52.37,52.37,0,0,1,51.59,69a.45.45,0,0,0,.45.77Z" /></svg>