<svg xmlns="http://www.w3.org/2000/svg" viewBox="0 0 90 76.33"><path d="M22,32.34A242.21,242.21,0,0,0,37.07,75.46a1.71,1.71,0,0,0,2,.79C53.83,70.13,67.22,58.08,71,42,74.41,27.9,68.65,11.18,55.77,3.7c-14.52-8.44-33.1-1.44-43,10.86a57,57,0,0,0-10.89,24A89.1,89.1,0,0,0,.12,52c-.26,4.46-.25,9.17,1.79,13.26,3.45,6.89,11.67,8.61,18.69,7.4,8.67-1.5,15.33-7.79,22.1-12.91A59.85,59.85,0,0,1,48.26,56a1.12,1.12,0,0,0-1.13-1.93c-7.49,4.16-13.51,10.61-21.3,14.25-5.62,2.63-13.62,3.38-18.74-.76C4,65,2.87,61.07,2.67,57.19A67.83,67.83,0,0,1,3.42,44.7C4.56,36.41,6.93,28.17,11.32,21A38.16,38.16,0,0,1,28.51,5.62c6.82-3,14.66-3.73,21.72-1.13C63,9.16,69.56,23.87,68.46,36.74c-1.27,14.88-12.73,27.12-25.4,33.84a54.64,54.64,0,0,1-5,2.34l1.95.8A268.14,268.14,0,0,1,23.64,31.89a.85.85,0,0,0-1.64.45Zm56.79,9.81a16.28,16.28,0,0,0,3.28-3.79,7.65,7.65,0,0,0,1.44-4.63A2.57,2.57,0,0,0,81,31.42a4,4,0,0,0-3.39,1.83,11.85,11.85,0,0,0-2.46,8.31,5.66,5.66,0,0,0,6.12,4.86c4.19-.27,6.67-3.51,8.58-6.88.59-1-.91-2.32-1.73-1.33-1.73,2.09-3.74,4.91-6.59,5.41s-4.37-1.54-4.3-4.1a11,11,0,0,1,.86-3.79c.41-1,1.48-3.44,3-2.65,1.2.63-.47,3.18-.91,4a14.35,14.35,0,0,1-2.89,3.6C76.28,41.58,77.76,43,78.79,42.15Z" /></svg>