<svg xmlns="http://www.w3.org/2000/svg" viewBox="0 0 74.82 90"><path d="M16.68,11c.31,5.26.57,10.53,1,15.78.18,2,.51,4.36,2.16,5.74a4.33,4.33,0,0,0,5.13.59A1.16,1.16,0,0,0,24.09,31a7.15,7.15,0,0,0-4.85,6.2c-.47,3.49.57,7.24,1.3,10.64C22.06,55,24.07,62,24.85,69.26a57.78,57.78,0,0,1,0,12c-.13,1.14,1.76,1.38,2,.27,1.46-6.59.59-13.4-.72-19.94-1.34-6.7-3.38-13.26-4.53-20-.5-2.92-.5-7.45,3.13-8.38l-.9-2.11c-1.28.8-2.66-.43-3.18-1.57-.8-1.75-.77-3.93-1-5.8-.46-4.25-1-8.5-1.57-12.74-.1-.87-1.45-.92-1.4,0Zm47-6.51a29.35,29.35,0,0,0,1.52,11.54c.6,1.75,1.7,3.45,2,5.27a2.2,2.2,0,0,1-.53,2.14c-.28.27-.94.72-1.33.41-.92-.71-2.6.22-1.78,1.37a23.52,23.52,0,0,1,3.52,8.53c.79,3.33,1.43,6.71,2,10.1a173,173,0,0,1,2,21c.14,3.94.14,7.88.14,11.82,0,1,1.49,1,1.6,0C74.2,62.49,72.59,47.85,69.35,34a29.42,29.42,0,0,0-3.86-9.91l-1.77,1.37A3.37,3.37,0,0,0,68.38,25c1.59-1.67,1.24-4,.42-5.94a50.5,50.5,0,0,1-2.7-6.81,27.76,27.76,0,0,1-.89-7.75C65.24,3.5,63.7,3.52,63.63,4.52ZM10,15.05c1,1.81,2.65,4.76,1.62,6.86-1.21,2.47-4.61,1.3-6.23,0A8.94,8.94,0,0,1,3,18.86c-.49-1-1.12-2.67-.61-3.76s2.38-1.27,3.46-1.51c1.64-.36,3.29-.69,4.94-1C24.22,10,37.78,8,51.27,5.76L62.6,3.89A99.44,99.44,0,0,0,74.23,1.65.84.84,0,0,0,74,0,99.41,99.41,0,0,0,62.37,1.6L50.66,3.55,27.25,7.46C19.58,8.74,11.89,10,4.32,11.7A5.8,5.8,0,0,0,.7,13.63a5.12,5.12,0,0,0-.45,4.26,10.7,10.7,0,0,0,5.32,6.92c2.75,1.39,6.72,1.14,8-2.1,1.15-3-.81-6.13-2.6-8.36-.42-.53-1.22.14-.91.7ZM23.15,75.9a4.66,4.66,0,0,0-4.18-4A8.32,8.32,0,0,0,12.57,74c-1.81,1.44-3.78,3.54-4.4,5.92A7.12,7.12,0,0,0,9.58,86c3.38,4.39,9.13,4.33,14.12,3.58,6-.89,11.93-2,17.83-3.36,6.69-1.49,13.35-3.1,20-4.9A.84.84,0,0,0,61,79.73c-10.15,2-20.23,4.4-30.42,6.27-2.51.46-5,.91-7.56,1.29a19.37,19.37,0,0,1-7.16.06c-3.85-.89-7.2-4.7-4.77-8.57a10.82,10.82,0,0,1,5.3-4.4,4.34,4.34,0,0,1,5.19,1.93c.36.69,1.62.41,1.53-.41Zm7.24-55.52c2.29-.79,4.61-1.52,7-2.15s4.74-1.06,7.07-1.74c.85-.25.74-1.69-.22-1.61-4.92.45-9.85,2.27-14.37,4.18-.74.32-.21,1.58.56,1.32Zm3.1,24.7c8-1.18,16.1-2.61,23.69-5.34a.76.76,0,0,0-.4-1.46c-8,1.27-15.84,3.44-23.69,5.33C32.11,43.85,32.55,45.22,33.49,45.08ZM30.64,53.9c3.89-1.5,7.92-2.53,11.88-3.81a.77.77,0,0,0-.41-1.48A47.89,47.89,0,0,0,30.27,53C29.79,53.27,30.13,54.1,30.64,53.9Zm19.47,12L55,65.57A19.63,19.63,0,0,0,59.63,65a.72.72,0,0,0-.19-1.41,19.48,19.48,0,0,0-4.68.43l-4.82.66c-.71.09-.55,1.3.17,1.25Zm2.48,4.73A19.76,19.76,0,0,0,59.23,69c.84-.38.24-1.82-.63-1.49a24,24,0,0,1-6,1.51c-1,.1-1.06,1.72,0,1.63Z" /></svg>