<svg xmlns="http://www.w3.org/2000/svg" viewBox="0 0 13 12.00066">
  <path d="M12.5,3.5H9.46289L9.99219.58936A.50024.50024,0,0,0,9.00781.41064L8.44623,3.5H5.46252L5.9917.58936A.49975.49975,0,1,0,5.0083.41064L4.44659,3.5H1.2251a.5.5,0,0,0,0,1H4.26477l-.54547,3H.5a.5.5,0,0,0,0,1H3.53741L3.0083,11.41016a.49985.49985,0,0,0,.40234.582A.56348.56348,0,0,0,3.50049,12a.49921.49921,0,0,0,.49121-.41016L4.55347,8.5H7.53729l-.529,2.91016a.49985.49985,0,0,0,.40234.582A.56348.56348,0,0,0,7.50049,12a.49921.49921,0,0,0,.49121-.41016L8.55359,8.5h3.2218a.5.5,0,1,0,0-1H8.73547l.54554-3H12.5a.5.5,0,0,0,0-1Zm-4.78088,4H4.73529l.54541-3H8.26447Z" transform="translate(0 0.00066)"/>
</svg>
