<svg fill="currentColor" height="24" viewBox="0 0 24 24" width="24" xmlns="http://www.w3.org/2000/svg">
  <path d="m21.9375 7.51125c-.2112-.23932-.4709-.43097-.7618-.56222-.291-.13125-.6065-.19909-.9257-.19903h-5.25v-1.5c0-.99456-.3951-1.94839-1.0983-2.65165-.7033-.70326-1.6571-1.09835-2.6517-1.09835-.1393-.0001-.2759.03862-.3945.11181s-.2144.17796-.2768.30257l-3.54183 7.08562h-4.03687c-.39782 0-.77936.15804-1.06066.43934s-.43934.66286-.43934 1.06066v8.25c0 .3978.15804.7794.43934 1.0607s.66284.4393 1.06066.4393h16.125c.5482.0002 1.0775-.1997 1.4887-.5622s.6759-.8627.7444-1.4066l1.125-8.99995c.0399-.31685.0119-.63857-.0822-.94375s-.2521-.58684-.4634-.82625zm-18.9375 2.98875h3.75v8.25h-3.75zm17.9944-1.40625-1.125 9.00005c-.0229.1812-.1111.348-.2482.4688-.137.1208-.3135.1875-.4962.1874h-10.875v-8.82281l3.4416-6.88406c.51.10208.969.37777 1.2987.78013s.5098.90654.5097 1.42674v2.25c0 .19891.079.38968.2197.53033.1406.14065.3314.21967.5303.21967h6c.1064-.00004.2116.02258.3087.06634.097.04377.1836.10768.254.18749.0704.0798.123.17369.1543.2754.0314.10171.0407.20893.0274.31452z"/>
</svg>
