<svg width="64" height="64" viewBox="0 0 64 64" fill="none" xmlns="http://www.w3.org/2000/svg">
<rect width="64" height="64" rx="8" fill="#007AFF"/>
<path d="M22.25 32.9995H42.25C42.5152 32.9995 42.7696 32.8942 42.9571 32.7066C43.1446 32.5191 43.25 32.2647 43.25 31.9995V26.9995C43.2515 26.7335 43.1482 26.4775 42.9625 26.287L35.9625 19.287C35.772 19.1013 35.516 18.998 35.25 18.9995H23.25C22.7196 18.9995 22.2109 19.2102 21.8358 19.5853C21.4607 19.9604 21.25 20.4691 21.25 20.9995V31.9995C21.25 32.2647 21.3554 32.5191 21.5429 32.7066C21.7304 32.8942 21.9848 32.9995 22.25 32.9995ZM35.25 21.4995L40.75 26.9995H35.25V21.4995Z" fill="white"/>
<path d="M26.8445 43C26.7711 43 26.7111 42.9767 26.6645 42.93C26.6178 42.8833 26.5945 42.8233 26.5945 42.75V37.39H24.7745C24.7078 37.39 24.6511 37.3667 24.6045 37.32C24.5578 37.2733 24.5345 37.2167 24.5345 37.15V36.25C24.5345 36.1767 24.5578 36.1167 24.6045 36.07C24.6511 36.0233 24.7078 36 24.7745 36H30.0145C30.0878 36 30.1478 36.0233 30.1945 36.07C30.2411 36.1167 30.2645 36.1767 30.2645 36.25V37.15C30.2645 37.2167 30.2411 37.2733 30.1945 37.32C30.1478 37.3667 30.0878 37.39 30.0145 37.39H28.2045V42.75C28.2045 42.8233 28.1811 42.8833 28.1345 42.93C28.0878 42.9767 28.0278 43 27.9545 43H26.8445ZM31.9763 43C31.903 43 31.843 42.9767 31.7963 42.93C31.7497 42.8833 31.7263 42.8233 31.7263 42.75V36.25C31.7263 36.1767 31.7497 36.1167 31.7963 36.07C31.843 36.0233 31.903 36 31.9763 36H33.1063C33.1797 36 33.2397 36.0233 33.2863 36.07C33.333 36.1167 33.3563 36.1767 33.3563 36.25V42.75C33.3563 42.8233 33.333 42.8833 33.2863 42.93C33.2397 42.9767 33.1797 43 33.1063 43H31.9763ZM35.5818 43C35.5085 43 35.4485 42.9767 35.4018 42.93C35.3551 42.8833 35.3318 42.8233 35.3318 42.75V36.25C35.3318 36.1767 35.3551 36.1167 35.4018 36.07C35.4485 36.0233 35.5085 36 35.5818 36H40.0418C40.1151 36 40.1751 36.0233 40.2218 36.07C40.2685 36.1167 40.2918 36.1767 40.2918 36.25V37.1C40.2918 37.1733 40.2685 37.2333 40.2218 37.28C40.1751 37.3267 40.1151 37.35 40.0418 37.35H36.8918V39.04H39.8418C39.9151 39.04 39.9751 39.0633 40.0218 39.11C40.0685 39.1567 40.0918 39.2167 40.0918 39.29V40.14C40.0918 40.2067 40.0685 40.2633 40.0218 40.31C39.9751 40.3567 39.9151 40.38 39.8418 40.38H36.8918V42.75C36.8918 42.8233 36.8685 42.8833 36.8218 42.93C36.7751 42.9767 36.7151 43 36.6418 43H35.5818Z" fill="white"/>
</svg>
