<svg width="18" height="16" viewBox="0 0 18 16" fill="none" xmlns="http://www.w3.org/2000/svg">
<path d="M10.875 3.07812H10.9531V3V1.75C10.9531 1.4392 11.0766 1.14113 11.2964 0.921359C11.5161 0.70159 11.8142 0.578125 12.125 0.578125H15.875C16.1858 0.578125 16.4839 0.70159 16.7036 0.921359C16.9234 1.14113 17.0469 1.4392 17.0469 1.75V5.5C17.0469 5.8108 16.9234 6.10887 16.7036 6.32864C16.4839 6.54841 16.1858 6.67188 15.875 6.67188H12.125C11.8142 6.67188 11.5161 6.54841 11.2964 6.32864C11.0766 6.10887 10.9531 5.8108 10.9531 5.5V4.25V4.17188H10.875H10.25C9.89776 4.17188 9.55995 4.3118 9.31087 4.56087C9.0618 4.80995 8.92188 5.14776 8.92188 5.5V10.5C8.92188 10.8522 9.0618 11.1901 9.31087 11.4391C9.55995 11.6882 9.89776 11.8281 10.25 11.8281H10.875H10.9531V11.75V10.5C10.9531 10.1892 11.0766 9.89113 11.2964 9.67136C11.5161 9.45159 11.8142 9.32812 12.125 9.32812H15.875C16.1858 9.32812 16.4839 9.45159 16.7036 9.67136C16.9234 9.89113 17.0469 10.1892 17.0469 10.5V14.25C17.0469 14.5608 16.9234 14.8589 16.7036 15.0786C16.4839 15.2984 16.1858 15.4219 15.875 15.4219H12.125C11.8142 15.4219 11.5161 15.2984 11.2964 15.0786C11.0766 14.8589 10.9531 14.5608 10.9531 14.25V13V12.9219H10.875H10.25C9.60768 12.9219 8.99166 12.6667 8.53748 12.2125C8.08329 11.7583 7.82812 11.1423 7.82812 10.5V8.625V8.54688H7.75H5.25H5.17188V8.625V9.25C5.17188 9.5608 5.04841 9.85887 4.82864 10.0786C4.60887 10.2984 4.3108 10.4219 4 10.4219H1.5C1.1892 10.4219 0.891128 10.2984 0.671359 10.0786C0.45159 9.85887 0.328125 9.5608 0.328125 9.25V6.75C0.328125 6.4392 0.45159 6.14113 0.671359 5.92136C0.891128 5.70159 1.1892 5.57812 1.5 5.57812H4C4.3108 5.57812 4.60887 5.70159 4.82864 5.92136C5.04841 6.14113 5.17188 6.4392 5.17188 6.75V7.375V7.45312H5.25H7.75H7.82812V7.375V5.5C7.82812 4.85768 8.08329 4.24167 8.53748 3.78748C8.99166 3.33329 9.60768 3.07812 10.25 3.07812H10.875ZM4 9.32812H4.07812V9.25V6.75V6.67188H4H1.5H1.42188V6.75V9.25V9.32812H1.5H4ZM12.125 10.4219H12.0469V10.5V14.25V14.3281H12.125H15.875H15.9531V14.25V10.5V10.4219H15.875H12.125ZM12.125 1.67188H12.0469V1.75V5.5V5.57812H12.125H15.875H15.9531V5.5V1.75V1.67188H15.875H12.125Z" fill="#0C1524" stroke="#0C1524" stroke-width="0.15625"/>
</svg>
