<svg width="20" height="20" viewBox="0 0 20 20" fill="none" xmlns="http://www.w3.org/2000/svg">
<path d="M15.4766 4.89085C15.0245 3.81135 14.2634 2.88955 13.289 2.24125C12.3146 1.59295 11.1704 1.24707 10 1.24707C8.82967 1.24707 7.68542 1.59295 6.71103 2.24125C5.73664 2.88955 4.97558 3.81135 4.52346 4.89085C3.55046 5.34143 2.72589 6.05976 2.14619 6.96182C1.5665 7.86387 1.25565 8.91235 1.25002 9.9846C1.24143 13.0174 3.70002 15.5471 6.72971 15.6252C7.64621 15.6491 8.55457 15.4477 9.37502 15.0385V18.1252C9.37502 18.291 9.44087 18.45 9.55808 18.5672C9.67529 18.6844 9.83426 18.7502 10 18.7502C10.1658 18.7502 10.3248 18.6844 10.442 18.5672C10.5592 18.45 10.625 18.291 10.625 18.1252V15.0385C11.4014 15.4257 12.2574 15.6266 13.125 15.6252H13.2703C16.3 15.5471 18.7586 13.019 18.75 9.98616C18.7448 8.91362 18.4341 7.86477 17.8544 6.9624C17.2747 6.06002 16.4499 5.34146 15.4766 4.89085ZM13.2383 14.3752C12.3357 14.4004 11.4477 14.1437 10.6977 13.6408C10.6732 13.6252 10.649 13.6104 10.625 13.5963V10.3862L14.0297 8.6846C14.1032 8.64787 14.1687 8.59703 14.2225 8.53499C14.2763 8.47294 14.3174 8.4009 14.3433 8.32299C14.3693 8.24508 14.3797 8.16281 14.3738 8.08089C14.368 7.99897 14.3461 7.91899 14.3094 7.84553C14.2727 7.77208 14.2218 7.70657 14.1598 7.65276C14.0977 7.59895 14.0257 7.55789 13.9478 7.53191C13.8699 7.50594 13.7876 7.49557 13.7057 7.50139C13.6238 7.50722 13.5438 7.52912 13.4703 7.56585L10.625 8.98928V6.87522C10.625 6.70946 10.5592 6.55049 10.442 6.43328C10.3248 6.31607 10.1658 6.25022 10 6.25022C9.83426 6.25022 9.67529 6.31607 9.55808 6.43328C9.44087 6.55049 9.37502 6.70946 9.37502 6.87522V10.8643L6.52971 9.44085C6.38135 9.36667 6.20961 9.35446 6.05225 9.40691C5.8949 9.45937 5.76482 9.57218 5.69065 9.72053C5.61647 9.86889 5.60426 10.0406 5.65672 10.198C5.70917 10.3553 5.82198 10.4854 5.97033 10.5596L9.37502 12.2612V13.594C9.35054 13.608 9.32632 13.6229 9.30237 13.6385C8.55246 14.1418 7.66455 14.3992 6.76174 14.3752C5.77364 14.3505 4.82301 13.992 4.06472 13.358C3.30643 12.724 2.78517 11.8519 2.58586 10.8838C2.38655 9.91569 2.52093 8.90862 2.96712 8.02664C3.4133 7.14467 4.14499 6.43977 5.04299 6.02678C5.327 5.89666 5.55155 5.66429 5.6719 5.376C6.02865 4.5234 6.62949 3.79528 7.39888 3.28318C8.16827 2.77109 9.07188 2.49786 9.99612 2.49786C10.9204 2.49786 11.824 2.77109 12.5934 3.28318C13.3627 3.79528 13.9636 4.5234 14.3203 5.376C14.4407 5.66429 14.6652 5.89666 14.9492 6.02678C15.8472 6.43977 16.5789 7.14467 17.0251 8.02664C17.4713 8.90862 17.6057 9.91569 17.4064 10.8838C17.2071 11.8519 16.6858 12.724 15.9275 13.358C15.1692 13.992 14.2186 14.3505 13.2305 14.3752H13.2383Z" fill="currentColor"/>
</svg>
