<svg width="64" height="64" viewBox="0 0 64 64" fill="none" xmlns="http://www.w3.org/2000/svg">
<rect width="64" height="64" rx="8" fill="#007AFF"/>
<path d="M22.25 32.9995H42.25C42.5152 32.9995 42.7696 32.8942 42.9571 32.7066C43.1446 32.5191 43.25 32.2647 43.25 31.9995V26.9995C43.2515 26.7335 43.1482 26.4775 42.9625 26.287L35.9625 19.287C35.772 19.1013 35.516 18.998 35.25 18.9995H23.25C22.7196 18.9995 22.2109 19.2102 21.8358 19.5853C21.4607 19.9604 21.25 20.4691 21.25 20.9995V31.9995C21.25 32.2647 21.3554 32.5191 21.5429 32.7066C21.7304 32.8942 21.9848 32.9995 22.25 32.9995ZM35.25 21.4995L40.75 26.9995H35.25V21.4995Z" fill="white"/>
<path d="M24.9792 43C24.9059 43 24.8459 42.9767 24.7992 42.93C24.7526 42.8833 24.7292 42.8233 24.7292 42.75V37.39H22.9092C22.8426 37.39 22.7859 37.3667 22.7392 37.32C22.6926 37.2733 22.6692 37.2167 22.6692 37.15V36.25C22.6692 36.1767 22.6926 36.1167 22.7392 36.07C22.7859 36.0233 22.8426 36 22.9092 36H28.1492C28.2226 36 28.2826 36.0233 28.3292 36.07C28.3759 36.1167 28.3992 36.1767 28.3992 36.25V37.15C28.3992 37.2167 28.3759 37.2733 28.3292 37.32C28.2826 37.3667 28.2226 37.39 28.1492 37.39H26.3392V42.75C26.3392 42.8233 26.3159 42.8833 26.2692 42.93C26.2226 42.9767 26.1626 43 26.0892 43H24.9792ZM29.4811 43C29.4211 43 29.3711 42.98 29.3311 42.94C29.2911 42.8933 29.2711 42.8433 29.2711 42.79C29.2711 42.77 29.2744 42.75 29.2811 42.73C29.2878 42.71 29.2944 42.69 29.3011 42.67L31.5111 39.43L29.4511 36.33C29.4311 36.29 29.4211 36.25 29.4211 36.21C29.4211 36.1567 29.4411 36.11 29.4811 36.07C29.5211 36.0233 29.5711 36 29.6311 36H30.8611C30.9478 36 31.0144 36.0233 31.0611 36.07C31.1144 36.1167 31.1544 36.16 31.1811 36.2L32.5211 38.19L33.8711 36.2C33.8978 36.16 33.9378 36.1167 33.9911 36.07C34.0444 36.0233 34.1144 36 34.2011 36H35.3711C35.4244 36 35.4711 36.0233 35.5111 36.07C35.5578 36.11 35.5811 36.1567 35.5811 36.21C35.5811 36.2567 35.5678 36.2967 35.5411 36.33L33.4811 39.42L35.7011 42.67C35.7144 42.69 35.7211 42.71 35.7211 42.73C35.7278 42.75 35.7311 42.77 35.7311 42.79C35.7311 42.8433 35.7111 42.8933 35.6711 42.94C35.6311 42.98 35.5811 43 35.5211 43H34.2511C34.1644 43 34.0944 42.9767 34.0411 42.93C33.9944 42.8833 33.9578 42.8433 33.9311 42.81L32.4711 40.71L31.0211 42.81C31.0011 42.8433 30.9644 42.8833 30.9111 42.93C30.8644 42.9767 30.7944 43 30.7011 43H29.4811ZM38.9089 43C38.8356 43 38.7756 42.9767 38.7289 42.93C38.6822 42.8833 38.6589 42.8233 38.6589 42.75V37.39H36.8389C36.7722 37.39 36.7156 37.3667 36.6689 37.32C36.6222 37.2733 36.5989 37.2167 36.5989 37.15V36.25C36.5989 36.1767 36.6222 36.1167 36.6689 36.07C36.7156 36.0233 36.7722 36 36.8389 36H42.0789C42.1522 36 42.2122 36.0233 42.2589 36.07C42.3056 36.1167 42.3289 36.1767 42.3289 36.25V37.15C42.3289 37.2167 42.3056 37.2733 42.2589 37.32C42.2122 37.3667 42.1522 37.39 42.0789 37.39H40.2689V42.75C40.2689 42.8233 40.2456 42.8833 40.1989 42.93C40.1522 42.9767 40.0922 43 40.0189 43H38.9089Z" fill="white"/>
</svg>
