<svg fill="currentColor" height="24" viewBox="0 0 24 24" width="24" xmlns="http://www.w3.org/2000/svg">
  <path d="m13.5003 7.50063c0-.19891.079-.38968.2197-.53033s.3314-.21967.5303-.21967h9c.1989 0 .3897.07902.5304.21967.1406.14065.2196.33142.2196.53033s-.079.38968-.2196.53033c-.1407.14065-.3315.21967-.5304.21967h-9c-.1989 0-.3896-.07902-.5303-.21967s-.2197-.33142-.2197-.53033zm9.75 3.74997h-9c-.1989 0-.3896.079-.5303.2197s-.2197.3314-.2197.5303.079.3897.2197.5304c.1407.1406.3314.2196.5303.2196h9c.1989 0 .3897-.079.5304-.2196.1406-.1407.2196-.3315.2196-.5304s-.079-.3896-.2196-.5303c-.1407-.1407-.3315-.2197-.5304-.2197zm0 4.5h-6.75c-.1989 0-.3896.079-.5303.2197s-.2197.3314-.2197.5303.079.3897.2197.5304c.1407.1406.3314.2196.5303.2196h6.75c.1989 0 .3897-.079.5304-.2196.1406-.1407.2196-.3315.2196-.5304s-.079-.3896-.2196-.5303c-.1407-.1407-.3315-.2197-.5304-.2197zm-9.0234 2.0625c.0245.0954.03.1948.0161.2923s-.0468.1914-.0969.2762c-.0502.0848-.1166.1588-.1953.218-.0788.0591-.1685.1022-.2639.1267-.0611.0164-.1242.0246-.1875.0243-.1663.0001-.328-.0551-.4595-.1569-.1315-.1019-.2255-.2445-.2671-.4056-.5775-2.2443-2.84435-3.9375-5.27341-3.9375s-4.69594 1.6922-5.27344 3.9375c-.04972.1927-.17396.3578-.34538.4589s-.37598.1299-.56868.0802c-.19269-.0497-.357744-.174-.458838-.3454s-.129951-.376-.080223-.5687c.524061-2.0353 2.047501-3.6834 3.980621-4.5-.74434-.5733-1.29057-1.3652-1.56207-2.2647-.27151-.8994-.25467-1.86131.04815-2.75072s.87643-1.66172 1.64038-2.20864c.76396-.54691 1.67994-.84099 2.61948-.84099.93955 0 1.85553.29408 2.61951.84099.7639.54692 1.3375 1.31923 1.6404 2.20864.3028.88941.3196 1.85132.0481 2.75072-.2715.8995-.8177 1.6914-1.5621 2.2647 1.9341.8166 3.4575 2.4647 3.9816 4.5zm-6.72657-5.0625c.59334 0 1.17336-.1759 1.66671-.5056.49335-.3296.87786-.7981 1.10496-1.3463.227-.5482.2864-1.1514.1707-1.73334-.1158-.58194-.4015-1.11649-.82105-1.53605-.41956-.41956-.95411-.70528-1.53605-.82103-.58194-.11576-1.18514-.05635-1.73332.17071-.54818.22707-1.01672.61158-1.34636 1.10493s-.50559 1.07337-.50559 1.66671c0 .79567.31607 1.55867.87868 2.12137.56261.5626 1.32567.8786 2.12132.8786z"/>
</svg>
