<svg fill="none" height="24" viewBox="0 0 24 24" width="24" xmlns="http://www.w3.org/2000/svg">
  <g stroke="currentColor" stroke-width="1.5">
    <path d="m16.25 8.19048c0 1.5558-.5124 3.10612-1.3261 4.25282-.8193 1.1544-1.8679 1.8067-2.9239 1.8067s-2.10462-.6523-2.9239-1.8067c-.81372-1.1467-1.3261-2.69702-1.3261-4.25282 0-1.63937.30338-3.00831.95893-3.94831.6231-.89348 1.62827-1.49217 3.29107-1.49217s2.668.59869 3.2911 1.49217c.6555.94.9589 2.30894.9589 3.94831z" />
    <path d="m20.25 19.8571c0 .0505-.0117.188-.3486.394-.3447.2109-.9032.4057-1.6858.5636-1.5525.3132-3.7411.4353-6.2156.4353-2.47448 0-4.6631-.1221-6.21563-.4353-.78257-.1579-1.34103-.3527-1.68577-.5636-.3369-.206-.3486-.3435-.3486-.394 0-.1151.08211-.38.47794-.7618.37812-.3647.95984-.7526 1.72428-1.108 1.52484-.7089 3.66631-1.2373 6.04778-1.2373 2.3815 0 4.5229.5284 6.0478 1.2373.7644.3554 1.3461.7433 1.7243 1.108.3958.3818.4779.6467.4779.7618z" />
  </g>
</svg>
