<svg fill="currentColor" height="24" viewBox="0 0 24 24" width="24" xmlns="http://www.w3.org/2000/svg">
  <path d="m15.4163 9.87562-4.5-3c-.113-.07537-.2444-.11866-.38-.12523-.1357-.00657-.2706.02382-.3903.08792s-.2198.15951-.28955.27605-.10654.24983-.10645.38564v6c-.00009.1358.0367.2691.10645.3856.06975.1166.16985.212.28955.2761s.2546.0945.3903.0879c.1356-.0066.267-.0498.38-.1252l4.5-3c.1028-.0685.1872-.1613.2455-.2702.0584-.109.0889-.2306.0889-.3542s-.0305-.2452-.0889-.3542c-.0583-.1089-.1427-.20171-.2455-.27018zm-4.1663 2.22278v-3.19215l2.3981 1.59375zm9-8.3484h-16.5c-.39782 0-.77936.15804-1.06066.43934s-.43934.66284-.43934 1.06066v10.5c0 .3978.15804.7794.43934 1.0607s.66284.4393 1.06066.4393h16.5c.3978 0 .7794-.158 1.0607-.4393s.4393-.6629.4393-1.0607v-10.5c0-.39782-.158-.77936-.4393-1.06066s-.6629-.43934-1.0607-.43934zm0 12h-16.5v-10.5h16.5zm1.5 3.75c0 .1989-.079.3897-.2197.5303-.1406.1407-.3314.2197-.5303.2197h-18c-.19891 0-.38968-.079-.53033-.2197-.14065-.1406-.21967-.3314-.21967-.5303s.07902-.3897.21967-.5303c.14065-.1407.33142-.2197.53033-.2197h18c.1989 0 .3897.079.5303.2197.1407.1406.2197.3314.2197.5303z"/>
</svg>
