<svg xmlns="http://www.w3.org/2000/svg" viewBox="0 0 32 32">
  <path d="M.16854,10.624C.16854,1.87514,2.04368,0,10.79254,0h10.752c8.7489,0,10.624,1.87514,10.624,10.624V21.376c0,8.7489-1.8751,10.624-10.624,10.624h-10.752C2.04368,32,.16854,30.1249.16854,21.376Z" fill="#0576ff"/>
  <path d="M17.11493,22.61169c-7.24041,0-11.37024-4.96372-11.54232-13.22337H9.19944c.11914,6.06237,2.79293,8.63026,4.91078,9.15973V9.38831h3.415v5.22846c2.0914-.225,4.28866-2.60761,5.02991-5.22846h3.41506a10.08627,10.08627,0,0,1-4.64605,6.59183,10.45694,10.45694,0,0,1,5.44028,6.63155H23.00523a6.5389,6.5389,0,0,0-5.48-4.72547v4.72547Z" fill="#fff"/>
</svg>
