<svg xmlns="http://www.w3.org/2000/svg" viewBox="0 0 24 24">
  <path d="M24,12A12,12,0,1,1,12,0,12,12,0,0,1,24,12Z" fill="#07f" fill-rule="evenodd"/>
  <path d="M12.66317,16.5437c-4.65272,0-7.30656-3.18971-7.41714-8.49739H7.57664c.07656,3.8957,1.79475,5.54584,3.15569,5.88608V8.0463h2.19452v3.35983c1.34394-.1446,2.75591-1.67566,3.23224-3.35983h2.19453a6.4815,6.4815,0,0,1-2.98557,4.23594A6.71967,6.71967,0,0,1,18.864,16.5437H16.4483a4.20193,4.20193,0,0,0-3.52145-3.03661V16.5437Z" fill="#fff"/>
</svg>
