<svg xmlns="http://www.w3.org/2000/svg" viewBox="0 0 12.08 19.46"><path d="M6 19a1.89 1.89 0 01-1-.31 1.85 1.85 0 01-.68-.83 1.86 1.86 0 01-.1-1.07 1.83 1.83 0 012.51-1.34 1.84 1.84 0 011.14 1.7 1.85 1.85 0 01-.54 1.31A1.81 1.81 0 016 19zm1.23-7.52v.14A1.23 1.23 0 016 12.81a1.23 1.23 0 01-.87-.36 1.24 1.24 0 01-.36-.87v-1.23a1.23 1.23 0 01.36-.87A1.19 1.19 0 016 9.11a3.14 3.14 0 001.75-.51 3.11 3.11 0 001.13-1.38 3.2 3.2 0 00.18-1.78 3.1 3.1 0 00-.85-1.58A3.06 3.06 0 006.64 3a3 3 0 00-1.78.18A3.07 3.07 0 003 6a1.24 1.24 0 01-.36.87 1.23 1.23 0 01-1.74 0A1.24 1.24 0 01.5 6a5.53 5.53 0 013.14-5 5.61 5.61 0 013-.52 5.58 5.58 0 014.61 3.68 5.59 5.59 0 01.17 3.06 5.55 5.55 0 01-4.17 4.17z" fill="#fff" stroke="none" stroke-miterlimit="10"/></svg>