<svg width="64" height="64" viewBox="0 0 64 64" fill="none" xmlns="http://www.w3.org/2000/svg">
<rect width="64" height="64" rx="8" fill="#007AFF"/>
<path d="M22.25 32.9995H42.25C42.5152 32.9995 42.7696 32.8942 42.9571 32.7066C43.1446 32.5191 43.25 32.2647 43.25 31.9995V26.9995C43.2515 26.7335 43.1482 26.4775 42.9625 26.287L35.9625 19.287C35.772 19.1013 35.516 18.998 35.25 18.9995H23.25C22.7196 18.9995 22.2109 19.2102 21.8358 19.5853C21.4607 19.9604 21.25 20.4691 21.25 20.9995V31.9995C21.25 32.2647 21.3554 32.5191 21.5429 32.7066C21.7304 32.8942 21.9848 32.9995 22.25 32.9995ZM35.25 21.4995L40.75 26.9995H35.25V21.4995Z" fill="white"/>
<path d="M22.7799 43C22.7199 43 22.6699 42.98 22.6299 42.94C22.5899 42.8933 22.5699 42.8433 22.5699 42.79C22.5699 42.77 22.5733 42.75 22.5799 42.73C22.5866 42.71 22.5933 42.69 22.5999 42.67L24.8099 39.43L22.7499 36.33C22.7299 36.29 22.7199 36.25 22.7199 36.21C22.7199 36.1567 22.7399 36.11 22.7799 36.07C22.8199 36.0233 22.8699 36 22.9299 36H24.1599C24.2466 36 24.3133 36.0233 24.3599 36.07C24.4133 36.1167 24.4533 36.16 24.4799 36.2L25.8199 38.19L27.1699 36.2C27.1966 36.16 27.2366 36.1167 27.2899 36.07C27.3433 36.0233 27.4133 36 27.4999 36H28.6699C28.7233 36 28.7699 36.0233 28.8099 36.07C28.8566 36.11 28.8799 36.1567 28.8799 36.21C28.8799 36.2567 28.8666 36.2967 28.8399 36.33L26.7799 39.42L28.9999 42.67C29.0133 42.69 29.0199 42.71 29.0199 42.73C29.0266 42.75 29.0299 42.77 29.0299 42.79C29.0299 42.8433 29.0099 42.8933 28.9699 42.94C28.9299 42.98 28.8799 43 28.8199 43H27.5499C27.4633 43 27.3933 42.9767 27.3399 42.93C27.2933 42.8833 27.2566 42.8433 27.2299 42.81L25.7699 40.71L24.3199 42.81C24.2999 42.8433 24.2633 42.8833 24.2099 42.93C24.1633 42.9767 24.0933 43 23.9999 43H22.7799ZM30.6677 43C30.5944 43 30.5344 42.9767 30.4877 42.93C30.4411 42.8833 30.4177 42.8233 30.4177 42.75V36.25C30.4177 36.1767 30.4411 36.1167 30.4877 36.07C30.5344 36.0233 30.5944 36 30.6677 36H31.7777C31.8511 36 31.9111 36.0233 31.9577 36.07C32.0044 36.1167 32.0277 36.1767 32.0277 36.25V41.66H35.1277C35.2011 41.66 35.2611 41.6833 35.3077 41.73C35.3544 41.7767 35.3777 41.8367 35.3777 41.91V42.75C35.3777 42.8233 35.3544 42.8833 35.3077 42.93C35.2611 42.9767 35.2011 43 35.1277 43H30.6677ZM39.3166 43.1C38.6766 43.1 38.14 43.0067 37.7066 42.82C37.28 42.6333 36.9566 42.39 36.7366 42.09C36.5166 41.79 36.4 41.47 36.3866 41.13C36.3866 41.0767 36.4066 41.03 36.4466 40.99C36.4866 40.9433 36.5366 40.92 36.5966 40.92H37.6666C37.7533 40.92 37.82 40.94 37.8666 40.98C37.9133 41.0133 37.9566 41.0567 37.9966 41.11C38.0433 41.2233 38.1166 41.3333 38.2166 41.44C38.3233 41.5467 38.4666 41.6367 38.6466 41.71C38.8266 41.7767 39.05 41.81 39.3166 41.81C39.75 41.81 40.0733 41.74 40.2866 41.6C40.5066 41.46 40.6166 41.27 40.6166 41.03C40.6166 40.8567 40.5566 40.7167 40.4366 40.61C40.3233 40.5033 40.14 40.4067 39.8866 40.32C39.64 40.2333 39.31 40.14 38.8966 40.04C38.3966 39.9333 37.97 39.7967 37.6166 39.63C37.27 39.4567 37.0066 39.2367 36.8266 38.97C36.6533 38.6967 36.5666 38.36 36.5666 37.96C36.5666 37.56 36.6766 37.2067 36.8966 36.9C37.1166 36.5867 37.4266 36.3433 37.8266 36.17C38.2266 35.99 38.7033 35.9 39.2566 35.9C39.7033 35.9 40.0966 35.96 40.4366 36.08C40.7833 36.2 41.07 36.3567 41.2966 36.55C41.53 36.7433 41.7066 36.95 41.8266 37.17C41.9466 37.39 42.01 37.6033 42.0166 37.81C42.0166 37.8633 41.9966 37.9133 41.9566 37.96C41.9166 38 41.8666 38.02 41.8066 38.02H40.6866C40.62 38.02 40.56 38.0067 40.5066 37.98C40.4533 37.9533 40.41 37.9067 40.3766 37.84C40.3366 37.6667 40.2166 37.5167 40.0166 37.39C39.8233 37.2567 39.57 37.19 39.2566 37.19C38.93 37.19 38.67 37.25 38.4766 37.37C38.29 37.49 38.1966 37.6733 38.1966 37.92C38.1966 38.08 38.2433 38.2167 38.3366 38.33C38.4366 38.4367 38.6 38.5333 38.8266 38.62C39.06 38.7 39.3666 38.79 39.7466 38.89C40.3333 39.01 40.81 39.1533 41.1766 39.32C41.5433 39.4867 41.8133 39.7033 41.9866 39.97C42.16 40.23 42.2466 40.56 42.2466 40.96C42.2466 41.4067 42.12 41.79 41.8666 42.11C41.62 42.43 41.2766 42.6767 40.8366 42.85C40.4033 43.0167 39.8966 43.1 39.3166 43.1Z" fill="white"/>
</svg>
