<svg width="64" height="64" viewBox="0 0 64 64" fill="none" xmlns="http://www.w3.org/2000/svg">
<rect width="64" height="64" rx="8" fill="#007AFF"/>
<path d="M22.25 32.9995H42.25C42.5152 32.9995 42.7696 32.8942 42.9571 32.7066C43.1446 32.5191 43.25 32.2647 43.25 31.9995V26.9995C43.2515 26.7335 43.1482 26.4775 42.9625 26.287L35.9625 19.287C35.772 19.1013 35.516 18.998 35.25 18.9995H23.25C22.7196 18.9995 22.2109 19.2102 21.8358 19.5853C21.4607 19.9604 21.25 20.4691 21.25 20.9995V31.9995C21.25 32.2647 21.3554 32.5191 21.5429 32.7066C21.7304 32.8942 21.9848 32.9995 22.25 32.9995ZM35.25 21.4995L40.75 26.9995H35.25V21.4995Z" fill="white"/>
<path d="M18.7536 43C18.6936 43 18.6436 42.98 18.6036 42.94C18.5636 42.8933 18.5436 42.8433 18.5436 42.79C18.5436 42.77 18.5469 42.75 18.5536 42.73C18.5602 42.71 18.5669 42.69 18.5736 42.67L20.7836 39.43L18.7236 36.33C18.7036 36.29 18.6936 36.25 18.6936 36.21C18.6936 36.1567 18.7136 36.11 18.7536 36.07C18.7936 36.0233 18.8436 36 18.9036 36H20.1336C20.2202 36 20.2869 36.0233 20.3336 36.07C20.3869 36.1167 20.4269 36.16 20.4536 36.2L21.7936 38.19L23.1436 36.2C23.1702 36.16 23.2102 36.1167 23.2636 36.07C23.3169 36.0233 23.3869 36 23.4736 36H24.6436C24.6969 36 24.7436 36.0233 24.7836 36.07C24.8302 36.11 24.8536 36.1567 24.8536 36.21C24.8536 36.2567 24.8402 36.2967 24.8136 36.33L22.7536 39.42L24.9736 42.67C24.9869 42.69 24.9936 42.71 24.9936 42.73C25.0002 42.75 25.0036 42.77 25.0036 42.79C25.0036 42.8433 24.9836 42.8933 24.9436 42.94C24.9036 42.98 24.8536 43 24.7936 43H23.5236C23.4369 43 23.3669 42.9767 23.3136 42.93C23.2669 42.8833 23.2302 42.8433 23.2036 42.81L21.7436 40.71L20.2936 42.81C20.2736 42.8433 20.2369 42.8833 20.1836 42.93C20.1369 42.9767 20.0669 43 19.9736 43H18.7536ZM26.6414 43C26.568 43 26.508 42.9767 26.4614 42.93C26.4147 42.8833 26.3914 42.8233 26.3914 42.75V36.25C26.3914 36.1767 26.4147 36.1167 26.4614 36.07C26.508 36.0233 26.568 36 26.6414 36H27.7514C27.8247 36 27.8847 36.0233 27.9314 36.07C27.978 36.1167 28.0014 36.1767 28.0014 36.25V41.66H31.1014C31.1747 41.66 31.2347 41.6833 31.2814 41.73C31.328 41.7767 31.3514 41.8367 31.3514 41.91V42.75C31.3514 42.8233 31.328 42.8833 31.2814 42.93C31.2347 42.9767 31.1747 43 31.1014 43H26.6414ZM35.2903 43.1C34.6503 43.1 34.1136 43.0067 33.6803 42.82C33.2536 42.6333 32.9303 42.39 32.7103 42.09C32.4903 41.79 32.3736 41.47 32.3603 41.13C32.3603 41.0767 32.3803 41.03 32.4203 40.99C32.4603 40.9433 32.5103 40.92 32.5703 40.92H33.6403C33.7269 40.92 33.7936 40.94 33.8403 40.98C33.8869 41.0133 33.9303 41.0567 33.9703 41.11C34.0169 41.2233 34.0903 41.3333 34.1903 41.44C34.2969 41.5467 34.4403 41.6367 34.6203 41.71C34.8003 41.7767 35.0236 41.81 35.2903 41.81C35.7236 41.81 36.0469 41.74 36.2603 41.6C36.4803 41.46 36.5903 41.27 36.5903 41.03C36.5903 40.8567 36.5303 40.7167 36.4103 40.61C36.2969 40.5033 36.1136 40.4067 35.8603 40.32C35.6136 40.2333 35.2836 40.14 34.8703 40.04C34.3703 39.9333 33.9436 39.7967 33.5903 39.63C33.2436 39.4567 32.9803 39.2367 32.8003 38.97C32.6269 38.6967 32.5403 38.36 32.5403 37.96C32.5403 37.56 32.6503 37.2067 32.8703 36.9C33.0903 36.5867 33.4003 36.3433 33.8003 36.17C34.2003 35.99 34.6769 35.9 35.2303 35.9C35.6769 35.9 36.0703 35.96 36.4103 36.08C36.7569 36.2 37.0436 36.3567 37.2703 36.55C37.5036 36.7433 37.6803 36.95 37.8003 37.17C37.9203 37.39 37.9836 37.6033 37.9903 37.81C37.9903 37.8633 37.9703 37.9133 37.9303 37.96C37.8903 38 37.8403 38.02 37.7803 38.02H36.6603C36.5936 38.02 36.5336 38.0067 36.4803 37.98C36.4269 37.9533 36.3836 37.9067 36.3503 37.84C36.3103 37.6667 36.1903 37.5167 35.9903 37.39C35.7969 37.2567 35.5436 37.19 35.2303 37.19C34.9036 37.19 34.6436 37.25 34.4503 37.37C34.2636 37.49 34.1703 37.6733 34.1703 37.92C34.1703 38.08 34.2169 38.2167 34.3103 38.33C34.4103 38.4367 34.5736 38.5333 34.8003 38.62C35.0336 38.7 35.3403 38.79 35.7203 38.89C36.3069 39.01 36.7836 39.1533 37.1503 39.32C37.5169 39.4867 37.7869 39.7033 37.9603 39.97C38.1336 40.23 38.2203 40.56 38.2203 40.96C38.2203 41.4067 38.0936 41.79 37.8403 42.11C37.5936 42.43 37.2503 42.6767 36.8103 42.85C36.3769 43.0167 35.8703 43.1 35.2903 43.1ZM39.2086 43C39.1486 43 39.0986 42.98 39.0586 42.94C39.0186 42.8933 38.9986 42.8433 38.9986 42.79C38.9986 42.77 39.002 42.75 39.0086 42.73C39.0153 42.71 39.022 42.69 39.0286 42.67L41.2386 39.43L39.1786 36.33C39.1586 36.29 39.1486 36.25 39.1486 36.21C39.1486 36.1567 39.1686 36.11 39.2086 36.07C39.2486 36.0233 39.2986 36 39.3586 36H40.5886C40.6753 36 40.742 36.0233 40.7886 36.07C40.842 36.1167 40.882 36.16 40.9086 36.2L42.2486 38.19L43.5986 36.2C43.6253 36.16 43.6653 36.1167 43.7186 36.07C43.772 36.0233 43.842 36 43.9286 36H45.0986C45.152 36 45.1986 36.0233 45.2386 36.07C45.2853 36.11 45.3086 36.1567 45.3086 36.21C45.3086 36.2567 45.2953 36.2967 45.2686 36.33L43.2086 39.42L45.4286 42.67C45.442 42.69 45.4486 42.71 45.4486 42.73C45.4553 42.75 45.4586 42.77 45.4586 42.79C45.4586 42.8433 45.4386 42.8933 45.3986 42.94C45.3586 42.98 45.3086 43 45.2486 43H43.9786C43.892 43 43.822 42.9767 43.7686 42.93C43.722 42.8833 43.6853 42.8433 43.6586 42.81L42.1986 40.71L40.7486 42.81C40.7286 42.8433 40.692 42.8833 40.6386 42.93C40.592 42.9767 40.522 43 40.4286 43H39.2086Z" fill="white"/>
</svg>
